<?xml version="1.0" encoding="UTF-8"?>
<svg id="Camada_1" xmlns="http://www.w3.org/2000/svg" version="1.1" viewBox="0 0 595.28 841.89">
  <!-- Generator: Adobe Illustrator 29.0.0, SVG Export Plug-In . SVG Version: 2.1.0 Build 186)  -->
  <path d="M.14,841.29V-.06h595v841.34H.14ZM78.7,4.55H4.74v170.24c33.17-21.18,49.21-59.75,78.25-85.11-26.23,28.82-44.49,66.05-78.25,87.41v35.17c29.76-10.69,37.43-44.07,55.62-66.98,7.26-9.15,15.98-16.86,24.26-25.04l3.6-1.65c-14.28,12.82-27.03,27.94-37.35,44.13-3.8,5.96-6.27,12.81-10.01,18.79-8.64,13.82-19.65,27.75-36.13,32.06v122.91c10.68-3.43,20.51-8.97,29.57-15.45l-2.29,2.96c-8.51,6.08-17.51,11-27.28,14.79v29.91c15.86-4.74,29.09-14.9,40.76-26.28-9.8,13.41-24.39,23.69-40.76,27.6v18.4l57.86-4.6c-7.58-28.34-5.17-58.48-15.12-85.78l10.19,10.85c-4.28-18.18-5.63-36.9-13.47-54.23,6.64,3.52,12.28,8.39,17.07,14.14-7.53-28.91,6.01-54.63,7.91-82.82,2.35,1.8,1.16,8.59,3.93,9.2,4.37-19.52,14.19-37.17,24.37-54.25L78.7,4.55ZM177.98,4.55h-94.35c5.46,32.77,9.5,66.07,13.84,99.43,8.87,68.15,12.5,147.39,29.33,213.33,3.57,13.98,8.84,18.07,14.92,29.78,8.77,16.88,11.81,37.42,35.93,37.71l-12.4,3.39c-9.01,35.4-26.53,67.74-38.88,102.11,1.6-8.63,3.47-17.34,5.98-25.75,4.28-14.34,15.05-32.64,12.38-48.03-.08-.46-1.11-.51-1.21-1.01-1.96-9.85-4.8-19.36-7.29-29.06l11.16,33.52c2.87-8.36,8.62-44.76.49-49.12-1.48-.79-5.85-.71-8.36-1.83-29.13-12.95-33.94-48.53-20.37-74.88l-10.55-58.21c-8.75,31.45-10.14,64.82-3.92,96.95l-3.1-8.09c-14.17-34.14,5.29-70.6,5.77-102.34.24-15.97-4.9-56.52-8.04-72.86-.18-.92-.4-1.83-.53-2.76l-1.33-.95c-10.08,22-22.65,44.07-24.35,68.36l-3.27-11.83c-2.49,20.07-8.98,38.61-6.63,58.86.13,1.15,1.27.93,1.34,1.42,1.43,9.62,2.75,18.99,7.25,27.8l-22.33-27.94c8.42,16.92,7.97,36.31,13.87,54.35,2.34,7.17,8.01,15.02,9.14,22.56.2,1.37-.29,1.24-.98.32l-17.44-29.9c4.03,48.58,23.7,93.04,24.72,141.43.24,11.16-1,22.55-.39,33.74,5.05-22.89,21.41-44.99,24.23-68.12s-2.23-46.75-7.79-68.59c8.41,18.1,11.9,40.53,11.18,60.47l8.53-33.52c1.11,25.3-7,46.78-15.83,69.79-10.6,27.61-19.16,46.87-24.21,76.63-3.73,22.01-5.84,44.44,4.53,64.9l-4.59-1.98c-.1,5.15,1.89,11.86,4.29,16.74,9.8,19.93,26.36,12.14,44.36,14.81-1.79-1.32-4.48-8.58-5.27-9.2-2.31-1.83-16.92-5.65-22.56-9.66-14.75-10.48-25.02-31.79-8.93-46.17,12.69-11.34,19.03-1.12,31.52,3.21,20.04,6.95,68.47-1.87,56.36,31.41-4.02,11.06-23.13,22.18-34.36,22.18h-18.08l3.91,8.91c19.12,1.48,40.11,10.21,59.24,6.57,23.51-4.47,68.27-45.99,87.74-62.8,15.6-13.47,30.97-27.36,46.35-41.08,16.94-15.11,50.35-52.12,70.5-57.69,11.42-3.16,31.51-3.32,33.87,11.84,3.25,20.89-23.94,30.83-37.63,40.92-50.55,37.23-97.22,80.44-147.28,118.3-7.83,5.92-20.53,11.63-26.65,16.74-5.36,4.47-9.11,13.5-18.38,14.81l.65-3.93c-21.66,3.15-44.95-.99-66.08-5.9l11.2,13.12,1.95-2.62,15.12,9.86-4.26-6.26.97-.32c6.23,6.18,15.17,7.07,23.03,9.86l.98-.33-3.28-5.27,18.05,5.59-.3-4.59c1.43.24,2.63.84,4.16.62,22.74-3.26,53.82-35.45,72.83-49.51,27.44-20.31,65.8-41.46,96.66-56.52,9.88-4.82,20.01-9.88,30.81-12.25-13.38-1.98-25.56,6.05-38.12,9.22,16.19-8.31,35.76-17.97,53.91-9.22-25.26.96-47.13,16.65-69.03,27.62,17.81,1.45,37.14,1.95,52.59,11.81-15.27-5.14-33.41-9.47-49.62-8.52-15.49.91-27.77,11.56-41.1,18.38,17.99-1.57,36.81.58,53.27,8.2,24.87,11.51,37.18,36.86,59.87,51.22,12.56,7.95,26.85,12.63,41.02,16.84-.66-3.49-4.14-5.32-6.1-8.36-8.11-12.5-9.74-22.09-14.58-35.38-5.79-15.9-17.13-23.24-30.59-32.52l-1.64-1.64c-.18-1.83,22.48,14.33,24.11,15.34,9.11,5.63,19.19,9.58,27.47,16.57,9.95,8.4,17.49,21.69,28.01,29.18,8.88,6.31,20.58,9.61,30.84,12.87-2.44-3.08-5.77-5.19-8.52-8.24-20.17-22.46-21.01-59.46-37.88-86.36-15.57-24.82-36.73-39.16-67.34-34.24,13.95-4.73,30.49-3.05,43.19,4.48,7.27,4.31,13.14,12.97,19.97,16.85,10.01,5.68,20.34,7.07,30.79,14.57,23.72,17.03,24.39,45.9,50.37,62.04,4.42,2.75,9.64,5.37,14.78,6.25-13.73-13.76-20.38-31.93-21.01-51.29l1.3-.32c3.28,25.06,23.97,43.14,48,48.64v-32.54c-15.84-8.45-30.13-20.55-38.14-36.8,10.11,13.77,22.66,26.11,38.14,33.84v-45.68c-11.99-14.92-30.46-18.41-46.03-26.94-23.89-13.09-40.1-54.24-71.98-54.24h-14.14c7.27-3.6,15.31-5.26,22.8-8.43,26.3-11.12,49.92-30.18,81.08-25.1-11.54-12.34-26.48-18.01-43.39-15.78l35.5-18.39-75.6,7.23c18.13-7.91,38.3-5.19,57.51-7.26,18.29-1.96,35.89-8.04,54.26-9.18l-.12-9.09c-24.14-10.01-51.76-7.62-76.81-2.41l76.29-32.85c.74-.59.93-3.22.61-3.61-1.32-1.58-32-5.16-36.14-2.98,5.41.67,36.17-20.21,36.17-22.35v-18.08c-25.22,2.33-51.05,4.71-72.98,18.4,23.33-17.19,53.25-22.59,72.98-45.67v-24.65c-14.2,9.68-32.16,9.86-47.52,15.92-7.14,2.82-13.65,8-20.84,10.71,12.81-10.13,27.21-18.12,39.76-28.6,3.49-2.91,28.6-26.57,28.6-28.59v-18.08c-12.23,15.01-24.6,30.47-39.78,42.72-37.59,30.32-88.73,42.5-119.66,81.5,14.95-10.97,31.16-21.36,48.85-27.4,3.84-1.31,10.24-3.63,13.94-2.83-17.74,6-35.25,14.44-50.27,25.66-25.68,19.18-39.2,46.39-72.5,57.66-41.42,14.03-71.92-10.7-111.94,22.83-25.77,21.59-47.27,51.84-65.41,79.86,5.76-13.56,12.5-27.08,19.85-39.9,8.67-15.12,23.12-39.07,34.4-51.78,3.18-3.58,8.86-8.52,13.13-10.87l-7.88-3.93c.96-.41,1.89.65,2.3.65h14.46c17.66,0,47.84-21.72,60.82-33.19,78.98-69.78,137.91-157,216.95-226.12,13.74-12.02,28.08-23.7,42.74-34.5v-51.27c-62.55,15.64-119.78,41.69-169.94,82.17-32.28,26.06-63.27,55.26-89.41,87.42l-2.32.98c12.92-19.9,28.71-37.08,45.68-53.59,33.63-32.69,70.85-63.34,113.18-84.04,31.93-15.61,67.6-28.65,102.81-34.26V10.46c-45.14.04-89.26,13.28-130.16,31.23,38.98-21.46,85.44-34.12,130.16-33.85v-3.29h-153.52c-19.44,12.4-37.61,26.78-54.23,42.72,11.57-18.84,31.16-30.83,49.3-42.72h-39.12c-.98,0-5.24,5.38-7.23,5.27l3.61-5.26c-2.13.19-4.72-.41-6.75.14-3.5.94-27.35,23.91-31.08,28.09-6.21,6.96-12.33,15.19-16.09,23.68l-1.29-.31c1.06-6.15,4.04-16.48,3.92-22.39-.02-.97.51-1.89-.96-1.61-12.06,8.63-21.89,19.79-29.92,32.2l2.95-25.63-18.73,34.83,2.95-39.43c-6.82,8.41-11.33,20.37-12.83,30.89-1.82.19-1.05-.05-1.29-.99-1.37-5.22-1.01-13.17-2-18.72-1.64,3.94-4.59,12.07-4.59,16.1v9.53c-5.42-2.36-2.21-10.2-2.89-15.13-2.16-15.77-14.63-36.57-21.11-51.26h-26.63c14.92,21.6,24.03,47.62,29.26,72.97-8.72-24.83-18.22-49.38-29.91-72.97h-40.1c13.81,32.28,30.87,63.94,37.15,98.6L177.98,4.55ZM317.03,4.55h-63.77l19.71,45.36,6.26-12.49,2.95,10.51c5.01-18.92,17.51-34.42,34.85-43.38ZM376.2,4.55h-56.87c-3.38,0-23.97,19.25-25.95,24l5.24-2.31c-3.57,9.28-.28,18.15-1.96,27.6,3.84-7.65,7.94-17.29,15.77-21.03v15.45c0,.4-1.6,2.31-.01,2.29,6.63-10.26,17.33-16.91,27.3-23.65l-.67,15.11c11.27-13.54,22.81-26.99,37.15-37.46ZM589.88,264.84v-23.01c-10.95,12.89-22.8,24.9-36.83,34.51,12.91-1.09,25.16-6.15,36.83-11.5ZM589.88,316.76v-20.38c-10.72,9.21-21.8,18.18-34.85,23.99l34.85-3.62ZM121.64,301.78c-.06-.12-1.41-.56-1.83-.79.04,3.76-2.48,6.65-3.48,10-5.17,17.33-1.52,34.22,11.7,46.51-7.19-10.81-9.5-20.08-7.54-33.03.17-1.09,2.94-7.12,3.03-9.43.04-1.11-1.57-12.66-1.87-13.26ZM132.51,350.07c-4.97-6.36-2.16-9.52-3-15.08-.73-4.82-4.2-10.02-5.1-14.93-4.37,17.98.11,41.76,20.83,45.9l.82-.82c-1.18-1.46-3.09-8.49-3.85-9.31-.88-.96-6.98-2.27-9.7-5.74ZM420.91,321.37l-26.12,10.03c-.39,10.1.34,18.55-2.79,28.43-2.83,8.91-8.67,13.72-13.5,21.34,20.64-13.59,35.32-36.3,42.41-59.79ZM387.22,336.63l-8.99,2.91c1.92,8.27,2.41,16.06.05,24.32-5.81,20.34-39.34,29.04-44.47,3.52l-19.39,19.05c12.98.43,26.77,2.4,39.75,1.3,24.26-2.06,44-27.4,33.06-51.1ZM343.33,370c-1.16.68-2.44,2.68-4.55,2.69l.22,1.94c21.53,20.46,47.36-12,36.37-33.79l-8.37,3.53c7.8,14.9-5.39,40.88-21.7,24.31,1.63-2.28,1.6-5.98.65-8.54-5.88,2.59-11.76,3.97-8.53,11.83.26.17,5.38-1.66,5.91-1.97ZM589.88,360.14v-19.06l-23.01,16.42,23.01,2.64ZM589.88,369.35l-49.31,23.66c16.49-1.51,33.92-.24,49.31,5.92v-29.58ZM377.2,381.19c-1.28.92-1.16,1.87,0,.64v-.64ZM4.74,391.04v29.58c17.61-3.93,35.86-7.28,53.92-4.93l-53.92,7.56v24.98c18.1-5.59,36.7-11.32,55.89-11.5l-55.89,12.16v45.35c16.55-6.52,33.02-13.48,50.63-16.76l-50.63,20.05v15.12c15.64-7.22,31.95-14.34,48.66-18.08l-48.66,21.36v50.61c15.24-6.71,31.39-11.57,48-13.47-16.31,4.19-32.51,8.78-48,15.45v25.63c16.3-9.58,33.25-18.24,51.94-22.34-17.79,7.45-35.73,14.68-51.94,25.3v16.1c20.98-3,42.33-4,63.12.99-21.03-1.72-42.15-1.84-63.12.99v28.26c28.77-5.31,56.41,1.91,84.82,4.93-28.46,1.69-56.22-8.49-84.82-2.96v32.86c11.31-.14,23.28-1.67,34.55-1.35,46.18,1.31,87.16,26.08,132.79,30.26,17.13,1.57,34.6.85,51.61-.97-18.95,5.42-39.37,5.27-58.83,2.94-34.24-4.09-64.79-20.42-98.19-26.72-20.73-3.91-40.93-3.91-61.92-2.84v75.59c32.68-15.76,70.14-22.18,105.99-14.27l5.76,2.12c-38-7.31-77.19-2.88-111.75,14.45v62.77c32.7-7.02,63.06-6.94,95.02,3.27,5.33,1.7,29.21,13.16,30.89,13.16h77.25l-25.96-13.15,32.21,13.15h111.44c-.2-8.86,3.02-16.85,5.92-24.98h-12.16c-1.67,0-7.37-1.85-9.34-2.5-5.51-1.82-2.01-4.37-10.41-2.13-13.3,3.55-25.15,14.12-34.48,23.69-.9-12.83,3.91-23.93,9.85-34.83-14.77-5.86-26.89,6.58-37.47,15.11-.18-1.52.29-3.33-.03-4.79-3.96-17.95,28.9-57.65,45.7-64.9,11.91-5.14,25.19-3.24,37.82-6.89,11.66-3.37,21.79-12.4,33.83-13.5,10.68-.97,22.07,1.33,32.89.67,25.52-1.54,50.77-19.91,67.4-38.1-14.24-3.83-29.08-9.22-41.37-17.47-21.64-14.53-33.07-38.54-57.24-49.92-17.75-8.35-37.4-9.49-56.74-8.06-27.28,13.26-47.86,37.22-72.3,53.92-9.24,6.31-21.32,14.27-32.7,14.3l1.96,4.59-16.1-3.29.64,3.96-20.38-5.26c.69,4.99-6.17.99-8.45-.1-1.65-.79-6.01-4.3-6.73-4.46-1.24-.27-.82,1.24-1.36,1.27-5.04.24-7.37-5.82-11.84-7.45l-17.97-23.44-1.98,7.21c-8.51-2.12-17.01-12.86-20.2-20.85-.94-2.35-1.78-9.15-2.29-9.86-1.03-1.44-8.36-5.56-11.94-10.74-8.44-12.22-10.95-49.27-10.28-64.7,1.83-41.95,10.68-80.75,4.43-124.01-.62-4.32-5.47-28.7-7.15-30.97-2.03-2.76-22.78-1.37-27.19-1.13-11.11.62-22.16,2.56-33.18,3.97ZM589.88,413.39c-20.58,1.98-39.45,10.98-56.54,22.03l17.95,6.36,18.21,16.3c-15.67-3.22-30.81-1.28-45.82,3.82l-21.9,10.31c27.51,13.51,56.93,23.11,88.1,20.71v-79.53ZM408.26,471.38c-2.08-1.95-13.11-.42-16.14.31-21.29,5.1-75.13,62.72-94.47,80.41-5.11,4.67-10.9,8.89-16.17,13.44l11.43,16.02c11.78-6.71,9.8-22.75,13.61-34.08l12.95,13.04c10.83-5.68,7.36-15.46,8.69-25.25.16-1.18,1.19-.68,1.42-1.89.33-1.78-.33-4.36-.05-6.28l12.95,12.37c8.52-4.26,7.7-13.44,9.44-21.1.12-.51,1.16-.48,1.26-.95,1.07-5.1.58-11.9,2.66-17.28l12.79,16.41c1.72-2.8,6.68-6.58,8.11-8.99,2.89-4.89,6.66-25.13,9.33-27.48.47-.42.74-.39,1.32-.31l-1.3,2.61c7,5.43,7.39,18.81,17.45,9.25,3.9-3.71,9.33-15.94,4.74-20.25ZM589.88,494.89c-31.31,5.22-62.51-7.51-89.76-21.61l-25.96,12.4c10.23,1.45,21.82,6.8,30.07,13,16.99,12.78,22.05,31.05,42.47,41.68,14.64,7.62,31.16,11.4,43.18,24.21v-69.67ZM387.37,487.01c-2.71-1.41-5.66,15.95-6.55,17.74,2.1-1.18,12.93-6.21,13.01-8.21l-6.45-9.53ZM357.78,506.07l-1.3.33-2.62,22.67,11.74-10.32-7.82-12.68ZM330.19,551.42l9.22-9.57-7.59-10.15-1.63,19.71ZM302.57,573.76l13.7-10.94-8.11-10.74-5.58,21.68ZM272.08,596.54c1.62-2.7,9.67-29.41,7.15-29.34-16.76,14.59-33.67,29.03-50.65,43.36-1.56,1.32-7.83,4.85-8.26,5.58-1.48,2.51.13,17.21-3.22,21.39,16.01-3.84,13.27-14.89,17.42-27.59l8.21,10.22c1.2.7,1.96-.63,2.64-1.37,5.61-6.15,8.15-21.7,9.87-29.9l11.49,13.06c.67.05,4.87-4.6,5.35-5.41ZM283.29,572.67c-.67-.58-1.48-.99-2.41-.87l-5.26,22.34,13.71-10.34c.35-1.49-4.81-10.08-6.04-11.13ZM430.77,829.46h10.85c18.83,0,34.2-15.4,38.47-32.86l-1.66,11.15c9.15-5.45,20.37-8.71,28.92-15.12,11.24-8.43,17.59-23.2,26.11-34.36,16.14-21.13,36.42-38.33,56.39-55.36l-.05-49.53c-15.09-4.17-29.38-11.88-39.71-23.72,3.89,11.91,12.08,20.93,20.72,29.56-17.66-4.03-35.47-13.65-46.02-28.78-4.36-6.26-6.53-13.86-10.34-20.33-10.53-17.88-25.19-29.15-45.21-35.03,4.13,10.07,10.8,18.56,14.64,28.75,8.09,21.47,10.42,46.03,26.43,63.63l16.45,14.11c-13.48-1.26-27.04-4.56-38.75-11.54-19.79-11.8-28.4-36.43-51.98-43.66,6.53,13.04,8.78,27.86,16.33,40.53,4.78,8.02,12.05,14.07,18.51,20.59-2.57-1.24-9.51-3.4-12.04-2.52-1.51.53-10.84,11.02-13.27,13.03-15.78,13.07-35.49,25.95-56.56,27.59-10.84.85-22.17-1.57-32.89-.67-13.18,1.1-22.92,10.1-35.8,13.51-9.41,2.49-16.43,1.76-25.3,2.97-10.93,1.49-20.87,9.27-28.61,16.75l.32.97c13.65-7.11,23.9,8.29,20.38,21.03,14.53-13.59,25.46-38.59,47.98-40.11,12.97-.88,26.25,1.73,40.04-.06,9.71-1.26,19.56-5.09,28.68-8.45-11.41,7.76-27.36,12.32-41.09,13.18-11.49.72-23.34-3.27-34.54.26-9.5,3-17.71,13.24-23.64,20.72,22.33-8.73,33.77,16.88,18.1,32.24l-13.5,7.86c7.65,2.26,15.42,2.8,23.32,1.96,2.6-.77,5.58-8.59,7.58-11.29,3.19-4.3,10.73-10.59,12.95-13.86.89-1.31,1.8-5.89,3.36-8.15,20.61-30.01,26.12-17.48,56.03-22.86,10.79-1.94,21.01-6.31,30.87-10.86-10.52,8.58-26.14,14.79-39.79,15.75-8.86.62-15.22-1.91-23.97,1.01-8.93,2.98-16.16,12.64-21.04,20.37,6.48-3.32,12.26-5,19.1-1.36s7.11,10.38,9.83,15.83c-2.07,6.26-1.97,11.62-6.99,16.67-3.96,3.99-9.13,4.72-13.4,7.96,7.23,2.33,27.98,2.91,33.56-2.27.89-.82,6.94-12.33,8.29-14.64,3.54-6.06,7.01-14.83,11.75-19.88,8.41-8.96,20.64-10.55,31.22-15.78-10.66,11.1-27.42,10.75-34.83,26.62,17.88-15.35,45.89,3.25,31.82,25.24-4.67,7.29-11.47,8.64-18.03,13.2ZM259.44,597.17c-.41-.44-2.39-3.46-2.89-3.03l-5.26,20.38,12.84-10.5c.49-1.49-3.62-5.69-4.69-6.84ZM237.28,616.71c-.47-.32-1-.5-1.44-.86l-2.95,12.47c4.6-2.26,10.88-7.24,4.39-11.61ZM218.41,617.81l-29.49,13.89,7.8,28.16c14.61-6.19,21.25-27.3,21.69-42.06ZM109.48,627.48c-.49-.76.03-2.3-.53-3.09l-15.24-3.84-.87.87c-.73,7.25,10.98,23.42,18.41,25.32-.49-3.33,2.78-9.52,2.56-12.19-.15-1.76-3.34-5.52-4.33-7.06ZM123.64,625.79l-13.05-2.06c-.99.87,7.38,15.11,9.64,15.66l1.53.11,1.88-13.71ZM161.88,631.61l-36.82-5.26,12.82,19.05,3.28-13.78,12.49,16.4,8.22-16.41ZM132.52,643.21c-2.74-3.71-4.33-8.18-7.46-11.6l-1.17,10.37,11.34,4.75c1.08-1.82-2.11-2.71-2.71-3.53ZM179.38,648.47c1.03-1.37,8-15.82,6.83-16.55l-22.36.34,11.49,19.07h1.33c.43-1.33,2.14-2.11,2.71-2.87ZM163.18,635.56l-1.37.92-5.19,14.19,16.43,1.31c-3-5.71-8.16-10.04-9.87-16.42ZM142.79,636.22l-1.29.38-1.23,10.69,11.74,2.05-9.22-13.13ZM188.16,636.87l-7.88,14.45,11.57-2.59-3.69-11.86ZM589.87,709.17l-15.12,11.82,14.51-2.25.61-9.57ZM589.88,721c-7.01,1.28-15.9,1.12-22,5.28-15.26,10.39-31.07,35.23-41.76,50.09-19.79,27.5-27.84,19.8-48.61,36.38-15.9,12.69-16.95,22.09-42.36,19.9-2.49-.21-7.41-2.41-7.87-2.41-1.1,0-9.78,4.9-10.96,6.44h173.57c-.18-1.12.26-6.32,0-6.57-1.96-1.93-48.53-1.04-54.89-.64-13.1.83-26.08,3.34-39.14,4.26,30.68-6.54,62.75-10.07,94.02-5.59v-28.59l-1.04-.89-48.94,2.87c16.28-4.04,33.18-5.78,49.97-5.59v-47.98l-42.09,6.9,12.39-4.1,29.7-4.77v-24.98ZM283.28,767.22c-2.19-4.42-7.76-6.86-12.61-6.14-12.83,1.9-32.5,29.12-30.55,42.74,4.91-3.92,10.48-7.77,16.19-10.42,3.73-1.73,24.1-7.87,25.06-8.79,2.69-2.6,3.64-13.89,1.91-17.38ZM275.88,816.58c13.77-11.19,19.94-10.89,35.59-16.03,23.95-7.86,17.59-43.51-8.91-29.94-6.58,3.37-16.91,14.64-21.32,20.75-6.24,8.63-12.38,20.78-12.85,31.51,3.33-.8,5.13-4.38,7.49-6.3ZM329.53,835.37c6.21-5.81,13.33-12.18,20.82-16.32,8.08-4.46,23.71-7.41,28.82-13.91,10.58-13.46-1.13-34.4-18.05-24.62-16.68,9.64-31.59,35.47-31.59,54.84ZM395.93,836.69h14.79c.64,0,7.83-6.17,10.28-7.47,11.92-6.36,30.88-9.37,28.12-27.63-1.22-8.05-11.69-13.71-19.37-12.91-15.25,1.59-31.75,34.15-33.82,48.01ZM4.74,821.57v15.12h120.97c-37.15-18.94-80.2-22.47-120.97-15.12ZM333.47,836.69h59.83l4.6-17.74c-8.11,2.78-16.67,3.78-25.14,2.45-2.81-.44-9.68-3.56-11.35-3.51-5.03.15-24.68,13.68-27.94,18.8Z"/>
  <path d="M345.3,368.69c-1.03,1.44-1.13.82-1.97,1.31.34-.2.46-1.55,1.97-1.31Z"/>
  <rect x=".14" y="841.29" width="595" height=".66" fill="#fff"/>
  <path d="M4.74,391.04c11.02-1.41,22.06-3.35,33.18-3.97,4.41-.25,25.16-1.63,27.19,1.13,1.68,2.27,6.53,26.66,7.15,30.97,6.25,43.26-2.6,82.06-4.43,124.01-.67,15.44,1.84,52.49,10.28,64.7,3.58,5.18,10.91,9.3,11.94,10.74.51.72,1.36,7.51,2.29,9.86,3.19,7.99,11.69,18.74,20.2,20.85l1.98-7.21,17.97,23.44c4.48,1.63,6.8,7.69,11.84,7.45.54-.03.12-1.54,1.36-1.27.73.16,5.09,3.67,6.73,4.46,2.27,1.09,9.13,5.09,8.45.1l20.38,5.26-.64-3.96,16.1,3.29-1.96-4.59c11.38-.03,23.46-7.99,32.7-14.3,24.44-16.7,45.02-40.66,72.3-53.92,19.34-1.43,38.99-.29,56.74,8.06,24.17,11.38,35.6,35.39,57.24,49.92,12.29,8.25,27.12,13.64,41.37,17.47-16.63,18.19-41.88,36.56-67.4,38.1-10.82.65-22.21-1.65-32.89-.67-12.04,1.1-22.17,10.13-33.83,13.5-12.62,3.65-25.91,1.75-37.82,6.89-16.8,7.25-49.67,46.95-45.7,64.9.32,1.46-.14,3.27.03,4.79,10.58-8.53,22.7-20.97,37.47-15.11-5.95,10.9-10.75,22-9.85,34.83,9.33-9.57,21.18-20.14,34.48-23.69,8.4-2.24,4.9.31,10.41,2.13,1.97.65,7.67,2.5,9.34,2.5h12.16c-2.9,8.12-6.11,16.11-5.92,24.98h-111.44s-32.21-13.16-32.21-13.16l25.96,13.15h-77.25c-1.68,0-25.56-11.45-30.89-13.16-31.95-10.21-62.32-10.3-95.02-3.27v-62.77c34.56-17.33,73.76-21.76,111.75-14.45l-5.76-2.12c-35.85-7.91-73.31-1.49-105.99,14.27v-75.59c20.99-1.07,41.18-1.07,61.92,2.84,33.41,6.3,63.95,22.62,98.19,26.72,19.46,2.33,39.88,2.49,58.83-2.94-17,1.82-34.47,2.54-51.61.97-45.63-4.17-86.6-28.95-132.79-30.26-11.27-.32-23.24,1.21-34.55,1.35v-32.86c28.6-5.53,56.36,4.65,84.82,2.96-28.41-3.02-56.05-10.24-84.82-4.93v-28.26c20.98-2.83,42.09-2.7,63.12-.99-20.8-4.99-42.14-3.99-63.12-.99v-16.1c16.21-10.62,34.15-17.85,51.94-25.3-18.69,4.1-35.63,12.76-51.94,22.34v-25.63c15.49-6.67,31.69-11.26,48-15.45-16.62,1.9-32.77,6.77-48,13.47v-50.61l48.66-21.36c-16.71,3.73-33.02,10.86-48.66,18.08v-15.12l50.63-20.05c-17.62,3.28-34.08,10.24-50.63,16.76v-45.35l55.89-12.16c-19.19.19-37.79,5.91-55.89,11.5v-24.98l53.92-7.56c-18.05-2.35-36.31,1-53.92,4.93v-29.58ZM362.4,646.06c-20.81-11.82-48.94-26.01-72.97-16.75,25.49-4.94,49.91,7.59,72.97,16.75ZM401.18,682.23c-25.58-10.77-52.1-21.43-79.98-24.88-24.59-3.05-48.8-.92-73.2,2.53,14.12.43,28.26-1.61,42.43-1.35,21.94.4,43.73,3.85,64.87,9.42,15.48,4.08,30.57,10.49,45.88,14.28ZM384.09,701.29c-49.42-7.74-97.15-28.37-147.92-14.46,29.06-3.98,57.71-2.13,86.37,3.36,20.29,3.89,40.84,11.33,61.55,11.1ZM15.26,707.19c34.02-4.7,69.38-1.17,101.89,9.55l-5.07-2.81c-27.29-11.14-57.46-12.51-86.54-9.27l-10.28,2.53ZM281.53,729.55c-47.67-2.36-95.85,5.5-140.69,21.02,45.96-11.6,93.05-20.08,140.69-21.02ZM217.75,801.86c-22.88-2.76-43.68-13.4-65.98-18.5-35.45-8.1-69.84-4.37-104.95,3.38,24.79-2.64,49.46-7.18,74.6-5.25,27.7,2.12,50.38,12.2,76.6,18.07,6.18,1.38,13.55,3.47,19.72,2.3ZM45.83,787.39v.66l.33-.33-.33-.33Z" fill="#fff"/>
  <path d="M78.7,4.55l18.78,136.37c-10.19,17.08-20,34.73-24.37,54.25-2.77-.61-1.59-7.4-3.93-9.2-1.89,28.18-15.44,53.9-7.91,82.82-4.79-5.75-10.43-10.62-17.07-14.14,7.83,17.34,9.19,36.05,13.47,54.23l-10.19-10.85c9.95,27.31,7.54,57.45,15.12,85.78l-57.86,4.6v-18.4c16.37-3.91,30.96-14.19,40.76-27.6-11.67,11.39-24.9,21.54-40.76,26.28v-29.91c9.78-3.79,18.77-8.71,27.28-14.79l2.29-2.96c-9.06,6.48-18.89,12.03-29.57,15.45v-122.91c16.48-4.31,27.49-18.25,36.13-32.06,3.74-5.98,6.21-12.83,10.01-18.79,10.31-16.19,23.06-31.31,37.35-44.13l-3.6,1.65c-8.28,8.18-17,15.89-24.26,25.04-18.19,22.92-25.85,56.29-55.62,66.98v-35.17c33.75-21.36,52.01-58.59,78.25-87.41-29.04,25.37-45.08,63.93-78.25,85.11V4.55h73.96ZM39.84,52.12c7.99-11.03,18.89-21.39,29.31-30.17-24.82,15.01-48.49,47.19-50.64,76.88-.44,6.05,1.21,32.69,5.3,36.51.06.05,1.38.24,1.29-.31-11.82-28.64-2.6-58.99,14.73-82.91ZM71.79,54.49c.08-.1.24-1.38-.32-1.3-21.3,13.93-36.35,39.03-39.12,64.41,4.94-19.97,15.48-41.05,29.88-55.89,1.96-2.02,8.45-5.8,9.55-7.22ZM73.12,164.93l-10.04,16.6c-10.94,30.19-28.17,55.71-51.09,78.04,31.42-24.18,47.28-58.59,61.14-94.64Z" fill="#fff"/>
  <path d="M589.88,721v24.98l-29.7,4.77-12.39,4.1,42.09-6.9v47.98c-16.8-.19-33.69,1.55-49.97,5.59l48.94-2.87,1.04.89v28.59c-31.27-4.49-63.34-.95-94.02,5.59,13.06-.92,26.05-3.43,39.14-4.26,6.35-.4,52.93-1.29,54.89.64.26.25-.19,5.46,0,6.57h-173.57c1.18-1.54,9.86-6.43,10.96-6.44.46,0,5.37,2.19,7.87,2.41,25.41,2.18,26.47-7.22,42.36-19.9,20.77-16.58,28.82-8.88,48.61-36.38,10.7-14.86,26.5-39.69,41.76-50.09,6.1-4.15,14.99-4,22-5.28Z" fill="#fff"/>
  <path d="M589.88,494.89v69.67c-12.02-12.81-28.54-16.59-43.18-24.21-20.42-10.62-25.48-28.9-42.47-41.68-8.24-6.2-19.84-11.55-30.07-13l25.96-12.4c27.24,14.11,58.45,26.83,89.76,21.61ZM564.89,509.34c-11.04-3.86-22.69-6.04-33.71-10-9.44-3.39-18.44-7.95-27.43-12.33,17.69,12.42,39.58,20.24,61.14,22.33Z" fill="#fff"/>
  <path d="M589.88,413.39v79.53c-31.17,2.39-60.6-7.2-88.1-20.71l21.9-10.31c15.01-5.1,30.15-7.04,45.82-3.82l-18.21-16.3-17.95-6.36c17.08-11.05,35.96-20.05,56.54-22.03Z" fill="#fff"/>
  <path d="M408.26,471.38c4.59,4.31-.83,16.54-4.74,20.25-10.06,9.57-10.45-3.81-17.45-9.25l1.3-2.61c-.58-.07-.85-.1-1.32.31-2.67,2.36-6.44,22.6-9.33,27.48-1.43,2.41-6.39,6.19-8.11,8.99l-12.79-16.41c-2.09,5.37-1.59,12.18-2.66,17.28-.1.47-1.14.44-1.26.95-1.73,7.66-.92,16.84-9.44,21.1l-12.95-12.37c-.28,1.92.37,4.5.05,6.28-.22,1.22-1.26.72-1.42,1.89-1.33,9.78,2.14,19.56-8.69,25.25l-12.95-13.04c-3.81,11.33-1.83,27.36-13.61,34.08l-11.43-16.02c5.27-4.54,11.06-8.76,16.17-13.44,19.34-17.69,73.18-75.32,94.47-80.41,3.03-.72,14.06-2.26,16.14-.31Z" fill="#fff"/>
  <path d="M4.74,821.57c40.77-7.35,83.82-3.83,120.97,15.12H4.74v-15.12Z" fill="#fff"/>
  <path d="M395.93,836.69c2.07-13.87,18.57-46.43,33.82-48.01,7.68-.8,18.15,4.86,19.37,12.91,2.76,18.26-16.2,21.27-28.12,27.63-2.45,1.31-9.64,7.47-10.28,7.47h-14.79Z" fill="#fff"/>
  <path d="M275.88,816.58c-2.37,1.92-4.16,5.5-7.49,6.3.47-10.73,6.62-22.88,12.85-31.51,4.42-6.11,14.74-17.38,21.32-20.75,26.49-13.57,32.86,22.08,8.91,29.94-15.65,5.13-21.81,4.84-35.59,16.03Z" fill="#fff"/>
  <path d="M329.53,835.37c0-19.37,14.91-45.2,31.59-54.84,16.93-9.78,28.63,11.16,18.05,24.62-5.11,6.5-20.74,9.45-28.82,13.91-7.49,4.13-14.6,10.51-20.82,16.32Z" fill="#fff"/>
  <path d="M317.03,4.55c-17.34,8.96-29.84,24.46-34.85,43.38l-2.95-10.51-6.26,12.49-19.71-45.36h63.77Z" fill="#fff"/>
  <path d="M272.08,596.54c-.48.81-4.68,5.46-5.35,5.41l-11.49-13.06c-1.72,8.2-4.25,23.75-9.87,29.9-.67.74-1.43,2.07-2.64,1.37l-8.21-10.22c-4.15,12.7-1.41,23.75-17.42,27.59,3.34-4.18,1.73-18.88,3.22-21.39.43-.73,6.7-4.26,8.26-5.58,16.98-14.33,33.89-28.77,50.65-43.36,2.52-.07-5.53,26.64-7.15,29.34Z" fill="#fff"/>
  <path d="M283.28,767.22c1.73,3.49.79,14.79-1.91,17.38-.96.92-21.33,7.06-25.06,8.79-5.71,2.66-11.28,6.51-16.19,10.42-1.95-13.62,17.71-40.83,30.55-42.74,4.85-.72,10.42,1.72,12.61,6.14Z" fill="#fff"/>
  <path d="M387.22,336.63c10.95,23.7-8.8,49.04-33.06,51.1-12.98,1.1-26.78-.87-39.75-1.3l19.39-19.05c5.14,25.52,38.67,16.82,44.47-3.52,2.36-8.27,1.88-16.05-.05-24.32l8.99-2.91Z" fill="#fff"/>
  <path d="M333.47,836.69c3.26-5.12,22.91-18.65,27.94-18.8,1.67-.05,8.54,3.07,11.35,3.51,8.47,1.33,17.03.32,25.14-2.45l-4.6,17.74h-59.83Z" fill="#fff"/>
  <path d="M589.88,369.35v29.58c-15.39-6.16-32.82-7.43-49.31-5.92l49.31-23.66Z" fill="#fff"/>
  <path d="M218.41,617.81c-.44,14.76-7.08,35.87-21.69,42.06l-7.8-28.16,29.49-13.89Z" fill="#fff"/>
  <path d="M343.33,370c-.53.3-5.65,2.14-5.91,1.97-3.23-7.86,2.65-9.23,8.53-11.83.95,2.56.98,6.26-.65,8.54-1.51-.24-1.63,1.12-1.97,1.31Z" fill="#fff"/>
  <path d="M345.3,368.69c16.3,16.57,29.5-9.41,21.7-24.31l8.37-3.53c10.99,21.79-14.84,54.25-36.37,33.79l-.22-1.94c2.11-.01,3.39-2.01,4.55-2.69.84-.49.94.12,1.97-1.31Z" fill="#fff"/>
  <path d="M589.88,264.84c-11.67,5.35-23.92,10.41-36.83,11.5,14.02-9.61,25.87-21.62,36.83-34.51v23.01Z" fill="#fff"/>
  <polygon points="161.88 631.61 153.65 648.03 141.16 631.62 137.88 645.41 125.06 626.36 161.88 631.61" fill="#fff"/>
  <path d="M589.88,316.76l-34.85,3.62c13.05-5.81,24.14-14.78,34.85-23.99v20.38Z" fill="#fff"/>
  <path d="M109.48,627.48c.98,1.54,4.18,5.3,4.33,7.06.22,2.67-3.06,8.86-2.56,12.19-7.43-1.9-19.14-18.07-18.41-25.32l.87-.87,15.24,3.84c.56.79.04,2.33.53,3.09Z" fill="#fff"/>
  <path d="M132.51,350.07c2.72,3.47,8.82,4.78,9.7,5.74.75.82,2.67,7.85,3.85,9.31l-.82.82c-20.72-4.13-25.2-27.92-20.83-45.9.89,4.91,4.37,10.12,5.1,14.93.84,5.57-1.97,8.72,3,15.08Z" fill="#fff"/>
  <path d="M121.64,301.78c.31.59,1.92,12.15,1.87,13.26-.08,2.31-2.86,8.33-3.03,9.43-1.96,12.96.36,22.23,7.54,33.03-13.22-12.28-16.87-29.18-11.7-46.51,1-3.36,3.52-6.24,3.48-10,.42.23,1.77.67,1.83.79Z" fill="#fff"/>
  <path d="M179.38,648.47c-.58.77-2.29,1.54-2.71,2.87h-1.33s-11.49-19.07-11.49-19.07l22.36-.34c1.18.73-5.8,15.18-6.83,16.55Z" fill="#fff"/>
  <polygon points="589.88 360.14 566.87 357.51 589.88 341.08 589.88 360.14" fill="#fff"/>
  <path d="M283.29,572.67c1.22,1.05,6.38,9.63,6.04,11.13l-13.71,10.34,5.26-22.34c.93-.12,1.74.3,2.41.87Z" fill="#fff"/>
  <polygon points="357.78 506.07 365.6 518.75 353.86 529.07 356.48 506.4 357.78 506.07" fill="#fff"/>
  <path d="M163.18,635.56c1.71,6.39,6.86,10.72,9.87,16.42l-16.43-1.31,5.19-14.19,1.37-.92Z" fill="#fff"/>
  <polygon points="302.57 573.76 308.15 552.08 316.27 562.82 302.57 573.76" fill="#fff"/>
  <path d="M123.64,625.79l-1.88,13.71-1.53-.11c-2.27-.54-10.63-14.79-9.64-15.66l13.05,2.06Z" fill="#fff"/>
  <path d="M259.44,597.17c1.07,1.15,5.19,5.36,4.69,6.84l-12.84,10.5,5.26-20.38c.5-.43,2.48,2.59,2.89,3.03Z" fill="#fff"/>
  <path d="M387.37,487.01l6.45,9.53c-.08,2-10.91,7.03-13.01,8.21.89-1.79,3.84-19.15,6.55-17.74Z" fill="#fff"/>
  <polygon points="330.19 551.42 331.82 531.7 339.41 541.85 330.19 551.42" fill="#fff"/>
  <polygon points="188.16 636.87 191.85 648.73 180.28 651.32 188.16 636.87" fill="#fff"/>
  <polygon points="589.87 709.17 589.26 718.74 574.76 720.99 589.87 709.17" fill="#fff"/>
  <polygon points="142.79 636.22 152.01 649.35 140.27 647.29 141.5 636.6 142.79 636.22" fill="#fff"/>
  <path d="M132.52,643.21c.61.82,3.79,1.7,2.71,3.53l-11.34-4.75,1.17-10.37c3.13,3.42,4.71,7.89,7.46,11.6Z" fill="#fff"/>
  <path d="M237.28,616.71c6.48,4.37.21,9.35-4.39,11.61l2.95-12.47c.45.35.97.54,1.44.86Z" fill="#fff"/>
  <path d="M420.91,321.37c-7.09,23.49-21.77,46.2-42.41,59.79,4.82-7.62,10.67-12.42,13.5-21.34,3.14-9.88,2.41-18.33,2.79-28.43l26.12-10.03Z" fill="#fff"/>
  <path d="M377.2,381.19v.64c-1.16,1.23-1.28.28,0-.64Z" fill="#fff"/>
  <path d="M376.2,4.55c-14.34,10.47-25.88,23.92-37.15,37.46l.67-15.11c-9.96,6.74-20.67,13.39-27.3,23.65-1.59.01.01-1.9.01-2.29v-15.45c-7.83,3.74-11.93,13.38-15.77,21.03,1.68-9.46-1.61-18.32,1.96-27.6l-5.24,2.31c1.99-4.75,22.57-24,25.95-24h56.87Z" fill="#fff"/>
  <path d="M177.98,4.55l40.76,98.6c-6.28-34.67-23.34-66.33-37.15-98.6h40.1c11.7,23.59,21.2,48.14,29.91,72.97-5.22-25.35-14.34-51.37-29.26-72.97h26.63c6.49,14.69,18.95,35.49,21.11,51.26.68,4.93-2.54,12.76,2.89,15.13v-9.53c0-4.03,2.96-12.16,4.59-16.1.99,5.56.63,13.5,2,18.72.25.94-.52,1.18,1.29.99,1.5-10.52,6.01-22.48,12.83-30.89l-2.95,39.43,18.73-34.83-2.95,25.63c8.03-12.41,17.86-23.57,29.92-32.2,1.47-.28.94.64.96,1.61.12,5.91-2.86,16.24-3.92,22.39l1.29.31c3.77-8.49,9.88-16.73,16.09-23.68,3.73-4.18,27.58-27.14,31.08-28.09,2.04-.55,4.62.05,6.75-.14l-3.61,5.26c1.99.11,6.25-5.27,7.23-5.27h39.12c-18.15,11.89-37.74,23.89-49.3,42.72,16.63-15.95,34.79-30.32,54.23-42.72h153.52v3.29c-44.72-.26-91.18,12.39-130.16,33.85,40.9-17.94,85.02-31.19,130.16-31.23v36.15c-35.22,5.61-70.88,18.64-102.81,34.26-42.33,20.7-79.55,51.35-113.18,84.04-16.98,16.51-32.76,33.69-45.68,53.59l2.32-.98c26.15-32.16,57.13-61.36,89.41-87.42,50.16-40.48,107.4-66.53,169.94-82.17v51.27c-14.66,10.81-29,22.48-42.74,34.5-79.04,69.12-137.97,156.35-216.95,226.12-12.98,11.47-43.16,33.19-60.82,33.19h-14.46c-.41,0-1.35-1.06-2.3-.65l7.88,3.93c-4.27,2.35-9.95,7.29-13.13,10.87-11.29,12.71-25.73,36.66-34.4,51.78-7.35,12.81-14.09,26.34-19.85,39.9,18.14-28.02,39.64-58.27,65.41-79.86,40.03-33.54,70.52-8.8,111.94-22.83,33.3-11.28,46.82-38.49,72.5-57.66,15.02-11.22,32.53-19.66,50.27-25.66-3.7-.81-10.1,1.51-13.94,2.83-17.68,6.04-33.89,16.43-48.85,27.4,30.93-39,82.06-51.18,119.66-81.5,15.19-12.25,27.56-27.71,39.78-42.72v18.08c0,2.02-25.11,25.68-28.6,28.59-12.55,10.48-26.95,18.47-39.76,28.6,7.19-2.71,13.7-7.89,20.84-10.71,15.36-6.06,33.32-6.24,47.52-15.92v24.65c-19.73,23.09-49.65,28.48-72.98,45.67,21.92-13.69,47.76-16.07,72.98-18.4v18.08c0,2.14-30.76,23.02-36.17,22.35,4.14-2.17,34.82,1.41,36.14,2.98.32.38.13,3.02-.61,3.61l-76.29,32.85c25.06-5.21,52.67-7.59,76.81,2.41l.12,9.09c-18.37,1.14-35.97,7.22-54.26,9.18-19.21,2.06-39.38-.66-57.51,7.26l75.6-7.23-35.5,18.39c16.92-2.24,31.85,3.43,43.39,15.78-31.15-5.08-54.77,13.99-81.08,25.1-7.49,3.16-15.53,4.82-22.8,8.43h14.14c31.88,0,48.09,41.15,71.98,54.24,15.58,8.53,34.04,12.02,46.03,26.94v45.68c-15.48-7.73-28.04-20.07-38.14-33.84,8.02,16.24,22.3,28.35,38.14,36.8v32.54c-24.03-5.51-44.72-23.59-48-48.64l-1.3.32c.63,19.37,7.28,37.53,21.01,51.29-5.14-.88-10.36-3.5-14.78-6.25-25.97-16.14-26.64-45.01-50.37-62.04-10.45-7.5-20.78-8.89-30.79-14.57-6.82-3.87-12.69-12.53-19.97-16.85-12.7-7.53-29.23-9.21-43.19-4.48,30.61-4.92,51.77,9.42,67.34,34.24,16.87,26.9,17.71,63.9,37.88,86.36,2.74,3.05,6.07,5.16,8.52,8.24-10.26-3.26-21.97-6.56-30.84-12.87-10.53-7.48-18.06-20.78-28.01-29.18-8.29-6.99-18.36-10.95-27.47-16.57-1.63-1-24.29-17.17-24.11-15.34l1.64,1.64c13.46,9.28,24.8,16.62,30.59,32.52,4.84,13.29,6.47,22.88,14.58,35.38,1.97,3.03,5.44,4.87,6.1,8.36-14.16-4.2-28.45-8.89-41.02-16.84-22.69-14.36-35.01-39.71-59.87-51.22-16.46-7.62-35.28-9.78-53.27-8.2,13.33-6.82,25.61-17.47,41.1-18.38,16.21-.95,34.36,3.38,49.62,8.52-15.45-9.86-34.78-10.37-52.59-11.81,21.9-10.98,43.76-26.66,69.03-27.62-18.15-8.75-37.72.91-53.91,9.22,12.57-3.17,24.74-11.2,38.12-9.22-10.8,2.37-20.93,7.43-30.81,12.25-30.86,15.06-69.22,36.21-96.66,56.52-19.01,14.07-50.1,46.25-72.83,49.51-1.53.22-2.73-.38-4.16-.62l.3,4.59-18.05-5.59,3.28,5.27-.98.33c-7.86-2.78-16.79-3.67-23.03-9.86l-.97.32,4.26,6.26-15.12-9.86-1.95,2.62-11.2-13.12c21.13,4.91,44.42,9.05,66.08,5.9l-.65,3.93c9.27-1.31,13.02-10.34,18.38-14.81,6.12-5.11,18.82-10.82,26.65-16.74,50.07-37.86,96.74-81.07,147.28-118.3,13.69-10.09,40.88-20.03,37.63-40.92-2.36-15.15-22.45-15-33.87-11.84-20.15,5.57-53.56,42.58-70.5,57.69-15.39,13.72-30.75,27.62-46.35,41.08-19.47,16.81-64.24,58.33-87.74,62.8-19.13,3.64-40.12-5.09-59.24-6.57l-3.91-8.91h18.08c11.23,0,30.34-11.12,34.36-22.18,12.1-33.28-36.33-24.46-56.36-31.41-12.49-4.33-18.83-14.55-31.52-3.21-16.09,14.38-5.83,35.69,8.93,46.17,5.64,4.01,20.24,7.83,22.56,9.66.78.62,3.47,7.87,5.27,9.2-18-2.67-34.56,5.12-44.36-14.81-2.4-4.89-4.39-11.6-4.29-16.74l4.59,1.98c-10.37-20.46-8.26-42.89-4.53-64.9,5.05-29.77,13.6-49.02,24.21-76.63,8.84-23.01,16.94-44.49,15.83-69.79l-8.53,33.52c.72-19.93-2.77-42.37-11.18-60.47,5.56,21.84,10.55,45.93,7.79,68.59s-19.18,45.23-24.23,68.12c-.61-11.19.62-22.58.39-33.74-1.03-48.39-20.69-92.86-24.72-141.43l17.44,29.9c.69.92,1.19,1.05.98-.32-1.12-7.54-6.79-15.39-9.14-22.56-5.9-18.04-5.45-37.43-13.87-54.35l22.33,27.94c-4.5-8.8-5.82-18.17-7.25-27.8-.07-.48-1.21-.26-1.34-1.42-2.35-20.25,4.15-38.79,6.63-58.86l3.27,11.83c1.69-24.29,14.27-46.36,24.35-68.36l1.33.95c.13.93.35,1.84.53,2.76,3.14,16.35,8.29,56.89,8.04,72.86-.48,31.74-19.94,68.19-5.77,102.34l3.1,8.09c-6.22-32.13-4.83-65.49,3.92-96.95l10.55,58.21c-13.57,26.35-8.76,61.92,20.37,74.88,2.52,1.12,6.88,1.04,8.36,1.83,8.13,4.35,2.38,40.75-.49,49.12l-11.16-33.52c2.48,9.7,5.32,19.21,7.29,29.06.1.5,1.13.54,1.21,1.01,2.67,15.39-8.09,33.69-12.38,48.03-2.51,8.41-4.39,17.12-5.98,25.75,12.36-34.37,29.87-66.71,38.88-102.11l12.4-3.39c-24.12-.28-27.16-20.82-35.93-37.71-6.08-11.71-11.35-15.79-14.92-29.78-16.84-65.95-20.46-145.19-29.33-213.33-4.34-33.36-8.38-66.66-13.84-99.43h94.35ZM376.2,14.41l-5.55,3.31c-9.42,7.53-19.08,16.72-23.37,28.23,8.56-11.42,17.67-22.59,28.92-31.54ZM519.53,28.87c-50.56,8.15-100.9,32.23-134.11,71.64,37.04-35.78,84.32-59.06,134.11-71.64ZM582.64,34.13c-56.62,2.12-112.13,27.57-155.81,62.43,46.9-31.4,99.17-55.47,155.81-62.43ZM123.07,36.75c.05-.05.05-1.25,0-1.31-.84-.85-.84,2.15,0,1.31ZM132.54,73.33c-2.83-11.88-5.85-23.73-8.8-35.58l-.59,1.23,31.48,168.67c-.99-23.18-4.12-46.31-8.08-69.14-3.74-21.57-9.06-44.38-14.02-65.17ZM364.11,62.79c3.42-5.27,7.29-11.45,9.14-17.48-13.6,8.07-30.92,15.36-38.14,29.57l33.54-24.97-20.71,33.51,14.27-11.69,21.89-11.3c-12.63,17.53-29.34,31.83-41.1,49.93,16.79-16.92,32.9-34.28,47.01-53.56-11.52.88-22.29,8.74-31.89,14.78,1.04-3.44,4.18-5.99,6-8.79ZM259.44,68.71c-.53-1.02-1.04-1.81-.93-3.03-.64,5.49,2.56,11.41,3.76,16.95,6.04,27.8,8.42,56.8,6.75,85.24-.73,12.5-3.61,25.51-3.28,37.8,5.83-22.9,8.58-45.48,7.27-69.36-.92-16.69-6.08-53.3-13.57-67.6ZM178.62,70.58c-.34-.36-.36-1.64-.97-.62,20.78,54.55,35.26,113.16,37.48,171.56l1.31.97c.91-21.85-1.89-42.8-5.47-63.87-4.61-27.14-12.1-52.75-21.01-78.28-1.91-5.48-8.4-26.67-11.34-29.76ZM352.12,152.02c20.04-26.04,42.47-50.14,65.84-73.19-4.61,4.25-10.03,7.44-14.81,11.48-27.69,23.42-59.7,63.87-77.26,95.63-2.08,3.77-5.77,9.92-5.58,13.81,8.84-16.83,20.21-32.65,31.81-47.73ZM293.36,86.72c-1.86-.34-1.09.44-1.49,1.43-4.21,10.57-7.52,28.28-9.62,39.18-1.98,10.26-2.72,20.76-4.67,31.02l15.77-71.64ZM521.9,132.45c15.01-13.34,30.89-25.98,45.3-39.82-27.19,20.93-54.48,42.21-79.16,66.12-11.76,11.4-23.23,23.41-32.29,37.06,7.46-7.54,14.44-15.57,22-23.02,14.15-13.93,29.3-27.16,44.14-40.34ZM293.04,134.03v.66l.33-.33-.33-.33ZM283.22,181.75c3.73-15.19,7.68-30.8,8.84-46.39l-38.79,134.74c13.14-28.37,22.5-57.98,29.95-88.35ZM213.49,144.83c-.31-.41-.49-1.57-1-.6,2.85,9.53,4.55,19.66,5.83,29.66,2.53,19.73,3.88,39.83,3.4,59.75-.29,11.88-2.12,24.21-2,35.8,4.93-31.64,5.3-63.73.45-95.42-.78-5.1-4.32-26.05-6.69-29.18ZM421.99,210.7c13.75-14.83,28.1-29.15,41.34-44.44-29.18,27.36-57.82,56.06-80.88,88.7,12.4-15.49,26.09-29.75,39.54-44.26ZM80.34,273.38c-3.08-16.42-1.99-32.83-.32-49.3-4.52,15.89-5.35,33.53.32,49.3ZM309.14,231.32c-1.29.35-3.65,3.29-4.48,4.36-19.48,25.17-69.15,100.52-71.77,130.07-.99,11.13.35,18.54,10.84,23.96-6.42-8.14-8.96-14.77-7.62-25.33,1.95-15.29,15.06-40.39,23.09-54.33,15.37-26.69,34.92-51.68,49.93-78.72ZM343.1,321.13c28.52-28.59,57.38-57.01,82.75-88.49l-82.75,88.49ZM132.51,252.16l-.89-8.35c-.76,20.89,2.88,43.34,8.89,63.75,1.36,4.63,2.25,9.61,5.58,13.14l-13.58-68.54ZM582.65,285.22c-19.33,15.37-47.77,10.15-66.4,26.28,20.68-12.31,49.16-7.96,66.4-26.28ZM237.22,296.78c.78-1.39,3.94-5.12,2.24-6.31-18.3,27.39-35.57,55.93-45.37,87.41,14.83-26.76,28.11-54.36,43.12-81.11ZM271.25,322.25c5.07-7.76,10.94-15.25,16.18-22.91-17.08,18.67-32.12,39.88-40.42,64.08,8.28-13.58,15.52-27.82,24.24-41.17ZM86.54,337.53c-2.26-6.84-5.3-17.66-8.91-23.64-.41-.68-1.38-2-1.21-.11,8.25,21.82,14.28,44.25,20.36,66.73-1.56-14.85-5.59-28.94-10.24-42.99ZM520.84,318.09l-11.51,3.27c-13.14,5.32-27.09,10.15-37.8,19.72l49.31-22.99ZM173.05,369.34c-3.38-12.14-2.33-25.11-4.59-37.45.11,10.87-.5,22.95,2.3,33.51.28,1.07.59,4.39,2.3,3.94ZM191.19,370.4c4.31-10.15,7.32-22.54,10.13-33.26-5.81,11.27-10.27,24.25-12.48,36.8.43-.54,2.21-3.21,2.35-3.54ZM564.89,341.09c-24.29,13.76-55.04,5.42-78.89,19.7,25.11-11.04,56.44-2.48,78.89-19.7ZM493.23,347.66c-23.76,3.25-44.73,13.41-63.77,27.59l36.81-13.81-18.74,5.25c13.25-10.39,30.51-12.77,45.7-19.04ZM74.69,361.2c-1.53-2.86-2.85-6.54-4.36-9.12-.43-.74-1.11-2.16-1.15-.17l20.36,48.98c-2.46-14.01-8.18-27.21-14.85-39.69ZM183.56,375.26l1.32-16.43c-2.14,4.07-2.52,11.8-1.32,16.43ZM491.26,369.35c-13.81.95-29.02,3.71-40.76,11.16l40.76-11.16ZM214.47,371.98v10.85c0,3.47,3.77,12.75,7.24,14.45l-7.24-25.3ZM549.77,377.24c-26.7,4.97-55.19,3.65-80.21,15.76,26.06-8.5,54.64-6.5,80.21-15.76ZM224.59,387.49c-.58-.9-1.24-3.73-2.24-3.35.46,6.21,4.61,12.63,10.53,14.77-3.39-3.38-5.72-7.46-8.28-11.43ZM443.92,385.13c-22.37-.9-44.97,5.89-63.77,17.73,20.17-9.32,41.93-14.1,63.77-17.73ZM183.57,393.34v20.05c2.81-6.65,1.34-14.12,1.31-21.03l-1.31.99ZM178.54,409.9c-.84-4.63-1.36-9.61-4.17-13.6l3.29,27.6.68-4.13c3.2-2.01.57-7.88.2-9.88ZM499.15,397.62c-20.88,1.51-41.49,6.43-60.48,15.1l60.48-15.1ZM222.35,410.74l-.31-1.29c-12.57,4.6-22.92,13.14-30.56,23.99,9.82-8.17,19.32-16.96,30.88-22.7ZM234.19,411.42c-11.98,3.28-23.41,9.32-32.78,17.5-.8.7-2.83,2.35-2.71,3.52l35.49-21.03ZM355.16,411.42c-22.54.6-47.33-.43-66.38,13.47,20.75-9.86,44.14-9.43,66.38-13.47ZM486,411.42c-11.21.48-22.06,3.26-32.47,7.29l-5.66,3.87c11.51-5.57,24.18-7.08,36.47-9.88,1.09-.25,1.98.77,1.65-1.28ZM437.68,412.73v.66l.33-.33-.33-.33ZM402.5,416.02c-18.94,5.5-37.82,12.9-52.59,26.28l51.93-15.78c-11.79-.65-24.21,3.28-35.48,6.92l36.14-17.42ZM110.32,455.2c3.19-12.51,6.29-25.05,8.15-37.86-7.46,26.34-16.63,51.97-19.71,79.53,3.08-14.02,8.02-27.81,11.56-41.66ZM275.61,425.23c-21.82,4.85-38.08,21.26-53.23,36.48,5.36-2.05,9-7.26,13.48-10.84,12.3-9.84,25.52-18.84,39.76-25.64ZM156.36,472.96c4.02-8.83,7.32-18.22,8.13-28.02l-17.08,42.41c-.13,1.94.75.54,1.21-.11,1.64-2.32,6.47-11.49,7.74-14.28ZM316.37,444.94c-28.94,11.68-51.46,34.48-71.65,57.51,22.32-21.17,44.81-41.98,71.65-57.51ZM505.06,446.92c-21.94-3.12-45.06-.76-65.74,7.21,21.66-4.78,43.6-6.45,65.74-7.21ZM417.62,450.84c-15.72-8.06-37.11-2.37-49.95,8.89,15.19-8.89,32.59-11.77,49.95-8.89ZM339.38,450.2c-50.35,17.79-91.38,56.88-122.93,98.92,10.56-9.8,18.86-21.95,28.9-32.23,26.83-27.47,59.58-49.97,94.03-66.69ZM168.17,470.29c3.31-5.1,7.19-9.96,9.82-15.48-15.3,16.86-26.25,37.01-36.49,57.17,9.58-13.31,17.69-27.85,26.67-41.69ZM486,464.01c-13.96-1.09-28.7-1.52-42.07,3.27l42.07-3.27ZM336.76,467.29c-36.37,13.45-65.77,40.48-91.37,68.69,27.96-26.03,57.03-51.26,91.37-68.69ZM168.16,486.71l5.22-7.58c-12.23,11.59-20.92,26.19-27.95,41.39l22.73-33.8ZM218.83,499.91c6.29-6.03,12.54-12.34,19.95-17.19-22.1,12.6-41.68,33.09-52.92,56.19,9.53-14.58,20.43-26.99,32.97-39.01ZM445.23,490.3c-8.73,3.24-17.77,6.42-24.98,12.47l24.98-12.47ZM409.08,525.78c34.51-12.7,76.39-3.65,108.46,12.17-16.52-11.41-38.87-18.12-58.84-20.04-16.02-1.54-35.94-1.46-49.62,7.86ZM431.43,533.67h-17.42c-6.41,0-19.97,4.46-24.32,9.21,13.09-6.36,27.7-6.65,41.74-9.21ZM502.85,572.69c-12.63-16.41-31.68-28.66-52.35-31.78,22.19,6.82,43.05,19.71,55.89,39.42l1.29-.97c-1.76-2.12-3.16-4.5-4.84-6.67ZM525.07,571.51c-7.33-12.39-14.73-19.44-27.87-25.71l-9.23-3.58c19.53,8.33,33.42,23.48,43.07,42.05-.69-4.93-3.55-8.67-5.97-12.76ZM456,616.25c-16.43-19.5-39.55-34.35-64.02-41.82,26.61,12.04,50.53,29.5,70.68,50.59-1-3.66-4.45-6.14-6.67-8.77ZM398.98,621.32c-7.63-9.85-18.86-16.37-30.51-20.43l-6.73-1.48c23.29,6.99,39.23,24.98,49.97,46,1.62-.5-.68-4.17-1.15-5.07-3.12-5.95-7.48-13.72-11.59-19.02Z" fill="#fff"/>
  <path d="M430.77,829.46c6.55-4.56,13.36-5.91,18.03-13.2,14.08-21.99-13.94-40.6-31.82-25.24,7.41-15.87,24.17-15.52,34.83-26.62-10.58,5.23-22.81,6.82-31.22,15.78-4.74,5.06-8.21,13.82-11.75,19.88-1.35,2.31-7.4,13.82-8.29,14.64-5.57,5.17-26.32,4.59-33.56,2.27,4.27-3.24,9.44-3.97,13.4-7.96,5.02-5.05,4.92-10.41,6.99-16.67-2.72-5.45-3.01-12.21-9.83-15.83s-12.62-1.95-19.1,1.36c4.88-7.73,12.11-17.39,21.04-20.37,8.75-2.92,15.11-.39,23.97-1.01,13.65-.96,29.27-7.17,39.79-15.75-9.86,4.55-20.08,8.92-30.87,10.86-29.9,5.38-35.42-7.15-56.03,22.86-1.55,2.26-2.47,6.84-3.36,8.15-2.22,3.27-9.76,9.56-12.95,13.86-2.01,2.7-4.98,10.52-7.58,11.29-7.9.84-15.68.3-23.32-1.96l13.5-7.86c15.67-15.36,4.23-40.97-18.1-32.24,5.93-7.48,14.14-17.73,23.64-20.72,11.2-3.53,23.05.46,34.54-.26,13.73-.86,29.69-5.42,41.09-13.18-9.12,3.36-18.97,7.19-28.68,8.45-13.79,1.79-27.07-.82-40.04.06-22.52,1.53-33.44,26.52-47.98,40.11,3.52-12.74-6.73-28.14-20.38-21.03l-.32-.97c7.74-7.49,17.68-15.26,28.61-16.75,8.87-1.21,15.88-.48,25.3-2.97,12.88-3.41,22.61-12.41,35.8-13.51,10.71-.9,22.05,1.52,32.89.67,21.07-1.64,40.77-14.52,56.56-27.59,2.43-2.01,11.76-12.51,13.27-13.03,2.53-.88,9.47,1.28,12.04,2.52-6.47-6.53-13.73-12.58-18.51-20.59-7.54-12.66-9.8-27.49-16.33-40.53,23.58,7.23,32.19,31.87,51.98,43.66,11.71,6.98,25.27,10.28,38.75,11.54l-16.45-14.11c-16.01-17.6-18.34-42.15-26.43-63.63-3.84-10.19-10.5-18.68-14.64-28.75,20.01,5.89,34.68,17.16,45.21,35.03,3.81,6.47,5.98,14.07,10.34,20.33,10.55,15.12,28.36,24.74,46.02,28.78-8.64-8.62-16.83-17.65-20.72-29.56,10.33,11.84,24.62,19.55,39.71,23.72l.05,49.53c-19.97,17.03-40.26,34.23-56.39,55.36-8.53,11.17-14.87,25.93-26.11,34.36-8.55,6.41-19.77,9.67-28.92,15.12l1.66-11.15c-4.27,17.46-19.64,32.86-38.47,32.86h-10.85Z" fill="#fff"/>
  <path d="M364.11,62.79c-1.81,2.79-4.96,5.35-6,8.79,9.6-6.04,20.37-13.89,31.89-14.78-14.11,19.27-30.22,36.64-47.01,53.56,11.76-18.1,28.47-32.4,41.1-49.93l-21.89,11.3-14.27,11.69,20.71-33.51-33.54,24.97c7.22-14.21,24.54-21.5,38.14-29.57-1.85,6.03-5.72,12.21-9.14,17.48Z"/>
  <path d="M352.12,152.02c-11.61,15.08-22.98,30.9-31.81,47.73-.18-3.89,3.5-10.04,5.58-13.81,17.56-31.76,49.57-72.21,77.26-95.63,4.78-4.04,10.19-7.24,14.81-11.48-23.36,23.05-45.8,47.14-65.84,73.19Z"/>
  <path d="M582.64,34.13c-56.64,6.96-108.92,31.03-155.81,62.43,43.69-34.86,99.2-60.31,155.81-62.43Z"/>
  <path d="M259.44,68.71c7.48,14.3,12.64,50.91,13.57,67.6,1.32,23.88-1.44,46.46-7.27,69.36-.32-12.3,2.55-25.3,3.28-37.8,1.67-28.45-.71-57.44-6.75-85.24-1.2-5.54-4.41-11.45-3.76-16.95-.1,1.23.4,2.02.93,3.03Z"/>
  <path d="M178.62,70.58c2.95,3.09,9.43,24.28,11.34,29.76,8.91,25.53,16.4,51.14,21.01,78.28,3.58,21.07,6.37,42.02,5.47,63.87l-1.31-.97c-2.22-58.4-16.7-117.01-37.48-171.56.62-1.02.63.26.97.62Z"/>
  <path d="M132.54,73.33c4.95,20.79,10.27,43.6,14.02,65.17,3.96,22.84,7.09,45.96,8.08,69.14l-31.48-168.67.59-1.23c2.95,11.86,5.97,23.7,8.8,35.58Z"/>
  <path d="M519.53,28.87c-49.79,12.58-97.07,35.86-134.11,71.64,33.21-39.41,83.55-63.49,134.11-71.64Z"/>
  <path d="M283.22,181.75c-7.45,30.37-16.81,59.97-29.95,88.35l38.79-134.74c-1.16,15.6-5.11,31.2-8.84,46.39Z"/>
  <path d="M521.9,132.45c-14.84,13.19-29.99,26.42-44.14,40.34-7.57,7.45-14.54,15.48-22,23.02,9.05-13.64,20.53-25.66,32.29-37.06,24.67-23.91,51.97-45.19,79.16-66.12-14.41,13.83-30.29,26.47-45.3,39.82Z"/>
  <path d="M339.38,450.2c-34.45,16.72-67.19,39.23-94.03,66.69-10.04,10.28-18.34,22.43-28.9,32.23,31.54-42.04,72.57-81.13,122.93-98.92Z"/>
  <path d="M237.22,296.78c-15.01,26.75-28.3,54.35-43.12,81.11,9.8-31.48,27.07-60.03,45.37-87.41,1.69,1.19-1.46,4.91-2.24,6.31Z"/>
  <path d="M343.1,321.13l82.75-88.49c-25.37,31.48-54.23,59.9-82.75,88.49Z"/>
  <path d="M336.76,467.29c-34.34,17.43-63.41,42.66-91.37,68.69,25.6-28.21,55-55.24,91.37-68.69Z"/>
  <path d="M213.49,144.83c2.37,3.13,5.91,24.08,6.69,29.18,4.84,31.7,4.47,63.78-.45,95.42-.11-11.59,1.72-23.92,2-35.8.48-19.92-.87-40.02-3.4-59.75-1.28-10-2.98-20.13-5.83-29.66.51-.96.69.19,1,.6Z"/>
  <path d="M402.5,416.02l-36.14,17.42c11.28-3.64,23.7-7.56,35.48-6.92l-51.93,15.78c14.77-13.37,33.65-20.78,52.59-26.28Z"/>
  <path d="M421.99,210.7c-13.45,14.52-27.15,28.77-39.54,44.26,23.06-32.65,51.71-61.35,80.88-88.7-13.24,15.29-27.59,29.61-41.34,44.44Z"/>
  <path d="M549.77,377.24c-25.57,9.26-54.14,7.26-80.21,15.76,25.02-12.11,53.51-10.79,80.21-15.76Z"/>
  <path d="M493.23,347.66c-15.19,6.27-32.45,8.64-45.7,19.04l18.74-5.25-36.81,13.81c19.03-14.18,40-24.34,63.77-27.59Z"/>
  <path d="M132.51,252.16l13.58,68.54c-3.33-3.53-4.22-8.51-5.58-13.14-6.01-20.41-9.65-42.86-8.89-63.75l.89,8.35Z"/>
  <path d="M564.89,341.09c-22.45,17.22-53.78,8.66-78.89,19.7,23.85-14.28,54.6-5.95,78.89-19.7Z"/>
  <path d="M110.32,455.2c-3.53,13.85-8.48,27.64-11.56,41.66,3.07-27.56,12.24-53.19,19.71-79.53-1.86,12.81-4.96,25.35-8.15,37.86Z"/>
  <path d="M582.65,285.22c-17.24,18.31-45.72,13.97-66.4,26.28,18.63-16.13,47.07-10.91,66.4-26.28Z"/>
  <path d="M293.36,86.72l-15.77,71.64c1.94-10.26,2.69-20.76,4.67-31.02,2.1-10.9,5.41-28.61,9.62-39.18.4-.99-.37-1.78,1.49-1.43Z"/>
  <path d="M443.92,385.13c-21.84,3.63-43.6,8.41-63.77,17.73,18.8-11.84,41.4-18.63,63.77-17.73Z"/>
  <path d="M505.06,446.92c-22.14.76-44.08,2.43-65.74,7.21,20.68-7.97,43.8-10.34,65.74-7.21Z"/>
  <path d="M218.83,499.91c-12.54,12.02-23.44,24.43-32.97,39.01,11.23-23.1,30.82-43.59,52.92-56.19-7.41,4.84-13.66,11.16-19.95,17.19Z"/>
  <path d="M86.54,337.53c4.65,14.05,8.67,28.14,10.24,42.99-6.08-22.48-12.11-44.91-20.36-66.73-.17-1.89.8-.57,1.21.11,3.61,5.97,6.65,16.79,8.91,23.64Z"/>
  <path d="M398.98,621.32c4.11,5.3,8.47,13.07,11.59,19.02.47.89,2.76,4.57,1.15,5.07-10.75-21.01-26.69-39.01-49.97-46l6.73,1.48c11.65,4.06,22.88,10.59,30.51,20.43Z"/>
  <path d="M168.17,470.29c-8.98,13.84-17.1,28.38-26.67,41.69,10.24-20.16,21.19-40.31,36.49-57.17-2.63,5.52-6.5,10.38-9.82,15.48Z"/>
  <path d="M502.85,572.69c1.67,2.17,3.08,4.55,4.84,6.67l-1.29.97c-12.85-19.71-33.71-32.6-55.89-39.42,20.67,3.13,39.72,15.38,52.35,31.78Z"/>
  <path d="M499.15,397.62l-60.48,15.1c19-8.67,39.6-13.6,60.48-15.1Z"/>
  <path d="M74.69,361.2c6.68,12.49,12.4,25.68,14.85,39.69l-20.36-48.98c.04-1.99.72-.57,1.15.17,1.51,2.58,2.83,6.26,4.36,9.12Z"/>
  <path d="M520.84,318.09l-49.31,22.99c10.7-9.57,24.66-14.4,37.8-19.72l11.51-3.27Z"/>
  <path d="M156.36,472.96c-1.27,2.78-6.1,11.95-7.74,14.28-.46.65-1.34,2.05-1.21.11l17.08-42.41c-.81,9.8-4.12,19.18-8.13,28.02Z"/>
  <path d="M168.16,486.71l-22.73,33.8c7.03-15.2,15.72-29.8,27.95-41.39l-5.22,7.58Z"/>
  <path d="M431.43,533.67c-14.04,2.56-28.65,2.84-41.74,9.21,4.35-4.75,17.91-9.21,24.32-9.21h17.42Z"/>
  <path d="M80.34,273.38c-5.67-15.78-4.84-33.41-.32-49.3-1.66,16.47-2.76,32.88.32,49.3Z"/>
  <path d="M191.19,370.4c-.14.33-1.92,3-2.35,3.54,2.21-12.55,6.67-25.53,12.48-36.8-2.8,10.72-5.82,23.11-10.13,33.26Z"/>
  <path d="M234.19,411.42l-35.49,21.03c-.12-1.17,1.91-2.82,2.71-3.52,9.36-8.19,20.79-14.22,32.78-17.5Z"/>
  <path d="M491.26,369.35l-40.76,11.16c11.74-7.45,26.95-10.21,40.76-11.16Z"/>
  <path d="M376.2,14.41c-11.24,8.95-20.35,20.12-28.92,31.54,4.29-11.5,13.94-20.69,23.37-28.23l5.55-3.31Z"/>
  <path d="M486,464.01l-42.07,3.27c13.37-4.79,28.11-4.36,42.07-3.27Z"/>
  <path d="M486,411.42c.33,2.05-.57,1.03-1.65,1.28-12.29,2.81-24.97,4.31-36.47,9.88l5.66-3.87c10.41-4.03,21.26-6.81,32.47-7.29Z"/>
  <path d="M178.54,409.9c.36,2,3,7.86-.2,9.88l-.68,4.13-3.29-27.6c2.81,3.99,3.33,8.96,4.17,13.6Z"/>
  <path d="M173.05,369.34c-1.71.45-2.02-2.87-2.3-3.94-2.79-10.57-2.19-22.64-2.3-33.51,2.27,12.34,1.21,25.32,4.59,37.45Z"/>
  <path d="M214.47,371.98l7.24,25.3c-3.47-1.7-7.24-10.99-7.24-14.45v-10.85Z"/>
  <path d="M445.23,490.3l-24.98,12.47c7.2-6.05,16.24-9.24,24.98-12.47Z"/>
  <path d="M224.59,387.49c2.56,3.96,4.89,8.05,8.28,11.43-5.91-2.15-10.07-8.56-10.53-14.77,1.01-.38,1.66,2.45,2.24,3.35Z"/>
  <path d="M183.57,393.34l1.31-.99c.03,6.91,1.5,14.38-1.31,21.03v-20.05Z"/>
  <path d="M183.56,375.26c-1.2-4.63-.83-12.35,1.32-16.43l-1.32,16.43Z"/>
  <path d="M271.25,322.25c-8.72,13.35-15.96,27.58-24.24,41.17,8.31-24.2,23.34-45.41,40.42-64.08-5.25,7.67-11.11,15.15-16.18,22.91Z"/>
  <path d="M309.14,231.32c-15.02,27.04-34.56,52.03-49.93,78.72-8.03,13.94-21.15,39.05-23.09,54.33-1.34,10.55,1.2,17.19,7.62,25.33-10.49-5.41-11.83-12.83-10.84-23.96,2.62-29.55,52.29-104.9,71.77-130.07.83-1.07,3.18-4.01,4.48-4.36Z"/>
  <path d="M525.07,571.51c2.42,4.09,5.29,7.83,5.97,12.76-9.64-18.56-23.53-33.72-43.07-42.05l9.23,3.58c13.14,6.26,20.53,13.32,27.87,25.71Z"/>
  <path d="M123.07,36.75c-.84.85-.84-2.15,0-1.31.05.05.05,1.25,0,1.31Z"/>
  <path d="M409.08,525.78c13.68-9.32,33.59-9.4,49.62-7.86,19.97,1.92,42.32,8.63,58.84,20.04-32.07-15.82-73.95-24.87-108.46-12.17Z"/>
  <polygon points="437.68 412.73 438.01 413.06 437.68 413.39 437.68 412.73"/>
  <path d="M355.16,411.42c-22.24,4.05-45.63,3.62-66.38,13.47,19.06-13.9,43.84-12.88,66.38-13.47Z"/>
  <path d="M222.35,410.74c-11.55,5.74-21.05,14.53-30.88,22.7,7.64-10.86,17.99-19.39,30.56-23.99l.31,1.29Z"/>
  <polygon points="293.04 134.03 293.36 134.36 293.04 134.69 293.04 134.03"/>
  <path d="M456,616.25c2.21,2.63,5.67,5.11,6.67,8.77-20.16-21.09-44.08-38.55-70.68-50.59,24.46,7.47,47.58,22.32,64.02,41.82Z"/>
  <path d="M417.62,450.84c-17.36-2.88-34.76,0-49.95,8.89,12.84-11.25,34.23-16.95,49.95-8.89Z"/>
  <path d="M275.61,425.23c-14.23,6.8-27.46,15.81-39.76,25.64-4.47,3.58-8.12,8.78-13.48,10.84,15.16-15.22,31.41-31.63,53.23-36.48Z"/>
  <path d="M316.37,444.94c-26.84,15.54-49.33,36.34-71.65,57.51,20.19-23.04,42.71-45.83,71.65-57.51Z"/>
  <path d="M401.18,682.23c-15.3-3.8-30.4-10.2-45.88-14.28-21.14-5.58-42.93-9.03-64.87-9.42-14.18-.26-28.31,1.78-42.43,1.35,24.4-3.45,48.61-5.58,73.2-2.53,27.88,3.46,54.4,14.11,79.98,24.88Z"/>
  <path d="M217.75,801.86c-6.17,1.17-13.54-.92-19.72-2.3-26.23-5.86-48.9-15.94-76.6-18.07-25.14-1.92-49.81,2.61-74.6,5.25,35.1-7.75,69.5-11.48,104.95-3.38,22.3,5.09,43.11,15.74,65.98,18.5Z"/>
  <path d="M384.09,701.29c-20.71.24-41.27-7.21-61.55-11.1-28.65-5.49-57.31-7.34-86.37-3.36,50.77-13.91,98.5,6.72,147.92,14.46Z"/>
  <path d="M281.53,729.55c-47.63.93-94.72,9.42-140.69,21.02,44.83-15.52,93.02-23.38,140.69-21.02Z"/>
  <path d="M15.26,707.19l10.28-2.53c29.08-3.24,59.25-1.87,86.54,9.27l5.07,2.81c-32.51-10.72-67.87-14.25-101.89-9.55Z"/>
  <path d="M362.4,646.06c-23.06-9.16-47.48-21.69-72.97-16.75,24.03-9.26,52.16,4.93,72.97,16.75Z"/>
  <polygon points="45.83 787.39 46.16 787.72 45.83 788.05 45.83 787.39"/>
  <path d="M73.12,164.93c-13.86,36.06-29.71,70.47-61.14,94.64,22.93-22.33,40.15-47.85,51.09-78.04l10.04-16.6Z"/>
  <path d="M39.84,52.12c-17.34,23.92-26.55,54.27-14.73,82.91.09.56-1.23.37-1.29.31-4.09-3.82-5.74-30.46-5.3-36.51,2.15-29.69,25.82-61.87,50.64-76.88-10.42,8.77-21.32,19.14-29.31,30.17Z"/>
  <path d="M71.79,54.49c-1.11,1.42-7.59,5.2-9.55,7.22-14.4,14.84-24.94,35.92-29.88,55.89,2.77-25.37,17.81-50.47,39.12-64.41.55-.09.4,1.19.32,1.3Z"/>
  <path d="M564.89,509.34c-21.56-2.09-43.46-9.91-61.14-22.33,8.99,4.38,17.99,8.94,27.43,12.33,11.03,3.96,22.67,6.14,33.71,10Z"/>
</svg>