<?xml version="1.0" encoding="UTF-8"?>
<svg id="Camada_1" xmlns="http://www.w3.org/2000/svg" version="1.1" viewBox="0 0 595.28 841.89">
  <!-- Generator: Adobe Illustrator 29.0.0, SVG Export Plug-In . SVG Version: 2.1.0 Build 186)  -->
  <rect x=".14" y="841.29" width="595" height=".66" fill="#fff"/>
  <path d="M589.88,4.55v832.14h-163.71l5.94-15.75,1.34.36,4.23,8.8c8.45-31.12,11.98-64.22,25.32-93.98,9.69,4.83,9.68,17.54,17.41,23.65,3.27-8.5,18.51-30.74,16.75-39.07-.5-2.39-4.29-4.04-4.9-5.63-1.02-2.65,6.53-21.87,8.11-26.01,1.73-4.55,7.81-14.91,8.49-18.49,1.5-7.92.05-21.56.82-30.73.97-11.43,4.05-22.49,5.24-33.86-1.1.29-1.55,1.35-2,2.27-5.73,11.75-6.72,28.39-11.2,39.27-1.68,4.07-8.72,9.98-9.5,13-1.11,4.35-.03,9.97-1.16,15.27-.91,4.26-3.82,8.77-5.1,12.98l-2.3-.58c-1.24-1.98-2.89-3.83-3.94-5.92-3.46-6.83-.58-11.89-9.4-15.63l1.88-22.19-1.87.09c1.54,5.21-2.57,19.48-1.12,23.28,1.1,2.89,4.22,1.38,5.91,3.94s.86,8,2.37,11.26c.54,1.17,6.95,7.49,7.01,8.08-3.66,8.86-11.16,15.67-14.61,24.64-.6,1.55-2.75,4.37-.32,5.27,6.18-16.02,20.64-29.65,23.49-47.18.68-4.19-.41-9.94,1.15-13.97,1.02-2.63,6.4-6.57,7.97-9.76,4.34-8.81,2.55-19.36,8.15-27.68-4.26,14.34-.38,33.37-2.67,46.95-.68,4.04-5.72,10.33-7.14,14.04-2.1,5.49-9.18,23.6-9.88,28.16-1.13,7.44,5.14,5.78,5.26,11.04.06,2.32-4.78,15.12-6.6,15.87-7.03-4.08-14.71-12.15-21.92-15.61-23.21-11.14-31.95-3.26-50.3-27.93l-11.94-20.59,14.45,56.21,1.32.31c.44-27.11,10.47-7.09,16.25-5.4,2.69.78,6.99-.84,10.38-.51,3.61.35,14.72,6.16,14.66,10.07-14.12,28.46-16.91,60.66-24.86,91.14l-4.16-8.45c-3.26-.19-8.42,15.63-7.66,18.98-3.15-.5-8.88,1.16-11.11-1.06-.45-.45-5.63-10.78-5.74-11.41-1.48-8.57,7.34-31.1,3.04-38.48-1.41-2.41-6.12-4.88-8.22-7.55-8.28-10.55-6.62-27.62-8.41-40.23-3.65-25.76-14.58-52.69-24.7-76.46,7.66-9.81,20.82-.19,24.56-11.49,6.8-20.5,5.8-45.93,11.03-65.23,1.5-5.55,7.28-10.43,8.3-18.65.86-6.95-2.12-22.75-1.1-26.72.38-1.48,5-8.84,6.09-11.67,2.04-5.28,4.2-10.74,4.95-16.42l5.91,4.59-6.56-43.38,9.18,4.95-10.49-19.75,11.8,7.25-13.79-30.57,11.56,1.27.93-1.26-17.4-9.89-11.52-13.46,11.64-4.75.84-1.47c-8.98-3.7-18.27-7.12-28.27-6.59l4.6-13.79c-1.33-1.27-17.53,6.98-22.18,5.42-1.33-.45-21.91-13.42-23.86-14.94-3.57-2.77-22.24-23.73-22.35-26.99l45.37-22-41.41-1.29c34.77-15.51,60.69-44.28,81.53-75.26-18.17,9.7-37.4,17.43-57.2,23.32l26.77-39.29c7.56-37.08,12.09-74.76,11.36-113.2l-36.81,40.75-24-132.78c-17.32,30.99-34.86,62.48-59.82,88.1-11.92,12.23-28.7,26.73-42.12,37.43-2.26,1.8-4.71,4.18-7.55,4.94l7.91-64.08c-.87,3.23-2.98,5.96-5,8.51-25.63,32.32-51.99,65.96-71.48,102.37l-1.77.86-.66-29.57c-10.62,29.32-21.55,60.22-17.77,92.01-14.97-12.16-20.12-32.56-27.6-49.29.63,9.33-.92,18.65-.7,27.96.29,12.34,4.46,43.13,8.38,54.72,3.59,10.6,17.24,18.63,25.8,24.77-10.23,11.84-8.69,27.33-6.35,41.89,1.02,6.38,3.16,16.03,7.04,20.89.24-10,2.78-19.78,6.59-28.91,2.02,14.22,18.57,19.63,30.89,21.68-3.2-3.17-3.74-10.81-3.97-15.41-.37-7.41.11-15.52,1.99-22.7,1.46,11.13,6.29,16.72,15.81,22.17l-5.98,22.9c4.53.03,8.5-1.35,12.84.94,4.97,2.63,2.49,6.08,4.26,8.23.81.98,4.05,1.08,5.23,2,5.38,4.2,9.96,9.87,14.91,14.67,13.93,13.5,26.34-.06,36.75-10.43,8.56,6.89,10.25,31.12,2.61,38.09-3.47,3.16-19.04,5.65-24.86,10.64-5.29,4.53-7.6,17.2-10.97,19.93-2.89,2.34-16.37,3.1-17.59,6.73-1,2.95,1.15,8.38.23,12.72-.83,3.91-4.48,6.22-5.74,9.38-5.07,12.7,3.45,29.96,1.38,40.17-.89,4.39-7.21,6.63-7.68,12.02-.57,6.63,5.37,12.57,5.07,16.86-.22,3.13-6.34,8.01-5.86,13.19.53,5.81,19.26,9.47,15.08,15.48-6.6-6.05-15.53-5.79-23.66-7.56-5.2-1.13-10.38-4.82-15.97-3.47-4.73,1.14-5.05,8.32-7.32,9.77-1.55.99-4.59.57-6.96,1.58-12.14,5.2-12.21,30.82-11.88,42.07.45,15.41,3.57,17.76,17.8,21.04,18.28,4.21,38.5,4.31,57.2,4.28-15.99,43.18-14.86,91.73-15.13,137.36l-16.42-52.58c1.08,28.55,8.39,56.41,14.46,84.13H4.74v-328.32c10.84-19.31,26.52-33.07,45.36-44.36-19.41,8.27-34.38,23.87-45.36,41.4V4.55h585.14ZM422.23,129.1c.51-4.41-.37-9.62,0-14.13,3.62,16.45,2.54,33.95,8.37,49.77.28.77,1.41.84,1.85,2.11,2.51,7.26,3.58,15.59,7.87,21.73l2.31-63.1,34.19,29.24-36.17-32.52-1.97,60.46c-1.59-4.62-2.23-9.55-3.95-14.13s-4.8-8.36-5.76-12.64c-3.48-15.56-2.49-35.37-6.26-50.93-.33-1.36-1.24-6.08-3.11-5.76,1.4,11.74,2.83,28.3-1.65,39.43-1.49,3.71-5.49,7.58-6.61,11.8-1.71,6.43-.38,14.08-2.91,20.41-1.52-7.52-2.85-15.13-3.85-22.78-1.01-7.75-.93-16.52-2.26-24.03-3.19-17.92-13.41-41.39-14.33-59.32-.2-4,1.57-9.13.68-13.15-.72-3.23-4.54-3.25-5.43-5.09-1.29-2.66.09-7.45-.63-10.54-.18-.76-6.65-13.52-7.42-13.62l-1.78,1.46,4.77,107.63-3.29-106.48c.98,1.91,6.22,10.48,6.44,11.68.54,2.88-1.72,6.07.28,10.18,1.39,2.85,4.83,2.12,5.63,5.57.73,3.17-.87,12.15-.43,16.84,1.59,16.81,11.04,38.26,14.19,54.83,3.25,17.12,1.53,37.02,7.42,54.04,4.08-7.48,2.2-18.18,4.22-26.33s8.42-12.57,9.57-22.64ZM381.15,25.58c-1.55.34-.98,2.97.63,2.62s.98-2.97-.63-2.62ZM409.08,26.24c-.53.99,1.11,2.81,1.96.97,1.1-2.38-1.87-1.14-1.96-.97ZM426.17,26.24c-.72-.72-2.02.59-1.31,1.31s2.02-.59,1.31-1.31ZM387.38,32.16c-.08-.06-1.89-.06-1.96,0-2.06,1.69,4.03,1.69,1.96,0ZM351.22,36.09c1.41-1.51-1.74-4.41-2.62-2.63s1.86,3.44,2.62,2.63ZM433.4,36.09c-.57-2.52-4.09-.89-2.63,0,.35.22,1.93-.12,2.63,0ZM205.26,40.04c.82-.76-.81-3.52-2.63-2.62s1.12,4.03,2.63,2.62ZM352.53,41.36c-.16-.14-2.91-.62-2.62.97.54,2.91,4.08.35,2.62-.97ZM443.26,43.33c-.72-.72-2.02.59-1.31,1.31s2.02-.59,1.31-1.31ZM395.92,45.29c.06-.05.25-1.33-.32-1.31-1.2.04-1.12,2.55.32,1.31ZM413.68,45.96c-.05-.05-1.25-.05-1.31,0-.85.84,2.15.84,1.31,0ZM272.32,46.62c-.67-.73-4.01,1.25-3.28,2.62s5.15-.56,3.28-2.62ZM362.39,47.28c-.98-1.31-3.69.46-2.62,1.3.59.46,3.7.15,2.62-1.3ZM397.24,52.53c-1.04-1.04-3.01.92-1.96,1.96s3.01-.92,1.96-1.96ZM405.13,52.53c-.08-.06-1.89-.06-1.96,0-2.06,1.69,4.03,1.69,1.96,0ZM461.65,52.56c-3.95-2.11-4.4,5.58-.63,3.63,1.09-.56,1.24-3.31.63-3.63ZM130.32,53.19c-.49-.48-6.24-.19-5.88,2.22l1.75,1.59,3.04.05c1.38-.23,1.28-3.66,1.09-3.86ZM93,55.99c-3.3,3.14-.3,15.43,5.11,14.03,8.19-2.13-.54-18.38-5.11-14.03ZM299.62,55.16c-1.3.21-.91,2.21.63,1.96,1.3-.21.91-2.21-.63-1.96ZM420.9,58.44c.05-.05.05-1.25,0-1.31-.84-.85-.84,2.15,0,1.31ZM184.88,148.49c-1.72-6.63-3.24-13.21-3.92-20.06-.73-7.3.31-16.96-.73-23.59s-7.02-8.12-3.05-16.98c3.45-7.69,9.91-3.62,11.35-6.42,4.2-13.49-33.28-37.46-27.96-11.83l-6.2-1.21-2.34,16.33c1.79.54,1.76-3.37,1.88-4.36.41-3.3.09-6.8.75-10.1l6.94.7c1.65-2.27-2.92-10.09,2.91-11.61,5.28-1.37,26.46,13.09,22.06,21.46-6.85-1-13.1,6.42-12.9,12.77.15,4.64,4.39,7.1,5.17,10.67,2.74,12.68-2.9,32.14,6.05,44.22ZM393.95,59.76c-.26-.21-3.11-.51-2.62.97.81,2.44,4.17.25,2.62-.97ZM282.84,60.42c-.72-.72-2.02.59-1.31,1.31s2.02-.59,1.31-1.31ZM211.67,61.17c-4.41.71-5.14,6.85-.99,8.61,9.13,3.86,8.94-9.89.99-8.61ZM224.34,61.74c-.48.5.24,2.9,1.63,2.62,2.44-.49-.38-3.92-1.63-2.62ZM234.19,63.05c-.75-.84-2.95,1.57-.97,1.96,1.45.29,1.24-1.66.97-1.96ZM406.44,65.67c.48-.5-.24-2.9-1.63-2.62-2.44.49.38,3.92,1.63,2.62ZM58.47,65.16c-3.94,1.24-4.54,9.66,2.33,8.27,6.1-1.24,4.54-10.43-2.33-8.27ZM270.35,65.02c-.22-.14-2.79.32-2.62,1.3.99.53,4.13-.37,2.62-1.3ZM421.56,65.02c-.72-.72-2.02.59-1.31,1.31s2.02-.59,1.31-1.31ZM460.46,72.81c2.1,1.19,5.6-1.05,2.91-3.25s-4.56,2.31-2.91,3.25ZM443.1,76.02c1.96-2.04.22-7.22-3.12-5.43s-.14,8.81,3.12,5.43ZM422.88,72.91c-.72-.72-2.02.59-1.31,1.31s2.02-.59,1.31-1.31ZM235.5,73.57c-1.69-2.06-1.69,4.03,0,1.96.06-.08.06-1.89,0-1.96ZM140.74,78.74c1.18-.7-.05-3.6-1.54-3.2-1.78.48-1.5,5,1.54,3.2ZM408.42,76.2h-3.28s0,.97,0,.97l1.52.89c1.26-.52,2.13-.32,1.75-1.86ZM229.59,78.82c-.75-.84-2.95,1.57-.97,1.96,1.45.29,1.24-1.66.97-1.96ZM395.27,81.46l-1.97.32c.87,1.24,1.41,1.11,1.97-.32ZM252.3,82.11c-1.62.56-1.61,4.43,1.17,3.84,3.1-.66,1.06-4.61-1.17-3.84ZM474.82,104.13c-.99,9.47,0,22.32,0,32.21,0,.76-1.3,2.86-.65,4.27,4.6-9.47,1.18-21.94,1.93-32.57.63-8.97,3.97-14.52,10.54-20.67.78,23.73,1.74,47.75,5.36,71.22,2.33,15.13,8.11,44.45,14.84,57.49.44.86-.4,1.81,1.49,1.43-.9-17.89-1.17-35.94,2.63-53.55l-1.66-.36c-2.99,14.68-3.16,29.74-2.96,44.71-6.22-15.98-10.41-34.09-13.05-51.69-3.68-24.63-4.48-49.64-5.36-74.51-5.01,8.07-12.09,11.97-13.14,22.02ZM368.31,84.08c-.47-.75-4.17-.91-3.28,1.63.82,2.33,4.46.27,3.28-1.63ZM150.69,84.08c-3.62-3.86-4.62,20.61-4.66,22.02-.18,7.34,3.29,15.21-1.66,22.72l-5.22-1.41c-3.81,3.06-2.19,28.43-3.9,34.24-1.27,2.3-35.38,8.79-41.42,15.12-1.36,1.42-2.83,3.33-2.21,5.43,8.34,7.44,21.77,2.84,30.08-2.54,1.94-1.26,3.45-3.96,5.38-5.13s8.51-2.58,9.16-3.33c1.74-1.99-.48-6.65,1.3-8.56.46-.5,11.32-4.78,12.61-5.14,2.92-.81,4.51.29,6.06.03,2.3-.37,2.76-3.44-1.72-3-2.73.27-16.9,7.14-17.6,6.45,1.47-3.68.28-32.04,3.61-32.19,1.38,1.79,3.15,2.82,5.31,1.35,5.79-3.94-.27-38.29,4.87-46.05ZM401.85,84.08c-2.02-1.95-5.15,2.23-3.27,3.26,2.36,1.29,4.29-2.27,3.27-3.26ZM240.1,86.05c.05-.05.05-1.25,0-1.31-.84-.85-.84,2.15,0,1.31ZM518.87,85.4c-1.31-1.51-1.84,1.88-.32,1.96.57.03.4-1.88.32-1.96ZM107.3,86.05l-3.18.97c1.37,4.33,4.1,4.17,3.18-.97ZM238.79,86.06c-.72-.72-2.02.59-1.31,1.31s2.02-.59,1.31-1.31ZM417.62,87.37c-1.37-1.37-3.99,1.25-2.62,2.62s3.99-1.25,2.62-2.62ZM429.46,91.96c.2-.31-1-1.51-1.31-1.31-.84.55.76,2.15,1.31,1.31ZM399.87,97.88v-1.97s-2.62,1.32-2.62,1.32l2.62.64ZM135.57,97.88c.05-.05.05-1.25,0-1.31-.84-.85-.84,2.15,0,1.31ZM275.61,96.57c-1.44-1.24-1.52,1.27-.32,1.31.57.02.38-1.25.32-1.31ZM248.66,98.55c-.08-.18-2.76-.8-2.61.32.21,1.61,3.04.69,2.61-.32ZM105.08,100.06c-7.09,1.17,3.17,11.9,6.14,4.74-.28-2.64-3.55-5.17-6.14-4.74ZM272.32,101.82c.06-.05.25-1.33-.32-1.31-1.2.04-1.12,2.55.32,1.31ZM402.17,101.83v.66l.33-.33-.33-.33ZM403.16,103.14c-1.69-2.06-1.69,4.03,0,1.96.06-.08.06-1.89,0-1.96ZM368.97,103.8c-.19-.19-2.35-.5-1.96.97.6,2.26,3.27.32,1.96-.97ZM356.48,105.78l-1.97.32c.87,1.24,1.41,1.11,1.97-.32ZM92.17,108.4l-.32-1.97c-1.24.87-1.12,1.41.32,1.97ZM464.13,107.83c-6.86.68-4.21,15.6,1.06,17.6,6.43-2.22,5.13-18.22-1.06-17.6ZM57.16,109.22c-2.71-2.88-6.8,3.18-3.78,4.77,3.43,1.81,6.16-2.25,3.78-4.77ZM412.36,108.4c-.61-.4-1.89.48-1.97,1.3,1.2.58,3.07-.59,1.97-1.3ZM363.05,109.06c-.63-.43-2.51.16-2.63,1.3.99.48,4.11-.3,2.63-1.3ZM131.63,110.38c-.72-.72-2.02.59-1.31,1.31s2.02-.59,1.31-1.31ZM63.9,112.34c.05-.05.05-1.25,0-1.31-.84-.85-.84,2.15,0,1.31ZM254.57,111.03c-1.78-1.18-3.43,2.14-1.63,2.62,2.44.65,2.29-2.18,1.63-2.62ZM411.7,117.6c.05-.05.05-1.25,0-1.31-.84-.85-.84,2.15,0,1.31ZM113.87,116.95c-1.69-2.06-1.69,4.03,0,1.96.06-.08.06-1.89,0-1.96ZM524.37,135.14c-1.37-5.6-1.97-11.58-4.51-16.87-1.18,0-2.87,13.14-2.98,14.75-1.11,16.34-.91,48.98.66,65.12.47,4.84,3.44,10.26,3.32,14.41-.15,4.99-5.01,9.2-4.58,15.07.32,4.42,6.27,8.5,5.86,13.9l-50.6-19.08c7.98,2.93,15.83,8.42,23.23,11.62,8.81,3.81,47.11,15.54,50.32,22.65,3.64,8.06-8.23,14.18-3.2,22.92,2.61,4.54,20.72,6.59,25.17,5.44,10.09-2.59-3.72-16.71-4.48-19.55-2.04-7.57,1.98-10.31-4.57-18.43-2.6-3.23-6.27-4.64-8.54-7.25-7-8.07-4.71-37.18-6.93-39.42-.12-.13-1.43.08-1.96,0l-3.94,11.84c-7.31-24.86-5.35-51.25-11.24-76.4-.11-.49-.99-.55-1.03-.71ZM372.91,118.92c-.05-.05-1.25-.05-1.31,0-.85.84,2.15.84,1.31,0ZM59.19,125.6c-.79-1.24-5.19-2.02-3.76,1.46.82,2.02,5.67,1.51,3.76-1.46ZM58.22,325.11c-1.32-9.53.01-22.09-2.78-31.1-.51-1.66-2.24-1.12-2.75-3.82-2.91-15.21.46-49.43.07-67.11-.17-7.59-.43-15.36-.7-22.96-.8-22.41.16-50.86-12.35-70.48-.54-.85-.77-1.79-2.1-1.51-1.12,1.37,3.52,13.6,3.83,16.29.17,1.51-1.35,2.3-1.24,3.72.14,1.72,2.58,2.11,2.74,4.65s-1.68,3.22-1.91,4.73c-1.35,8.86-.72,16.58,2.38,24.96,1.05,2.84,5.8,9.8,6,11.74.6,5.85-5.38,28.93-5.87,38.11-.78,14.63.23,44.86,6.36,58.03,1.59,3.42,3.35,2.57,3.49,2.77.25.36-2.28,6.56-2.46,8.38-.68,6.75,2.68,19.64,4.76,26.44,2.41,7.89,6.71,15.2,11.83,21.69,1.33.13-7.29-14.28-7.6-15.41-.62-2.26-1.49-7.47-1.71-9.1ZM469.56,129.44c-1.69-2.06-1.69,4.03,0,1.96.06-.08.06-1.89,0-1.96ZM96.79,130.75c-1.3,1.25,2.13,4.07,2.62,1.63.28-1.39-2.12-2.11-2.62-1.63ZM79.03,131.41c-.72-.72-2.02.59-1.31,1.31s2.02-.59,1.31-1.31ZM11.32,142.57c.69.71,4.37,1.06,3.94-.96s-5.28-.41-3.94.96ZM59.31,142.59h-1.96v.64c.9-.06,2.18.46,1.96-.64ZM107.96,145.2c1.07-1.07-2.13-2.75-1.95-.98.05.47,1.57,1.36,1.95.98ZM23.15,147.85c-.55-.84-2.15.76-1.31,1.31.31.2,1.51-1,1.31-1.31ZM66.54,149.81c-.31-.31-3.62-.52-2.62,1.63,1.34,2.9,3.98-.27,2.62-1.63ZM555.69,149.81c-1.31-1.04-3.99.88-2.63,1.96s3.99-.88,2.63-1.96ZM449.63,153.82c-2.01.68-2.73,5.37.03,6.38,5.33,1.95,4.39-7.87-.03-6.38ZM117.83,156.39c-1.07,1.07,2.13,2.75,1.95.98-.05-.47-1.57-1.36-1.95-.98ZM72.45,159.67c-1.69-2.06-1.69,4.03,0,1.96.06-.08.06-1.89,0-1.96ZM462.34,174.78c1.87,1.87,3.33-2.93.98-2.61-.78.11-1.36,2.24-.98,2.61ZM22.85,176.11c-2.57.91-.1,5.2,1.92,4.59,2.27-.69.51-5.45-1.92-4.59ZM63.91,183.34c-.72-.84-2.83,1.61-1.96,2.62.72.84,2.83-1.61,1.96-2.62ZM127.02,185.3c.84-.75-1.57-2.95-1.96-.97-.29,1.45,1.66,1.24,1.96.97ZM420.25,183.99c-.77-.98-3.26,1.96-.97,2.62,1.5.43,1.18-2.36.97-2.62ZM547.14,187.93c-1.09-1.36-3.01,1.32-1.96,2.62s3.01-1.32,1.96-2.62ZM131.62,206.35c-4.39-1.71-23.51-15.94-24.87-4.79-.71,5.85,8.49,5.18,11.7,6.45s7.7,4.99,10.21,5.57c1.49.35,1.04-.23.3-.96-6.51-6.36-14.03-5.31-20.23-10.05l.31-1.99c2.85-6.61,18.22,7.61,22.59,5.76ZM464.3,197.14c-1.04-1.04-3.01.92-1.96,1.96s3.01-.92,1.96-1.96ZM27.45,199.77c-2.07.72-.73,4.84,1.2,4.54,2.87-.44,1.51-5.49-1.2-4.54ZM69.84,202.39c1.37-.41,2.6-2.28.97-2.62s-.86,1.18-.97,2.62ZM466.11,241.02c2.69-2.6-1.08-6.43-3.33-7.85-4.05-2.57-17.06-5.13-23.25-7.65-15.75-6.42-28.73-19.21-44.3-24.07-2.2-.69-8.56-3.07-7.2.29,15.93,1.5,27.85,14.03,41.17,20.97,6.17,3.21,33.44,11.46,35.1,13.54,1.43,1.79,1.85,3.91-1,4.27-4.66.58-17.39-7.56-22.68-9.51-17.36-6.42-36.5-5.7-54.22-10.87l-.34,1.98c15.23,3.61,31.75,4.02,46.81,8.09,6.44,1.74,29.26,14.67,33.23,10.82ZM416.3,201.74c-.72-.72-2.02.59-1.31,1.31s2.02-.59,1.31-1.31ZM86.26,206.34l-1.97.32c.87,1.24,1.41,1.11,1.97-.32ZM89.55,227.37c-.44-.47-2.96.25-2.62,1.63.62,2.57,4.35.21,2.62-1.63ZM73.1,235.9c2.26-4.04-5.48-4.13-3.25,0,.2.38,3.04.38,3.25,0ZM31.03,235.26c-1.27-1.31-3.46,1.81-1.96,2.62,1.32.71,2.61-1.95,1.96-2.62ZM508.13,242.55c-4.81,1.47.73,13.86,5.37,7.34.93-2.56-2.57-8.19-5.37-7.34ZM548.24,294.63c-4.46-6.05-11.45-3.52-14.16-6.55-3.55-3.97-.96-16.54-4.35-23.25-2.36-4.67-6.85-4.26-9.41-8.36l2.49-11.35c-11.62,13.36,2.12,13.92,5.61,21.02,3.25,6.61-.26,16.99,4.37,22.58,3.08,3.72,6.34,1.73,10.22,3.58,7.02,3.36,9.23,23.38,14.77,31.25,2.75,3.91,12.62,10.52,13.09,13.9,1.46,10.61-10.8,8.28-16.61,10.41-3.09,1.13-8.65,5.59-12.35,7.37-12.18,5.87-30.8,12.6-44.38,12.84-5.13.09-12.09-3.21-15.74-2.64-2.36.37-7.64,4.3-11.53,4.94-22.19,3.63-49.36-25.74-74.73-25.92-1.34,0-1.8-.59-1.56,1.23,7.45,1.55,16.11,2.65,23.19,5.41,13.93,5.44,33.32,21.46,48.25,21.48,7.11.01,12.76-5.32,17.04-5.85,3.21-.39,10.58,2.87,16.37,2.6,13.11-.6,30.68-6.39,42.43-12.13,3.82-1.86,9.99-6.75,13.15-7.89,5.48-1.98,16.18-.32,18.63-8.31,2.29-7.46-4.84-8.82-9.13-13.05-12.02-11.87-8.9-24.18-15.65-33.33ZM420.92,249.06c-.76,2.42,1.99,3.1,1.95,1.64,0-.15-1.45-1.61-1.95-1.64ZM486.65,249.07c-.3-.27-2.25-.48-1.96.97.39,1.98,2.81-.22,1.96-.97ZM76.4,252.35c-.75-.84-2.95,1.57-.97,1.96,1.45.29,1.24-1.66.97-1.96ZM87.96,252.39c-2.12.77-.21,3.36,1.17,3.18,2.36-.3,2.12-4.38-1.17-3.18ZM20.2,257.61c-2.05.67,0,3.26.65,3.26,1.62,0,2.37-4.25-.65-3.26ZM465.61,260.23c1.07-1.07-2.13-2.75-1.95-.98.05.47,1.57,1.36,1.95.98ZM437.35,264.18c-1.87,1.87,2.93,3.33,2.61.98-.11-.78-2.24-1.36-2.61-.98ZM506.38,268.13c-1.87,1.87,2.93,3.33,2.61.98-.11-.78-2.24-1.36-2.61-.98ZM535.96,272.73l-.98-4.59c-2.17,1.2-2.31,5.15.98,4.59ZM418.28,269.44c-.86-1.38-2.38,1.68-.32,2.62.53.02.44-2.43.32-2.62ZM86.26,274.7c-.08-.06-1.89-.06-1.96,0-2.06,1.69,4.03,1.69,1.96,0ZM457.07,282.59c-.72-.72-2.02.59-1.31,1.31s2.02-.59,1.31-1.31ZM430.77,284.55c.05-.05.05-1.25,0-1.31-.84-.85-.84,2.15,0,1.31ZM407.1,286.52c.05-.05.05-1.25,0-1.31-.84-.85-.84,2.15,0,1.31ZM14.6,289.15l-1.33,1c4.68,18.12,12.18,35.51,20.88,52.06l8.73,12.67c-11.18-21.09-23.06-42.14-28.27-65.73ZM91.52,291.12c-1.65-2.4-3.96,5.79-4.18,6.67-1.02,4.18-1.77,12.53-1.03,16.62.83,4.62,11.6,14.89,13.93,6.76,1.8-6.29-12.12-21.35-8.72-30.05ZM409.08,292.45c-1.49,1.24,3.27,3.06,3.27.98,0-.87-2.83-1.34-3.27-.98ZM412.04,302.32c-.99,0-.99,1.94,0,1.94s.99-1.94,0-1.94ZM429.45,306.91c-.72-.72-2.02.59-1.31,1.31s2.02-.59,1.31-1.31ZM463.65,309.53c1.87,1.87,3.33-2.93.98-2.61-.78.11-1.36,2.24-.98,2.61ZM493.23,312.82c1.41-1.51-1.74-4.41-2.62-2.63s1.86,3.44,2.62,2.63ZM398.89,312.82v.66l.33-.33-.33-.33ZM73.11,317.42c-.19-.19-2.35-.5-1.96.97.6,2.26,3.27.32,1.96-.97ZM528.73,318.08c-1.63-1.9-2.99,2.61-.98,2.61.68,0,1.38-2.15.98-2.61ZM100.62,329.15c1.24-.82.21-3.81-.87-3.82-1.89-.02-2.68,6.17.87,3.82ZM469.56,325.31c-.19-.19-2.35-.5-1.96.97.6,2.26,3.27.32,1.96-.97ZM452.46,330.57c-1.75-.93-2.83,2.97-.98,3.27.89.14,1.89-2.78.98-3.27ZM410.39,331.89c-.72-.72-2.02.59-1.31,1.31s2.02-.59,1.31-1.31ZM84.29,339.11c1.28-1.05-3.16-3.38-3.93-.98.03.96,3.51,1.32,3.93.98ZM47.47,339.12c-.72-.72-2.02.59-1.31,1.31s2.02-.59,1.31-1.31ZM105.83,342.55c-1.9-3.3-7.53-.56-4.81,3.17,1.23,1.69,6.88.43,4.81-3.17ZM380.15,343.06c-.46.56.07,3.61,1.63,3.28,2.54-.54-.82-4.26-1.63-3.28ZM530.7,347c1.44-2.56-3.53-3.76-2.62-.34.33,1.26,2.54.48,2.62.34ZM502.12,345.19c-3.38-.38-2.08,4.52.63,3.78,1.77-.48.82-3.62-.63-3.78ZM438.33,346.36c-1.13,0-1.16,2.59,0,2.6s1.16-2.59,0-2.6ZM469.56,350.94c1.87-1.87-2.93-3.33-2.61-.98.11.78,2.24,1.36,2.61.98ZM413.02,352.92h-1.96v.64c.9-.06,2.18.46,1.96-.64ZM390.01,360.8c1.06-1.06-1.55-3.68-2.62-2.62s1.55,3.68,2.62,2.62ZM81.25,400c-2.4-2.76-34.33-43.58-37.05-40.51,3.19,11.58,11.97,22.29,20.04,30.9,14.36,15.32,33.71,28.41,49.33,42.71l.65-.65c-12.09-9.86-22.73-20.71-32.96-32.45ZM431.9,366.9c-.16-.19-1.72-.92-1.78-.84-.18,2.41.44,4.66,3.28,4.59-.7-1.09-.73-2.85-1.5-3.75ZM88.71,367.48c-6.82,3.18,2.51,12.46,4.52,6.48.83-2.46-1.54-7.13-4.52-6.48ZM561.6,380.52c-2.52-4.34-13.55-7.66-18.19-7.81-5.55-.18-10.52,2.36-17.01,1.92-6.1-.41-13.35-3.47-19.79-3.87-22.22-1.38-38.3,8.18-57.92,14.22-2.48.76-8.62-.98-9.38,2.78,7.42-.18,12.26-3.43,18.56-5.43,13.23-4.21,29.63-10.12,43.54-10.36,9.93-.17,19.01,4.35,27.75,4.35,4.57,0,9.18-2.29,13.49-2.2,6.77.15,12.85,4.11,18.94,6.41ZM108.35,378.59c-3.52,1.24,2.71,5.24,3.55,2.25.36-1.3-2.2-2.73-3.55-2.25ZM571.86,474.92c6.84-26.4,21.52-48.61,6.95-77.75-2.71-5.43-8.36-12.33-13.93-15,3.55,5.03,8.39,8.7,11.52,14.11,10.75,18.6,6.33,45.33-.49,64.6-5.67,16-8.11,11.58-5.04,30.86,1.94,12.18-2.12,11.57-2.08,21.22.04,10.55,9.64,35.04,11.68,48.18,4.07,26.24,2.06,43.63-4.19,69.03-2.43,9.87-8.92,24.69-9.37,34.08-.27,5.55,2.33,12.46,1.11,18.14-.57,2.65-4.57,6.85-5.75,9.68-2-10.93,2.91-19.76,4.5-30,2.6-16.7,3.13-35.72,6.18-51.66,2.2-11.53,8.82-11.76,3.89-25.92-3.41-9.8-8.19-11.68-7.16-24.02.34-4.13,3.02-6.79,3.11-10.75.19-8.25-12.62-29.44-13.81-39.4-1.49-12.56-.55-30.73-1.3-44.05-.64-11.32-5.91-48.52-.59-56.42,6.48-9.62,8.06,9.09,8.45,12.41,1.47,12.54,1.3,25.49-.83,37.92-1.27,7.39-4.99,14.95-4.43,22.2,7.39-21.43,10.22-45.36,5.74-67.84-3.2-16.08-11.88-6.7-12.95,4.43-1.93,20.2,3.58,55.68,5.16,76.96.34,4.64-1.3,11.07-.51,16.3,1.38,9.12,10.93,23.94,12.27,33.74.97,7.11-2.57,13.88-1.73,22.11.93,9.11,9.03,15.79,8.97,24.39-.04,6.6-5.31,11.38-6.47,16.41-1.73,7.56-.97,18.65-2.01,26.88-.72,5.64-2.08,11.28-3.21,16.85-1.2.74-9.11-12.34-8.55-14.46-.55-.35-1.8.45-1.94,1.03-.73,2.97,10.27,14.02,10.56,19.01.48,8.29-4.88,16.53-5.33,24.37-.25,4.41,1.25,8.34.37,13.47-1.11,6.53-6.67,15.03-8.81,21.5-.51,1.64,2.17,3.5,3.53,3.42,5.66-.31,7.8-24.93,9.33-29.42,1.11-3.27,3.73-5.47,4.59-8.55,1.52-5.46-.85-14.16-.38-20.76.9-12.58,10.16-34.53,12.74-49.05,6.73-37.97-2.27-58.76-9.48-94.36-2.58-12.71,1.69-10.92,1.97-21.01.26-9.54-5.01-12.44-2.29-22.92ZM436.03,388.41c-1.65-1.33-16.05,2.22-17.75,5.25,3.34-.08,5.91-2.37,9.04-3.12,2.83-.67,8.33,1.33,8.71-2.13ZM497.17,389.07c-.72-.72-2.02.59-1.31,1.31s2.02-.59,1.31-1.31ZM524.13,389.73l-1.96,1.96c2.13.21,2.18.17,1.96-1.96ZM59,399.23c7.25,12.07,10.94-11.27-.85-4.76-.85,2.59-.08,3.21.85,4.76ZM104.6,400.32c-.67-.89-3.66-.86-3.21.89s4.91,1.39,3.21-.89ZM484.02,399.59c-.72-.72-2.02.59-1.31,1.31s2.02-.59,1.31-1.31ZM442.94,406.16v.66l.33-.33-.33-.33ZM115.85,406.82c-.98-.99-4.59.86-3.2,3.2,1.52,2.57,4.7-1.69,3.2-3.2ZM148.06,408.78c.84-.75-1.57-2.95-1.96-.97-.29,1.45,1.66,1.24,1.96.97ZM459.7,413.39c-.41-.43-3.68.04-3.28,1.63.61,2.43,5.34.49,3.28-1.63ZM31.03,416.68c-1.69-2.06-1.69,4.03,0,1.96.06-.08.06-1.89,0-1.96ZM507.03,416.68c-.72-.72-2.02.59-1.31,1.31s2.02-.59,1.31-1.31ZM24.46,423.91c-.71-1.1-1.88.76-1.3,1.97.82-.07,1.7-1.35,1.3-1.97ZM71.8,426.53c.84-.75-1.57-2.95-1.96-.97-.29,1.45,1.66,1.24,1.96.97ZM82.03,428.76c6.41,11.88,10.21-9.83-1-1.55-.62,1.44.85,1.28,1,1.55ZM147.4,427.19c-1.11-1.25-2.98,2.6-.98,2.61.68,0,1.38-2.16.98-2.61ZM37.61,429.17c-1.69-2.06-1.69,4.03,0,1.96.06-.08.06-1.89,0-1.96ZM47.47,435.74c-.72-.72-2.02.59-1.31,1.31s2.02-.59,1.31-1.31ZM482.38,435.75c-.52-.05-2.44,2.35-.65,2.61s1.97-2.49.65-2.61ZM29.73,436.4c-1.07,1.07,2.13,2.75,1.95.98-.05-.47-1.57-1.36-1.95-.98ZM33.01,439.68c-.09-.08-1.99-.24-1.96.32.08,1.52,3.47.99,1.96-.32ZM442.6,442.31c-.72-.72-2.02.59-1.31,1.31s2.02-.59,1.31-1.31ZM525.44,442.31c-.09-.08-1.99-.24-1.96.32.08,1.52,3.47.99,1.96-.32ZM42.21,443.63c-.77-.98-3.26,1.96-.97,2.62,1.5.43,1.18-2.36.97-2.62ZM59.79,449.37c3.53-3.24-3.37-8.02-5.41-4.43-2.28,4.01,2.69,6.93,5.41,4.43ZM48.78,451.51c.05-.05.05-1.25,0-1.31-.84-.85-.84,2.15,0,1.31ZM30.38,453.48c.84-.75-1.57-2.95-1.96-.97-.29,1.45,1.66,1.24,1.96.97ZM123.74,452.17c-2.13-.21-2.18-.17-1.96,1.96l1.96-1.96ZM471.53,454.14c-.46-.39-2.61.3-2.61.98,0,2.01,4.51.65,2.61-.98ZM88.89,456.11c-.75-.84-2.95,1.57-.97,1.96,1.45.29,1.24-1.66.97-1.96ZM17.23,458.09c-.72-.72-2.02.59-1.31,1.31s2.02-.59,1.31-1.31ZM25.12,460.72c-.75-.84-2.95,1.57-.97,1.96,1.45.29,1.24-1.66.97-1.96ZM59.96,463.34c.47-.44-.25-2.95-1.63-2.62-2.57.62-.21,4.35,1.63,2.62ZM83.63,467.28c.43-.63-.16-2.51-1.3-2.62-.48.99.3,4.11,1.3,2.62ZM99.88,466.04c-1.96.46-2.84,4.18-.12,4.57,3.82.55,3.59-5.38.12-4.57ZM8.03,469.25c1.07,1.07,2.75-2.13.98-1.95-.47.05-1.36,1.57-.98,1.95ZM17.89,469.25c.2-.31-1-1.51-1.31-1.31-.84.55.76,2.15,1.31,1.31ZM157.27,471.22c.84-.75-1.57-2.95-1.96-.97-.29,1.45,1.66,1.24,1.96.97ZM11.31,473.2c-1.04-1.04-3.01.92-1.96,1.96s3.01-.92,1.96-1.96ZM29.06,473.86c-.75-.84-2.95,1.57-.97,1.96,1.45.29,1.24-1.66.97-1.96ZM520.18,475.83c-1.29-1.3-3.23,1.36-.97,1.96,1.47.39,1.16-1.77.97-1.96ZM129,476.49c-7.65,1.31-14.76,4.61-22.33,6.26-20.6,4.48-48.68,3.79-63.81,21-22.53,25.61,13.11,41.14,33.55,46.02,28.26,6.75,59.77,7.84,88.09.98-10.2-.49-20.78,2.79-31.24,3.28-20.65.97-124.35-7.97-89.75-48.97,18.91-22.4,61.21-14.62,85.48-28.57ZM455.75,481.09c.81-.73.03-2.78-1.96-1.31-.23.71,1.87,1.38,1.96,1.31ZM73.02,482.48c-.86-.42-4.71-.32-5.15.9l1.08,1.7,2.48.6,2.03-1.3c.21-.4-.33-1.85-.44-1.91ZM28.4,488.31c1.24-1.44-1.27-1.52-1.31-.32-.02.57,1.25.38,1.31.32ZM101.72,493.59c-1.13,0-1.16,2.59,0,2.6s1.16-2.59,0-2.6ZM159.9,494.9c-1.4-1.51-4.21,2.65-1.63,3.28,1.56.38,2.07-2.8,1.63-3.28ZM28.74,500.15v.66l.33-.33-.33-.33ZM445.23,500.81c-.32-.57-4.5-.64-3.28,1.63,1.3,2.41,4.27.13,3.28-1.63ZM474.82,503.44c-.54-.66-4.58,1.39-1.63,2.62,2.09.87,2.05-2.11,1.63-2.62ZM519.21,505.41c-1.42.35-1.19,3.13-.01,3.27,1.25.15,2.45-3.88.01-3.27ZM545.82,507.38c.05-.05.05-1.25,0-1.31-.84-.85-.84,2.15,0,1.31ZM147.75,508.04c-1.93.68-.9,4.04,1.3,3.27,1.93-.68.9-4.04-1.3-3.27ZM455.75,512.63c.09-.07-.03-.89,0-1.31l-1.96.67c-.31,1.06,1.88.71,1.96.64ZM64.57,512.64c-1.87,1.87,2.93,3.33,2.61.98-.11-.78-2.24-1.36-2.61-.98ZM111.81,521.08c2.07-1.34,1.02-6.86-3.53-7.17-8.41-.57-.28,9.63,3.53,7.17ZM443.68,519.92c-1.86.72-1.54,4.93.72,5.75,5.83,2.1,3.44-7.37-.72-5.75ZM546.31,521.28c-4.05,1.17-1.04,7.74,2.85,4.87,1.75-1.29.36-5.8-2.85-4.87ZM78.37,524.47c1.3-1.25-2.13-4.07-2.62-1.63-.28,1.39,2.12,2.11,2.62,1.63ZM17.89,525.78c.5-.59-.22-2.8-1.63-2.62-2.05.27.34,4.15,1.63,2.62ZM531.36,525.79c-.72-.72-2.02.59-1.31,1.31s2.02-.59,1.31-1.31ZM505.73,534.99c-1.47,1.44,2.2,5.3,3.28,2.29.77-2.16-2.7-2.85-3.28-2.29ZM94.15,538.93c1.07-1.07-2.13-2.75-1.95-.98.05.47,1.57,1.36,1.95.98ZM118.48,537.62c-.3-.27-2.25-.48-1.96.97.39,1.98,2.81-.22,1.96-.97ZM560.17,555.23c2.52-1.29,5.78-16.65-.76-16.16-8.76.67-5.1,19.16.76,16.16ZM29.73,544.18c.44.47,2.96-.25,2.62-1.63-.62-2.57-4.35-.21-2.62,1.63ZM450.98,544.3c-6.2,1.72-.34,11.79,4.74,7.42,3.16-2.72.34-8.82-4.74-7.42ZM7.37,549.44c1.24-1.44-1.27-1.52-1.31-.32-.02.57,1.25.38,1.31.32ZM430.11,548.79c-2.13-.21-2.18-.17-1.96,1.96l1.96-1.96ZM47.16,557.34c-1.56.41-1.4,4.2.63,3.94,2.37-.31,1.39-4.47-.63-3.94ZM532.68,558c-1.52-1.5-6.51,1.89-2.2,3.13,2.01.58,2.96-2.38,2.2-3.13ZM29.06,559.97c-.75-.84-2.95,1.57-.97,1.96,1.45.29,1.24-1.66.97-1.96ZM505.4,561.29c-1.93.68-.9,4.04,1.3,3.27,1.93-.68.9-4.04-1.3-3.27ZM65.38,570.98c4.26,4.26,10.85-4.14,5.37-7.66s-8.05,4.98-5.37,7.66ZM86.92,565.88c-.72-.72-2.02.59-1.31,1.31s2.02-.59,1.31-1.31ZM112.66,570.38c1.26,2.04,7.33-.46,4.87-3.89-1.54-2.15-6.7.92-4.87,3.89ZM106.64,567.2c-.11-.07-2.51-.07-2.62,0-2.62,1.67,5.24,1.67,2.62,0ZM560.95,571.79l-1.96-1.96c-.21,2.13-.17,2.18,1.96,1.96ZM480.08,573.1c-.57-2.52-4.09-.89-2.63,0,.35.22,1.93-.12,2.63,0ZM528.31,588.65c7.12,6.25,15.1-4.83,8.93-10.57s-15.59,4.71-8.93,10.57ZM58.24,597.21c-2.48-5.81-3.37-9.5-8.44-14.27s-17.63-10.83-19.35-.24c-1.81,11.11,9.71,14.96,15.69,22.31,6.67,8.2,10.24,20.61,20.75,25.92,4.45,2.25,4.43,1.29,4.17-3.51-.57-10.27-8.99-21.21-12.82-30.21ZM447.86,579.03c-.05-.05-1.25-.05-1.31,0-.85.84,2.15.84,1.31,0ZM112.56,582.32c-.75-.84-2.95,1.57-.97,1.96,1.45.29,1.24-1.66.97-1.96ZM84.29,588.22c.2-2.79-3.78-2.12-3.28,0h3.28ZM563.26,586.92c-1.55.34-.98,2.97.63,2.62s.98-2.97-.63-2.62ZM427.94,591.6c-3.84,1.24.44,8.36,4.19,5.54,2.29-1.73-.06-6.87-4.19-5.54ZM470.3,598.01c1.62,2.68,5.28-2.08,2.22-3.2-1.86-.68-2.97,1.96-2.22,3.2ZM495.65,602.78c-2.74.63-2.06,5.03,1.12,3.79,1.88-.74,1.48-4.38-1.12-3.79ZM547.24,608.5c2.74,1.76,5.83-2.43,2.53-4.18-3.75-1.99-3.86,3.33-2.53,4.18ZM465.61,605.32c-.61-.4-1.89.48-1.97,1.3,1.2.58,3.07-.59,1.97-1.3ZM19.2,607.29c-.72-.72-2.02.59-1.31,1.31s2.02-.59,1.31-1.31ZM91.46,611.29c-.42-.77-4.71-.45-4.52,1.56.29,3.13,6.88,2.79,4.52-1.56ZM438.35,616.49c-1.62.55-1.45,3.7,1.18,3.18,2.94-.59.81-3.85-1.18-3.18ZM109.27,625.03c1.56-1.75-2.5-5.14-3.28-2.28-.37,1.35,2.73,2.91,3.28,2.28ZM548.27,623.87c3.6,12.97,7.84,4.61,1.17-2.12-3.78,1.84-1.22,1.92-1.17,2.12ZM20.52,627c.44.47,2.96-.25,2.62-1.63-.62-2.57-4.35-.21-2.62,1.63ZM525.44,625.04c-.26-.21-3.11-.51-2.62.97.81,2.44,4.17.25,2.62-.97ZM472.85,628.33c-1.31-1.51-1.84,1.88-.32,1.96.57.03.4-1.88.32-1.96ZM44.84,628.98c-.3-.27-2.25-.48-1.96.97.39,1.98,2.81-.22,1.96-.97ZM98.09,652.64l-22.34-17.09.97,2.64,21.37,14.45ZM416.3,636.87c-.72-.72-2.02.59-1.31,1.31s2.02-.59,1.31-1.31ZM442.61,641.47c-.69.41-1.03,4.07,1.63,3.27,2.33-.7-.43-3.99-1.63-3.27ZM84.19,657.14c2.18-3.55-2.51-7.51-5.23-4.23-3.08,3.71,3.78,6.59,5.23,4.23ZM552.4,681.24v-13.15c0-2.38-7.04-5.92-8.55-7.88-.41-.54-4-10.11-4.62-5.26-.36,5.89,10.07,9.65,11.36,12.98,1.95,5.07-1.28,11.86,2.29,17.4.42.66.48,1.8,1.48.52l-1.96-4.61ZM459.04,657.9c1.07-1.07-2.13-2.75-1.95-.98.05.47,1.57,1.36,1.95.98ZM105.74,660.77c12.33,24.24,25.57,25.4,47.15,37.33,3.31,1.83,9.43,7.72,11.79,8.59,1.37.51,2.07.99,3.1-.48-22.92-14.35-39.39-36.69-63.47-49.59l-.93.93c.21,1.4,2.14,2.75,2.37,3.21ZM50.77,659.87c1.11,1.25,2.98-2.6.98-2.61-.68,0-1.38,2.16-.98,2.61ZM524.13,657.25c-.68-.67-2.63,1.3-1.96,1.96s2.63-1.3,1.96-1.96ZM35.44,660.07c-2.49-3.32-7.95-1.74-7.01,4.02,1.25,7.64,11.5,1.98,7.01-4.02ZM73.77,663.16c-1.29-1.02-3.97.82-2.62,1.96,1.05.88,3.46-1.3,2.62-1.96ZM438.67,664.48c-2.02-1.96-5.34,2.16-2.3,3.28,2.18.8,2.84-2.75,2.3-3.28ZM525.44,674.34c-.08-.06-1.89-.06-1.96,0-2.06,1.69,4.03,1.69,1.96,0ZM167.46,674.99v.66l.33-.33-.33-.33ZM166.8,676.31v.66l.33-.33-.33-.33ZM77.71,679.6c-.26-.21-3.05-.53-2.62.97.66,2.29,3.6-.2,2.62-.97ZM59.31,687.48c-.06-.1-1.87-.77-2.32-.03-2.53,4.18,3.88,2.56,2.32.03ZM425.51,687.48c-.72-.72-2.02.59-1.31,1.31s2.02-.59,1.31-1.31ZM533.29,692.79c-.73-.81-4.82-1.29-4.55.92.34,2.71,6.53,1.29,4.55-.92ZM187.51,745.98c-.07-8.79.08-47.34-5.97-52.22-6.32-5.1-2.16,14.66-1.81,16.96,1.78,11.81,4.49,23.8,7.78,35.26ZM430.77,696.03c-.72-.72-2.02.59-1.31,1.31s2.02-.59,1.31-1.31ZM458.39,696.69c-.55-.84-2.15.76-1.31,1.31.31.2,1.51-1,1.31-1.31ZM44.19,699.31c.75.84,2.95-1.57.97-1.96-1.45-.29-1.24,1.66-.97,1.96ZM543.86,700.62c.2-.31-1-1.51-1.31-1.31-.84.55.76,2.15,1.31,1.31ZM24.46,699.97c-.72-.72-2.02.59-1.31,1.31s2.02-.59,1.31-1.31ZM52.73,701.93c.25-.25-1.72-2.22-1.96-1.96-.22,1.24.77,2.19,1.96,1.96ZM117.64,705.71c3.59-4.35-4.35-8.43-6.58-3.6-1.7,3.69,4.17,6.5,6.58,3.6ZM70.48,706.55c-1.25-1.3-4.07,2.13-1.63,2.62,1.39.28,2.11-2.12,1.63-2.62ZM21.18,708.51c.2-.31-1-1.51-1.31-1.31-.84.55.76,2.15,1.31,1.31ZM47.47,708.52c-.05-.05-1.25-.05-1.31,0-.85.84,2.15.84,1.31,0ZM96.75,708.54l-1.97.27c-2.07,10.56-14.95,15.78-11.45,26.64.91,2.83,9.09,11.91,3.79,13.68l-7.51,1.08c-2.37,2.79,14.48,19.9,17.83,22.06l.33-36.8,62.78,57.84-.62-2.99c-25.13-24.32-46.04-51.31-63.19-81.77ZM404.48,711.8c.54-.53-.12-4.08-2.3-3.28-3.04,1.12.28,5.24,2.3,3.28ZM127.68,723.63c-.75-.84-2.95,1.57-.97,1.96,1.45.29,1.24-1.66.97-1.96ZM570.16,726.26c.36.37,4.41.13,3.94-1.63-.61-2.31-6.28-.75-3.94,1.63ZM147.74,724.95v.66l.33-.33-.33-.33ZM36.95,727.58c-.05-.05-1.25-.05-1.31,0-.85.84,2.15.84,1.31,0ZM135.57,738.1c-2.13-.21-2.18-.17-1.96,1.96l1.96-1.96ZM161.21,742.04c-1-1.07-3.39.59,0,1.97-.06-.53.14-1.82,0-1.97ZM56.68,743.35c-1.25-1.3-4.07,2.13-1.63,2.62,1.39.28,2.11-2.12,1.63-2.62ZM421.99,747.35c-2.18.84-1.31,5.21,2.2,3.56,2.85-1.34.03-4.42-2.2-3.56ZM149.38,751.23c.84-.75-1.57-2.95-1.96-.97-.29,1.45,1.66,1.24,1.96.97ZM48.79,754.53c-1.43-1.14-3.82.82-1.87,1.86,2.13,1.13,2.34-1.49,1.87-1.86ZM31.03,761.75v-1.96h-.64c.06.9-.46,2.18.64,1.96ZM541.88,763.07c.61-.78-.46-4.09-1.96-3.28-1.27.69.53,5.13,1.96,3.28ZM441.95,763.07c-.08-.06-1.89-.06-1.96,0-2.06,1.69,4.03,1.69,1.96,0ZM70.48,764.39c-1.63-1.9-2.99,2.61-.98,2.61.68,0,1.38-2.15.98-2.61ZM161.87,767.67c-.72-.72-2.02.59-1.31,1.31s2.02-.59,1.31-1.31ZM165.81,772.94c-.05-.05-1.25-.05-1.31,0-.85.84,2.15.84,1.31,0ZM104.75,787.97c2.68,1.73,4.77-3.02,1.46-3.77-2.9-.65-2.24,3.26-1.46,3.77ZM432.08,785.43c-.89-.94-4.66-1.04-3.93,1.62.58,2.11,4.93-.57,3.93-1.62ZM520.84,797.25c-1.87-1.87-3.33,2.93-.98,2.61.78-.11,1.36-2.24.98-2.61ZM147.4,800.54c-.58-.57-4.05.13-3.28,2.29,1.08,3.01,4.75-.84,3.28-2.29ZM491.91,805.79c1.02-1.69-2.59-4.9-3.64-1.98-.79,2.2,2.92,3.16,3.64,1.98ZM105,804.81c-4.61-5.04-8.24,2.81-4.26,4.61,2.79,1.26,7.38-1.2,4.26-4.61ZM153.98,807.77c-.72-.72-2.02.59-1.31,1.31s2.02-.59,1.31-1.31ZM128.92,817.05c-.13-.18-2.36-.96-2.54-.73-2.51,3.01,4.7,3.79,2.54.73ZM170.42,821.56c.75.84,2.95-1.57.97-1.96-1.45-.29-1.24,1.66-.97,1.96ZM90.86,832.75c-.46-.39-2.61.3-2.61.98,0,2.01,4.51.65,2.61-.98Z" fill="#fff"/>
  <path d="M147.41,211.27c.14,1.1,1.13,2.77,1.15,4.11l1.48.82c.02-1.23-.1-2.68.46-3.8,19.72-39.69,49.3-74.06,75.8-109.25l-8.17,58.53c-14.75,13.46-25.88,32.36-27.33,52.54,4.44-19.22,13.35-37.15,27.97-50.59,19.08-17.54,40.6-32.2,58.5-51.28,21.6-23.02,35.7-51,52.25-77.57,5.58,34.29,14.1,67.95,18.86,102.42,1.06,7.66,3.46,19.58,3.45,26.84,0,1.88-1.44,2.98-1.26,4.83l38.46-43.38c-1.42,19.35-1.32,39.49-3.57,58.87-.82,7.04-2.78,17.11-4.1,24.83-3.87,22.61-5.76,27.57-18.74,46.26-10.64,15.32-23.35,28.98-36.38,42.24,1.66,1.59,21.02-19.86,23.2-21.16,8.25-4.91,27.2-9.34,37.26-13.36,5.35-2.14,10.38-5.29,15.81-7.2-20.23,31-48.77,55.13-82.19,70.98l40.1.33c-3.72,5.18-39.71,16.91-39.19,20.41l3.69,5.21-28.92,1.98c2.2-5.89,5.58-11.58,5.93-18.05,1.08-19.93-22.18-48.29-32.9-17.44l-7.9-2.94c-1.3-10.23-1.21-21.26-7.54-29.93,1.47,7.48,4.56,14.14,4.92,22.04.75,16.53-5.34,32.49-15.78,45l-1.3-.33c1.49-18.25-5.42-34.69-16.15-48.92l-1.58.28c8.34,12.06,17.37,26.42,15.11,41.74-5.31-15.73-16.77-29.43-28.86-40.54l2.89-16.64-12.17,55.21-3.25-5.74-1.36-23.18c-3.76,12.77.98,27.51,4.61,40.08-12.34-2.06-32.5-22.68-34.01-34.67-1.86-14.75,6.86-30.04,12.65-42.88-10.1,11.09-18.4,35.64-12.48,49.94,1.04,2.51,5.94,8.43,6.07,9.63.18,1.65-2.95,14.33-3.15,18.29-.41,8.07.46,16.04,1.33,24.01-6.01-1.85-19.56-7.15-22-13.17-2.96-7.3-1.82-23.12-.04-30.89.3-1.31,4.6-9.93,3.31-10.49-9.58,12.5-4.62,30.41-12.84,44.03-1.99-8.39.67-17.04,1.99-25.3-.24-2.49-1.38.8-1.51,1.13-4.19,11.49-1.02,24.64-3.75,36-4.81-19.73-9.1-39.38,4.59-56.52-.87.28-1.45.7-2.4.19-25.21-13.58-27.4-28.87-30.45-55.75-1.34-11.88-1.46-23.85-1.33-35.8,10.29,23.4,25.36,49.62,51.93,56.52-8.64-10.6-6.64-29.54-3.89-42.34,4.8-22.44,16.23-43.35,29.87-61.49-1.1,6.41-3.42,12.55-4.74,18.92-2.83,13.65-5.03,28.24-5.47,41.53l12.17-65.06c-14.12,16.37-24.44,35.3-30.75,56.02-5.19,17.06-8.53,32.05-1.8,49.14-1.69,1.76-16.67-9.48-18.11-11.79-9.85-15.82,3.72-66.51,11.54-83.51.59,6.29-.8,13.94,0,20.05ZM315.43,93.66c3.65-10.45,7.41-22.25,10.1-32.97.79-3.14,3.49-9.81,1.38-12.1-3.48,13.06-6.8,26.36-11.09,39.17-2.54,7.57-5.78,17.03-8.99,24.56-7.71,18.1-28.1,32.53-41.74,47.01-6.64,7.05-12.9,14.55-19.05,22.03l55.21-54.9c6.35-10.05,10.3-21.62,14.2-32.79ZM367.65,164.93l-29.9,32.86-7.89-53.89c-8.12,18.67-20.55,36.4-32.67,52.79-14.5,19.59-31.15,37.46-46.55,56.32,31.4-29.31,56.74-64.57,78.88-101.22l7.82,68.61c-5.89,20.42-15.25,39.63-25.24,58.23,6.05-7.08,10.11-15.67,14.05-24.07,3.19-6.81,13.76-30.5,13.91-36.68.11-4.5-1.08-12.16-2.63-16.12l30.22-36.82ZM315.43,211.98c4.37-11.82,6.98-24.26,9.48-36.53-1.12-1.39-8.38,29.18-9.09,31.29-3.02,8.9-8.53,19.99-13.14,28.3-9.05,16.29-21.06,29.94-34.95,42.28,22.05-15.1,38.51-40.46,47.7-65.34ZM127.92,286.96c-1.11-1.42-1.14-4.33-3.52-4.37,6.94,14.58,19.64,27.94,35.5,32.85-14.02-7.5-22.36-16.15-31.98-28.48Z" fill="#fff"/>
  <path d="M261.81,836.69c-1.62-6.48-3.13-14.37-5.41-20.56-5.02-13.65-15.82-30.15-18.07-44.37-3.1-19.57.99-40.33,1.12-59.95l-3.29,40.74c-5.14-25.73-1.33-52.71-.65-78.88l20.39,1.32c-5.22,33.39-2.85,67.14,4.93,99.9,2.51,10.55,5.24,21.67,10.84,30.89-10.95-32.6-18.15-66.86-17.11-101.57.1-3.27,1.81-27.39,2.78-28.44.29-.32,4.7-.99,6.25-1.97,1.82-1.14,5.79-5.64,7.26-5.95.72-.15,13.98,1.2,14.63,1.53l15.46,41.07-13.49-40.73,37.44,2,6.28,21.01-4.93-21.04,21.02-1.97,13.81,56.52-12.49-57.17,19.98-6.64c12.83,29.52,23.66,60.29,26.04,92.73l-30.88-71.33,34.17,87.76c-16.24-13.7-28.72-31.09-43.72-46.01l-.31.97c17.98,21.17,36.94,41.47,56.7,60.95,1.4,12.19-4.27,23.01-4.12,34.7l-25.31-35.49,31.89,49.95h-135.11l-18.42-23.65,16.12,23.65h-13.81ZM286.78,739.4c-5.43-18.12-7.64-38.61-12.79-56.54-.28-.98-.47-2.33-1.66-2.61,3.53,19.93,7.44,40.13,14.45,59.15Z" fill="#fff"/>
  <path d="M419.6,467.95l7.88,42.06-4.59-3.28c.95,4-8.22,29.37-10.2,29.57.45-3.38-2.37-8.08-2.32-10.85.08-4.15,5.28-12.95,5.92-19.07.54-5.16.23-18.81-1.35-23.59-.78-2.34-12.7-14.58-13.75-13.52l7.16,16.97c2.43,8.24,4.57,19.44,3.29,27.98-.54,3.61-3.21,7.62-3.26,11.24-.16,11.98,5.78,25.34,3.99,40.1-1.24,10.26-10.47,17.36-12.82,26.62l3.61-3.94c-1.72,21.89-5.87,43.67-11.33,64.91l-38.63.17,21.69,1.97c-29.6,22.27-68.94,12.41-103.24,10.86,1.03-5.56,3.38-10.81,3.87-16.54.69-7.96.08-16.51-4.51-23.23l29.85,3.22,59.57-17.36c-.13-.64-10.8,1.72-11.85,1.97-24.92,5.86-50.5,19.91-76.42,10.67-.95-.34-1.86-.59-2.47-1.48l.69-1.27c19.73-10.67,40.97-27.38,64.09-28.61,13.69-.73,24.13,3.02,37.13,5.89l-13.8-5.9,15.77-3.63c-8.36-.01-16.64,4.32-24.98,2.3,4.96-15.4,4.23-34.78-3.63-49.28l-.71,1.36c6.85,14.36,7.38,32.08,3.33,47.3l-28.3,2.37c-14.93-20.26-8.16-49.03.04-70.76l17.22,11.05,6.78,2.43c-12.47-7.28-23.83-14.65-31.55-27.28-.95,3.96,6.09,9.29,6.3,11.5.23,2.45-3.77,8.48-4.66,11.51-1.42,4.84-2.7,10.71-2.97,15.77-6.96-6.46-8.61-14.25-9.22-23.31-1.21-18.08,1.32-39.26,7.6-56.2l25.95-7.26-11.83-4.92c23.3-17.78,61.93-15.54,86.77-2.3l-10.18-12.5c16.42,4.57,21.43,17.49,28.58,31.24l-8.53-4.93ZM384.37,470.31c-1.4-4.08-2.62-8.58-5.55-11.89,12.99,28.62,11.29,60.59-13.14,82.47,23.03-15.35,27.17-45.8,18.68-70.59ZM328.86,491.61h-1.3c4.62,16.62,15.39,30.61,28.61,41.39-10.7-12.93-22.67-24.62-27.3-41.39ZM404.26,522.29c.42-.47,1.44-1.96.55-2.41l-37.8,22.34c9.85-3.89,30.36-12.3,37.25-19.92ZM396.58,558.66l-15.77,23c7.79-5.42,11.75-14.65,15.77-23ZM385.14,622.15c.89-2.77,3.15-7.69,1.6-10.25-2.95,5.4-4.17,14.11-6.92,19.05-4.73,8.49-23.48,10.7-31.22,16.43,7.91-2.61,28.41-7.99,32.58-15.08.97-1.65,3.3-8.08,3.97-10.15ZM338.72,637.53l-48.64,12.47c16.42-2.69,33.57-5.47,48.64-12.47Z" fill="#fff"/>
  <path d="M416.97,433.1l12.48,26.95c-11.82-10.05-21.98-20.18-38.12-23l9.86,10.5c-26.62-7.85-58.97-9.77-81.86,8.54l.04,1.34,8.19,3.92c-5.36,1.67-19.28,3.3-23.3,6.62-4.31,3.56-14.61,30.26-15.52,37.11.29,15.12,16.74,33.79,19.97,45.78.64,2.37.46,4.71.44,7.12-12.83-7.26-23.66-17.95-32.21-29.91-.75-.78-.8-.03-.67.67,1.32,7.17,25,27.82,32.77,30.67.19,8.26-.45,16.23,2.08,24.2-22.3-2.24-41.61-11.83-58.85-25.62l-.97.97c.78,2.75,27.63,17.93,31.76,19.52,4.87,1.88,27.71,5.98,28.94,7.05s1.67,7.41,4.37,8.93c-.2.61-10.64,5.88-11.48,5.94-4.18.31-16.52-2.78-22.34-3.02-22.69-.9-47.18-.68-69.38,3.98,10.12.45,20.82-2.18,31.19-2.67,19.11-.91,39.32,0,58.21,2.67l-34.81,20.1c-6.25-9.28-12.44.71-20.76,2.17-4.52-5.22-7.8-8.71-14.98-5.06-2.78,1.41-2.7,2.93-4.72,4.47l-9.54-11.16,42.08-8.55-42.34,7.79c-16.68-18.89,1.79-19.47,17-20.31,12.6-.69,25.28.86,37.82.69-12.55-2.21-27.03-2.78-39.79-2.01-5.46.33-20,4.17-22.95,3.95-1.59-.12-13.12-7.81-13.41-8.98l5.17-11.38,2.29,4.6,31.23-16.76-29.89,14.15c-2.47-5.04-10.03-17.16-7.6-22.55.42-.92,8.15-9.99,9.55-11.65,7.68-9.12,17.34-16.49,24.66-25.96l-26.94,25.31c-.53-10.26-5.56-26.29-2.12-35.97,1.23-3.47,5.57-6.64,6.43-10.66,1.02-4.75-1.05-8.52.23-12.92,1.72-2.42,14.16-3.55,16.46-5.23,1.98-1.45,6.25-14.29,8.7-17.6,4.83-6.52,35.7-16.48,44.92-19.51,5.31-1.75,10.75-3.05,16.12-4.59-3.56,4.18-7.61,9.35-11.88,12.76-7.24,5.77-26.11,18.03-34.36,22.17-9.82,4.94-21.55,7.7-31.99,11.08,9.24-.05,22.21-4.48,30.69-8.43,10.43-4.85,19.8-13.79,29.78-18.21l-1.97,2.96h.98c15.49-16.27,29.03-30.66,48.79-41.93,19.61-11.18,41.42-19.88,63.04-26.38l.93.93-3.27,12.83c8.67-3.33,18.19.96,26.29,3.96l-13.14,3.28,9.86,11.82-27.61-5.26c8.25,2.64,20.28,3.6,27.97,7.21,2.75,1.29,4.5,3.97,6.64,5.19,3.37,1.91,7.87,2.38,10.75,5.36h-9.86ZM370.94,408.14c-16.83,4.29-36.29,9.52-49.96,20.36l49.96-20.36ZM384.09,427.85c-12.62.42-25.9-1.35-38.12,2.62l19.38-1.32,18.75-1.3ZM332.81,433.77c-17.79,8.2-33.98,19.86-46.68,34.83,8.53-5.96,15.27-13.87,23.74-19.96,6.61-4.75,15.13-8.29,21.42-12.77.81-.58,1.81-.73,1.51-2.09ZM267.98,482.65c5.78-8.52,13.09-16.69,17.49-25.88-15.4,17.47-26.41,38.52-40.1,57.32-9.85,13.53-21.87,25.63-31.55,39.3,21.7-20.69,37.46-46.12,54.16-70.74ZM213.15,498.17c23.08-3.69,50.01-11.63,61.79-33.51-10.13,12.23-20.76,20.25-35.81,25.65-8.55,3.07-17.98,4.13-25.99,7.86ZM273.63,543.53c-2.4-11.79-3.85-22.72-3.6-34.83-3.21,8.53-2.06,16.02.11,24.86.78,3.16,1.82,7.22,3.49,9.97ZM278.9,583.64c-20.94-5.32-45.31-6.97-66.41-1.65,24.81-4.13,47.44-.53,70.36,8.87,1.64-1.35-21.45-8.78-23.01-8.55l18.2,2.53.86-1.2ZM271.67,609.27c-10.71,2.45-31.6,1.85-41.06,5.94-1.58.68-1.93.56-1.67,2.6l42.73-8.53Z" fill="#fff"/>
  <path d="M272.98,367.37c.3,4.21.6,8.46-.17,12.65-1.77,9.6-26.44,35.49-36,38.28-11.52,3.37-14.04-5.53-21.38-12.13-1.7-1.53-4.6-2.05-5.4-2.82s-1.11-3.57-2.42-4.48c-1.39-.96-3.94-.46-5-1.58-1.23-1.31-.49-5.29-2.93-7.58-3.16-2.97-10.77-2.66-14.8-2.63l7.04-19.93c-9.35-8.51-15.92-11.67-16.24-26.07,8.35,8.5,17.14,15.77,28.92,19.06-5.21-16.23,1.85-35.09,5.27-51.27l1.52.11c12.99,14.13,26.58,30,29.04,49.84,6.39-6.9,12.85-14.33,15.46-23.66l9.14,5.2c3.92-12.09,8.91-47.29,26.94-26.49,10.77,12.42,9.96,28.83.32,41.58-3.99,5.29-12,13.75-19.32,11.91ZM290.99,319.83c-8.93-16.48-19.26,9.82-18.49,16.48.25,2.18,2.78,2.33,3.64,3.92,2.32,4.29-1.42,11.99-2.88,16.32l1.2,1.87c7.41,3.43,18.39-18.88,17.6-22.25-.24-1.03.41-1.17-1.31-1,.42,3.5-11.17,25.3-15.13,21.68,1.63-5.71,5.22-14.5.67-19.38,3.94-3.43,5.99,3.17,5.91,6.24,3.66-4.02-2.09-11.54-7.23-8.55.87-7.17,6.76-26.65,15.47-13.83l1.62-.31c.44-1.28-.9-.9-1.07-1.2Z" fill="#fff"/>
  <path d="M191.46,614.52l-11.75-3.05c-1.1-6.26,4.65-7.69,7.81-11.4-3.98.64-7.27,2.54-9.53,5.9l-14.13-6.89c2.5-2.32,3.08-7.83,6.89-8.28,9.11,3.68,22.06,3.61,30.57,6.97s13.44,14.69,19.09,21.67c2.14,2.64,6.69,5.5,8.53,7.9,7.02,9.15,2.88,26.8-1.26,36.7-19.08,3.95-40.85,2.35-60-1.09-10.24-1.84-23.15-2.96-20.91-16.88,12.48,8.34-.11-2.35-.52-3.76-.79-2.71.71-5.39.52-8.07,1.6-.14,4.04,9.7,5.91,7.22.24-.32-3.21-5.5-3.6-6.58-2.41-6.62-3.67-13.46-1.65-20.35l11.16,16.43-8.98-20.61c1.87-8.56,8.89-10.21,16.91-8.67,3.76.73,13.04,5.23,9.82,10.22l-12.16-5.91-.31,1.29c5.1,2.71,9.88,7.24,16.1,7.24h11.51ZM203.29,648.05c-13.15-3.03-26.28-6.24-39.44-9.21l19.85,6.11,19.59,3.1ZM196.06,658.57l-36.15-7.89c10.82,4.66,24.55,7.52,36.15,7.89Z" fill="#fff"/>
  <path d="M263.59,619.98c.53.41,7.41,9.77,7.9,10.83,4.22,9.26,2.99,22.43-.81,31.68-6.34,15.44-17.35,9.33-30.56,9.21,10.53-13.81,11.5-29.67,7.29-46.24,3.88-.44,13.8-7.3,16.18-5.48ZM253.7,664.24c4.35-3.54,6.79-12.7,6.13-18.17-1.97,6.66-2.31,14.19-8.54,18.73.5.91,1.88-.14,2.41-.56Z" fill="#fff"/>
  <path d="M480.73,756.49c-2.22,1.34-7.64-11.78-8.67-13.34-4.24-6.41-14.79-18.26-22.61-19.46-3.46-.53-9.6,1.01-11.62.49-4.64-1.2-13.81-19.55-18.89.76l-9.2-38.12c5.36,6.78,14.31,21.03,21.47,25.52,8.26,5.18,24.61,7.23,34,11.37,3.75,1.66,22.63,14.01,22.46,17.74l-6.93,15.04Z" fill="#fff"/>
  <path d="M241.85,620.67c10.29,8.72,6.84,42.66-4.38,50.69-3.69,2.64-10.19.76-10.38-3.38-.03-.69,4.77-9.68,5.48-12.69,1.55-6.53,2.47-16.66.78-23.16-1.08-4.16-6.14-7.56-1.75-11.34,3.08-2.65,7.08-2.8,10.25-.12Z" fill="#fff"/>
  <path d="M300.59,531.7c-4.56-7.18-6.81-15.56-8.61-23.79-.1-.47-1.13-.57-1.21-1.01-.95-5.18,6.02-20.6,8.61-26.04,1.75-3.68,3.56-8.04,6.47-10.94-5.33,19.97-7.99,41.19-5.26,61.79Z" fill="#fff"/>
  <path d="M259.84,318.73c12.23-.17,5.23,11.73,2.94,18.41-9.53-4-2.63-10.94-2.94-18.41Z" fill="#fff"/>
  <path d="M414.99,505.08c-.04.32-.59,2.52-1.31,2.3-.33-9.67-2.68-19.19-5.3-28.43-.19-.69-1.26-.23-1.29-.83l1.33-.66c4.72,2.53,6.56,11.57,6.56,16.44,0,3.4.41,7.98,0,11.17Z" fill="#fff"/>
  <path d="M510.98,621.09c-.84.85-.84-2.15,0-1.31.05.05.05,1.25,0,1.31Z" fill="#fff"/>
  <path d="M337.65,369.11c9.8,10.26,21.28,13.88,31.31,23.24-24.74,9.54-49.94,20.47-69.88,38.27l-35.95,11.38c7.83-13.11,4.61-27.62-3.89-39.35,9.17-10.43,18.23-17.6,15.7-33.29,8.82,1.85,13.42-9.23,19.36-11.86,5.05-2.24,27.99-4.51,32.57-2.26,3.35,4.73,6.76,9.69,10.77,13.88ZM275.6,433.76c5.21-15.85,7.9-33.32,6.58-49.95l-6.58,49.95Z" fill="#fff"/>
  <path d="M202.64,836.69l-13.8-76.24,15.11,51.26,25.66-135.07-23.69,121.92c-1.74-30.04-.31-60.53,4.04-90.28,1.45-9.91,3.12-20.27,6.47-29.68,1-2.8,4.35-13.62,8.2-12.17.65.24,2.61,9.92,9.6,8.29-1.65,31.61-4.32,65.13,2.12,96.38,3.06,14.87,11.91,29.49,17.55,43.58-12.78-11.66-20.53-27.85-28.9-42.4-2.04,2.51,16.22,30.4,19.07,34.31s8.45,8.22,10.63,11.91c2.91,4.91,3.77,12.75,5.79,18.2h-57.86Z" fill="#fff"/>
  <path d="M571.86,474.92c-2.71,10.48,2.55,13.37,2.29,22.92-.28,10.09-4.54,8.3-1.97,21.01,7.21,35.59,16.21,56.39,9.48,94.36-2.57,14.52-11.84,36.47-12.74,49.05-.47,6.6,1.89,15.3.38,20.76-.86,3.08-3.48,5.29-4.59,8.55-1.53,4.48-3.67,29.11-9.33,29.42-1.36.07-4.04-1.78-3.53-3.42,2.14-6.47,7.7-14.96,8.81-21.5.87-5.13-.62-9.06-.37-13.47.45-7.84,5.81-16.08,5.33-24.37-.29-4.98-11.29-16.03-10.56-19.01.14-.57,1.4-1.38,1.94-1.03-.57,2.12,7.34,15.2,8.55,14.46,1.12-5.56,2.49-11.2,3.21-16.85,1.04-8.23.28-19.32,2.01-26.88,1.15-5.03,6.42-9.81,6.47-16.41.06-8.6-8.05-15.29-8.97-24.39-.84-8.23,2.7-15,1.73-22.11-1.34-9.8-10.88-24.62-12.27-33.74-.79-5.22.86-11.66.51-16.3-1.58-21.28-7.09-56.76-5.16-76.96,1.06-11.13,9.74-20.51,12.95-4.43,4.48,22.48,1.65,46.41-5.74,67.84-.57-7.25,3.16-14.81,4.43-22.2,2.13-12.43,2.3-25.39.83-37.92-.39-3.33-1.96-22.03-8.45-12.41-5.32,7.9-.05,45.1.59,56.42.75,13.32-.19,31.49,1.3,44.05,1.18,9.97,14,31.15,13.81,39.4-.09,3.95-2.77,6.61-3.11,10.75-1.02,12.35,3.75,14.22,7.16,24.02,4.93,14.16-1.69,14.39-3.89,25.92-3.05,15.95-3.58,34.97-6.18,51.66-1.59,10.23-6.5,19.06-4.5,30,1.18-2.83,5.18-7.03,5.75-9.68,1.22-5.67-1.37-12.58-1.11-18.14.45-9.38,6.94-24.2,9.37-34.08,6.25-25.41,8.26-42.79,4.19-69.03-2.04-13.14-11.64-37.63-11.68-48.18-.04-9.65,4.02-9.04,2.08-21.22-3.07-19.28-.63-14.86,5.04-30.86,6.83-19.26,11.24-46,.49-64.6-3.13-5.41-7.97-9.08-11.52-14.11,5.57,2.67,11.21,9.57,13.93,15,14.56,29.15-.11,51.35-6.95,77.75ZM553.72,719.03c3.01,2.9,6.31-9.89,6.66-11.41.59-2.5.98-5.09,1.21-7.65l-7.88,19.06Z"/>
  <path d="M422.23,129.1c-1.15,10.07-7.61,14.74-9.57,22.64s-.15,18.86-4.22,26.33c-5.89-17.02-4.17-36.92-7.42-54.04-3.15-16.58-12.6-38.03-14.19-54.83-.44-4.7,1.15-13.67.43-16.84-.79-3.45-4.24-2.72-5.63-5.57-2-4.11.26-7.31-.28-10.18-.22-1.2-5.46-9.77-6.44-11.68l3.29,106.48-4.77-107.63,1.78-1.46c.77.1,7.25,12.87,7.42,13.62.73,3.09-.65,7.88.63,10.54.89,1.84,4.71,1.86,5.43,5.09.89,4.01-.89,9.15-.68,13.15.92,17.93,11.14,41.4,14.33,59.32,1.34,7.51,1.25,16.28,2.26,24.03.99,7.65,2.32,15.26,3.85,22.78,2.53-6.34,1.2-13.98,2.91-20.41,1.12-4.22,5.11-8.08,6.61-11.8,4.48-11.13,3.05-27.69,1.65-39.43,1.87-.32,2.78,4.4,3.11,5.76,3.76,15.56,2.77,35.37,6.26,50.93.96,4.28,4.1,8.22,5.76,12.64s2.36,9.52,3.95,14.13l1.97-60.46,36.17,32.52-34.19-29.24-2.31,63.1c-4.29-6.15-5.36-14.48-7.87-21.73-.44-1.27-1.57-1.34-1.85-2.11-5.83-15.83-4.75-33.32-8.37-49.77-.37,4.51.51,9.72,0,14.13Z"/>
  <path d="M524.37,135.14c.04.16.91.22,1.03.71,5.88,25.16,3.92,51.54,11.24,76.4l3.94-11.84c.53.08,1.84-.12,1.96,0,2.21,2.24-.08,31.35,6.93,39.42,2.26,2.6,5.94,4.02,8.54,7.25,6.55,8.13,2.53,10.87,4.57,18.43.77,2.84,14.57,16.97,4.48,19.55-4.45,1.14-22.56-.9-25.17-5.44-5.03-8.75,6.84-14.86,3.2-22.92-3.21-7.11-41.51-18.84-50.32-22.65-7.39-3.19-15.25-8.69-23.23-11.62l50.6,19.08c.41-5.4-5.54-9.47-5.86-13.9-.43-5.87,4.43-10.08,4.58-15.07.13-4.15-2.85-9.57-3.32-14.41-1.57-16.14-1.77-48.77-.66-65.12.11-1.6,1.8-14.75,2.98-14.75,2.54,5.28,3.14,11.27,4.51,16.87ZM524.37,143.68c-1.4-6.49-2.5-13.07-4.19-19.5-.92.63-1.21,3.85-1.29,4.94-1.79,23.19-.63,56.58,3.11,79.02,1.56,9.37-4.84,14.53-3.51,20.59.5,2.25,2.77,3.89,3.68,6.19.96,2.42,1.17,7.55,1.61,8.25.55.88,15.48,6.49,18.71,8.9s3.53,3.83,5.95,6.67v2.31c-3.08,4.83-10,16.8-2.56,20.5,1.47.73,18.73,2.62,20.38,2.05,8.06-2.77-4.17-14.21-4.99-17.44-1.94-7.69,1.57-11.27-5.24-19.08-5.55-6.37-8.36-3.15-11.03-13.29-2.49-9.43-2.13-19.15-3.11-28.77l-5.24,14.46c-1.29-9.31-4.42-18.07-5.82-27.38-2.53-16.87-2.85-31.74-6.44-48.42Z"/>
  <path d="M58.22,325.11c.23,1.63,1.09,6.85,1.71,9.1.31,1.13,8.93,15.54,7.6,15.41-5.12-6.49-9.42-13.8-11.83-21.69-2.08-6.81-5.44-19.69-4.76-26.44.18-1.82,2.71-8.02,2.46-8.38-.14-.2-1.9.64-3.49-2.77-6.13-13.17-7.15-43.4-6.36-58.03.49-9.18,6.47-32.26,5.87-38.11-.2-1.94-4.95-8.89-6-11.74-3.1-8.38-3.73-16.09-2.38-24.96.23-1.51,2.06-2.28,1.91-4.73s-2.6-2.93-2.74-4.65c-.11-1.42,1.41-2.2,1.24-3.72-.31-2.69-4.95-14.92-3.83-16.29,1.33-.28,1.55.66,2.1,1.51,12.5,19.62,11.55,48.07,12.35,70.48.27,7.61.53,15.37.7,22.96.39,17.68-2.98,51.9-.07,67.11.52,2.7,2.24,2.16,2.75,3.82,2.79,9.02,1.46,21.57,2.78,31.1ZM41.89,139.29v.66l.33-.33-.33-.33ZM49.44,189.9c.93-15.65.6-35.51-7.22-49.3-.15,3.77,2.3,10.09,1.99,13.51-.2,2.21-2.39,5.46-2.63,9.18-.58,8.88,2.36,19.57,7.86,26.6ZM50.75,285.87l-.32-86.77c-6.79,28.04-8.74,59.03.32,86.77ZM51.09,287.18v.66l.33-.33-.33-.33ZM54.7,296.39c-1.75-.25-1.02.14-1.34.96-3.54,9.1.98,18.02,3.31,26.64l-1.97-27.6Z"/>
  <path d="M548.24,294.63c6.75,9.15,3.63,21.46,15.65,33.33,4.28,4.23,11.42,5.59,9.13,13.05-2.46,7.99-13.15,6.33-18.63,8.31-3.16,1.14-9.33,6.02-13.15,7.89-11.76,5.74-29.33,11.53-42.43,12.13-5.79.26-13.16-3-16.37-2.6-4.28.52-9.93,5.86-17.04,5.85-14.93-.02-34.32-16.04-48.25-21.48-7.08-2.76-15.74-3.86-23.19-5.41-.23-1.82.22-1.24,1.56-1.23,25.38.18,52.54,29.55,74.73,25.92,3.89-.64,9.16-4.57,11.53-4.94,3.65-.57,10.6,2.73,15.74,2.64,13.58-.24,32.21-6.97,44.38-12.84,3.7-1.78,9.26-6.24,12.35-7.37,5.81-2.13,18.07.21,16.61-10.41-.46-3.38-10.34-9.99-13.09-13.9-5.53-7.86-7.75-27.89-14.77-31.25-3.88-1.86-7.14.14-10.22-3.58-4.63-5.59-1.12-15.97-4.37-22.58-3.49-7.1-17.23-7.66-5.61-21.02l-2.49,11.35c2.57,4.1,7.05,3.69,9.41,8.36,3.4,6.71.8,19.28,4.35,23.25,2.71,3.03,9.7.49,14.16,6.55Z"/>
  <path d="M96.75,708.54c17.15,30.46,38.06,57.45,63.19,81.77l.62,2.99-62.78-57.84-.33,36.8c-3.35-2.16-20.2-19.27-17.83-22.06l7.51-1.08c5.3-1.77-2.88-10.85-3.79-13.68-3.5-10.85,9.38-16.08,11.45-26.64l1.97-.27ZM104.95,724.66c-3.1-4.74-5.97-9.71-9.48-14.17-.12,5.83-11.22,15.55-11.69,19.53-.98,8.37,16.67,20.52-2.35,21.23l-.46,1.63,15.13,16.77c-1.87-12.14-.89-23.98.01-36.15l1.49.14,45.18,41.26c-15.02-15.1-26.29-32.53-37.85-50.23Z"/>
  <path d="M474.82,104.13c1.05-10.05,8.14-13.95,13.14-22.02.89,24.87,1.68,49.88,5.36,74.51,2.63,17.6,6.82,35.72,13.05,51.69-.2-14.97-.04-30.02,2.96-44.71l1.66.36c-3.8,17.61-3.54,35.66-2.63,53.55-1.9.38-1.05-.57-1.49-1.43-6.74-13.04-12.51-42.36-14.84-57.49-3.62-23.47-4.59-47.5-5.36-71.22-6.58,6.15-9.91,11.71-10.54,20.67-.75,10.63,2.67,23.1-1.93,32.57-.65-1.41.65-3.51.65-4.27,0-9.89-.99-22.73,0-32.21Z"/>
  <path d="M150.69,84.08c-5.15,7.76.92,42.12-4.87,46.05-2.16,1.47-3.93.44-5.31-1.35-3.33.14-2.14,28.51-3.61,32.19.7.69,14.87-6.18,17.6-6.45,4.48-.45,4.01,2.62,1.72,3-1.55.25-3.14-.84-6.06-.03-1.29.36-12.14,4.64-12.61,5.14-1.77,1.91.44,6.58-1.3,8.56-.65.75-7.19,2.13-9.16,3.33s-3.44,3.88-5.38,5.13c-8.31,5.38-21.74,9.98-30.08,2.54-.62-2.1.85-4.01,2.21-5.43,6.03-6.33,40.15-12.83,41.42-15.12,1.71-5.81.09-31.18,3.9-34.24l5.22,1.41c4.95-7.51,1.48-15.38,1.66-22.72.03-1.42,1.04-25.88,4.66-22.02ZM135.57,164.27c-6.14,1.31-43.28,10.36-42.59,16.77,17.01,11.37,27.79-7.55,42.52-10.93l.07-5.85Z"/>
  <path d="M129,476.49c-24.27,13.95-66.58,6.17-85.48,28.57-34.61,41,69.09,49.94,89.75,48.97,10.46-.49,21.04-3.77,31.24-3.28-28.32,6.86-59.83,5.77-88.09-.98-20.44-4.88-56.08-20.41-33.55-46.02,15.13-17.2,43.21-16.52,63.81-21,7.57-1.64,14.68-4.95,22.33-6.26Z"/>
  <path d="M466.11,241.02c-3.98,3.85-26.79-9.08-33.23-10.82-15.06-4.07-31.59-4.48-46.81-8.09l.34-1.98c17.72,5.17,36.86,4.45,54.22,10.87,5.29,1.96,18.01,10.09,22.68,9.51,2.85-.35,2.43-2.48,1-4.27-1.66-2.08-28.93-10.32-35.1-13.54-13.31-6.93-25.23-19.46-41.17-20.97-1.35-3.36,5.01-.98,7.2-.29,15.57,4.86,28.55,17.64,44.3,24.07,6.18,2.52,19.2,5.09,23.25,7.65,2.25,1.43,6.02,5.25,3.33,7.85Z"/>
  <path d="M81.25,400c10.23,11.74,20.87,22.59,32.96,32.45l-.65.65c-15.62-14.3-34.97-27.38-49.33-42.71-8.07-8.61-16.85-19.32-20.04-30.9,2.72-3.07,34.65,37.75,37.05,40.51ZM59.07,374.85c-3.77-4.11-8.21-8.19-12.24-12.07,7.71,17.11,22.68,32.26,37.8,43.37-8.75-10.14-16.49-21.41-25.56-31.29Z"/>
  <path d="M184.88,148.49c-8.96-12.09-3.31-31.54-6.05-44.22-.77-3.57-5.02-6.03-5.17-10.67-.2-6.36,6.05-13.77,12.9-12.77,4.4-8.37-16.78-22.84-22.06-21.46-5.83,1.52-1.26,9.34-2.91,11.61l-6.94-.7c-.66,3.3-.34,6.8-.75,10.1-.12.99-.09,4.9-1.88,4.36l2.34-16.33,6.2,1.21c-5.32-25.63,32.16-1.66,27.96,11.83-1.44,2.8-7.9-1.27-11.35,6.42-3.97,8.86,2,10.3,3.05,16.98s0,16.28.73,23.59c.69,6.85,2.2,13.43,3.92,20.06Z"/>
  <path d="M105.74,660.77c-.24-.46-2.16-1.82-2.37-3.21l.93-.93c24.08,12.9,40.55,35.23,63.47,49.59-1.03,1.47-1.73.99-3.1.48-2.36-.87-8.47-6.76-11.79-8.59-21.58-11.93-34.82-13.09-47.15-37.33ZM148.72,694.7c-11.97-13.65-26.51-24.6-41.41-34.83,6.08,18.26,25.35,27,41.41,34.83Z"/>
  <path d="M58.24,597.21c3.83,9,12.26,19.94,12.82,30.21.26,4.8.28,5.75-4.17,3.51-10.51-5.31-14.09-17.72-20.75-25.92-5.98-7.35-17.49-11.2-15.69-22.31s14.25-4.55,19.35.24,5.96,8.45,8.44,14.27ZM58.24,604.42c-1.45-3.14-.95-6.93-2.28-10.54-3.85-10.43-26.18-24.97-24.28-7.29.73,6.81,9.7,10.65,13.82,15.13,8.3,9.03,11.3,22.98,23.38,28.56l.98-.97c1.49-10.86-8.62-18.42-11.61-24.88Z"/>
  <path d="M561.6,380.52c-6.09-2.3-12.17-6.25-18.94-6.41-4.31-.1-8.92,2.2-13.49,2.2-8.74,0-17.82-4.52-27.75-4.35-13.91.24-30.31,6.15-43.54,10.36-6.29,2-11.14,5.26-18.56,5.43.76-3.76,6.9-2.01,9.38-2.78,19.61-6.04,35.69-15.59,57.92-14.22,6.44.4,13.7,3.46,19.79,3.87,6.49.44,11.45-2.1,17.01-1.92,4.64.15,15.66,3.48,18.19,7.81Z"/>
  <path d="M187.51,745.98c-3.29-11.46-6-23.45-7.78-35.26-.35-2.3-4.51-22.07,1.81-16.96,6.05,4.88,5.9,43.43,5.97,52.22ZM186.19,734.14c-.03-2.9-1.85-41.33-6.56-39.43l6.56,39.43Z"/>
  <path d="M528.31,588.65c-6.67-5.86,2.78-16.28,8.93-10.57s-1.81,16.82-8.93,10.57Z"/>
  <path d="M91.52,291.12c-3.4,8.7,10.51,23.76,8.72,30.05-2.32,8.13-13.1-2.14-13.93-6.76-.74-4.09.01-12.44,1.03-16.62.21-.88,2.53-9.07,4.18-6.67ZM98.03,322.61c4.49-2.84-9.22-21.31-8.14-26.22-3.65,9.57-4.74,24.17,8.14,26.22Z"/>
  <path d="M14.6,289.15c5.22,23.59,17.1,44.64,28.27,65.73l-8.73-12.67c-8.69-16.55-16.2-33.94-20.88-52.06l1.33-1Z"/>
  <path d="M131.62,206.35c-4.36,1.85-19.74-12.37-22.59-5.76l-.31,1.99c6.2,4.73,13.72,3.68,20.23,10.05.74.72,1.19,1.3-.3.96-2.51-.58-7.13-4.36-10.21-5.57s-12.41-.6-11.7-6.45c1.36-11.15,20.48,3.08,24.87,4.79Z"/>
  <path d="M211.67,61.17c7.95-1.28,8.15,12.46-.99,8.61-4.15-1.75-3.43-7.89.99-8.61Z"/>
  <path d="M58.47,65.16c6.87-2.16,8.43,7.03,2.33,8.27-6.87,1.39-6.28-7.03-2.33-8.27Z"/>
  <path d="M65.38,570.98c-2.68-2.68-.16-11.21,5.37-7.66s-1.11,11.92-5.37,7.66Z"/>
  <path d="M35.44,660.07c4.49,6-5.75,11.67-7.01,4.02-.94-5.76,4.52-7.34,7.01-4.02Z"/>
  <path d="M450.98,544.3c5.08-1.41,7.9,4.7,4.74,7.42-5.08,4.37-10.95-5.7-4.74-7.42Z"/>
  <path d="M464.13,107.83c6.19-.61,7.49,15.39,1.06,17.6-5.27-2-7.92-16.92-1.06-17.6ZM464.13,109.82c-5,1.17-1.54,14.04,1.14,13.68,3.86-3.42,3.54-8.86,1.36-13.15l-2.5-.53Z"/>
  <path d="M552.4,681.24l1.96,4.61c-1.01,1.28-1.06.13-1.48-.52-3.58-5.53-.34-12.33-2.29-17.4-1.28-3.33-11.72-7.09-11.36-12.98.62-4.85,4.2,4.72,4.62,5.26,1.52,1.96,8.55,5.5,8.55,7.88v13.15Z"/>
  <path d="M560.17,555.23c-5.87,3.01-9.53-15.49-.76-16.16,6.54-.5,3.28,14.87.76,16.16ZM560.89,540.96c-7.02.39-6.67,9.1-2.24,13.07,2.91-3.77,4.3-8.64,2.24-13.07Z"/>
  <path d="M93,55.99c4.57-4.35,13.3,11.9,5.11,14.03-5.41,1.41-8.41-10.89-5.11-14.03ZM95.65,68.14c7.4,2.53,3.78-11,.15-11.02-4.12-.02-2,9.08-.15,11.02Z"/>
  <path d="M111.81,521.08c-3.81,2.46-11.94-7.74-3.53-7.17,4.55.31,5.6,5.83,3.53,7.17Z"/>
  <polygon points="98.09 652.64 76.72 638.19 75.75 635.55 98.09 652.64"/>
  <path d="M117.64,705.71c-2.4,2.91-8.28.1-6.58-3.6,2.23-4.84,10.17-.75,6.58,3.6Z"/>
  <path d="M82.03,428.76c-.15-.27-1.62-.11-1-1.55,11.21-8.28,7.42,13.43,1,1.55Z"/>
  <path d="M105,804.81c3.12,3.41-1.47,5.87-4.26,4.61-3.98-1.8-.35-9.64,4.26-4.61Z"/>
  <path d="M59,399.23c-.93-1.54-1.69-2.17-.85-4.76,11.78-6.51,8.09,16.82.85,4.76ZM63.09,395.13c-3.78-3.8-4.75,6.98,1.48,5.76.44-.43-.88-5.16-1.48-5.76Z"/>
  <path d="M59.79,449.37c-2.72,2.5-7.69-.42-5.41-4.43,2.04-3.59,8.95,1.19,5.41,4.43Z"/>
  <path d="M508.13,242.55c2.8-.85,6.29,4.78,5.37,7.34-4.64,6.52-10.18-5.87-5.37-7.34ZM511.63,250.37c1.09-2.31-.05-5.21-2.94-5.25-2.95,1.48,1.9,5.86,2.94,5.25Z"/>
  <path d="M88.71,367.48c2.98-.64,5.34,4.03,4.52,6.48-2.01,5.98-11.33-3.3-4.52-6.48ZM91.52,374.6c1.18-.65-.41-5.31-2.94-4.6s.92,5.71,2.94,4.6Z"/>
  <path d="M427.94,591.6c4.13-1.33,6.48,3.81,4.19,5.54-3.74,2.82-8.03-4.3-4.19-5.54Z"/>
  <path d="M105.08,100.06c2.59-.43,5.86,2.1,6.14,4.74-2.97,7.15-13.23-3.57-6.14-4.74ZM109.27,105.77c.58-.61-.41-3.72-1.78-3.85l-3.46,1.55c.67.94,4.43,3.14,5.24,2.3Z"/>
  <path d="M84.19,657.14c-1.45,2.36-8.3-.52-5.23-4.23,2.72-3.28,7.4.68,5.23,4.23Z"/>
  <path d="M443.1,76.02c-3.26,3.38-6.62-3.57-3.12-5.43s5.09,3.4,3.12,5.43Z"/>
  <path d="M436.03,388.41c-.38,3.46-5.88,1.45-8.71,2.13-3.12.74-5.7,3.04-9.04,3.12,1.7-3.03,16.09-6.57,17.75-5.25Z"/>
  <path d="M548.27,623.87c-.05-.19-2.61-.28,1.17-2.12,6.67,6.72,2.43,15.08-1.17,2.12Z"/>
  <path d="M443.68,519.92c4.15-1.62,6.55,7.85.72,5.75-2.25-.81-2.58-5.02-.72-5.75Z"/>
  <path d="M57.16,109.22c2.38,2.52-.35,6.58-3.78,4.77-3.02-1.59,1.07-7.65,3.78-4.77Z"/>
  <path d="M546.31,521.28c3.21-.93,4.6,3.58,2.85,4.87-3.89,2.86-6.9-3.71-2.85-4.87Z"/>
  <path d="M105.83,342.55c2.07,3.6-3.58,4.86-4.81,3.17-2.72-3.73,2.91-6.47,4.81-3.17Z"/>
  <path d="M112.66,570.38c-1.82-2.97,3.33-6.04,4.87-3.89,2.46,3.43-3.62,5.93-4.87,3.89Z"/>
  <path d="M449.63,153.82c4.42-1.49,5.36,8.33.03,6.38-2.76-1.01-2.04-5.7-.03-6.38ZM450.18,155.07c-1.68.43-1.21,4.41.63,3.94,1.68-.43,1.21-4.41-.63-3.94Z"/>
  <path d="M130.32,53.19c.2.19.29,3.63-1.09,3.86l-3.04-.05-1.75-1.59c-.36-2.41,5.39-2.7,5.88-2.22Z"/>
  <path d="M547.24,608.5c-1.33-.85-1.22-6.18,2.53-4.18,3.29,1.75.2,5.94-2.53,4.18Z"/>
  <path d="M99.88,466.04c3.47-.81,3.7,5.12-.12,4.57-2.72-.39-1.84-4.11.12-4.57Z"/>
  <path d="M91.46,611.29c2.36,4.35-4.23,4.68-4.52,1.56-.18-2,4.1-2.33,4.52-1.56Z"/>
  <path d="M73.02,482.48c.11.05.65,1.51.44,1.91l-2.03,1.3-2.48-.6-1.08-1.7c.44-1.22,4.29-1.33,5.15-.9Z"/>
  <path d="M421.99,747.35c2.23-.86,5.05,2.22,2.2,3.56-3.51,1.65-4.39-2.72-2.2-3.56Z"/>
  <path d="M460.46,72.81c-1.65-.94.21-5.45,2.91-3.25s-.81,4.44-2.91,3.25Z"/>
  <path d="M22.85,176.11c2.43-.86,4.2,3.91,1.92,4.59-2.03.61-4.5-3.69-1.92-4.59Z"/>
  <path d="M27.45,199.77c2.71-.94,4.07,4.11,1.2,4.54-1.92.29-3.27-3.83-1.2-4.54Z"/>
  <path d="M495.65,602.78c2.6-.6,3,3.05,1.12,3.79-3.18,1.25-3.86-3.16-1.12-3.79Z"/>
  <path d="M104.75,787.97c-.78-.51-1.44-4.42,1.46-3.77,3.32.75,1.22,5.5-1.46,3.77Z"/>
  <path d="M252.3,82.11c2.23-.78,4.27,3.18,1.17,3.84-2.78.59-2.79-3.28-1.17-3.84Z"/>
  <path d="M59.19,125.6c1.91,2.98-2.94,3.48-3.76,1.46-1.42-3.49,2.97-2.7,3.76-1.46Z"/>
  <path d="M461.65,52.56c.61.32.45,3.07-.63,3.63-3.77,1.95-3.31-5.74.63-3.63Z"/>
  <path d="M108.35,378.59c1.35-.48,3.91.95,3.55,2.25-.83,2.99-7.07-1.01-3.55-2.25Z"/>
  <path d="M533.29,692.79c1.99,2.21-4.21,3.63-4.55.92-.27-2.21,3.82-1.73,4.55-.92Z"/>
  <path d="M115.85,406.82c1.49,1.51-1.69,5.77-3.2,3.2-1.39-2.34,2.23-4.19,3.2-3.2Z"/>
  <path d="M401.85,84.08c1.02.99-.91,4.55-3.27,3.26-1.88-1.03,1.25-5.22,3.27-3.26Z"/>
  <path d="M470.3,598.01c-.75-1.24.36-3.88,2.22-3.2,3.07,1.13-.6,5.89-2.22,3.2Z"/>
  <path d="M502.12,345.19c1.45.16,2.4,3.3.63,3.78-2.71.74-4.01-4.16-.63-3.78Z"/>
  <path d="M532.68,558c.76.75-.19,3.71-2.2,3.13-4.31-1.24.68-4.63,2.2-3.13Z"/>
  <path d="M73.1,235.9c-.21.38-3.05.38-3.25,0-2.23-4.13,5.51-4.04,3.25,0Z"/>
  <path d="M491.91,805.79c-.72,1.19-4.43.23-3.64-1.98,1.05-2.92,4.66.28,3.64,1.98Z"/>
  <path d="M438.67,664.48c.54.53-.12,4.08-2.3,3.28-3.04-1.12.28-5.24,2.3-3.28Z"/>
  <path d="M107.3,86.05c.92,5.14-1.81,5.3-3.18.97l3.18-.97Z"/>
  <path d="M404.48,711.8c-2.02,1.96-5.34-2.16-2.3-3.28,2.18-.8,2.84,2.75,2.3,3.28Z"/>
  <path d="M505.73,534.99c.58-.57,4.05.13,3.28,2.29-1.08,3.01-4.75-.84-3.28-2.29Z"/>
  <path d="M147.4,800.54c1.47,1.44-2.2,5.3-3.28,2.29-.77-2.16,2.7-2.85,3.28-2.29Z"/>
  <path d="M438.35,616.49c1.99-.67,4.12,2.59,1.18,3.18-2.63.52-2.79-2.63-1.18-3.18Z"/>
  <path d="M535.96,272.73c-3.29.56-3.15-3.39-.98-4.59l.98,4.59Z"/>
  <path d="M100.62,329.15c-3.55,2.35-2.76-3.84-.87-3.82,1.08.01,2.11,3.01.87,3.82Z"/>
  <path d="M570.16,726.26c-2.34-2.37,3.33-3.93,3.94-1.63.47,1.76-3.58,1.99-3.94,1.63Z"/>
  <path d="M87.96,252.39c3.28-1.2,3.53,2.88,1.17,3.18-1.38.18-3.29-2.41-1.17-3.18Z"/>
  <path d="M47.16,557.34c2.02-.53,3.01,3.62.63,3.94-2.04.27-2.19-3.52-.63-3.94Z"/>
  <path d="M432.08,785.43c1,1.06-3.36,3.74-3.93,1.62-.73-2.67,3.05-2.57,3.93-1.62Z"/>
  <path d="M147.75,508.04c2.19-.77,3.23,2.59,1.3,3.27-2.19.77-3.23-2.59-1.3-3.27Z"/>
  <path d="M505.4,561.29c2.19-.77,3.23,2.59,1.3,3.27-2.19.77-3.23-2.59-1.3-3.27Z"/>
  <path d="M109.27,625.03c-.55.62-3.65-.93-3.28-2.28.78-2.85,4.84.53,3.28,2.28Z"/>
  <path d="M368.31,84.08c1.18,1.9-2.46,3.96-3.28,1.63-.9-2.54,2.81-2.38,3.28-1.63Z"/>
  <path d="M431.9,366.9c.77.9.8,2.67,1.5,3.75-2.84.07-3.46-2.19-3.28-4.59.06-.08,1.62.66,1.78.84Z"/>
  <path d="M445.23,500.81c.99,1.76-1.97,4.03-3.28,1.63-1.23-2.26,2.96-2.19,3.28-1.63Z"/>
  <path d="M140.74,78.74c-3.04,1.79-3.32-2.73-1.54-3.2,1.49-.4,2.72,2.51,1.54,3.2Z"/>
  <path d="M272.32,46.62c1.88,2.06-2.53,4.03-3.28,2.62s2.61-3.35,3.28-2.62Z"/>
  <path d="M11.32,142.57c-1.34-1.38,3.52-2.89,3.94-.96.44,2.03-3.24,1.67-3.94.96Z"/>
  <path d="M459.7,413.39c2.06,2.12-2.67,4.06-3.28,1.63-.4-1.59,2.86-2.05,3.28-1.63Z"/>
  <path d="M442.61,641.47c1.2-.72,3.96,2.57,1.63,3.27-2.66.8-2.32-2.86-1.63-3.27Z"/>
  <path d="M20.2,257.61c3.02-.99,2.27,3.27.65,3.26-.65,0-2.7-2.6-.65-3.26Z"/>
  <path d="M159.9,494.9c.45.48-.06,3.66-1.63,3.28-2.58-.63.22-4.79,1.63-3.28Z"/>
  <path d="M351.22,36.09c-.76.82-3.52-.81-2.62-2.63s4.03,1.12,2.62,2.63Z"/>
  <path d="M205.26,40.04c-1.51,1.41-4.41-1.74-2.63-2.62s3.44,1.86,2.63,2.62Z"/>
  <path d="M417.62,87.37c1.37,1.37-1.25,3.99-2.62,2.62s1.25-3.99,2.62-2.62Z"/>
  <path d="M104.6,400.32c1.71,2.29-2.77,2.59-3.21.89s2.54-1.79,3.21-.89Z"/>
  <path d="M493.23,312.82c-.76.82-3.52-.81-2.62-2.63s4.03,1.12,2.62,2.63Z"/>
  <path d="M84.29,339.11c-.41.34-3.89-.02-3.93-.98.76-2.4,5.21-.07,3.93.98Z"/>
  <path d="M66.54,149.81c1.36,1.36-1.28,4.53-2.62,1.63-1-2.16,2.31-1.94,2.62-1.63Z"/>
  <path d="M380.15,343.06c.8-.98,4.16,2.74,1.63,3.28-1.56.33-2.09-2.72-1.63-3.28Z"/>
  <path d="M541.88,763.07c-1.43,1.85-3.24-2.59-1.96-3.28,1.51-.81,2.57,2.49,1.96,3.28Z"/>
  <path d="M59.31,687.48c1.56,2.53-4.85,4.15-2.32-.03.45-.74,2.26-.07,2.32.03Z"/>
  <path d="M530.7,347c-.08.14-2.28.92-2.62-.34-.91-3.43,4.06-2.22,2.62.34Z"/>
  <path d="M390.01,360.8c-1.07,1.06-3.68-1.56-2.62-2.62s3.68,1.56,2.62,2.62Z"/>
  <path d="M89.55,227.37c1.73,1.84-2,4.19-2.62,1.63-.33-1.38,2.18-2.1,2.62-1.63Z"/>
  <path d="M59.96,463.34c-1.84,1.73-4.2-2-1.63-2.62,1.38-.33,2.1,2.18,1.63,2.62Z"/>
  <path d="M20.52,627c-1.73-1.84,2-4.19,2.62-1.63.33,1.38-2.18,2.1-2.62,1.63Z"/>
  <path d="M29.73,544.18c-1.73-1.84,2-4.19,2.62-1.63.33,1.38-2.18,2.1-2.62,1.63Z"/>
  <path d="M254.57,111.03c.66.44.81,3.27-1.63,2.62-1.79-.48-.14-3.8,1.63-2.62Z"/>
  <path d="M128.92,817.05c2.16,3.06-5.05,2.28-2.54-.73.19-.22,2.42.55,2.54.73Z"/>
  <path d="M519.21,505.41c2.44-.61,1.24,3.42-.01,3.27-1.17-.14-1.41-2.91.01-3.27Z"/>
  <path d="M96.79,130.75c.5-.48,2.9.24,2.62,1.63-.49,2.44-3.92-.38-2.62-1.63Z"/>
  <path d="M78.37,524.47c-.5.48-2.9-.24-2.62-1.63.49-2.44,3.92.38,2.62,1.63Z"/>
  <path d="M56.68,743.35c.48.5-.24,2.9-1.63,2.62-2.44-.49.38-3.92,1.63-2.62Z"/>
  <path d="M406.44,65.67c-1.25,1.3-4.07-2.13-1.63-2.62,1.39-.28,2.11,2.12,1.63,2.62Z"/>
  <path d="M474.82,503.44c.42.51.46,3.49-1.63,2.62-2.94-1.23,1.09-3.28,1.63-2.62Z"/>
  <path d="M224.34,61.74c1.25-1.3,4.07,2.13,1.63,2.62-1.39.28-2.11-2.12-1.63-2.62Z"/>
  <path d="M452.46,330.57c.91.48-.1,3.41-.98,3.27-1.85-.3-.77-4.19.98-3.27Z"/>
  <path d="M70.48,706.55c.48.5-.24,2.9-1.63,2.62-2.44-.49.38-3.92,1.63-2.62Z"/>
  <path d="M17.89,525.78c-1.29,1.53-3.67-2.36-1.63-2.62,1.4-.18,2.13,2.03,1.63,2.62Z"/>
  <path d="M381.15,25.58c1.61-.35,2.19,2.28.63,2.62s-2.19-2.28-.63-2.62Z"/>
  <path d="M555.69,149.81c1.36,1.08-1.32,3.01-2.63,1.96s1.32-3.01,2.63-1.96Z"/>
  <path d="M409.08,292.45c.44-.36,3.27.11,3.27.98,0,2.08-4.76.26-3.27-.98Z"/>
  <path d="M547.14,187.93c1.04,1.31-.88,3.98-1.96,2.62s.88-3.98,1.96-2.62Z"/>
  <path d="M84.29,588.22h-3.28c-.5-2.12,3.48-2.79,3.28,0Z"/>
  <path d="M408.42,76.2c.37,1.55-.49,1.35-1.75,1.86l-1.52-.89v-.97s3.28,0,3.28,0Z"/>
  <path d="M563.26,586.92c1.61-.35,2.19,2.28.63,2.62s-2.19-2.28-.63-2.62Z"/>
  <path d="M352.53,41.36c1.46,1.32-2.08,3.88-2.62.97-.3-1.59,2.46-1.11,2.62-.97Z"/>
  <path d="M31.03,235.26c.65.67-.65,3.33-1.96,2.62-1.5-.81.69-3.93,1.96-2.62Z"/>
  <path d="M506.38,268.13c.37-.37,2.5.21,2.61.98.32,2.35-4.48.88-2.61-.98Z"/>
  <path d="M437.35,264.18c.37-.37,2.5.21,2.61.98.32,2.35-4.48.88-2.61-.98Z"/>
  <path d="M393.95,59.76c1.55,1.22-1.81,3.41-2.62.97-.49-1.48,2.36-1.18,2.62-.97Z"/>
  <path d="M520.84,797.25c.37.37-.21,2.5-.98,2.61-2.35.32-.88-4.48.98-2.61Z"/>
  <path d="M462.34,174.78c-.37-.37.21-2.5.98-2.61,2.35-.32.88,4.48-.98,2.61Z"/>
  <path d="M463.65,309.53c-.37-.37.21-2.5.98-2.61,2.35-.32.88,4.48-.98,2.61Z"/>
  <path d="M64.57,512.64c.37-.37,2.5.21,2.61.98.32,2.35-4.48.88-2.61-.98Z"/>
  <path d="M469.56,350.94c-.37.37-2.5-.21-2.61-.98-.32-2.35,4.48-.88,2.61.98Z"/>
  <path d="M525.44,625.04c1.55,1.22-1.81,3.41-2.62.97-.49-1.48,2.36-1.18,2.62-.97Z"/>
  <path d="M73.77,663.16c.84.66-1.58,2.85-2.62,1.96-1.35-1.14,1.33-2.99,2.62-1.96Z"/>
  <path d="M48.79,754.53c.47.37.26,2.99-1.87,1.86-1.95-1.03.44-3,1.87-1.86Z"/>
  <path d="M528.73,318.08c.39.46-.3,2.61-.98,2.61-2.01,0-.65-4.51.98-2.61Z"/>
  <path d="M420.25,183.99c.21.26.53,3.05-.97,2.62-2.29-.66.2-3.6.97-2.62Z"/>
  <path d="M63.91,183.34c.86,1.01-1.25,3.46-1.96,2.62-.86-1.01,1.25-3.46,1.96-2.62Z"/>
  <path d="M42.21,443.63c.21.26.53,3.05-.97,2.62-2.29-.66.2-3.6.97-2.62Z"/>
  <path d="M90.86,832.75c1.9,1.63-2.61,2.99-2.61.98,0-.68,2.15-1.38,2.61-.98Z"/>
  <path d="M77.71,679.6c.98.77-1.96,3.26-2.62.97-.43-1.5,2.36-1.18,2.62-.97Z"/>
  <path d="M482.38,435.75c1.32.12,1.22,2.88-.65,2.61s.12-2.66.65-2.61Z"/>
  <path d="M70.48,764.39c.39.46-.3,2.61-.98,2.61-2.01,0-.65-4.51.98-2.61Z"/>
  <path d="M471.53,454.14c1.9,1.63-2.61,2.99-2.61.98,0-.68,2.15-1.38,2.61-.98Z"/>
  <path d="M464.3,197.14c1.04,1.04-.92,3.01-1.96,1.96s.92-3.01,1.96-1.96Z"/>
  <path d="M11.31,473.2c1.04,1.04-.92,3.01-1.96,1.96s.92-3.01,1.96-1.96Z"/>
  <path d="M50.77,659.87c-.4-.45.3-2.61.98-2.61,2,.01.13,3.86-.98,2.61Z"/>
  <path d="M147.4,427.19c.4.45-.3,2.61-.98,2.61-2-.01-.13-3.86.98-2.61Z"/>
  <path d="M362.39,47.28c1.08,1.45-2.03,1.77-2.62,1.3-1.07-.85,1.64-2.62,2.62-1.3Z"/>
  <path d="M397.24,52.53c1.04,1.04-.92,3.01-1.96,1.96s.92-3.01,1.96-1.96Z"/>
  <path d="M69.84,202.39c.1-1.44-.64-2.96.97-2.62s.4,2.22-.97,2.62Z"/>
  <path d="M560.95,571.79c-2.13.21-2.18.17-1.96-1.96l1.96,1.96Z"/>
  <path d="M106.64,567.2c2.62,1.67-5.24,1.67-2.62,0,.11-.07,2.51-.07,2.62,0Z"/>
  <path d="M135.57,738.1l-1.96,1.96c-.21-2.13-.17-2.18,1.96-1.96Z"/>
  <path d="M469.56,325.31c1.31,1.29-1.36,3.23-1.96.97-.39-1.47,1.77-1.16,1.96-.97Z"/>
  <path d="M101.72,493.59c1.16,0,1.13,2.61,0,2.6s-1.13-2.61,0-2.6Z"/>
  <path d="M524.13,389.73c.21,2.13.17,2.18-1.96,1.96l1.96-1.96Z"/>
  <path d="M368.97,103.8c1.31,1.29-1.36,3.23-1.96.97-.39-1.47,1.77-1.16,1.96-.97Z"/>
  <path d="M430.11,548.79l-1.96,1.96c-.21-2.13-.17-2.18,1.96-1.96Z"/>
  <path d="M73.11,317.42c1.31,1.29-1.36,3.23-1.96.97-.39-1.47,1.77-1.16,1.96-.97Z"/>
  <path d="M123.74,452.17l-1.96,1.96c-.21-2.13-.17-2.18,1.96-1.96Z"/>
  <path d="M520.18,475.83c.19.19.5,2.35-.97,1.96-2.26-.6-.32-3.26.97-1.96Z"/>
  <path d="M438.33,346.36c1.16,0,1.13,2.61,0,2.6s-1.13-2.61,0-2.6Z"/>
  <path d="M299.62,55.16c1.55-.25,1.93,1.75.63,1.96-1.55.25-1.93-1.75-.63-1.96Z"/>
  <path d="M409.08,26.24c.09-.16,3.06-1.41,1.96.97-.85,1.84-2.49.02-1.96-.97Z"/>
  <polygon points="399.87 97.88 397.25 97.24 399.86 95.91 399.87 97.88"/>
  <path d="M433.4,36.09c-.69-.12-2.27.22-2.63,0-1.47-.9,2.06-2.52,2.63,0Z"/>
  <path d="M112.56,582.32c.27.3.48,2.25-.97,1.96-1.98-.39.22-2.8.97-1.96Z"/>
  <path d="M170.42,821.56c-.27-.3-.48-2.25.97-1.96,1.98.39-.22,2.8-.97,1.96Z"/>
  <path d="M30.38,453.48c-.3.27-2.25.48-1.96-.97.39-1.98,2.81.22,1.96.97Z"/>
  <path d="M76.4,252.35c.27.3.48,2.25-.97,1.96-1.98-.39.22-2.8.97-1.96Z"/>
  <path d="M148.06,408.78c-.3.27-2.25.48-1.96-.97.39-1.98,2.81.22,1.96.97Z"/>
  <path d="M234.19,63.05c.27.3.48,2.25-.97,1.96-1.98-.39.22-2.8.97-1.96Z"/>
  <path d="M229.59,78.82c.27.3.48,2.25-.97,1.96-1.98-.39.22-2.8.97-1.96Z"/>
  <path d="M149.38,751.23c-.3.27-2.25.48-1.96-.97.39-1.98,2.81.22,1.96.97Z"/>
  <path d="M248.66,98.55c.43,1.01-2.4,1.93-2.61.32-.15-1.12,2.54-.5,2.61-.32Z"/>
  <path d="M44.19,699.31c-.27-.3-.48-2.25.97-1.96,1.98.39-.22,2.8-.97,1.96Z"/>
  <path d="M127.02,185.3c-.3.27-2.25.48-1.96-.97.39-1.98,2.81.22,1.96.97Z"/>
  <path d="M363.05,109.06c1.48,1.01-1.64,1.79-2.63,1.3.11-1.14,1.99-1.73,2.63-1.3Z"/>
  <path d="M29.06,473.86c.27.3.48,2.25-.97,1.96-1.98-.39.22-2.8.97-1.96Z"/>
  <path d="M418.28,269.44c.12.19.21,2.64-.32,2.62-2.06-.94-.54-4,.32-2.62Z"/>
  <path d="M480.08,573.1c-.69-.12-2.27.22-2.63,0-1.47-.9,2.06-2.52,2.63,0Z"/>
  <path d="M88.89,456.11c.27.3.48,2.25-.97,1.96-1.98-.39.22-2.8.97-1.96Z"/>
  <path d="M157.27,471.22c-.3.27-2.25.48-1.96-.97.39-1.98,2.81.22,1.96.97Z"/>
  <path d="M524.13,657.25c.67.66-1.28,2.64-1.96,1.96s1.28-2.64,1.96-1.96Z"/>
  <path d="M127.68,723.63c.27.3.48,2.25-.97,1.96-1.98-.39.22-2.8.97-1.96Z"/>
  <path d="M83.63,467.28c-1.01,1.48-1.79-1.64-1.3-2.62,1.14.11,1.73,1.99,1.3,2.62Z"/>
  <path d="M25.12,460.72c.27.3.48,2.25-.97,1.96-1.98-.39.22-2.8.97-1.96Z"/>
  <path d="M29.06,559.97c.27.3.48,2.25-.97,1.96-1.98-.39.22-2.8.97-1.96Z"/>
  <path d="M420.92,249.06c.5.04,1.94,1.49,1.95,1.64.04,1.45-2.71.78-1.95-1.64Z"/>
  <path d="M486.65,249.07c.84.75-1.57,2.95-1.96.97-.29-1.45,1.66-1.24,1.96-.97Z"/>
  <path d="M71.8,426.53c-.3.27-2.25.48-1.96-.97.39-1.98,2.81.22,1.96.97Z"/>
  <path d="M118.48,537.62c.84.75-1.57,2.95-1.96.97-.29-1.45,1.66-1.24,1.96-.97Z"/>
  <path d="M44.84,628.98c.84.75-1.57,2.95-1.96.97-.29-1.45,1.66-1.24,1.96-.97Z"/>
  <path d="M29.73,436.4c.38-.38,1.9.51,1.95.98.18,1.77-3.02.09-1.95-.98Z"/>
  <path d="M405.13,52.53c2.06,1.69-4.03,1.69-1.96,0,.08-.06,1.89-.06,1.96,0Z"/>
  <path d="M469.56,129.44c.06.08.06,1.89,0,1.96-1.69,2.06-1.69-4.03,0-1.96Z"/>
  <path d="M72.45,159.67c.06.08.06,1.89,0,1.96-1.69,2.06-1.69-4.03,0-1.96Z"/>
  <path d="M94.15,538.93c-.38.38-1.9-.51-1.95-.98-.18-1.77,3.02-.09,1.95.98Z"/>
  <path d="M86.26,274.7c2.06,1.69-4.03,1.69-1.96,0,.08-.06,1.89-.06,1.96,0Z"/>
  <path d="M161.21,742.04c.14.15-.07,1.44,0,1.97-3.38-1.38-.99-3.04,0-1.97Z"/>
  <path d="M270.35,65.02c1.51.93-1.63,1.83-2.62,1.3-.16-.99,2.4-1.44,2.62-1.3Z"/>
  <path d="M31.03,416.68c.06.08.06,1.89,0,1.96-1.69,2.06-1.69-4.03,0-1.96Z"/>
  <path d="M107.96,145.2c-.38.38-1.9-.51-1.95-.98-.18-1.77,3.02-.09,1.95.98Z"/>
  <path d="M113.87,116.95c.06.08.06,1.89,0,1.96-1.69,2.06-1.69-4.03,0-1.96Z"/>
  <path d="M8.03,469.25c-.38-.38.51-1.9.98-1.95,1.77-.18.09,3.02-.98,1.95Z"/>
  <path d="M387.38,32.16c2.06,1.69-4.03,1.69-1.96,0,.08-.06,1.89-.06,1.96,0Z"/>
  <path d="M37.61,429.17c.06.08.06,1.89,0,1.96-1.69,2.06-1.69-4.03,0-1.96Z"/>
  <path d="M117.83,156.39c.38-.38,1.9.51,1.95.98.18,1.77-3.02.09-1.95-.98Z"/>
  <path d="M465.61,260.23c-.38.38-1.9-.51-1.95-.98-.18-1.77,3.02-.09,1.95.98Z"/>
  <path d="M235.5,73.57c.06.08.06,1.89,0,1.96-1.69,2.06-1.69-4.03,0-1.96Z"/>
  <path d="M525.44,674.34c2.06,1.69-4.03,1.69-1.96,0,.08-.06,1.89-.06,1.96,0Z"/>
  <path d="M403.16,103.14c.06.08.06,1.89,0,1.96-1.69,2.06-1.69-4.03,0-1.96Z"/>
  <path d="M441.95,763.07c2.06,1.69-4.03,1.69-1.96,0,.08-.06,1.89-.06,1.96,0Z"/>
  <path d="M459.04,657.9c-.38.38-1.9-.51-1.95-.98-.18-1.77,3.02-.09,1.95.98Z"/>
  <path d="M412.04,302.32c.99,0,.99,1.94,0,1.94s-.99-1.94,0-1.94Z"/>
  <path d="M52.73,701.93c-1.2.23-2.18-.72-1.96-1.96.24-.25,2.22,1.72,1.96,1.96Z"/>
  <path d="M518.87,85.4c.08.09.24,1.99-.32,1.96-1.52-.08-.99-3.47.32-1.96Z"/>
  <path d="M412.36,108.4c1.1.71-.76,1.88-1.97,1.3.07-.82,1.35-1.7,1.97-1.3Z"/>
  <path d="M455.75,481.09c-.09.08-2.19-.6-1.96-1.31,1.99-1.48,2.77.57,1.96,1.31Z"/>
  <path d="M525.44,442.31c1.51,1.31-1.88,1.84-1.96.32-.03-.56,1.88-.4,1.96-.32Z"/>
  <path d="M465.61,605.32c1.1.71-.76,1.88-1.97,1.3.07-.82,1.35-1.7,1.97-1.3Z"/>
  <path d="M33.01,439.68c1.51,1.31-1.88,1.84-1.96.32-.03-.56,1.88-.4,1.96-.32Z"/>
  <path d="M472.85,628.33c.08.09.24,1.99-.32,1.96-1.52-.08-.99-3.47.32-1.96Z"/>
  <path d="M24.46,423.91c.4.61-.48,1.89-1.3,1.97-.58-1.2.59-3.07,1.3-1.97Z"/>
  <path d="M426.17,26.24c.72.72-.59,2.02-1.31,1.31s.59-2.02,1.31-1.31Z"/>
  <path d="M443.26,43.33c.72.72-.59,2.02-1.31,1.31s.59-2.02,1.31-1.31Z"/>
  <path d="M131.63,110.38c.72.72-.59,2.02-1.31,1.31s.59-2.02,1.31-1.31Z"/>
  <path d="M47.47,435.74c.72.72-.59,2.02-1.31,1.31s.59-2.02,1.31-1.31Z"/>
  <path d="M47.47,339.12c.72.72-.59,2.02-1.31,1.31s.59-2.02,1.31-1.31Z"/>
  <path d="M484.02,399.59c.72.72-.59,2.02-1.31,1.31s.59-2.02,1.31-1.31Z"/>
  <path d="M507.03,416.68c.72.72-.59,2.02-1.31,1.31s.59-2.02,1.31-1.31Z"/>
  <path d="M19.2,607.29c.72.72-.59,2.02-1.31,1.31s.59-2.02,1.31-1.31Z"/>
  <path d="M429.45,306.91c.72.72-.59,2.02-1.31,1.31s.59-2.02,1.31-1.31Z"/>
  <path d="M531.36,525.79c.72.72-.59,2.02-1.31,1.31s.59-2.02,1.31-1.31Z"/>
  <path d="M416.3,636.87c.72.72-.59,2.02-1.31,1.31s.59-2.02,1.31-1.31Z"/>
  <path d="M153.98,807.77c.72.72-.59,2.02-1.31,1.31s.59-2.02,1.31-1.31Z"/>
  <path d="M282.84,60.42c.72.72-.59,2.02-1.31,1.31s.59-2.02,1.31-1.31Z"/>
  <path d="M17.23,458.09c.72.72-.59,2.02-1.31,1.31s.59-2.02,1.31-1.31Z"/>
  <path d="M442.6,442.31c.72.72-.59,2.02-1.31,1.31s.59-2.02,1.31-1.31Z"/>
  <path d="M86.92,565.88c.72.72-.59,2.02-1.31,1.31s.59-2.02,1.31-1.31Z"/>
  <path d="M79.03,131.41c.72.72-.59,2.02-1.31,1.31s.59-2.02,1.31-1.31Z"/>
  <path d="M410.39,331.89c.72.72-.59,2.02-1.31,1.31s.59-2.02,1.31-1.31Z"/>
  <path d="M455.75,512.63c-.08.07-2.27.42-1.96-.64l1.96-.67c-.02.42.09,1.24,0,1.31Z"/>
  <path d="M86.26,206.34c-.56,1.43-1.09,1.56-1.97.32l1.97-.32Z"/>
  <path d="M161.87,767.67c.72.72-.59,2.02-1.31,1.31s.59-2.02,1.31-1.31Z"/>
  <path d="M24.46,699.97c.72.72-.59,2.02-1.31,1.31s.59-2.02,1.31-1.31Z"/>
  <path d="M421.56,65.02c.72.72-.59,2.02-1.31,1.31s.59-2.02,1.31-1.31Z"/>
  <path d="M422.88,72.91c.72.72-.59,2.02-1.31,1.31s.59-2.02,1.31-1.31Z"/>
  <path d="M395.27,81.46c-.56,1.43-1.09,1.56-1.97.32l1.97-.32Z"/>
  <path d="M238.79,86.06c.72.72-.59,2.02-1.31,1.31s.59-2.02,1.31-1.31Z"/>
  <path d="M457.07,282.59c.72.72-.59,2.02-1.31,1.31s.59-2.02,1.31-1.31Z"/>
  <path d="M416.3,201.74c.72.72-.59,2.02-1.31,1.31s.59-2.02,1.31-1.31Z"/>
  <path d="M425.51,687.48c.72.72-.59,2.02-1.31,1.31s.59-2.02,1.31-1.31Z"/>
  <path d="M430.77,696.03c.72.72-.59,2.02-1.31,1.31s.59-2.02,1.31-1.31Z"/>
  <path d="M356.48,105.78c-.56,1.43-1.09,1.56-1.97.32l1.97-.32Z"/>
  <path d="M92.17,108.4c-1.43-.55-1.56-1.09-.32-1.97l.32,1.97Z"/>
  <path d="M497.17,389.07c.72.72-.59,2.02-1.31,1.31s.59-2.02,1.31-1.31Z"/>
  <path d="M23.15,147.85c.2.31-1,1.51-1.31,1.31-.84-.55.76-2.15,1.31-1.31Z"/>
  <path d="M31.03,761.75c-1.1.22-.58-1.06-.64-1.96h.64v1.96Z"/>
  <path d="M59.31,142.59c.22,1.1-1.06.58-1.96.64v-.64h1.96Z"/>
  <path d="M429.46,91.96c-.55.84-2.15-.76-1.31-1.31.31-.2,1.51,1,1.31,1.31Z"/>
  <path d="M395.92,45.29c-1.44,1.24-1.52-1.27-.32-1.31.57-.02.38,1.25.32,1.31Z"/>
  <path d="M413.02,352.92c.22,1.1-1.06.58-1.96.64v-.64h1.96Z"/>
  <path d="M7.37,549.44c-.05.06-1.33.25-1.31-.32.04-1.2,2.55-1.12,1.31.32Z"/>
  <path d="M28.4,488.31c-.05.06-1.33.25-1.31-.32.04-1.2,2.55-1.12,1.31.32Z"/>
  <path d="M458.39,696.69c.2.31-1,1.51-1.31,1.31-.84-.55.76-2.15,1.31-1.31Z"/>
  <path d="M17.89,469.25c-.55.84-2.15-.76-1.31-1.31.31-.2,1.51,1,1.31,1.31Z"/>
  <path d="M543.86,700.62c-.55.84-2.15-.76-1.31-1.31.31-.2,1.51,1,1.31,1.31Z"/>
  <path d="M21.18,708.51c-.55.84-2.15-.76-1.31-1.31.31-.2,1.51,1,1.31,1.31Z"/>
  <path d="M272.32,101.82c-1.44,1.24-1.52-1.27-.32-1.31.57-.02.38,1.25.32,1.31Z"/>
  <path d="M275.61,96.57c.06.05.25,1.33-.32,1.31-1.2-.04-1.12-2.55.32-1.31Z"/>
  <path d="M447.86,579.03c.85.84-2.15.84-1.31,0,.05-.05,1.25-.05,1.31,0Z"/>
  <path d="M545.82,507.38c-.84.85-.84-2.15,0-1.31.05.05.05,1.25,0,1.31Z"/>
  <path d="M135.57,97.88c-.84.85-.84-2.15,0-1.31.05.05.05,1.25,0,1.31Z"/>
  <path d="M36.95,727.58c.85.84-2.15.84-1.31,0,.05-.05,1.25-.05,1.31,0Z"/>
  <path d="M240.1,86.05c-.84.85-.84-2.15,0-1.31.05.05.05,1.25,0,1.31Z"/>
  <path d="M48.78,451.51c-.84.85-.84-2.15,0-1.31.05.05.05,1.25,0,1.31Z"/>
  <path d="M411.7,117.6c-.84.85-.84-2.15,0-1.31.05.05.05,1.25,0,1.31Z"/>
  <path d="M430.77,284.55c-.84.85-.84-2.15,0-1.31.05.05.05,1.25,0,1.31Z"/>
  <path d="M407.1,286.52c-.84.85-.84-2.15,0-1.31.05.05.05,1.25,0,1.31Z"/>
  <path d="M165.81,772.94c.85.84-2.15.84-1.31,0,.05-.05,1.25-.05,1.31,0Z"/>
  <path d="M47.47,708.52c.85.84-2.15.84-1.31,0,.05-.05,1.25-.05,1.31,0Z"/>
  <path d="M420.9,58.44c-.84.85-.84-2.15,0-1.31.05.05.05,1.25,0,1.31Z"/>
  <path d="M372.91,118.92c.85.84-2.15.84-1.31,0,.05-.05,1.25-.05,1.31,0Z"/>
  <path d="M413.68,45.96c.85.84-2.15.84-1.31,0,.05-.05,1.25-.05,1.31,0Z"/>
  <path d="M63.9,112.34c-.84.85-.84-2.15,0-1.31.05.05.05,1.25,0,1.31Z"/>
  <polygon points="442.94 406.16 443.26 406.48 442.94 406.81 442.94 406.16"/>
  <polygon points="398.89 312.82 399.22 313.15 398.89 313.48 398.89 312.82"/>
  <polygon points="166.8 676.31 167.13 676.63 166.8 676.96 166.8 676.31"/>
  <polygon points="167.46 674.99 167.79 675.32 167.46 675.65 167.46 674.99"/>
  <polygon points="147.74 724.95 148.07 725.27 147.74 725.6 147.74 724.95"/>
  <polygon points="402.17 101.83 402.5 102.15 402.17 102.48 402.17 101.83"/>
  <polygon points="28.74 500.15 29.07 500.48 28.74 500.81 28.74 500.15"/>
  <path d="M315.43,93.66c-3.9,11.17-7.85,22.75-14.2,32.79l-55.21,54.9c6.15-7.48,12.41-14.97,19.05-22.03,13.64-14.47,34.03-28.91,41.74-47.01,3.21-7.53,6.45-16.99,8.99-24.56,4.3-12.81,7.62-26.11,11.09-39.17,2.11,2.29-.59,8.96-1.38,12.1-2.68,10.72-6.45,22.52-10.1,32.97Z"/>
  <path d="M315.43,211.98c-9.19,24.88-25.65,50.24-47.7,65.34,13.89-12.34,25.9-25.99,34.95-42.28,4.62-8.31,10.12-19.4,13.14-28.3.72-2.11,7.98-32.68,9.09-31.29-2.51,12.28-5.12,24.71-9.48,36.53Z"/>
  <path d="M127.92,286.96c9.62,12.33,17.96,20.98,31.98,28.48-15.85-4.91-28.55-18.27-35.5-32.85,2.38.05,2.41,2.95,3.52,4.37Z"/>
  <path d="M367.65,164.93l-30.22,36.82c1.55,3.96,2.74,11.63,2.63,16.12-.15,6.19-10.72,29.87-13.91,36.68-3.94,8.4-8,16.99-14.05,24.07,9.99-18.6,19.35-37.81,25.24-58.23l-7.82-68.61c-22.14,36.66-47.48,71.91-78.88,101.22,15.4-18.86,32.05-36.73,46.55-56.32,12.12-16.38,24.55-34.12,32.67-52.79l7.89,53.89,29.9-32.86Z"/>
  <path d="M286.78,739.4c-7-19.02-10.91-39.22-14.45-59.15,1.19.27,1.37,1.63,1.66,2.61,5.15,17.93,7.36,38.42,12.79,56.54Z"/>
  <path d="M.14,841.29V-.06h595v841.34H.14ZM589.88,4.55H4.74v500.86c10.98-17.53,25.96-33.13,45.36-41.4-18.84,11.29-34.52,25.05-45.36,44.36v328.32h196.58c-6.07-27.73-13.38-55.58-14.46-84.13l16.42,52.58c.27-45.64-.86-94.19,15.13-137.36-18.7.03-38.93-.07-57.2-4.28-14.22-3.28-17.35-5.62-17.8-21.04-.33-11.25-.26-36.87,11.88-42.07,2.37-1.02,5.42-.6,6.96-1.58,2.27-1.45,2.59-8.62,7.32-9.77,5.59-1.35,10.77,2.34,15.97,3.47,8.14,1.77,17.06,1.51,23.66,7.56,4.18-6.01-14.54-9.66-15.08-15.48-.48-5.18,5.64-10.06,5.86-13.19.3-4.29-5.64-10.23-5.07-16.86.46-5.39,6.79-7.63,7.68-12.02,2.07-10.21-6.45-27.47-1.38-40.17,1.26-3.16,4.91-5.47,5.74-9.38.92-4.35-1.23-9.77-.23-12.72,1.22-3.63,14.71-4.38,17.59-6.73,3.37-2.73,5.68-15.39,10.97-19.93,5.82-4.99,21.4-7.48,24.86-10.64,7.64-6.97,5.95-31.19-2.61-38.09-10.41,10.38-22.82,23.93-36.75,10.43-4.95-4.8-9.53-10.47-14.91-14.67-1.18-.92-4.42-1.02-5.23-2-1.77-2.15.7-5.6-4.26-8.23-4.34-2.3-8.32-.91-12.84-.94l5.98-22.9c-9.52-5.45-14.35-11.04-15.81-22.17-1.88,7.17-2.36,15.29-1.99,22.7.23,4.61.77,12.25,3.97,15.41-12.32-2.05-28.87-7.46-30.89-21.68-3.82,9.13-6.36,18.92-6.59,28.91-3.88-4.86-6.01-14.52-7.04-20.89-2.34-14.56-3.88-30.05,6.35-41.89-8.56-6.14-22.21-14.17-25.8-24.77-3.92-11.59-8.09-42.38-8.38-54.72-.22-9.31,1.33-18.63.7-27.96,7.49,16.73,12.63,37.13,27.6,49.29-3.78-31.79,7.15-62.69,17.77-92.01l.66,29.57,1.77-.86c19.49-36.41,45.85-70.05,71.48-102.37,2.02-2.55,4.13-5.28,5-8.51l-7.91,64.08c2.84-.76,5.29-3.14,7.55-4.94,13.42-10.7,30.19-25.19,42.12-37.43,24.96-25.62,42.5-57.11,59.82-88.1l24,132.78,36.81-40.75c.74,38.44-3.79,76.11-11.36,113.2l-26.77,39.29c19.8-5.89,39.03-13.62,57.2-23.32-20.84,30.98-46.76,59.76-81.53,75.26l41.41,1.29-45.37,22c.11,3.27,18.78,24.22,22.35,26.99,1.95,1.51,22.52,14.49,23.86,14.94,4.65,1.56,20.85-6.68,22.18-5.42l-4.6,13.79c10-.53,19.28,2.88,28.27,6.59l-.84,1.47-11.64,4.75,11.52,13.46,17.4,9.89-.93,1.26-11.56-1.27,13.79,30.57-11.8-7.25,10.49,19.75-9.18-4.95,6.56,43.38-5.91-4.59c-.75,5.68-2.9,11.13-4.95,16.42-1.09,2.82-5.71,10.19-6.09,11.67-1.02,3.97,1.95,19.77,1.1,26.72-1.01,8.22-6.79,13.11-8.3,18.65-5.22,19.29-4.23,44.73-11.03,65.23-3.75,11.3-16.91,1.68-24.56,11.49,10.12,23.77,21.05,50.7,24.7,76.46,1.79,12.61.13,29.68,8.41,40.23,2.1,2.67,6.81,5.14,8.22,7.55,4.31,7.38-4.52,29.91-3.04,38.48.11.63,5.28,10.96,5.74,11.41,2.23,2.21,7.96.55,11.11,1.06-.76-3.35,4.4-19.17,7.66-18.98l4.16,8.45c7.95-30.49,10.74-62.68,24.86-91.14.06-3.91-11.05-9.72-14.66-10.07-3.39-.33-7.69,1.29-10.38.51-5.79-1.69-15.82-21.71-16.25,5.4l-1.32-.31-14.45-56.21,11.94,20.59c18.35,24.67,27.09,16.79,50.3,27.93,7.21,3.46,14.89,11.53,21.92,15.61,1.81-.76,6.65-13.56,6.6-15.87-.13-5.25-6.4-3.6-5.26-11.04.7-4.56,7.78-22.68,9.88-28.16,1.42-3.71,6.46-10,7.14-14.04,2.29-13.57-1.59-32.61,2.67-46.95-5.61,8.32-3.82,18.87-8.15,27.68-1.57,3.19-6.95,7.13-7.97,9.76-1.56,4.03-.47,9.78-1.15,13.97-2.85,17.53-17.31,31.16-23.49,47.18-2.42-.9-.27-3.72.32-5.27,3.46-8.97,10.95-15.78,14.61-24.64-.06-.59-6.47-6.9-7.01-8.08-1.51-3.27-.74-8.8-2.37-11.26s-4.81-1.06-5.91-3.94c-1.45-3.8,2.66-18.07,1.12-23.28l1.87-.09-1.88,22.19c8.83,3.75,5.94,8.8,9.4,15.63,1.06,2.08,2.7,3.94,3.94,5.92l2.3.58c1.29-4.21,4.19-8.72,5.1-12.98,1.13-5.3.05-10.92,1.16-15.27.77-3.02,7.82-8.93,9.5-13,4.48-10.88,5.47-27.52,11.2-39.27.45-.92.9-1.98,2-2.27-1.18,11.37-4.27,22.44-5.24,33.86-.78,9.17.68,22.81-.82,30.73-.68,3.59-6.75,13.94-8.49,18.49-1.58,4.14-9.13,23.36-8.11,26.01.62,1.6,4.4,3.25,4.9,5.63,1.76,8.33-13.48,30.57-16.75,39.07-7.73-6.11-7.72-18.81-17.41-23.65-13.35,29.76-16.87,62.85-25.32,93.98l-4.23-8.8-1.34-.36-5.94,15.75h163.71V4.55ZM147.41,211.27c-.8-6.1.59-13.76,0-20.05-7.82,17-21.39,67.69-11.54,83.51,1.44,2.31,16.43,13.56,18.11,11.79-6.72-17.09-3.39-32.08,1.8-49.14,6.31-20.72,16.62-39.65,30.75-56.02l-12.17,65.06c.44-13.29,2.64-27.89,5.47-41.53,1.32-6.37,3.64-12.51,4.74-18.92-13.65,18.14-25.07,39.05-29.87,61.49-2.74,12.81-4.75,31.74,3.89,42.34-26.57-6.9-41.64-33.12-51.93-56.52-.14,11.95-.02,23.92,1.33,35.8,3.04,26.87,5.24,42.17,30.45,55.75.95.51,1.53.09,2.4-.19-13.68,17.14-9.4,36.79-4.59,56.52,2.73-11.36-.44-24.51,3.75-36,.12-.34,1.27-3.62,1.51-1.13-1.32,8.26-3.99,16.91-1.99,25.3,8.21-13.61,3.26-31.53,12.84-44.03,1.29.57-3.01,9.18-3.31,10.49-1.78,7.77-2.92,23.59.04,30.89,2.44,6.01,15.99,11.32,22,13.17-.87-7.97-1.74-15.94-1.33-24.01.2-3.96,3.32-16.65,3.15-18.29-.13-1.21-5.03-7.12-6.07-9.63-5.92-14.3,2.38-38.85,12.48-49.94-5.79,12.84-14.51,28.13-12.65,42.88,1.51,12,21.67,32.62,34.01,34.67-3.63-12.57-8.37-27.32-4.61-40.08l1.36,23.18,3.25,5.74,12.17-55.21-2.89,16.64c12.09,11.11,23.55,24.81,28.86,40.54,2.26-15.32-6.78-29.68-15.11-41.74l1.58-.28c10.73,14.24,17.64,30.67,16.15,48.92l1.3.33c10.44-12.51,16.53-28.47,15.78-45-.36-7.9-3.44-14.56-4.92-22.04,6.34,8.68,6.25,19.7,7.54,29.93l7.9,2.94c10.72-30.85,33.98-2.48,32.9,17.44-.35,6.47-3.73,12.16-5.93,18.05l28.92-1.98-3.69-5.21c-.53-3.5,35.47-15.22,39.19-20.41l-40.1-.33c33.42-15.86,61.96-39.99,82.19-70.98-5.43,1.91-10.46,5.07-15.81,7.2-10.06,4.02-29.01,8.44-37.26,13.36-2.18,1.3-21.55,22.75-23.2,21.16,13.03-13.26,25.75-26.92,36.38-42.24,12.98-18.69,14.86-23.65,18.74-46.26,1.32-7.72,3.29-17.79,4.1-24.83,2.24-19.37,2.15-39.52,3.57-58.87l-38.46,43.38c-.18-1.85,1.25-2.95,1.26-4.83.02-7.26-2.39-19.18-3.45-26.84-4.76-34.47-13.28-68.13-18.86-102.42-16.56,26.57-30.65,54.54-52.25,77.57-17.9,19.08-39.42,33.74-58.5,51.28-14.62,13.44-23.53,31.37-27.97,50.59,1.45-20.18,12.59-39.08,27.33-52.54l8.17-58.53c-26.51,35.19-56.09,69.56-75.8,109.25-.56,1.12-.43,2.57-.46,3.8l-1.48-.82c-.02-1.34-1-3.01-1.15-4.11ZM272.98,367.37c7.32,1.84,15.32-6.62,19.32-11.91,9.64-12.75,10.45-29.16-.32-41.58-18.03-20.8-23.02,14.4-26.94,26.49l-9.14-5.2c-2.61,9.33-9.07,16.76-15.46,23.66-2.45-19.84-16.05-35.71-29.04-49.84l-1.52-.11c-3.42,16.18-10.48,35.04-5.27,51.27-11.78-3.29-20.57-10.56-28.92-19.06.32,14.4,6.89,17.57,16.24,26.07l-7.04,19.93c4.03-.03,11.64-.34,14.8,2.63,2.44,2.29,1.7,6.27,2.93,7.58,1.05,1.12,3.6.62,5,1.58,1.31.91,1.59,3.69,2.42,4.48s3.7,1.28,5.4,2.82c7.33,6.6,9.85,15.49,21.38,12.13,9.57-2.79,34.24-28.68,36-38.28.77-4.19.46-8.44.17-12.65ZM259.84,318.73c.31,7.47-6.58,14.4,2.94,18.41,2.28-6.68,9.29-18.58-2.94-18.41ZM337.65,369.11c-4.01-4.2-7.41-9.15-10.77-13.88-4.58-2.25-27.52.02-32.57,2.26-5.94,2.63-10.54,13.72-19.36,11.86,2.53,15.69-6.53,22.86-15.7,33.29,8.5,11.73,11.72,26.24,3.89,39.35l35.95-11.38c19.95-17.79,45.14-28.73,69.88-38.27-10.03-9.35-21.52-12.97-31.31-23.24ZM416.97,433.1h9.86c-2.88-2.98-7.38-3.44-10.75-5.36-2.14-1.22-3.89-3.9-6.64-5.19-7.69-3.61-19.72-4.57-27.97-7.21l27.61,5.26-9.86-11.82,13.14-3.28c-8.1-3-17.61-7.29-26.29-3.96l3.27-12.83-.93-.93c-21.61,6.5-43.43,15.2-63.04,26.38-19.76,11.27-33.31,25.66-48.79,41.93h-.98s1.97-2.96,1.97-2.96c-9.98,4.42-19.35,13.35-29.78,18.21-8.48,3.95-21.45,8.38-30.69,8.43,10.44-3.38,22.17-6.14,31.99-11.08,8.25-4.15,27.13-16.4,34.36-22.17,4.27-3.41,8.33-8.58,11.88-12.76-5.36,1.54-10.81,2.84-16.12,4.59-9.22,3.03-40.09,12.99-44.92,19.51-2.45,3.31-6.71,16.15-8.7,17.6-2.3,1.68-14.74,2.81-16.46,5.23-1.28,4.4.78,8.17-.23,12.92-.86,4.03-5.19,7.19-6.43,10.66-3.44,9.67,1.59,25.71,2.12,35.97l26.94-25.31c-7.32,9.47-16.98,16.84-24.66,25.96-1.4,1.67-9.14,10.73-9.55,11.65-2.43,5.39,5.13,17.51,7.6,22.55l29.89-14.15-31.23,16.76-2.29-4.6-5.17,11.38c.29,1.17,11.83,8.86,13.41,8.98,2.94.22,17.48-3.62,22.95-3.95,12.77-.78,27.24-.21,39.79,2.01-12.54.17-25.22-1.38-37.82-.69-15.21.84-33.69,1.42-17,20.31l42.34-7.79-42.08,8.55,9.54,11.16c2.01-1.54,1.94-3.06,4.72-4.47,7.18-3.65,10.46-.16,14.98,5.06,8.31-1.46,14.5-11.45,20.76-2.17l34.81-20.1c-18.89-2.66-39.1-3.58-58.21-2.67-10.37.5-21.07,3.12-31.19,2.67,22.2-4.66,46.69-4.88,69.38-3.98,5.82.23,18.16,3.32,22.34,3.02.84-.06,11.27-5.33,11.48-5.94-2.7-1.52-3.18-7.89-4.37-8.93s-24.07-5.18-28.94-7.05c-4.12-1.59-30.98-16.78-31.76-19.52l.97-.97c17.24,13.79,36.55,23.38,58.85,25.62-2.53-7.97-1.9-15.95-2.08-24.2-7.77-2.85-31.45-23.5-32.77-30.67-.13-.7-.08-1.45.67-.67,8.55,11.96,19.37,22.66,32.21,29.91.03-2.41.2-4.74-.44-7.12-3.23-11.99-19.68-30.66-19.97-45.78.91-6.85,11.21-33.55,15.52-37.11,4.02-3.32,17.94-4.95,23.3-6.62l-8.19-3.92-.04-1.34c22.89-18.31,55.24-16.39,81.86-8.54l-9.86-10.5c16.15,2.82,26.3,12.95,38.12,23l-12.48-26.95ZM419.6,467.95l8.53,4.93c-7.15-13.75-12.16-26.66-28.58-31.24l10.18,12.5c-24.85-13.23-63.47-15.47-86.77,2.3l11.83,4.92-25.95,7.26c-6.28,16.94-8.82,38.13-7.6,56.2.61,9.06,2.26,16.85,9.22,23.31.27-5.06,1.55-10.93,2.97-15.77.89-3.02,4.88-9.05,4.66-11.51-.21-2.22-7.25-7.55-6.3-11.5,7.72,12.63,19.08,20,31.55,27.28l-6.78-2.43-17.22-11.05c-8.2,21.74-14.97,50.5-.04,70.76l28.3-2.37c4.05-15.22,3.52-32.94-3.33-47.3l.71-1.36c7.86,14.5,8.59,33.88,3.63,49.28,8.34,2.03,16.62-2.31,24.98-2.3l-15.77,3.63,13.8,5.9c-13-2.88-23.44-6.62-37.13-5.89-23.12,1.23-44.36,17.93-64.09,28.61l-.69,1.27c.62.89,1.52,1.14,2.47,1.48,25.91,9.24,51.49-4.82,76.42-10.67,1.05-.25,11.72-2.6,11.85-1.97l-59.57,17.36-29.85-3.22c4.59,6.72,5.2,15.27,4.51,23.23-.5,5.73-2.84,10.99-3.87,16.54,34.3,1.56,73.64,11.42,103.24-10.86l-21.69-1.97,38.63-.17c5.46-21.24,9.61-43.02,11.33-64.91l-3.61,3.94c2.36-9.26,11.58-16.36,12.82-26.62,1.78-14.76-4.15-28.12-3.99-40.1.05-3.62,2.71-7.63,3.26-11.24,1.29-8.53-.86-19.73-3.29-27.98l-7.16-16.97c1.05-1.05,12.98,11.18,13.75,13.52,1.58,4.78,1.89,18.43,1.35,23.59-.64,6.12-5.85,14.92-5.92,19.07-.05,2.77,2.77,7.48,2.32,10.85,1.97-.2,11.14-25.57,10.2-29.57l4.59,3.28-7.88-42.06ZM300.59,531.7c-2.73-20.59-.07-41.82,5.26-61.79-2.91,2.9-4.72,7.26-6.47,10.94-2.58,5.44-9.55,20.86-8.61,26.04.08.45,1.11.55,1.21,1.01,1.79,8.23,4.04,16.61,8.61,23.79ZM414.99,505.08c.41-3.2,0-7.77,0-11.17,0-4.88-1.84-13.91-6.56-16.44l-1.33.66c.02.6,1.09.14,1.29.83,2.62,9.24,4.97,18.76,5.3,28.43.72.23,1.27-1.97,1.31-2.3ZM191.46,614.52h-11.51c-6.23,0-11-4.53-16.1-7.24l.31-1.29,12.16,5.91c3.22-4.99-6.06-9.49-9.82-10.22-8.02-1.55-15.03.11-16.91,8.67l8.98,20.61-11.16-16.43c-2.02,6.9-.75,13.74,1.65,20.35.39,1.08,3.84,6.27,3.6,6.58-1.86,2.48-4.31-7.36-5.91-7.22.19,2.68-1.31,5.37-.52,8.07.41,1.41,13,12.1.52,3.76-2.23,13.92,10.68,15.03,20.91,16.88,19.15,3.45,40.93,5.05,60,1.09,4.13-9.91,8.27-27.56,1.26-36.7-1.84-2.4-6.39-5.26-8.53-7.9-5.66-6.97-10.53-18.28-19.09-21.67s-21.46-3.29-30.57-6.97c-3.81.45-4.39,5.96-6.89,8.28l14.13,6.89c2.26-3.35,5.55-5.26,9.53-5.9-3.16,3.71-8.91,5.14-7.81,11.4l11.75,3.05ZM241.85,620.67c-3.17-2.68-7.17-2.54-10.25.12-4.39,3.78.67,7.18,1.75,11.34,1.69,6.5.77,16.63-.78,23.16-.71,3.01-5.52,12-5.48,12.69.19,4.13,6.69,6.02,10.38,3.38,11.22-8.03,14.67-41.96,4.38-50.69ZM263.59,619.98c-2.38-1.83-12.3,5.03-16.18,5.48,4.21,16.58,3.24,32.43-7.29,46.24,13.21.12,24.22,6.23,30.56-9.21,3.8-9.25,5.04-22.42.81-31.68-.48-1.06-7.36-10.42-7.9-10.83ZM510.98,621.09c.05-.05.05-1.25,0-1.31-.84-.85-.84,2.15,0,1.31ZM261.81,836.69h13.81l-16.12-23.65,18.42,23.65h135.11l-31.89-49.95,25.31,35.49c-.15-11.69,5.52-22.51,4.12-34.7-19.76-19.48-38.72-39.78-56.7-60.95l.31-.97c15,14.92,27.48,32.31,43.72,46.01l-34.17-87.76,30.88,71.33c-2.37-32.44-13.21-63.21-26.04-92.73l-19.98,6.64,12.49,57.17-13.81-56.52-21.02,1.97,4.93,21.04-6.28-21.01-37.44-2,13.49,40.73-15.46-41.07c-.65-.34-13.91-1.68-14.63-1.53-1.46.3-5.44,4.81-7.26,5.95-1.55.97-5.96,1.65-6.25,1.97-.97,1.05-2.69,25.17-2.78,28.44-1.04,34.71,6.16,68.97,17.11,101.57-5.6-9.22-8.33-20.34-10.84-30.89-7.78-32.76-10.15-66.51-4.93-99.9l-20.39-1.32c-.68,26.16-4.48,53.14.65,78.88l3.29-40.74c-.13,19.62-4.22,40.38-1.12,59.95,2.25,14.23,13.05,30.73,18.07,44.37,2.28,6.19,3.79,14.08,5.41,20.56ZM202.64,836.69h57.86c-2.02-5.45-2.88-13.29-5.79-18.2-2.18-3.69-7.93-8.2-10.63-11.91-2.85-3.9-21.11-31.79-19.07-34.31,8.37,14.55,16.12,30.75,28.9,42.4-5.64-14.09-14.49-28.71-17.55-43.58-6.44-31.25-3.76-64.77-2.12-96.38-6.99,1.62-8.95-8.05-9.6-8.29-3.86-1.45-7.2,9.37-8.2,12.17-3.36,9.41-5.03,19.77-6.47,29.68-4.35,29.76-5.78,60.24-4.04,90.28l23.69-121.92-25.66,135.07-15.11-51.26,13.8,76.24ZM480.73,756.49l6.93-15.04c.18-3.73-18.7-16.08-22.46-17.74-9.38-4.14-25.73-6.18-34-11.37-7.16-4.49-16.1-18.75-21.47-25.52l9.2,38.12c5.08-20.31,14.24-1.96,18.89-.76,2.02.52,8.16-1.02,11.62-.49,7.82,1.2,18.37,13.06,22.61,19.46,1.03,1.56,6.45,14.68,8.67,13.34Z"/>
  <path d="M384.37,470.31c8.48,24.79,4.35,55.23-18.68,70.59,24.43-21.88,26.12-53.86,13.14-82.47,2.93,3.31,4.15,7.8,5.55,11.89Z"/>
  <path d="M385.14,622.15c-.67,2.08-3,8.51-3.97,10.15-4.17,7.08-24.67,12.47-32.58,15.08,7.74-5.73,26.49-7.94,31.22-16.43,2.76-4.94,3.97-13.65,6.92-19.05,1.56,2.56-.71,7.48-1.6,10.25Z"/>
  <path d="M338.72,637.53c-15.07,7-32.23,9.78-48.64,12.47l48.64-12.47Z"/>
  <path d="M404.26,522.29c-6.9,7.62-27.4,16.03-37.25,19.92l37.8-22.34c.89.45-.13,1.95-.55,2.41Z"/>
  <path d="M396.58,558.66c-4.02,8.34-7.98,17.58-15.77,23l15.77-23Z"/>
  <path d="M328.86,491.61c4.64,16.77,16.6,28.46,27.3,41.39-13.22-10.78-23.99-24.77-28.61-41.39h1.3Z"/>
  <path d="M267.98,482.65c-16.7,24.62-32.46,50.05-54.16,70.74,9.68-13.67,21.7-25.77,31.55-39.3,13.69-18.8,24.7-39.86,40.1-57.32-4.4,9.19-11.7,17.36-17.49,25.88Z"/>
  <path d="M278.9,583.64l-.86,1.2-18.2-2.53c1.55-.23,24.64,7.2,23.01,8.55-22.92-9.4-45.55-13-70.36-8.87,21.1-5.31,45.46-3.67,66.41,1.65Z"/>
  <path d="M213.15,498.17c8-3.74,17.43-4.79,25.99-7.86,15.04-5.4,25.68-13.42,35.81-25.65-11.78,21.88-38.71,29.82-61.79,33.51Z"/>
  <path d="M332.81,433.77c.3,1.36-.7,1.52-1.51,2.09-6.28,4.48-14.81,8.01-21.42,12.77-8.47,6.09-15.22,14-23.74,19.96,12.69-14.97,28.89-26.62,46.68-34.83Z"/>
  <path d="M370.94,408.14l-49.96,20.36c13.68-10.84,33.13-16.07,49.96-20.36Z"/>
  <path d="M271.67,609.27l-42.73,8.53c-.27-2.03.09-1.92,1.67-2.6,9.46-4.09,30.35-3.49,41.06-5.94Z"/>
  <path d="M273.63,543.53c-1.68-2.75-2.72-6.81-3.49-9.97-2.17-8.84-3.32-16.33-.11-24.86-.24,12.11,1.21,23.04,3.6,34.83Z"/>
  <path d="M384.09,427.85l-18.75,1.3-19.38,1.32c12.22-3.97,25.51-2.19,38.12-2.62Z"/>
  <path d="M290.99,319.83c.16.3,1.51-.08,1.07,1.2l-1.62.31c-8.71-12.82-14.6,6.66-15.47,13.83,5.14-2.99,10.9,4.53,7.23,8.55.08-3.07-1.97-9.67-5.91-6.24,4.55,4.89.96,13.67-.67,19.38,3.96,3.62,15.55-18.18,15.13-21.68,1.72-.17,1.07-.03,1.31,1,.79,3.36-10.19,25.68-17.6,22.25l-1.2-1.87c1.46-4.33,5.2-12.03,2.88-16.32-.86-1.59-3.38-1.74-3.64-3.92-.78-6.66,9.56-32.96,18.49-16.48Z"/>
  <path d="M275.6,433.76l6.58-49.95c1.33,16.62-1.37,34.09-6.58,49.95Z"/>
  <path d="M203.29,648.05l-19.59-3.1-19.85-6.11c13.16,2.97,26.3,6.17,39.44,9.21Z"/>
  <path d="M196.06,658.57c-11.6-.37-25.33-3.22-36.15-7.89l36.15,7.89Z"/>
  <path d="M253.7,664.24c-.52.42-1.91,1.48-2.41.56,6.23-4.54,6.57-12.07,8.54-18.73.66,5.47-1.77,14.63-6.13,18.17Z"/>
  <path d="M553.72,719.03l7.88-19.06c-.23,2.56-.63,5.15-1.21,7.65-.35,1.51-3.65,14.31-6.66,11.41Z" fill="#fff"/>
  <path d="M524.37,143.68c3.59,16.68,3.91,31.55,6.44,48.42,1.4,9.32,4.53,18.07,5.82,27.38l5.24-14.46c.98,9.62.62,19.34,3.11,28.77,2.67,10.13,5.49,6.92,11.03,13.29,6.81,7.82,3.29,11.39,5.24,19.08.82,3.23,13.05,14.66,4.99,17.44-1.64.56-18.9-1.32-20.38-2.05-7.43-3.7-.51-15.67,2.55-20.5v-2.31c-2.41-2.84-2.67-4.23-5.94-6.67s-18.16-8.02-18.71-8.9c-.44-.71-.64-5.84-1.61-8.25s-3.19-3.94-3.68-6.19c-1.33-6.06,5.08-11.21,3.51-20.59-3.74-22.44-4.9-55.83-3.11-79.02.08-1.09.37-4.31,1.29-4.94,1.69,6.43,2.79,13.01,4.19,19.5Z" fill="#fff"/>
  <path d="M50.75,285.87c-9.06-27.73-7.11-58.73-.32-86.77l.32,86.77Z" fill="#fff"/>
  <path d="M49.44,189.9c-5.5-7.03-8.44-17.72-7.86-26.6.24-3.72,2.43-6.97,2.63-9.18.31-3.42-2.14-9.74-1.99-13.51,7.81,13.79,8.15,33.64,7.22,49.3Z" fill="#fff"/>
  <path d="M54.7,296.39l1.97,27.6c-2.32-8.62-6.85-17.55-3.31-26.64.32-.82-.42-1.21,1.34-.96Z" fill="#fff"/>
  <polygon points="51.09 287.18 51.42 287.51 51.09 287.84 51.09 287.18" fill="#fff"/>
  <polygon points="41.89 139.29 42.22 139.62 41.89 139.95 41.89 139.29" fill="#fff"/>
  <path d="M104.95,724.66c11.56,17.7,22.83,35.13,37.85,50.23l-45.18-41.26-1.49-.14c-.9,12.16-1.88,24.01-.01,36.15l-15.13-16.77.46-1.63c19.02-.71,1.37-12.86,2.35-21.23.47-3.98,11.57-13.7,11.69-19.53,3.51,4.47,6.38,9.43,9.48,14.17Z" fill="#fff"/>
  <path d="M135.57,164.27l-.07,5.85c-14.73,3.37-25.5,22.29-42.52,10.93-.69-6.41,36.45-15.46,42.59-16.77Z" fill="#fff"/>
  <path d="M59.07,374.85c9.07,9.88,16.81,21.15,25.56,31.29-15.12-11.11-30.1-26.26-37.8-43.37,4.03,3.89,8.47,7.97,12.24,12.07Z" fill="#fff"/>
  <path d="M148.72,694.7c-16.07-7.83-35.33-16.56-41.41-34.83,14.91,10.22,29.45,21.18,41.41,34.83Z" fill="#fff"/>
  <path d="M58.24,604.42c2.99,6.46,13.1,14.02,11.61,24.88l-.98.97c-12.08-5.58-15.08-19.52-23.38-28.56-4.11-4.48-13.08-8.32-13.82-15.13-1.9-17.68,20.44-3.14,24.28,7.29,1.33,3.61.83,7.4,2.28,10.54Z" fill="#fff"/>
  <path d="M186.19,734.14l-6.56-39.43c4.71-1.9,6.53,36.53,6.56,39.43Z" fill="#fff"/>
  <path d="M98.03,322.61c-12.88-2.06-11.79-16.65-8.14-26.22-1.08,4.91,12.64,23.38,8.14,26.22Z" fill="#fff"/>
  <path d="M464.13,109.82l2.5.53c2.18,4.3,2.51,9.73-1.36,13.15-2.68.36-6.13-12.51-1.14-13.68Z" fill="#fff"/>
  <path d="M560.89,540.96c2.06,4.43.67,9.3-2.24,13.07-4.43-3.97-4.77-12.68,2.24-13.07Z" fill="#fff"/>
  <path d="M95.65,68.14c-1.85-1.95-3.97-11.04.15-11.02,3.63.02,7.24,13.56-.15,11.02Z" fill="#fff"/>
  <path d="M63.09,395.13c.6.6,1.91,5.34,1.48,5.76-6.22,1.22-5.26-9.57-1.48-5.76Z" fill="#fff"/>
  <path d="M511.63,250.37c-1.04.61-5.89-3.77-2.94-5.25,2.89.04,4.03,2.94,2.94,5.25Z" fill="#fff"/>
  <path d="M91.52,374.6c-2.02,1.11-5.41-3.9-2.94-4.6s4.12,3.95,2.94,4.6Z" fill="#fff"/>
  <path d="M109.27,105.77c-.81.84-4.57-1.35-5.24-2.3l3.46-1.55c1.37.13,2.36,3.24,1.78,3.85Z" fill="#fff"/>
  <path d="M450.18,155.07c1.85-.47,2.31,3.51.63,3.94-1.85.47-2.31-3.51-.63-3.94Z" fill="#fff"/>
</svg>