<?xml version="1.0" encoding="UTF-8"?>
<svg id="Camada_1" xmlns="http://www.w3.org/2000/svg" version="1.1" viewBox="0 0 595.28 841.89">
  <!-- Generator: Adobe Illustrator 29.0.0, SVG Export Plug-In . SVG Version: 2.1.0 Build 186)  -->
  <path d="M590.4,4.55v832.79h-163.81l5.43-15.78,1.5.84,4.24,8.35c8.87-30.96,12.19-64.17,25.39-94.05,9.63,4.93,10.32,16.72,17.25,23.66,3.37-8.51,19.06-30.76,17.25-39.1-.72-3.32-5.7-3.5-5.37-8.49.18-2.68,8.62-23.68,10.28-28.21,1.45-3.94,5.84-10.36,6.45-13.47,1.55-7.92.05-21.58.85-30.75,1-11.43,4.17-22.51,5.39-33.89-1.13.29-1.6,1.35-2.06,2.27-5.99,11.93-7.06,28.43-11.83,39.82-2.08,4.97-8.02,9.52-8.8,12.5-1.15,4.36-.03,9.97-1.2,15.28-.94,4.26-3.93,8.77-5.25,12.99l-2.37-.58c-8.01-7.19-2.04-17.33-13.06-21.56l1.94-22.21-1.93.09c1.59,5.21-2.64,19.49-1.15,23.29,1.13,2.89,4.35,1.39,6.09,3.95,2.48,3.65,1.3,15.68,8.98,19.36.17,1.6-12.95,20.78-14.59,25.1-.57,1.5-2.52,3.98-.11,4.84,5.16-14.28,18.2-27.38,22.2-41.91,1.74-6.31.61-14.57,2.49-19.28.99-2.49,4.13-3.89,5.39-5.94,6.26-10.14,4.55-21.47,10.53-31.53-4.38,14.35-.39,33.4-2.75,46.98-.57,3.29-5.1,9.99-6.56,14.02-2.17,5.97-9.86,24.09-10.43,28.73-.81,6.67,5.43,5.45,5.56,10.53.06,2.32-4.92,15.13-6.79,15.89-7.27-3.97-14.45-12.15-21.89-15.62-23.88-11.14-31.76-3.56-50.43-27.96l-11.62-20.6,14.2,56.25,1.36.31c.64-27.34,10.56-6.96,16.06-5.4,2.76.78,7.2-.84,10.68-.51,4.91.46,12.53,5.55,14.42,10.08-13.83,28.68-16.66,60.84-24.92,91.22l-4.38-8.54c-2.2.23-8.17,16.13-7.12,19.08-3.25-.5-9.15,1.16-11.44-1.06-.47-.45-5.79-10.79-5.91-11.42-1.53-8.59,7.56-31.09,3.13-38.51-1.4-2.35-6.23-5.36-8.1-7.91-8.27-11.29-6.45-26.88-8.35-39.91-3.7-25.41-14.29-53.1-24.75-76.52,7.75-9.62,20.82-.34,24.61-11.5,7-20.56,6.02-45.83,11.34-65.28,1.67-6.09,6.93-11.19,7.87-18.66s-2.23-21.02-1.28-26.2c.2-1.09,5.41-9.68,6.42-12.22,2.1-5.29,4.32-10.74,5.09-16.43l6.08,4.6-6.76-43.41,8.46,5.92-9.8-20.72,11.47,7.25-13.52-30.59,11.83,1.32.34-1.31c-4.85-4.52-12.45-6.31-17.23-9.9s-6.72-9.59-11.18-13.48l11.31-4.76.87-1.47c-9.14-3.75-18.15-7.2-28.42-6.59l4.73-13.81c-1.4-1.3-17.17,7.05-22.16,5.42-1.35-.44-21.84-13.4-23.89-14.95-3.37-2.54-22.23-24.23-22.33-27.01l45.36-22.02-41.29-1.29c34.76-15.76,61.09-44.28,81.23-75.32-17.87,9.97-37.22,17.27-56.86,23.34l26.88-39.32c7.39-37.26,11.5-75.27,11.01-113.29l-36.54,40.78-24.03-132.88c-16.92,29.82-33.59,60.37-57.54,85.53-15.41,16.19-34.24,31.19-51.8,45.05l7.46-64.13c-24.85,37.57-56.24,71.31-77.17,111.51l-1.35-29.27c-10.93,29.34-22.19,60.27-18.29,92.08-14.11-13.08-20.86-31.83-27.06-49.33,0,13.09-.96,26.02,0,39.12.8,10.85,3.78,33.71,7.23,43.63s17.47,18.78,25.89,24.79c-10.53,11.85-8.94,27.35-6.54,41.92,1.05,6.38,3.26,16.04,7.25,20.91.24-10.01,2.86-19.8,6.79-28.94,2.04,14.06,17.9,19.5,30.45,21.69-4.84-11.79-4.12-25.83-1.36-38.14.6,11.71,5.88,16.51,15.6,22.19l-6.15,22.92c1.72,1.23,12.14-3.51,15.66,3.84.8,1.67.15,4.01,1.28,5.34.83.98,4.17,1.08,5.38,2.01,1.78,1.35,6.8,5.38,8.49,6.87,8.45,7.46,9.86,17.19,24.31,12.41,7.05-2.33,13.63-10.25,19.03-15.04,8.81,6.9,10.56,31.14,2.69,38.12-3.49,3.09-19.43,5.7-25.32,10.92-5.01,4.44-7.41,16.8-10.9,19.66-3.07,2.52-16.21,3.22-17.43,6.74-1.02,2.95,1.18,8.38.24,12.73-1.02,4.67-6.21,7.5-7.08,12.85-1.92,11.81,4.08,27.1,2.67,36.14-.65,4.17-6.57,7.41-7.2,12.12-.82,6.07,4.67,12.62,4.52,16.78-.14,3.79-5.86,9.38-5.43,13.8.6,6.16,19.02,9.59,14.85,15.49-6.84-6.06-15.41-5.77-23.68-7.56-4.99-1.09-10.49-4.7-15.76-3.47-4.86,1.13-5.2,8.33-7.54,9.78-1.63,1.01-5,.57-7.63,1.79-10.96,5.06-11.39,31.77-11.09,41.9.51,16.89,5.28,18.65,21.02,21.72,17.58,3.42,36.26,3.8,54.16,3.61-16.46,43.21-15.3,91.8-15.58,137.47l-16.23-52.62,14.21,84.2H4.88v-328.58c10.53-19.38,26.4-33.06,45.35-44.39-19.59,8.29-34.59,23.86-45.35,41.43V4.55h585.52ZM422.53,129.21c.52-4.42-.38-9.63,0-14.14,3.52,13.51,2.52,28.68,5.72,42.13.96,4.04,8.48,25.77,10.18,28.92.55,1.01,1.08,1.92,2.04,2.62l2.37-63.15,34.52,29.26-36.56-32.55-2.02,60.51c-.88-9.21-7.37-18.5-9.32-26.8-3.63-15.51-2.57-35.41-6.44-50.97-.34-1.36-1.27-6.08-3.2-5.76,1.44,11.75,2.91,28.32-1.7,39.46-1.54,3.72-5.65,7.59-6.81,11.81-1.76,6.44-.39,14.09-3,20.43-3.32-15.07-2.89-31.97-5.61-46.85-3.28-17.93-13.81-41.43-14.75-59.36-.21-3.99,1.62-9.15.7-13.16-.63-2.72-4.11-3.31-4.9-5.11-1.32-3,.11-7.33-.66-10.54-.18-.76-6.85-13.53-7.64-13.64l-1.83,1.47,4.91,107.71-3.38-106.56c1.01,1.91,6.4,10.5,6.63,11.69.52,2.71-1.53,5.68.08,9.74,1.12,2.82,4.62,3.01,5.33,6.02.75,3.22-.9,12.13-.44,16.86,1.63,16.82,11.36,38.29,14.61,54.88,3.32,17,2.09,36.88,6.97,54.08,4.2-7.48,2.26-18.2,4.35-26.35,2.02-7.9,8.67-12.58,9.86-22.65ZM381.59,25.6c-1.6.34-1,2.97.65,2.62s1-2.97-.65-2.62ZM408.99,26.26c-.54.99,1.14,2.81,2.02.97,1.14-2.39-1.93-1.14-2.02-.97ZM426.58,26.26c-.74-.72-2.08.59-1.35,1.31s2.08-.59,1.35-1.31ZM387.32,32.18c-.08-.06-1.94-.06-2.02,0-2.12,1.69,4.15,1.69,2.02,0ZM351.45,36.12c1.45-1.51-1.79-4.41-2.7-2.63s1.91,3.45,2.7,2.63ZM433.36,36.12c-.76-2.4-3.2-.91-2.03,0,.19.15,1.47-.07,2.03,0ZM205.24,40.07c.84-.76-.83-3.52-2.7-2.62s1.15,4.03,2.7,2.62ZM352.8,41.39c-.16-.14-3-.62-2.7.97.56,2.91,4.2.35,2.7-.97ZM443.51,43.36c-.74-.72-2.08.59-1.35,1.31s2.08-.59,1.35-1.31ZM396.12,45.33c.06-.05.26-1.33-.33-1.31-1.23.04-1.15,2.55.33,1.31ZM413.72,46c-.06-.05-1.29-.05-1.35,0-.87.84,2.22.84,1.35,0ZM272.25,46.65c-.69-.73-4.12,1.25-3.37,2.62s5.31-.56,3.37-2.62ZM362.28,48.62c.87-.75-1.62-2.95-2.02-.97-.29,1.45,1.71,1.24,2.02.97ZM397.48,52.57c-1.07-1.04-3.1.92-2.02,1.97s3.1-.92,2.02-1.97ZM405.6,52.57c-.08-.06-1.94-.06-2.02,0-2.12,1.69,4.15,1.69,2.02,0ZM461.76,52.6c-4.06-2.11-4.53,5.59-.65,3.64,1.12-.56,1.28-3.31.65-3.64ZM130.11,53.23c-1.7-1.62-8.64,2.25-3.57,3.82,3.73,1.16,4.43-3,3.57-3.82ZM93.04,56.03c-3.4,3.14-.31,15.45,5.26,14.04,8.43-2.13-.55-18.39-5.26-14.04ZM299.68,55.21c-1.34.21-.94,2.21.65,1.97,1.34-.21.94-2.21-.65-1.97ZM421.16,58.49c.06-.05.06-1.25,0-1.31-.87-.85-.87,2.15,0,1.31ZM184.93,148.61c-1.77-6.63-3.33-13.22-4.04-20.08-.75-7.31.32-16.98-.76-23.6s-7.23-8.13-3.14-16.99c3.55-7.7,10.2-3.62,11.68-6.43,3.9-9.45-17.05-24.88-24.22-23.56-6,2.12-4.03,6.92-3.89,11.72l-6.38-1.21-2.41,16.34c1.84.54,1.81-3.37,1.94-4.36.42-3.31.09-6.8.77-10.11l7.14.7c1.6-2.14-3.04-10.85,3.49-11.76,5.49-.76,25.75,13.59,21.54,21.62-9.62-.53-14.2,8.15-11.72,16.59.71,2.4,3.34,5.02,3.76,6.87,2.85,12.63-3.01,32.2,6.23,44.26ZM394.09,59.81c-.27-.21-3.2-.51-2.7.97.83,2.44,4.3.25,2.7-.97ZM283.08,60.47c-.74-.72-2.08.59-1.35,1.31s2.08-.59,1.35-1.31ZM211.84,61.22c-4.54.71-5.29,6.86-1.02,8.61,9.4,3.86,9.2-9.9,1.02-8.61ZM224.2,61.78c-.5.5.25,2.9,1.68,2.62,2.51-.49-.39-3.93-1.68-2.62ZM234.34,63.1c-.77-.84-3.04,1.57-1,1.96,1.49.29,1.27-1.66,1-1.96ZM406.95,65.72c.5-.5-.25-2.9-1.68-2.62-2.51.49.39,3.93,1.68,2.62ZM58.85,65.21c-3.8,1.12-4.54,8.81,1.13,8.42,6.49-.45,5.7-10.43-1.13-8.42ZM270.22,65.07c-.63-.4-1.95.48-2.03,1.3,1.24.58,3.16-.59,2.03-1.3ZM421.85,65.07c-.74-.72-2.08.59-1.35,1.31s2.08-.59,1.35-1.31ZM460.54,72.87c2.16,1.19,5.77-1.05,2.99-3.25s-4.69,2.31-2.99,3.25ZM443.34,76.08c2.02-2.04.22-7.22-3.21-5.44s-.14,8.82,3.21,5.44ZM423.2,72.97c-.74-.72-2.08.59-1.35,1.31s2.08-.59,1.35-1.31ZM235.7,73.62c-1.74-2.06-1.74,4.03,0,1.97.06-.08.06-1.89,0-1.97ZM140.84,78.8c1.22-.7-.06-3.6-1.59-3.21-1.84.48-1.54,5,1.59,3.21ZM408.31,76.26c-.27-.21-3.14-.53-2.7.97.68,2.29,3.7-.2,2.7-.97ZM229.6,78.89c-.77-.84-3.04,1.57-1,1.96,1.49.29,1.27-1.66,1-1.96ZM395.45,81.52l-2.03.32c.9,1.24,1.46,1.12,2.03-.32ZM252.31,82.18c-1.67.56-1.66,4.43,1.21,3.84,3.19-.66,1.09-4.62-1.21-3.84ZM475.33,104.21c-1.05,9.39,0,22.4,0,32.23,0,.76-1.34,2.86-.67,4.28,7.16-16.93-5.85-39.79,12.17-53.28,1.35,39.5,4.29,81.77,16.75,119.57.95,2.87,1.99,6.64,3.37,9.25.46.86-.41,1.81,1.54,1.43-.93-17.91-1.2-35.97,2.71-53.59l-1.7-.36c-3.08,14.7-3.25,29.76-3.04,44.74-14.26-39.84-17.04-83.87-18.28-126.3-5.29,7.58-11.76,12.29-12.85,22.04ZM368.37,84.15c-.48-.75-4.3-.92-3.37,1.63.84,2.33,4.59.27,3.37-1.63ZM151.08,84.15c-3.72-3.86-4.76,20.62-4.79,22.04-.19,7.34,3.39,15.22-1.71,22.74l-5.38-1.42c-3.92,3.06-2.25,28.45-4.01,34.26-7.3,4.15-41.73,9.85-43.52,18.26-1.89,8.86,18.32,5.46,23.33,3.55,6.62-2.52,8.22-6.49,12.85-9.22,2.02-1.19,7.76-2.36,8.37-3.05,1.79-1.99-.49-6.66,1.33-8.57.48-.5,11.51-4.71,12.98-5.14,2.74-.8,4.15.28,5.56.04,2.43-.41,2.76-3.48-1.77-3-2.61.28-16.57,7.29-17.45,6.45,1.52-3.68.29-32.07,3.72-32.21,1.42,1.79,3.24,2.82,5.47,1.35,5.97-3.94-.28-38.32,5.02-46.09ZM402.22,84.15c-2.08-1.96-5.3,2.23-3.36,3.26,2.43,1.29,4.42-2.27,3.36-3.26ZM240.43,86.11c.06-.05.06-1.25,0-1.31-.87-.85-.87,2.15,0,1.31ZM519.32,85.46c-1.35-1.51-1.89,1.88-.33,1.97.58.03.41-1.88.33-1.97ZM107.08,86.12l-2.68.97,1.68,2.96,1-3.94ZM239.08,86.12c-.74-.72-2.08.59-1.35,1.31s2.08-.59,1.35-1.31ZM417.78,87.44c-1.41-1.37-4.11,1.25-2.7,2.62s4.11-1.25,2.7-2.62ZM429.97,92.03c.21-.31-1.03-1.51-1.35-1.31-.87.55.78,2.15,1.35,1.31ZM400.19,97.96v-1.97s-2.7,1.33-2.7,1.33l2.7.64ZM135.51,97.95c.06-.05.06-1.25,0-1.31-.87-.85-.87,2.15,0,1.31ZM275.63,96.65c-1.48-1.24-1.57,1.27-.33,1.31.59.02.39-1.25.33-1.31ZM248.56,98.63c-.08-.18-2.84-.8-2.69.32.22,1.61,3.13.69,2.69-.32ZM105.38,100.23c-.9.09-2,.58-2.28,1.47,5.18,14.55,12.83-2.49,2.28-1.47ZM272.25,101.9c.06-.05.26-1.33-.33-1.31-1.23.04-1.15,2.55.33,1.31ZM402.56,101.91v.66l.34-.33-.34-.33ZM403.57,103.23c-1.74-2.06-1.74,4.03,0,1.97.06-.08.06-1.89,0-1.97ZM369.05,103.88c-.2-.19-2.42-.5-2.02.97.62,2.26,3.36.32,2.02-.97ZM356.87,105.86l-2.03.32c.9,1.24,1.46,1.12,2.03-.32ZM92.19,108.48l-.33-1.97c-1.28.88-1.15,1.41.33,1.97ZM464.32,107.91c-7.06.68-4.33,15.62,1.09,17.62,6.62-2.22,5.28-18.23-1.09-17.62ZM57.5,109.3c-2.79-2.88-7,3.18-3.89,4.78,3.53,1.81,6.34-2.25,3.89-4.78ZM412.37,108.49c-.63-.4-1.95.48-2.03,1.3,1.24.58,3.16-.59,2.03-1.3ZM362.95,109.15c-.63-.4-1.95.48-2.03,1.3,1.24.58,3.16-.59,2.03-1.3ZM131.45,110.46c-.74-.72-2.08.59-1.35,1.31s2.08-.59,1.35-1.31ZM63.76,112.43c.06-.05.06-1.25,0-1.31-.87-.85-.87,2.15,0,1.31ZM254.65,111.12c-1.83-1.19-3.53,2.14-1.68,2.62,2.51.65,2.36-2.18,1.68-2.62ZM411.69,117.69c.06-.05.06-1.25,0-1.31-.87-.85-.87,2.15,0,1.31ZM113.85,117.04c-1.74-2.06-1.74,4.03,0,1.97.06-.08.06-1.89,0-1.97ZM536.93,212.42c-8.7-30.78-5.26-63.79-16.59-94.05-4.11,10.99-3.04,23.05-3.08,34.55-.05,13.29-.65,33.38.73,46,.5,4.6,3.51,9.66,3.38,13.8-.15,4.84-4.93,9.03-4.74,14.52.17,4.95,6.33,8.72,6.06,14.47l-50.74-19.09c7.85,3.07,15.79,8.41,23.24,11.63,8.79,3.8,47.29,15.84,50.46,22.66,3.75,8.07-8.48,14.19-3.3,22.94,2.67,4.51,19.98,6.48,24.66,5.55,11.42-2.27-3.21-16.66-4.04-19.66-1.4-5.05.75-8.54-1.98-14.52-2.89-6.32-9.77-8.01-12.4-12.95-3.98-7.49-4.19-36.32-5.57-37.68-.13-.13-1.48.08-2.02,0l-4.06,11.84ZM373.11,119.02c-.06-.05-1.29-.05-1.35,0-.87.84,2.22.84,1.35,0ZM59.02,128.21c1.02-.99-1.29-4.17-2.37-3.92-2.97.67.39,5.85,2.37,3.92ZM67.82,349.9c.64-.68-7.92-14.09-8.5-16.4-2.86-11.41.09-27.72-3.59-39.26-.49-1.54-2.34-1.44-2.79-3.2-2.99-11.49.37-52.66.03-67.79-.17-7.6-.44-15.37-.72-22.98-.82-22.43.16-50.9-12.71-70.53-.56-.86-.79-1.79-2.16-1.51-1.15,1.37,3.63,13.61,3.94,16.3.18,1.52-1.39,2.3-1.28,3.72.14,1.72,2.66,2.11,2.82,4.65s-1.73,3.23-1.97,4.73c-1.39,8.87-.74,16.59,2.45,24.98,1.08,2.85,5.97,9.81,6.18,11.75.4,3.73-3.28,14.92-3.92,19.82-2.45,18.87-4.44,60.03,4.59,76.9,1.49,2.78,3.3,2.09,3.43,2.27.26.36-2.35,6.57-2.53,8.38-.78,7.58,4.79,27.93,8.04,35.26.5,1.13,7.74,13.95,8.7,12.92ZM469.91,129.54c-1.74-2.06-1.74,4.03,0,1.97.06-.08.06-1.89,0-1.97ZM96.94,130.85c-1.34,1.25,2.19,4.07,2.7,1.63.29-1.39-2.18-2.11-2.7-1.63ZM79.33,131.51c-.74-.72-2.08.59-1.35,1.31s2.08-.59,1.35-1.31ZM12.67,140.72c-1.9.59-.75,3.27,1.34,2.62,1.9-.59.75-3.27-1.34-2.62ZM59.02,142.7c-.06-.05-1.29-.05-1.35,0-.87.84,2.22.84,1.35,0ZM107.76,145.32c1.1-1.07-2.2-2.76-2.01-.98.05.47,1.62,1.36,2.01.98ZM23.15,147.96c-.56-.84-2.21.76-1.35,1.31.32.2,1.55-1,1.35-1.31ZM66.47,149.93c-.32-.31-3.72-.52-2.7,1.63,1.38,2.9,4.1-.27,2.7-1.63ZM555.87,149.93c-1.35-1.04-4.1.88-2.7,1.97s4.1-.88,2.7-1.97ZM450.06,153.94c-2.07.68-2.81,5.38.03,6.38,5.49,1.95,4.52-7.88-.03-6.38ZM117.92,156.51c-1.1,1.07,2.2,2.76,2.01.98-.05-.47-1.62-1.36-2.01-.98ZM72.56,159.8c-1.74-2.06-1.74,4.03,0,1.97.06-.08.06-1.89,0-1.97ZM462.47,174.92c1.92,1.87,3.43-2.93,1.01-2.61-.8.11-1.4,2.24-1.01,2.61ZM22.84,176.25c-2.65.91-.11,5.21,1.98,4.6,2.34-.69.52-5.45-1.98-4.6ZM63.76,183.48c-.74-.84-2.91,1.61-2.02,2.62.74.84,2.91-1.61,2.02-2.62ZM127.39,185.44c.87-.75-1.62-2.95-2.02-.97-.29,1.45,1.71,1.24,2.02.97ZM420.49,184.14c-.8-.98-3.36,1.96-1,2.62,1.55.43,1.21-2.36,1-2.62ZM547.75,188.08c-1.12-1.36-3.1,1.32-2.02,2.63s3.1-1.32,2.02-2.63ZM131.45,206.51c-4.27-2.18-23.55-15.79-24.93-4.79-.73,5.82,9.02,5.28,12.53,6.64,1.12.43,10.48,6.1,10.37,5.06-5.04-5.79-12.17-7.02-19.29-8.88l-1.26-3.79c2.92-6.6,18.36,7.29,22.58,5.76ZM464.49,197.29c-1.07-1.04-3.1.92-2.02,1.97s3.1-.92,2.02-1.97ZM27.58,199.93c-2.13.72-.75,4.84,1.23,4.55,2.96-.44,1.56-5.49-1.23-4.55ZM69.87,202.55c1.41-.41,2.68-2.28,1-2.62s-.89,1.18-1,2.62ZM466.36,241.2c2.77-2.6-1.11-6.43-3.43-7.86-4.47-2.75-17.24-5.17-23.72-7.86-15.31-6.36-28.63-19.28-43.79-23.88-2.26-.69-8.81-3.07-7.42.29,16.03,1.52,28.12,13.91,41.72,20.97,6.22,3.23,33.16,11.59,34.78,13.56,1.47,1.79,1.91,3.92-1.03,4.27-4.47.54-17.37-7.59-22.67-9.52-17.46-6.35-36.64-5.83-54.47-10.87l-.35,1.98c18.28,4.17,37.89,4.14,55.49,10.87,4.99,1.91,20.46,12.21,24.89,8.05ZM416.43,201.9c-.74-.72-2.08.59-1.35,1.31s2.08-.59,1.35-1.31ZM86.1,206.51l-2.03.32c.9,1.24,1.46,1.12,2.03-.32ZM89.49,227.55c-.46-.47-3.04.25-2.7,1.63.64,2.57,4.48.21,2.7-1.63ZM73.22,236.08c2.32-4.04-5.64-4.14-3.35,0,.21.38,3.13.38,3.35,0ZM31.27,235.45c-1.31-1.31-3.56,1.81-2.02,2.62,1.35.71,2.69-1.95,2.02-2.62ZM508.27,242.74c-4.96,1.47.75,13.87,5.53,7.35.95-2.56-2.65-8.2-5.53-7.35ZM394.1,345.95c7.43,1.45,16.17,2.71,23.2,5.42,13.92,5.35,34.06,21.84,48.89,21.54,6.79-.14,12.64-5.44,16.3-5.89,3.29-.41,10.89,2.91,16.85,2.6,7.55-.39,24.55-4.53,31.84-7.2,8.32-3.05,16.33-10.11,22.88-12.63,6.17-2.38,15.55.21,18.56-7.62,3.5-9.11-9.07-12.87-14.15-20.77-4.75-7.39-7.71-27.29-14.16-30.31-3.86-1.81-7.42.33-10.25-3.2-3.45-4.3-.7-16.03-4.24-22.85-4.06-7.83-13.53-4.43-6.77-19.72-10.84,13.24,1.7,13.51,5.42,21.04,3.02,6.1.55,13.16,2.9,19.55,2.84,7.71,6.66,4.12,12.12,6.64,6.05,2.79,9.16,23.86,14.53,31.27,4.03,5.57,14.72,9.91,13.26,17.06s-11.4,5.31-16.89,7.26c-5.81,2.07-14.62,9.33-21.97,12.2s-26.45,7.82-34.42,8.02c-5.25.13-12.53-3.24-16.2-2.64-3.13.51-7.61,4.79-13.56,5.27-21.38,1.72-47.65-26.09-72.54-26.27-1.38,0-1.85-.59-1.61,1.24ZM421.18,249.26c-.78,2.43,2.05,3.1,2.01,1.64,0-.15-1.49-1.61-2.01-1.64ZM486.83,249.26c-.31-.27-2.31-.48-2.02.97.4,1.98,2.89-.22,2.02-.97ZM76.62,252.55c-.77-.84-3.04,1.57-1,1.96,1.49.29,1.27-1.66,1-1.96ZM87.85,252.59c-2.18.77-.22,3.36,1.2,3.18,2.43-.3,2.18-4.38-1.2-3.18ZM20.11,257.82c-2.11.67,0,3.26.67,3.27,1.67,0,2.44-4.25-.67-3.27ZM465.84,260.43c1.1-1.07-2.2-2.76-2.01-.98.05.47,1.62,1.36,2.01.98ZM437.42,264.39c-1.92,1.87,3.02,3.33,2.69.98-.11-.78-2.3-1.36-2.69-.98ZM506.47,268.34c-1.92,1.87,3.02,3.33,2.69.98-.11-.78-2.3-1.36-2.69-.98ZM536.24,272.94l-1.01-4.59c-2.23,1.2-2.38,5.16,1.01,4.59ZM418.46,269.65c-.89-1.38-2.45,1.69-.33,2.62.55.02.45-2.43.33-2.62ZM86.1,274.91c-.08-.06-1.94-.06-2.02,0-2.12,1.69,4.15,1.69,2.02,0ZM457.04,282.81c-.74-.72-2.08.59-1.35,1.31s2.08-.59,1.35-1.31ZM431.32,284.77c.06-.05.06-1.25,0-1.31-.87-.85-.87,2.15,0,1.31ZM407.63,286.75c.06-.05.06-1.25,0-1.31-.87-.85-.87,2.15,0,1.31ZM14.35,289.38l-1.37,1c3.95,15.37,10.47,30.04,17.25,44.42l12.55,20.36c-10.86-21.29-23-42.31-28.43-65.78ZM91.52,291.35c-1.69-2.4-4.08,5.8-4.3,6.67-1.05,4.18-1.82,12.53-1.06,16.63.85,4.62,11.95,14.91,14.34,6.77,1.85-6.29-12.48-21.37-8.98-30.08ZM408.99,292.68c-1.54,1.24,3.37,3.06,3.36.98,0-.87-2.92-1.34-3.36-.98ZM412.03,302.55c-1.02,0-1.02,1.94,0,1.94s1.02-1.94,0-1.94ZM429.97,307.15c-.74-.72-2.08.59-1.35,1.31s2.08-.59,1.35-1.31ZM463.82,309.77c1.92,1.87,3.43-2.93,1.01-2.61-.8.11-1.4,2.24-1.01,2.61ZM493.6,313.06c1.45-1.51-1.79-4.41-2.7-2.63s1.91,3.45,2.7,2.63ZM399.17,313.06v.66l.34-.33-.34-.33ZM73.24,317.67c-.2-.19-2.42-.5-2.02.97.62,2.26,3.36.32,2.02-.97ZM528.8,318.33c-1.68-1.9-3.08,2.61-1.01,2.61.7,0,1.42-2.15,1.01-2.61ZM100.88,329.4c1.27-.82.22-3.82-.9-3.83-1.95-.02-2.76,6.18.9,3.83ZM469.91,325.57c-.2-.19-2.42-.5-2.02.97.62,2.26,3.36.32,2.02-.97ZM452.98,330.83c-1.8-.93-2.91,2.97-1.01,3.27.91.14,1.95-2.79,1.01-3.27ZM410.34,332.14c-.74-.72-2.08.59-1.35,1.31s2.08-.59,1.35-1.31ZM84.07,339.37c1.54-1.24-3.37-3.06-3.36-.98,0,.87,2.92,1.34,3.36.98ZM47.52,339.38c-.74-.72-2.08.59-1.35,1.31s2.08-.59,1.35-1.31ZM102.1,341.4c-2.86,1.08-.66,7.58,3,4.93,1.96-1.42-.02-6.05-3-4.93ZM380.56,343.33c-.47.56.07,3.61,1.68,3.28,2.61-.54-.85-4.27-1.68-3.28ZM530.83,347.27c1.48-2.56-3.63-3.77-2.7-.34.34,1.26,2.61.48,2.7.34ZM502.06,345.31c-2.14,0-1.7,4.47.67,3.93,2.06-.48.36-3.93-.67-3.93ZM438.43,346.63c-1.16,0-1.19,2.59,0,2.6s1.19-2.59,0-2.6ZM469.91,351.21c1.92-1.87-3.02-3.33-2.69-.98.11.78,2.3,1.36,2.69.98ZM413.05,353.2h-2.02v.64c.93-.06,2.25.46,2.02-.64ZM390.03,361.08c1.09-1.06-1.6-3.69-2.7-2.62s1.6,3.69,2.7,2.62ZM114.53,433.44c-7.89-8.41-17.58-15.17-25.39-23.67-2.92-3.18-41.88-53.42-45-50,.76,4.8,3.69,9.29,6.22,13.35,11.27,18.11,40.03,42.43,57.4,56.05,1.95,1.53,4.26,3.82,6.77,4.26ZM433.36,370.94l-2.7-4.6c-.11,1.74.3,4.67,2.7,4.6ZM88.62,367.77c-7.02,3.19,2.58,12.47,4.65,6.49.85-2.46-1.58-7.13-4.65-6.49ZM561.97,380.81c-2.32-4.09-13.66-7.64-18.04-7.82-5.63-.24-10.77,2.39-17.48,1.9-8.51-.63-16.09-4.18-25.76-3.96-20.08.46-34.13,9.33-51.57,14.34-2.59.74-8.86-.97-9.65,2.78,3.09-1.58,7.62-.7,10.33-1.46,17.67-4.98,31.77-14.07,52.25-14.34,9.67-.13,18.77,4.28,27.21,4.36,4.67.04,9.47-2.33,13.89-2.2,6.74.2,12.72,4.31,18.83,6.41ZM108.17,378.88c-3.62,1.24,2.79,5.25,3.65,2.25.37-1.3-2.26-2.73-3.65-2.25ZM557.22,638.68l-1.74,1.99c1.68,6.01,10.28,12.47,10.61,18.06.5,8.3-5.02,16.55-5.48,24.39-.26,4.42,1.28,8.35.38,13.48-.82,4.66-9.32,19.91-9.16,22.02.12,1.57,1.91,2.37,3.19,2.85,6.44.64,8.69-25.52,10.3-29.87.96-2.59,3.16-4.4,4.03-6.61,2.46-6.27-.45-14.93.15-22.22,1.9-22.85,15.02-46.66,15.5-72.42.52-27.74-12.34-51.47-13.59-74.99-.37-6.97,2.64-11.46,2.79-17.14.12-4.5-2.34-9.67-2.69-13.88-1.09-13.16,8.41-25.77,11.13-39.03,4.54-22.18,2.88-47.89-16.29-63.18l-1,.97c19.17,16.24,20.38,41.41,15.23,64.15-2.15,9.49-10.83,24.1-11.11,32.02-.23,6.47,3.11,13.01,2.67,20.3-.28,4.64-2.8,9.32-2.78,13.78.06,11.95,9.16,34.51,11.35,48.22,3.37,21.15,2.88,36.5-1.48,57.37-2.77,13.22-11.2,33.68-11.8,45.82-.27,5.56,2.4,12.47,1.14,18.15-.59,2.65-4.71,6.86-5.92,9.69-2.06-10.94,2.99-19.78,4.63-30.02,2.61-16.28,2.72-35.49,5.59-51.14.99-5.39,3.95-8.46,5.14-12.76,3.6-12.97-7.23-20.05-7.83-32.8-.32-6.81,3-12.09,2.44-18.15-.95-10.26-12.1-26.7-13.36-37.03-1.53-12.58-.57-30.75-1.34-44.08-.64-11-6.22-49.53-.35-56.86.74-.92,1.67-1.57,2.84-1.87.81-.15,2.16.13,2.73.69,3.35,3.32,4.02,34.9,3.53,40.94-.92,11.43-5.12,21.97-6.42,33.24,7.87-19.88,10.05-41.01,7.09-62.16-.69-4.93-3.42-22.32-11.4-11.11-5.52,7.74-.61,39.21-.06,49.88.64,12.57,1.65,24.48,2.6,36.94.35,4.64-1.34,11.08-.53,16.31,1.42,9.13,11.25,23.96,12.63,33.77,1,7.16-2.7,13.89-1.79,22.13.96,8.7,8.61,16.76,8.56,24.41-.04,6.07-5.34,12-6.43,18.59-.86,5.21-2,39.84-4.93,41.6-4.32-3.68-7.39-9.09-8.8-14.47ZM436.06,388.72c-1.6-1.25-15.95,2.35-17.6,5.25,3.43-.1,6.09-2.34,9.3-3.12,2.74-.66,8,1.27,8.29-2.13ZM497.66,389.37c-.74-.72-2.08.59-1.35,1.31s2.08-.59,1.35-1.31ZM524.74,390.03l-2.02,1.97c2.19.21,2.24.17,2.02-1.97ZM60.2,393.43c-3.51,1.15-1.82,8.03,1.35,8.96,7.68,2.25,4.03-10.72-1.35-8.96ZM104.98,400.63c-.69-.89-3.77-.86-3.3.89s5.06,1.39,3.3-.89ZM484.12,399.9c-.74-.72-2.08.59-1.35,1.31s2.08-.59,1.35-1.31ZM443.17,406.47v.66l.34-.33-.34-.33ZM115.88,407.13c-1.01-.99-4.73.86-3.3,3.21,1.56,2.57,4.84-1.69,3.3-3.21ZM148.38,409.1c.87-.75-1.62-2.95-2.02-.97-.29,1.45,1.71,1.24,2.02.97ZM459.75,413.71c-.43-.43-3.79.04-3.38,1.63.63,2.43,5.5.49,3.38-1.63ZM31.27,417c-1.74-2.06-1.74,4.03,0,1.97.06-.08.06-1.89,0-1.97ZM507.14,417c-.74-.72-2.08.59-1.35,1.31s2.08-.59,1.35-1.31ZM24.5,424.24c-.73-1.1-1.94.76-1.34,1.97.85-.07,1.75-1.36,1.34-1.97ZM71.89,426.86c.87-.75-1.62-2.95-2.02-.97-.29,1.45,1.71,1.24,2.02.97ZM83.18,425.66c-3.58,1.29-.39,8.22,3.14,7.06,3.06-1,2.45-9.08-3.14-7.06ZM147.7,427.53c-1.14-1.25-3.07,2.6-1.01,2.61.7,0,1.42-2.16,1.01-2.61ZM37.36,429.5c-1.74-2.06-1.74,4.03,0,1.97.06-.08.06-1.89,0-1.97ZM47.52,436.08c-.74-.72-2.08.59-1.35,1.31s2.08-.59,1.35-1.31ZM482.43,436.09c-.54-.05-2.51,2.35-.66,2.61s2.03-2.49.66-2.61ZM29.93,436.74c-1.1,1.07,2.2,2.76,2.01.98-.05-.47-1.62-1.36-2.01-.98ZM33.3,440.03c-.09-.08-2.05-.24-2.02.32.08,1.52,3.58.99,2.02-.32ZM442.83,442.66c-.74-.72-2.08.59-1.35,1.31s2.08-.59,1.35-1.31ZM525.41,442.66c-1.48-1.24-1.57,1.27-.33,1.31.59.02.39-1.25.33-1.31ZM42.1,443.97c-.8-.98-3.36,1.96-1,2.62,1.55.43,1.21-2.36,1-2.62ZM59.54,449.72c2.93-2.84-1.94-7.84-4.58-4.78-2.79,3.24,1.59,7.68,4.58,4.78ZM48.87,451.86c.06-.05.06-1.25,0-1.31-.87-.85-.87,2.15,0,1.31ZM30.59,453.83c.87-.75-1.62-2.95-2.02-.97-.29,1.45,1.71,1.24,2.02.97ZM124.01,452.52c-2.19-.21-2.24-.17-2.02,1.97l2.02-1.97ZM471.94,454.5c-.47-.39-2.69.3-2.69.98,0,2.01,4.64.65,2.69-.98ZM88.81,456.47c-.77-.84-3.04,1.57-1,1.96,1.49.29,1.27-1.66,1-1.96ZM17.06,458.44c-.74-.72-2.08.59-1.35,1.31s2.08-.59,1.35-1.31ZM25.18,461.08c-.77-.84-3.04,1.57-1,1.96,1.49.29,1.27-1.66,1-1.96ZM59.7,463.7c.41-.46-.31-2.61-1.01-2.61-2.07,0-.67,4.51,1.01,2.61ZM83.39,467.65c.44-.63-.16-2.51-1.34-2.63-.5.99.31,4.11,1.34,2.63ZM100.12,466.41c-2.02.46-2.92,4.18-.12,4.57,3.94.55,3.69-5.39.12-4.57ZM8.26,469.62c1.1,1.07,2.84-2.14,1.01-1.95-.49.05-1.4,1.58-1.01,1.95ZM17.74,469.62c.21-.31-1.03-1.51-1.35-1.31-.87.55.78,2.15,1.35,1.31ZM157.18,471.59c.87-.75-1.62-2.95-2.02-.97-.29,1.45,1.71,1.24,2.02.97ZM11.64,473.57c-1.07-1.04-3.1.92-2.02,1.97s3.1-.92,2.02-1.97ZM29.24,474.23c-.77-.84-3.04,1.57-1,1.96,1.49.29,1.27-1.66,1-1.96ZM520.67,476.21c-1.33-1.31-3.32,1.36-1,1.96,1.51.39,1.2-1.77,1-1.96ZM128.75,476.87c-25.46,11.19-66.54,5.79-85.98,27.28-22.88,25.28,12.85,41.07,33.86,46.06,28.3,6.72,59.62,7.88,87.99.98-10.29-.51-20.92,2.8-31.48,3.28-21.44.99-124.76-8.62-89.69-49.01,17.91-20.62,54.46-15.66,78.22-25.29l7.08-3.3ZM455.69,481.46l-.33-1.97c-1.28.88-1.15,1.41.33,1.97ZM73.15,482.86c-.88-.42-4.84-.32-5.3.9l1.11,1.7,2.56.6,2.09-1.3c.21-.4-.34-1.86-.46-1.91ZM28.56,488.7c1.28-1.44-1.31-1.52-1.35-.32-.02.57,1.29.38,1.35.32ZM102.01,493.98c-1.16,0-1.19,2.59,0,2.6s1.19-2.59,0-2.6ZM159.88,495.28c-1.45-1.51-4.33,2.65-1.68,3.28,1.61.38,2.14-2.8,1.68-3.28ZM28.91,500.54v.66l.34-.33-.34-.33ZM445.54,501.2c-.33-.57-4.64-.64-3.37,1.63,1.34,2.41,4.39.13,3.37-1.63ZM475.32,503.83c-.56-.66-4.71,1.39-1.68,2.62,2.15.87,2.12-2.11,1.68-2.62ZM519.67,505.81c-1.46.35-1.22,3.13-.01,3.27,1.29.15,2.52-3.88.01-3.27ZM546.39,507.77c.06-.05.06-1.25,0-1.31-.87-.85-.87,2.15,0,1.31ZM148.05,508.44c-1.99.68-.92,4.05,1.34,3.27,1.99-.68.92-4.05-1.34-3.27ZM455.69,513.03c1.28-1.44-1.31-1.52-1.35-.32-.02.57,1.29.38,1.35.32ZM64.45,513.04c-1.92,1.87,3.02,3.33,2.69.98-.11-.78-2.3-1.36-2.69-.98ZM111.72,521.49l.15-5.54-6.18-1.31,1.01,5.67,5.02,1.17ZM443.94,520.32c-1.92.73-1.58,4.94.74,5.75,6,2.1,3.54-7.37-.74-5.75ZM546.88,521.66c-2.97.7-2.56,6.82,1.8,5.11,2.38-.94,1.01-5.77-1.8-5.11ZM78.65,524.88c1.34-1.25-2.19-4.07-2.7-1.63-.29,1.39,2.18,2.11,2.7,1.63ZM17.73,526.19c.52-.59-.23-2.81-1.68-2.62-2.11.27.35,4.16,1.68,2.62ZM531.5,526.2c-.74-.72-2.08.59-1.35,1.31s2.08-.59,1.35-1.31ZM505.79,535.41c-1.52,1.44,2.26,5.3,3.37,2.29.8-2.16-2.78-2.86-3.37-2.29ZM94.22,539.35c1.1-1.07-2.2-2.76-2.01-.98.05.47,1.62,1.36,2.01.98ZM118.59,538.04c-.31-.27-2.31-.48-2.02.97.4,1.98,2.89-.22,2.02-.97ZM560.49,555.67c2.59-1.29,5.95-16.67-.79-16.17-9.02.67-5.25,19.18.79,16.17ZM29.93,544.61c.46.47,3.04-.25,2.7-1.63-.64-2.57-4.48-.21-2.7,1.63ZM451.46,544.73c-5.15,1.42-2.19,9.1,2.37,8.34,4.92-.82,3.74-10.02-2.37-8.34ZM7.58,549.87c1.28-1.44-1.31-1.52-1.35-.32-.02.57,1.29.38,1.35.32ZM430.65,549.22c-2.19-.21-2.24-.17-2.02,1.97l2.02-1.97ZM47.19,557.77c-1.6.41-1.44,4.21.65,3.94,2.44-.31,1.43-4.47-.65-3.94ZM532.86,558.43c-1.57-1.5-6.7,1.89-2.27,3.13,2.07.58,3.05-2.38,2.27-3.13ZM29.24,560.41c-.77-.84-3.04,1.57-1,1.96,1.49.29,1.27-1.66,1-1.96ZM505.46,561.72c-1.99.68-.92,4.05,1.34,3.27,1.99-.68.92-4.05-1.34-3.27ZM65.28,571.42c4.38,4.26,11.17-4.14,5.53-7.67s-8.29,4.99-5.53,7.67ZM86.78,566.33c-.74-.72-2.08.59-1.35,1.31s2.08-.59,1.35-1.31ZM112.6,570.83c1.29,2.04,7.55-.46,5.02-3.89-1.59-2.16-6.89.92-5.02,3.89ZM106.41,567.64c-.08-.06-1.94-.06-2.02,0-2.12,1.69,4.15,1.69,2.02,0ZM561.29,572.24l-2.02-1.97c-.22,2.13-.17,2.18,2.02,1.97ZM480.06,573.55c-.76-2.4-3.2-.91-2.03,0,.19.15,1.47-.07,2.03,0ZM528.37,589.11c7.33,6.26,15.55-4.83,9.19-10.58s-16.05,4.71-9.19,10.58ZM35.14,577.65c-2.42.56-3.91,2.69-4.38,4.94-2.38,11.38,9.3,15.63,15.38,22.89,7.46,8.91,11.38,23.88,24.42,27,2.27-1.73-1.64-13.97-2.72-16.51-2.09-4.92-7.05-8.97-8.29-12.34-.98-2.66-.56-6.04-1.55-9.02-2.37-7.07-14.19-18.98-22.86-16.97ZM448.25,579.49c-.06-.05-1.29-.05-1.35,0-.87.84,2.22.84,1.35,0ZM112.5,582.77c-.77-.84-3.04,1.57-1,1.96,1.49.29,1.27-1.66,1-1.96ZM84.07,588.68c1.01-.77-2.02-3.26-2.7-.97-.44,1.5,2.43,1.18,2.7.97ZM563.67,587.38c-1.6.34-1,2.97.65,2.62s1-2.97-.65-2.62ZM428.41,592.07c-3.74,1.21.2,8.1,3.64,5.55,1.92-1.42.51-6.89-3.64-5.55ZM470.67,598.48c1.67,2.69,5.44-2.08,2.28-3.2-1.91-.68-3.05,1.96-2.28,3.2ZM496.09,603.26c-2.82.63-2.12,5.04,1.15,3.79,1.93-.74,1.52-4.39-1.15-3.79ZM547.83,609c3.05,1.88,4.89-3.68,1.5-4.43-3.19-.71-2.27,3.96-1.5,4.43ZM465.84,605.79c-.63-.4-1.95.48-2.03,1.3,1.24.58,3.16-.59,2.03-1.3ZM19.09,607.77c-.74-.72-2.08.59-1.35,1.31s2.08-.59,1.35-1.31ZM91.45,611.77c-.43-.77-4.84-.45-4.66,1.56.3,3.13,7.09,2.8,4.66-1.56ZM438.45,616.97c-1.66.55-1.49,3.7,1.21,3.18,3.03-.59.83-3.85-1.21-3.18ZM109.12,625.52c1.61-1.75-2.57-5.14-3.38-2.29-.38,1.35,2.81,2.91,3.38,2.29ZM548.44,622.24c-2.54,4.81,6.52,13.68,4.42,5.24-.23-.93-3.08-5.92-4.42-5.24ZM20.45,627.49c.46.47,3.04-.25,2.7-1.63-.64-2.57-4.48-.21-2.7,1.63ZM525.41,625.53c-1.33-1.31-3.32,1.36-1,1.96,1.51.39,1.2-1.77,1-1.96ZM473.29,628.82c-1.35-1.51-1.89,1.88-.33,1.97.58.03.41-1.88.33-1.97ZM44.81,629.48c-.31-.27-2.31-.48-2.02.97.4,1.98,2.89-.22,2.02-.97ZM98.28,653.15l-22.32-17.1c-.28,1.32.24,1.75,1,2.64,3.45,4.07,16.67,10.39,21.33,14.46ZM416.43,637.37c-.74-.72-2.08.59-1.35,1.31s2.08-.59,1.35-1.31ZM442.84,641.98c-.71.41-1.06,4.08,1.68,3.28,2.4-.7-.44-3.99-1.68-3.28ZM83.97,657.65c1.92-3.12-1.87-7.58-4.71-4.23s3.3,6.52,4.71,4.23ZM552.49,681.77v-13.16c0-1.81-6.95-6.45-8.43-8.25-.33-.4-3.8-9.91-4.45-4.89-.19,5.69,9.63,9.32,11.02,12.99,1.96,5.2-1.3,11.91,2.36,17.41.44.66.49,1.8,1.52.52l-2.02-4.62ZM459.08,658.41c1.1-1.07-2.2-2.76-2.01-.98.05.47,1.62,1.36,2.01.98ZM103.71,657.1c7.08,23.78,29.47,30.78,48.95,41.56,3.31,1.83,9.84,7.76,12.15,8.59,1.41.51,2.13.99,3.19-.49l-64.29-49.66ZM50.91,660.38c1.14,1.25,3.07-2.6,1.01-2.61-.7,0-1.42,2.16-1.01,2.61ZM524.74,657.76c-.7-.67-2.71,1.3-2.02,1.97s2.71-1.3,2.02-1.97ZM29.41,659.89c-2.3,2.26-.66,10.22,4.55,8.05s.11-12.64-4.55-8.05ZM73.92,663.68c-1.33-1.02-4.09.83-2.7,1.97,1.08.88,3.56-1.3,2.7-1.97ZM438.78,665c-2.08-1.96-5.5,2.16-2.36,3.28,2.24.8,2.92-2.75,2.36-3.28ZM525.41,674.86c-.74-.72-2.08.59-1.35,1.31s2.08-.59,1.35-1.31ZM167.67,675.52v.66l.34-.33-.34-.33ZM167,676.83v.66l.34-.33-.34-.33ZM77.98,680.13c-.27-.21-3.14-.53-2.7.97.68,2.29,3.7-.2,2.7-.97ZM57,690.64c1.27,1.49,3.15-3.27,1.01-3.27-.9,0-1.38,2.83-1.01,3.27ZM425.91,688.02c-.74-.72-2.08.59-1.35,1.31s2.08-.59,1.35-1.31ZM533.49,693.34c-.75-.81-4.97-1.29-4.68.92.35,2.71,6.73,1.29,4.68-.92ZM187.63,746.56c-.08-8.8.08-47.38-6.15-52.27-6.51-5.11-2.22,14.67-1.86,16.98,1.83,11.82,4.62,23.82,8.01,35.29ZM431.32,696.57c-.74-.72-2.08.59-1.35,1.31s2.08-.59,1.35-1.31ZM458.4,697.23c-.56-.84-2.21.76-1.35,1.31.32.2,1.55-1,1.35-1.31ZM44.14,699.85c.77.84,3.04-1.57,1-1.96-1.49-.29-1.27,1.66-1,1.96ZM544.37,701.17c.21-.31-1.03-1.51-1.35-1.31-.87.55.78,2.15,1.35,1.31ZM24.5,700.52c-.74-.72-2.08.59-1.35,1.31s2.08-.59,1.35-1.31ZM52.94,702.48c.26-.25-1.77-2.22-2.02-1.97-.23,1.24.79,2.19,2.02,1.97ZM117.73,706.26c3.7-4.35-4.48-8.44-6.77-3.6-1.75,3.69,4.3,6.51,6.77,3.6ZM70.53,707.1c-1.29-1.3-4.19,2.13-1.68,2.62,1.43.28,2.17-2.12,1.68-2.62ZM21.12,709.06c.21-.31-1.03-1.51-1.35-1.31-.87.55.78,2.15,1.35,1.31ZM47.52,709.07c-.06-.05-1.29-.05-1.35,0-.87.84,2.22.84,1.35,0ZM96.9,709.09c-2.3-1.4-4.98,6.9-6.19,8.72-1.58,2.37-8.18,9.96-8.53,11.46-1.7,7.44,6.8,13.13,6.68,17.63-.14,5.2-7.01,1.22-9.22,4.27-1.55,3.14,17.06,22.8,17.97,21.7l.34-36.83,62.61,57.88-.63-2.99c-24.99-24.54-46.2-51.35-63.03-81.84ZM404.93,712.35c.56-.53-.12-4.08-2.36-3.28-3.13,1.12.29,5.24,2.36,3.28ZM128.07,724.2c-.77-.84-3.04,1.57-1,1.96,1.49.29,1.27-1.66,1-1.96ZM570.77,726.82c.43.43,3.79-.04,3.38-1.63-.63-2.43-5.5-.49-3.38,1.63ZM148.04,725.51v.66l.34-.33-.34-.33ZM36.69,728.15c-.06-.05-1.29-.05-1.35,0-.87.84,2.22.84,1.35,0ZM135.51,738.67c-2.19-.21-2.24-.17-2.02,1.97l2.02-1.97ZM161.24,742.62c-1.03-1.07-3.49.59,0,1.97-.06-.53.15-1.82,0-1.97ZM56.99,743.93c-1.29-1.3-4.19,2.13-1.68,2.62,1.43.28,2.17-2.12,1.68-2.62ZM422.28,747.93c-2.25.84-1.35,5.21,2.27,3.56,2.94-1.34.03-4.43-2.27-3.56ZM149.73,751.82c.87-.75-1.62-2.95-2.02-.97-.29,1.45,1.71,1.24,2.02.97ZM48.87,755.12c-1.47-1.14-3.93.82-1.93,1.86,2.19,1.13,2.41-1.49,1.93-1.86ZM31.27,762.35v-1.97h-.66c.06.91-.47,2.19.66,1.97ZM542.33,763.66c.62-.78-.47-4.09-2.02-3.28-1.31.69.55,5.13,2.02,3.28ZM442.15,763.67c-.08-.06-1.94-.06-2.02,0-2.12,1.69,4.15,1.69,2.02,0ZM70.53,764.98c-1.68-1.9-3.08,2.61-1.01,2.61.7,0,1.42-2.15,1.01-2.61ZM161.91,768.27c-.74-.72-2.08.59-1.35,1.31s2.08-.59,1.35-1.31ZM165.98,773.54c-.06-.05-1.29-.05-1.35,0-.87.84,2.22.84,1.35,0ZM105.07,788.66c2.6,1.68,3.67-3.6.99-3.94-2.35-.3-1.47,3.63-.99,3.94ZM429.64,785.38c-1.7.58-1.2,3.5.66,3.28,1.97-.24,2.2-4.26-.66-3.28ZM521.35,797.88c-1.92-1.87-3.43,2.93-1.01,2.61.8-.11,1.4-2.24,1.01-2.61ZM147.7,801.16c-.59-.57-4.17.13-3.37,2.29,1.11,3.01,4.89-.85,3.37-2.29ZM492.25,806.42c1.05-1.7-2.66-4.9-3.75-1.98-.82,2.21,3.01,3.17,3.75,1.98ZM101.48,803.9c-4.09,1.23-2.09,7.85,2.41,6.35,3.36-1.12,2.12-7.72-2.41-6.35ZM153.79,808.4c-.74-.72-2.08.59-1.35,1.31s2.08-.59,1.35-1.31ZM128.75,819.58c.91-1.05-1.34-3.46-2.02-2.62-1.05,1.29.85,3.97,2.02,2.62ZM170.72,822.21c.77.84,3.04-1.57,1-1.96-1.49-.29-1.27,1.66-1,1.96ZM90.84,833.4c-.47-.39-2.69.3-2.69.98,0,2.01,4.64.65,2.69-.98Z" fill="#fff"/>
  <path d="M147.7,211.43c.14,1.08,1.17,2.78,1.18,4.11l1.52.82c3.96-14.64,13.94-28.87,22.48-41.64,16.48-24.64,35.59-47.76,53.33-71.5l-7.74,58.58c-15.51,13.17-25.76,32.56-27.46,52.58,4.78-20.04,12.45-36.06,27.76-50.32,20.69-19.27,43.45-34.6,62.63-56.23,19.63-22.13,32.78-48.27,48.38-73.03,5.7,34.43,13.95,68.49,18.84,103.07,1.4,9.94,4,21.57,2.16,31.12l37.89-43.09c-.53,18.79-1.33,38.82-3.4,57.88-1.34,12.35-3.99,38.54-8.07,49.38-2.96,7.86-21.04,31.91-27.13,39.41-7.26,8.94-15.85,16.9-23.67,25.34,1.81,1.69,20.79-19.78,23.21-21.18,8.39-4.86,26.87-9.32,37.02-13.36,5.49-2.19,10.69-5.27,16.27-7.22-20.43,30.51-48.65,55.35-82.59,71.04l40.61.33c-3.8,4.9-40.18,17.11-39.67,20.42l3.79,5.22-29.1,1.98c2.26-5.9,5.74-11.59,6.1-18.06,1.09-19.56-22-48.6-33.2-17.45-1.5-1.34-6.49-1.84-7.45-2.94-1.44-1.66-1.22-26.15-7.77-29.96,1.52,7.49,4.69,14.15,5.06,22.06.78,16.76-5.68,31.8-15.57,45.04l-1.34-.32c1.53-18.28-5.57-34.69-16.63-48.96l-1.63.28c8.58,12.07,17.89,26.44,15.56,41.77-5.59-15.23-16.79-29.72-29.04-40.57l2.97-16.65-12.53,55.25c-1.78.38-2.38-4.96-2.61-6.34-1.24-7.2-1.29-15.29-1.45-22.6-3.64,12.39.82,27.37,4.06,39.81-12.55-1.84-32.11-22.5-33.65-34.39-1.86-14.34,7.05-30.1,12.35-42.91-9.52,11.89-18.34,35.5-12.18,49.98,1.07,2.51,6.12,8.43,6.25,9.64.18,1.65-3.03,14.34-3.24,18.3-.42,8.07.48,16.05,1.37,24.03-.86.94-16.16-6.71-17.81-8.01-11.12-8.76-4.3-34.79-1.48-46.58-8.64,13.86-4.36,30.04-12.54,44.06-2.05-8.4.69-17.05,2.05-25.32-.37-2.62-1.62,1.39-1.7,1.65-3.86,11.78-1.12,24.13-3.71,35.52-4.96-19.75-9.37-39.41,4.72-56.57-4.92-.13-13.09-6.66-16.92-10.19-12.47-11.5-14.34-29.31-16.22-45.41-1.38-11.89-1.51-23.87-1.37-35.83,10.68,22.91,25.23,49.39,52.11,56.56-3.85-2.81-5.55-10.85-6.07-15.47-3.39-30.2,14.65-64.54,32.14-88.44-5.11,19.7-10.13,40.26-9.83,60.5,2.63-21.97,7.36-43.75,11.86-65.11-22.85,28.22-43.59,68.67-32.84,105.24-1.48,1.54-17.04-10.03-18.29-12.15-9.64-16.43,4.17-65.92,12.2-83.23.58,6.33-.78,13.89,0,20.06ZM245.85,181.49c.77.72,4.11-2.96,4.76-3.59,12.57-12.38,44.18-41.53,52.65-54.09,7.9-11.72,21.27-54.76,24.04-69.39.17-.9,1.79-5.65.12-5.8-6.52,19.61-10.89,40.32-18.59,59.55-8.75,21.85-27.64,34.65-43.69,51.61-6.65,7.03-13.1,14.28-19.29,21.71ZM367.69,165.06l-29.43,32.89-8.13-53.93c-19.35,40.74-50.4,74.88-79.53,109.19,31.86-29.21,56.84-64.86,79.18-101.3l8.05,68.67c-5.83,20.45-16.11,39.21-25.31,58.27,9.32-15.44,22.3-37.29,26.26-54.73,1.8-7.91-1.68-17.95-.37-22.66,1.2-4.34,23.84-27.07,28.21-33.82.53-.82,1.3-1.46,1.07-2.57ZM325.04,175.58c-1.18.28-1.48,1.52-1.84,2.48-4.17,11.13-5.75,24.8-10.33,36.67-9.41,24.38-25.34,44.86-44.35,62.8,32.79-24.34,49.83-63.22,56.52-101.94ZM159.89,315.69c-8.85-5.95-17.22-10.66-24.34-18.76-1.26-1.43-10.2-14.77-10.85-14.12,6.26,14.78,19.57,27.72,35.19,32.88Z" fill="#fff"/>
  <path d="M262.1,837.34c-2.86-20.25-15.67-37.95-21.49-57.06-6.62-21.73-.9-45.72-.85-67.92l-3.38,40.78c-5.29-25.75-1.37-52.75-.67-78.94l20.31,1.32c-6.62,43.67-1.57,90.13,15.56,130.9-10.25-33.12-18.02-66.7-16.94-101.65.1-3.27,1.87-27.41,2.87-28.46.25-.26,5.13-1.19,6.86-2.21,1.85-1.09,5.04-5.41,6.36-5.71.74-.17,14.4,1.2,15.07,1.54l15.24,41.1-13.21-40.76,37.2,2,6.46,21.02-5.07-21.05,20.97-1.97,14.22,56.56-12.85-57.22,19.89-6.64c13.55,29.22,23.29,60.71,26.13,92.8l-31.12-71.38,34.5,87.83-43.66-46.04-.32.97,56.35,61-3.57,34.73-25.38-35.52,31.48,49.99h-135.04l-18.28-23.67,15.92,23.67h-13.54ZM287.14,739.98c-5.59-18.14-7.87-38.64-13.17-56.59-.29-.98-.48-2.34-1.71-2.61,3.64,19.95,7.67,40.16,14.88,59.2Z" fill="#fff"/>
  <path d="M412.37,472.25c-1.39-.01-10.6-4.27-10.83-2.28,6.19,12.43,12.23,30.76,10.08,44.64-.56,3.62-3.3,7.63-3.35,11.25-.16,11.99,5.94,25.36,4.11,40.13-1.24,10-9.9,17.77-12.53,26.64l3.72-3.94c-1.77,21.91-6.05,43.7-11.66,64.96l-38.42.17,21.33,2.63c-30.29,21.2-68.75,11.91-103.26,10.21,1.06-5.56,3.48-10.82,3.99-16.56.71-7.97.08-16.52-4.64-23.25l30.06,3.22,59.98-17.37c-.13-.63-11.12,1.72-12.2,1.97-25.86,6.02-49.44,19.79-76.65,10.68-1.09-.36-3.24-.97-2.23-2.47,11.13-6.43,22.16-13.53,33.74-19.18,24.88-12.12,41.5-12.2,68.14-3.84l-13.53-5.9,15.56-3.63c-8.41-.1-16.64,4.43-25.04,2.3,4.83-15.03,4.92-36.02-4.39-49.34,6.14,15.39,8.06,32.69,3.36,48.72l-28.46,2.37c-14.21-20.76-7.58-48.79.04-70.82l24.03,13.49c-12.17-7.71-24.1-14.33-31.13-27.3-.83,3.36,5.64,9.85,5.8,11.51.38,3.84-9.02,21.12-7.17,27.3-11.18-10.16-10.11-27.32-9.45-41.1.32-6.85,3.69-33.3,7.51-38.09,2.93-3.67,21.25-5.62,26.32-7.65l-12.18-4.92c9.28-6.98,20.36-11.35,32.12-12.2,8.82-.63,36.9.15,43.95,4.7,3.52,2.28,10.22,18.77,13.27,22.95ZM365.67,541.32c27.34-17.71,27.88-56.63,14.2-82.87-.27,4.92,3.29,10.51,4.56,15.64,6.19,25.1,1.43,49.75-18.76,67.23ZM329.1,491.99l-1.33.31c5.2,16.1,14.99,30.75,28.76,41.11-11.33-12.69-22.5-24.72-27.44-41.42ZM404.7,522.69c.44-.47,1.48-1.97.57-2.41l-38.25,22.35c9.75-3.6,30.88-12.64,37.68-19.94ZM396.8,559.09l-15.56,23.02c7.3-5.73,11.56-14.93,15.56-23.02ZM348.74,647.88c7.38-2.43,26.08-7.58,31.16-12.8,4.01-4.11,6.45-16.95,7.41-22.71-3.83,5.5-3.88,13.43-7.11,19.06-4.78,8.34-23.66,10.79-31.47,16.45ZM338.59,638.03l-48.06,12.48c15.92-2.83,33.66-5.37,48.06-12.48Z" fill="#fff"/>
  <path d="M417.11,433.44l12.85,26.97c-12.09-9.66-22.22-20.38-38.58-23.02l10.15,10.51c-27-7.97-59.65-9.68-82.57,8.89l8.8,4.92c-5.29,1.52-19.4,3.48-23.31,6.62s-15.49,31.66-15.3,37.14c.62,17.45,16.24,32.68,19.89,45.82.66,2.37.48,4.71.45,7.12-13.27-6.9-23.6-18.35-32.48-29.93-3.11-2.13,5.07,8.75,5.43,9.19,7.27,8.86,16.41,17.06,26.93,22.17.19,8.26-.46,16.24,2.15,24.22-22.7-2.11-41.79-12.03-59.24-25.64l-1,.97c.75,2.6,27.89,17.97,32.02,19.54,4.89,1.86,27.99,6.1,29.12,7.06s1.9,7.34,3.74,8.95c-.13.77-9.85,5.85-11.07,5.94-4.21.3-16.49-2.79-22.32-3.02-22.67-.9-47.25-.69-69.4,3.98,10.19.36,20.98-2.18,31.44-2.67,19.01-.89,39.13,0,57.9,2.67l-34.86,20.31c-5.28-9.86-12.97.77-20.99,1.97-4.09-5.62-7.53-8.63-14.75-5.06-2.86,1.41-2.78,2.93-4.86,4.47l-9.15-11.17,41.97-8.55-42.24,7.79c-16.85-18.58,1.09-19.45,16.83-20.32,12.52-.69,25.13.84,37.59.69-12.4-2.27-26.98-2.78-39.62-2.01-5.53.34-20,4.17-22.95,3.95-1.89-.14-12.72-7.27-13.12-9l4.63-11.38,2.36,4.6,31.48-16.77-30.1,14.16c-2.77-4.81-8.57-15.28-7.78-20.68,1.24-8.46,29.12-30.89,34.5-39.53l-27.06,25.33c-.55-10.27-5.73-26.31-2.19-35.99,1.27-3.47,5.73-6.64,6.62-10.67,1.05-4.75-1.08-8.53.24-12.93,1.67-2.28,14.25-3.5,16.62-5.55,2.12-1.83,5.92-13.78,8.6-17.3,3.63-4.77,11.55-7.43,17.14-9.66,13.85-5.52,29.37-10.02,43.67-14.45-9.76,12.74-27.75,24.55-42.03,32.5-11.45,6.37-23.29,9.83-35.81,13.55,9.47-.11,22.09-4.6,30.71-8.64,10.44-4.9,19.66-13.48,29.52-18.01l-2.03,2.96h1c7.38-5.79,13.02-14.18,19.62-20.4,25.02-23.61,59.44-37.48,92.13-47.96l.95.93-3.37,12.84c8.6-3.31,18.45.78,26.39,3.96l-12.86,3.28,9.48,11.83-27.07-5.26c8.25,2.74,19.69,3.54,27.43,7.22,2.85,1.35,4.62,3.95,6.85,5.19,3.45,1.93,8.12,2.37,11.07,5.36h-10.15ZM371.08,408.45c-17.02,4.33-36.28,9.69-50.09,20.38l50.09-20.38ZM384.62,428.18c-12.77.41-26.22-1.31-38.58,2.62l19.95-1.32,18.62-1.3ZM333.17,434.11c-17.86,8.13-34.35,19.76-46.7,34.85,7.48-5.53,13.58-12.4,21.06-18.01,7.81-5.86,16.63-9.57,24.09-14.75.84-.58,1.87-.73,1.56-2.1ZM214.05,553.82c10.53-10.8,20.57-22.59,29.65-34.66,11.93-15.85,32.02-42.66,41.19-59.3.5-.91,1.17-1.57.9-2.74l-71.74,96.7ZM213.36,498.56c23.15-3.78,50.34-11.78,61.59-33.54-9.74,12-20.2,20.05-35.01,25.5-8.68,3.19-18.43,4.19-26.58,8.04ZM273.6,543.95c-2.47-11.8-3.96-22.74-3.71-34.86-3.37,11.43-1.17,24.23,3.71,34.86ZM279.02,584.09c-20.89-5.32-45.3-6.97-66.34-1.66,24.93-4.15,47.43-.47,70.41,8.87,1.5-1.2-21.32-8.84-23.01-8.55l18.06,2.53.89-1.2ZM271.58,609.75c-10.72,2.47-31.41,1.95-40.92,5.94-1.62.68-1.99.56-1.72,2.6l42.64-8.54Z" fill="#fff"/>
  <path d="M272.93,367.66c.5,5.6.62,11.37-1.32,16.81-2.16,6.06-21.72,26.59-27.56,30.45-16.52,10.9-17.79,1.32-27.97-8.12-1.91-1.77-5.02-2.29-5.93-3.12-.86-.79-1.14-3.57-2.49-4.48-1.43-.96-4.06-.46-5.14-1.58-1.37-1.41-.32-5.26-3.41-7.87-3.6-3.04-9.82-2.22-14.17-2.35l7.25-19.94c-9.63-8.51-16.39-11.68-16.72-26.09,8.42,8.25,17.36,15.6,29.09,19.07-5.36-16.24,1.9-35.11,5.43-51.31l1.57.11c12.95,14.13,26.65,30.51,29.22,49.88,6.03-7.15,12.56-14.56,15.24-23.68l9.41,5.21c3.14-11,8.27-46.81,25.79-27.26,12.91,14.4,10.55,31.89-1.7,45.74-4.24,4.79-9.41,10.04-16.59,8.54ZM291.88,321.61c-7.11-19.93-20.39,7.06-19.45,14.96.26,2.18,2.86,2.33,3.75,3.92,2.39,4.3-1.46,12-2.96,16.33l1.23,1.87c7.37,2.92,19.42-17.2,16.77-23.26.51,3.33-11.52,25.37-15.58,21.7,1.68-5.71,5.37-14.51.69-19.4,4.06-3.43,6.17,3.17,6.09,6.25,3.77-4.02-2.16-11.55-7.45-8.55,1.59-8.4,6.04-25.93,16.91-13.82Z" fill="#fff"/>
  <path d="M191.7,615l-12.1-3.05c-1.13-6.26,4.78-7.69,8.04-11.41-4.1.64-7.48,2.55-9.82,5.9-3.78-3.64-8.71-5.82-13.87-6.89,2.57-2.32,3.17-7.84,7.1-8.29,9.16,3.86,22.04,3.58,30.59,7.18,8.15,3.43,16.01,17.62,21.9,24.76,1.65,2,4.12,2.9,5.68,5,6.82,9.15,2.62,26.58-1.58,36.36-18.94,4.01-40.73,2.29-59.75-1.09-10.74-1.91-22.87-2.88-20.86-16.89l4.4,3.28.35-.99c-4.69-5.24-6.73-6.57-4.74-14.13l5.41,7.23c-4.25-8.56-7.55-17.45-4.73-26.96l10.82,16.44c-2.36-7.89-13-19.07-5.71-26.93,5.5-5.93,26.57-2.08,23.3,7.86l-11.84-5.91-.32,1.29c5.03,2.4,9.82,7.25,15.9,7.25h11.85ZM203.21,648.56c-13.06-3.12-26.16-6.23-39.26-9.21l19.76,6.11,19.49,3.1ZM196.44,659.08l-36.54-7.9c11.06,4.61,24.79,7.66,36.54,7.9Z" fill="#fff"/>
  <path d="M263.93,620.47c.96.72,6.78,9.33,7.45,10.83,4.3,9.56,3.14,22.18-.83,31.71-6.63,15.9-15.98,9.23-30.11,9.21,9.94-14.11,11.17-29.95,6.83-46.28,3.99-.44,14.21-7.31,16.66-5.48ZM253.75,664.76c4.48-3.54,6.99-12.71,6.31-18.19-2.03,6.67-2.38,14.2-8.79,18.75.51.92,1.94-.14,2.48-.56Z" fill="#fff"/>
  <path d="M480.73,757.08c-1.76,1.04-7.14-11.67-8.25-13.35-4.35-6.6-15.64-18.71-23.87-19.56-3.08-.32-8.87,1.03-10.69.57-2.77-.69-7.04-9.21-11.61-8.39-5.76.72-5.75,4.93-7.16,9.15l-9.48-38.15c3.31,4.15,6.01,8.74,9.49,12.8,17.39,20.23,24.55,14.7,46.26,24.12,4.08,1.77,22.93,14.02,22.32,18.2-.53,3.6-6.32,10.45-7.02,14.61Z" fill="#fff"/>
  <path d="M242.23,621.16c9.34,8.2,6.45,43.1-4.51,50.73-3.8,2.64-10.49.76-10.69-3.38-.03-.69,4.91-9.69,5.65-12.7,1.6-6.54,2.54-16.67.8-23.18-1.12-4.16-6.32-7.56-1.8-11.35,3.07-2.57,7.42-2.87,10.56-.12Z" fill="#fff"/>
  <path d="M300.68,532.11c-3.8-6.72-8.53-17.25-9.29-24.84-1.05-10.51,8.7-28.11,14.71-37-5.49,19.98-8.22,41.22-5.42,61.83Z" fill="#fff"/>
  <path d="M260.07,318.98c12.59-.17,5.38,11.74,3.03,18.42-9.81-4.01-2.71-10.95-3.03-18.42Z" fill="#fff"/>
  <path d="M415.08,505.47c-.04.32-.61,2.53-1.35,2.3l-6.11-29.92c5.79,2.27,7.45,11.13,7.45,16.44,0,3.41.42,7.98,0,11.18Z" fill="#fff"/>
  <path d="M511.19,621.57c-.87.85-.87-2.15,0-1.31.06.05.06,1.25,0,1.31Z" fill="#fff"/>
  <path d="M419.82,468.31l8.11,42.1-4.73-3.29c-1.37,10.12-4.78,21.2-10.83,29.6.98-3.79-2.26-8.14-2.03-11.44.28-4.05,5.16-11.73,5.89-17.36s.49-20.8-1.55-25.75c-1.15-2.78-7.44-7.81-9.75-10.25l9.85,2.93.95-.93-13.52-23.04,7.11,3.62-9.82-12.49c16.56,4.33,21.86,17.95,29.09,31.25l-8.78-4.94Z" fill="#fff"/>
  <path d="M369.05,392.65c-19.31,7.34-38.41,15.94-55.71,27.11-4.36,2.82-10.36,9.24-14.21,11.19-8.95,4.54-25.96,6.12-35.66,11.39,8.06-13.12,4.75-27.64-4-39.38,9.3-10.08,17.85-18.39,15.49-33.32,8.75,2.23,13.93-9.21,18.78-11.68s27.81-4.41,32.89-2.67c5.39,5.85,11.06,15.24,17.05,20.27,2.12,1.79,26.64,14.97,25.37,17.1ZM275.63,434.1c5.36-15.87,8.14-33.35,6.77-49.99l-6.77,49.99Z" fill="#fff"/>
  <path d="M202.53,837.34l-13.53-76.3,14.88,51.31,25.74-135.17-23.71,122.01c-1.79-30.07-.31-60.58,4.16-90.35,1.11-7.39,2.43-16.15,4.47-23.28.87-3.06,5.37-15.58,7-17.53,3.54-4.22,3.62,3.4,6.07,5.17,1.65,1.19,6.56,1.52,6.77,2.07-3.71,48.07-5.27,96.8,19.57,140.06-12.63-11.66-20.41-28.16-29.08-42.44-2.3,2.75,18.3,32.54,21.38,36.78,2.38,3.27,6.67,6.42,8.53,9.47,2.99,4.91,3.88,12.76,5.96,18.22h-58.21Z" fill="#fff"/>
  <path d="M557.22,638.68c1.41,5.38,4.48,10.79,8.8,14.47,2.93-1.76,4.06-36.39,4.93-41.6,1.09-6.59,6.39-12.52,6.43-18.59.05-7.65-7.6-15.71-8.56-24.41-.91-8.25,2.79-14.97,1.79-22.13-1.38-9.81-11.2-24.64-12.63-33.77-.82-5.23.88-11.66.53-16.31-.95-12.45-1.96-24.36-2.6-36.94-.54-10.68-5.45-42.14.06-49.88,7.99-11.21,10.72,6.18,11.4,11.11,2.96,21.15.77,42.28-7.09,62.16,1.29-11.27,5.5-21.81,6.42-33.24.48-6.04-.18-37.62-3.53-40.94-.57-.56-1.92-.84-2.73-.69-1.17.29-2.11.95-2.84,1.87-5.87,7.33-.29,45.86.35,56.86.77,13.33-.19,31.51,1.34,44.08,1.26,10.33,12.41,26.78,13.36,37.03.56,6.06-2.76,11.33-2.44,18.15.61,12.75,11.44,19.82,7.83,32.8-1.19,4.3-4.16,7.37-5.14,12.76-2.87,15.65-2.98,34.86-5.59,51.14-1.64,10.24-6.69,19.08-4.63,30.02,1.22-2.83,5.33-7.04,5.92-9.69,1.26-5.68-1.41-12.59-1.14-18.15.6-12.14,9.03-32.6,11.8-45.82,4.37-20.87,4.85-36.22,1.48-57.37-2.19-13.71-11.29-36.27-11.35-48.22-.02-4.46,2.5-9.14,2.78-13.78.44-7.3-2.9-13.83-2.67-20.3.28-7.92,8.96-22.53,11.11-32.02,5.15-22.74,3.94-47.91-15.23-64.15l1-.97c19.17,15.29,20.84,41,16.29,63.18-2.72,13.26-12.22,25.87-11.13,39.03.35,4.2,2.81,9.38,2.69,13.88-.15,5.68-3.16,10.17-2.79,17.14,1.25,23.51,14.1,47.24,13.59,74.99-.48,25.76-13.6,49.57-15.5,72.42-.61,7.28,2.3,15.95-.15,22.22-.87,2.22-3.07,4.03-4.03,6.61-1.61,4.35-3.86,30.51-10.3,29.87-1.28-.48-3.07-1.28-3.19-2.85-.16-2.11,8.34-17.36,9.16-22.02.9-5.13-.64-9.07-.38-13.48.46-7.84,5.98-16.09,5.48-24.39-.34-5.59-8.93-12.06-10.61-18.06l1.74-1.99ZM553.85,719.59c3.1,2.9,6.5-9.9,6.86-11.42.6-2.5,1.01-5.1,1.25-7.66l-8.11,19.07Z"/>
  <path d="M422.53,129.21c-1.19,10.07-7.84,14.75-9.86,22.65-2.08,8.16-.15,18.87-4.35,26.35-4.88-17.2-3.65-37.09-6.97-54.08-3.24-16.59-12.97-38.06-14.61-54.88-.46-4.73,1.19-13.64.44-16.86-.7-3.01-4.21-3.2-5.33-6.02-1.6-4.05.45-7.02-.08-9.74-.23-1.19-5.62-9.78-6.63-11.69l3.38,106.56-4.91-107.71,1.83-1.47c.79.1,7.46,12.88,7.64,13.64.78,3.21-.66,7.54.66,10.54.79,1.79,4.27,2.39,4.9,5.11.92,4-.91,9.16-.7,13.16.94,17.93,11.47,41.44,14.75,59.36,2.73,14.88,2.3,31.78,5.61,46.85,2.61-6.34,1.24-13.99,3-20.43,1.15-4.22,5.27-8.09,6.81-11.81,4.61-11.14,3.14-27.71,1.7-39.46,1.93-.32,2.86,4.4,3.2,5.76,3.87,15.56,2.81,35.46,6.44,50.97,1.95,8.3,8.44,17.59,9.32,26.8l2.02-60.51,36.56,32.55-34.52-29.26-2.37,63.15c-.96-.7-1.49-1.61-2.04-2.62-1.7-3.15-9.22-24.87-10.18-28.92-3.2-13.45-2.2-28.62-5.72-42.13-.38,4.51.52,9.73,0,14.14Z"/>
  <path d="M536.93,212.42l4.06-11.84c.55.08,1.89-.12,2.02,0,1.38,1.36,1.59,30.19,5.57,37.68,2.63,4.94,9.5,6.63,12.4,12.95,2.74,5.98.58,9.47,1.98,14.52.83,3,15.46,17.39,4.04,19.66-4.68.93-21.99-1.03-24.66-5.55-5.18-8.75,7.04-14.87,3.3-22.94-3.17-6.83-41.67-18.86-50.46-22.66-7.45-3.22-15.38-8.56-23.24-11.63l50.74,19.09c.27-5.75-5.89-9.52-6.06-14.47-.19-5.48,4.59-9.68,4.74-14.52.13-4.14-2.88-9.2-3.38-13.8-1.37-12.61-.78-32.71-.73-46,.04-11.5-1.03-23.56,3.08-34.55,11.33,30.26,7.89,63.27,16.59,94.05ZM536.93,219.65l-16.92-95.38-.04,76.66c6.93,10.38-.38,16.94-1.17,24.48-.58,5.54,2.29,5.68,3.92,9.68.98,2.4,1.25,7.72,2,8.58.67.78,15.13,6.33,18.24,8.59,14.31,10.38-7.31,20.64,2.38,28.6,1.77,1.45,17.11,3.58,19.68,3.26,11.57-1.42-2.53-14.4-3.4-17.76-1.51-5.83.83-8.37-2.68-15.16-3.53-6.82-9.09-6.75-11.87-12.81-4.56-9.94-3.34-22.65-4.74-33.22l-5.4,14.47Z"/>
  <path d="M67.82,349.9c-.96,1.03-8.2-11.79-8.7-12.92-3.25-7.33-8.83-27.67-8.04-35.26.19-1.82,2.79-8.03,2.53-8.38-.13-.18-1.94.51-3.43-2.27-9.03-16.87-7.04-58.03-4.59-76.9.64-4.9,4.31-16.08,3.92-19.82-.21-1.94-5.09-8.9-6.18-11.75-3.19-8.39-3.84-16.11-2.45-24.98.24-1.51,2.12-2.28,1.97-4.73s-2.68-2.93-2.82-4.65c-.12-1.42,1.45-2.2,1.28-3.72-.31-2.69-5.09-14.93-3.94-16.3,1.37-.28,1.6.66,2.16,1.51,12.87,19.63,11.89,48.1,12.71,70.53.28,7.61.55,15.38.72,22.98.34,15.13-3.02,56.3-.03,67.79.46,1.77,2.3,1.66,2.79,3.2,3.69,11.54.74,27.86,3.59,39.26.58,2.31,9.14,15.72,8.5,16.4ZM41.77,139.4v.66l.34-.33-.34-.33ZM49.54,190.05c.96-15.66.61-35.54-7.43-49.34-.15,3.78,2.37,10.1,2.05,13.52-.21,2.21-2.46,5.46-2.71,9.19-.59,8.89,2.43,19.59,8.09,26.63ZM50.9,286.09l-.33-86.84c-6.99,28.06-9,59.08.33,86.84ZM51.24,287.41v.66l.34-.33-.34-.33ZM54.96,296.62c-1.81-.25-1.05.14-1.38.96-3.65,9.1,1.01,18.04,3.4,26.66l-2.03-27.62Z"/>
  <path d="M394.1,345.95c-.24-1.82.23-1.25,1.61-1.24,24.9.18,51.16,27.99,72.54,26.27,5.95-.48,10.43-4.75,13.56-5.27,3.67-.6,10.95,2.77,16.2,2.64,7.97-.2,26.76-5.03,34.42-8.02s16.15-10.14,21.97-12.2c5.49-1.95,15.36.19,16.89-7.26s-9.23-11.49-13.26-17.06c-5.37-7.41-8.48-28.48-14.53-31.27-5.46-2.52-9.28,1.07-12.12-6.64-2.35-6.39.12-13.44-2.9-19.55-3.73-7.53-16.26-7.79-5.42-21.04-6.76,15.29,2.71,11.89,6.77,19.72,3.54,6.82.79,18.56,4.24,22.85,2.83,3.52,6.39,1.39,10.25,3.2,6.45,3.02,9.41,22.92,14.16,30.31,5.08,7.9,17.64,11.65,14.15,20.77-3.01,7.83-12.39,5.24-18.56,7.62-6.55,2.52-14.56,9.58-22.88,12.63-7.29,2.68-24.29,6.81-31.84,7.2-5.96.31-13.57-3.02-16.85-2.6-3.66.46-9.51,5.76-16.3,5.89-14.83.3-34.97-16.19-48.89-21.54-7.04-2.7-15.77-3.97-23.2-5.42Z"/>
  <path d="M96.9,709.09c16.83,30.48,38.03,57.29,63.03,81.84l.63,2.99-62.61-57.88-.34,36.83c-.91,1.1-19.52-18.56-17.97-21.7,2.21-3.05,9.08.93,9.22-4.27.12-4.5-8.38-10.19-6.68-17.63.34-1.51,6.95-9.09,8.53-11.46,1.21-1.82,3.89-10.12,6.19-8.72ZM142.96,775.5c-19.2-19.33-32.56-42.05-47.37-64.46-.12,5.87-11.19,15.16-11.93,19.05-1.62,8.52,17.13,20.91-2.29,21.74-1.76,1.91,13.07,16.46,14.89,18.41-1.93-12.15-.91-24,.01-36.18l1.54.14,45.16,41.29Z"/>
  <path d="M475.33,104.21c1.09-9.75,7.56-14.46,12.85-22.04,1.24,42.43,4.02,86.46,18.28,126.3-.21-14.98-.04-30.05,3.04-44.74l1.7.36c-3.92,17.63-3.64,35.69-2.71,53.59-1.95.38-1.08-.57-1.54-1.43-1.38-2.6-2.43-6.38-3.37-9.25-12.46-37.79-15.4-80.06-16.75-119.57-18.02,13.49-5.01,36.35-12.17,53.28-.67-1.41.67-3.52.67-4.28,0-9.83-1.05-22.84,0-32.23Z"/>
  <path d="M151.08,84.15c-5.3,7.77.95,42.15-5.02,46.09-2.23,1.47-4.04.44-5.47-1.35-3.43.15-2.2,28.53-3.72,32.21.87.84,14.84-6.18,17.45-6.45,4.53-.48,4.2,2.59,1.77,3-1.4.24-2.82-.84-5.56-.04-1.48.43-12.51,4.64-12.98,5.14-1.82,1.92.45,6.58-1.33,8.57-.62.69-6.35,1.86-8.37,3.05-4.63,2.73-6.23,6.7-12.85,9.22-5.01,1.91-25.21,5.3-23.33-3.55s36.22-14.12,43.52-18.26c1.76-5.81.09-31.2,4.01-34.26l5.38,1.42c5.1-7.51,1.53-15.39,1.71-22.74.04-1.42,1.07-25.9,4.79-22.04ZM135.52,164.4c-6.14,1.35-43.19,10.46-42.49,16.78,5.03,5.03,16.11,3.18,22.18.64,5.26-2.2,7.79-6.38,12.41-8.99,5.55-3.14,9.31-.27,7.91-8.43Z"/>
  <path d="M128.75,476.87l-7.08,3.3c-23.76,9.63-60.31,4.67-78.22,25.29-35.07,40.39,68.25,50,89.69,49.01,10.57-.49,21.19-3.8,31.48-3.28-28.37,6.9-59.69,5.75-87.99-.98-21.02-4.99-56.74-20.78-33.86-46.06,19.44-21.48,60.52-16.08,85.98-27.28Z"/>
  <path d="M466.36,241.2c-4.43,4.16-19.9-6.14-24.89-8.05-17.6-6.74-37.21-6.7-55.49-10.87l.35-1.98c17.83,5.04,37.01,4.52,54.47,10.87,5.3,1.93,18.2,10.06,22.67,9.52,2.94-.35,2.51-2.48,1.03-4.27-1.62-1.97-28.56-10.33-34.78-13.56-13.59-7.06-25.69-19.45-41.72-20.97-1.39-3.36,5.16-.98,7.42-.29,15.17,4.6,28.49,17.52,43.79,23.88,6.48,2.69,19.25,5.12,23.72,7.86,2.32,1.43,6.2,5.26,3.43,7.86Z"/>
  <path d="M114.53,433.44c-2.51-.44-4.82-2.73-6.77-4.26-17.36-13.62-46.13-37.94-57.4-56.05-2.53-4.06-5.46-8.56-6.22-13.35,3.12-3.42,42.08,46.82,45,50,7.81,8.5,17.49,15.26,25.39,23.67ZM70.95,394.9c4.24,4.05,8.43,8.61,13.79,11.25l-37.88-43.09c5.03,12.01,14.58,22.75,24.09,31.84Z"/>
  <path d="M184.93,148.61c-9.24-12.06-3.38-31.63-6.23-44.26-.42-1.85-3.06-4.47-3.76-6.87-2.48-8.44,2.1-17.12,11.72-16.59,4.21-8.03-16.06-22.38-21.54-21.62-6.53.9-1.89,9.61-3.49,11.76l-7.14-.7c-.68,3.31-.35,6.8-.77,10.11-.13.99-.09,4.9-1.94,4.36l2.41-16.34,6.38,1.21c-.14-4.8-2.1-9.6,3.89-11.72,7.17-1.32,28.12,14.11,24.22,23.56-1.48,2.8-8.13-1.27-11.68,6.43-4.09,8.86,2.06,10.31,3.14,16.99s0,16.3.76,23.6c.71,6.86,2.27,13.44,4.04,20.08Z"/>
  <path d="M103.71,657.1l64.29,49.66c-1.06,1.47-1.78.99-3.19.49-2.31-.83-8.84-6.76-12.15-8.59-19.48-10.78-41.87-17.77-48.95-41.56ZM149.06,695.25c-12.37-13.3-26.59-24.95-41.96-34.86,6.03,17.58,25.74,27.48,41.96,34.86Z"/>
  <path d="M35.14,577.65c8.67-2.02,20.49,9.89,22.86,16.97.99,2.97.57,6.36,1.55,9.02,1.24,3.37,6.2,7.42,8.29,12.34,1.08,2.54,4.99,14.78,2.72,16.51-13.04-3.12-16.96-18.08-24.42-27-6.08-7.27-17.76-11.52-15.38-22.89.47-2.26,1.96-4.38,4.38-4.94ZM69.85,630.78c.9-1.01-2.82-13.13-3.73-15.12-1.89-4.16-6.85-8.36-7.94-11.36-.96-2.66-.54-6.05-1.54-9.03-2.35-7.03-21.15-24.83-24.4-12.56-2.66,10.04,7.95,13.88,13.23,19.46,8.48,8.97,11.52,23.97,24.38,28.6Z"/>
  <path d="M561.97,380.81c-6.11-2.1-12.09-6.21-18.83-6.41-4.41-.13-9.21,2.24-13.89,2.2-8.45-.07-17.54-4.48-27.21-4.36-20.48.27-34.58,9.36-52.25,14.34-2.71.76-7.24-.12-10.33,1.46.79-3.75,7.07-2.04,9.65-2.78,17.44-5.01,31.5-13.88,51.57-14.34,9.67-.22,17.25,3.32,25.76,3.96,6.71.5,11.85-2.14,17.48-1.9,4.38.19,15.72,3.73,18.04,7.82Z"/>
  <path d="M187.63,746.56c-3.39-11.47-6.18-23.47-8.01-35.29-.36-2.3-4.64-22.08,1.86-16.98,6.23,4.89,6.07,43.46,6.15,52.27ZM186.28,734.72c-.03-2.91-1.9-41.36-6.75-39.46l6.75,39.46Z"/>
  <path d="M528.37,589.11c-6.86-5.86,2.87-16.29,9.19-10.58s-1.86,16.83-9.19,10.58Z"/>
  <path d="M91.52,291.35c-3.5,8.71,10.82,23.78,8.98,30.08-2.39,8.14-13.48-2.15-14.34-6.77-.76-4.1.01-12.45,1.06-16.63.22-.88,2.61-9.08,4.3-6.67ZM98.22,322.87c4.62-2.84-9.5-21.33-8.39-26.24-3.75,9.58-4.88,24.19,8.39,26.24Z"/>
  <path d="M14.35,289.38c5.43,23.47,17.57,44.49,28.43,65.78l-12.55-20.36c-6.79-14.38-13.3-29.05-17.25-44.42l1.37-1Z"/>
  <path d="M131.45,206.51c-4.22,1.53-19.66-12.36-22.58-5.76l1.26,3.79c7.12,1.85,14.25,3.09,19.29,8.88.12,1.05-9.25-4.62-10.37-5.06-3.51-1.36-13.26-.81-12.53-6.64,1.38-11,20.66,2.61,24.93,4.79Z"/>
  <path d="M211.84,61.22c8.19-1.28,8.39,12.47-1.02,8.61-4.27-1.75-3.53-7.9,1.02-8.61Z"/>
  <path d="M65.28,571.42c-2.76-2.68-.16-11.22,5.53-7.67s-1.15,11.93-5.53,7.67Z"/>
  <path d="M58.85,65.21c6.82-2.01,7.62,7.96,1.13,8.42-5.66.39-4.93-7.29-1.13-8.42Z"/>
  <path d="M464.32,107.91c6.37-.61,7.71,15.4,1.09,17.62-5.42-2-8.15-16.94-1.09-17.62ZM464.31,109.91c-5.14,1.17-1.59,14.05,1.17,13.7,3.98-3.43,3.65-8.86,1.4-13.16l-2.57-.53Z"/>
  <path d="M29.41,659.89c4.67-4.59,9.87,5.83,4.55,8.05s-6.86-5.78-4.55-8.05Z"/>
  <path d="M560.49,555.67c-6.04,3.01-9.81-15.5-.79-16.17,6.74-.5,3.38,14.88.79,16.17ZM561.23,541.38c-7.23.39-6.87,9.11-2.31,13.08,3-3.77,4.43-8.65,2.31-13.08Z"/>
  <path d="M552.49,681.77l2.02,4.62c-1.03,1.28-1.09.13-1.52-.52-3.66-5.5-.4-12.21-2.36-17.41-1.38-3.67-11.21-7.29-11.02-12.99.66-5.01,4.13,4.49,4.45,4.89,1.48,1.8,8.43,6.44,8.43,8.25v13.16Z"/>
  <path d="M451.46,544.73c6.11-1.68,7.29,7.51,2.37,8.34-4.56.76-7.52-6.92-2.37-8.34Z"/>
  <path d="M93.04,56.03c4.71-4.35,13.69,11.91,5.26,14.04-5.57,1.41-8.66-10.9-5.26-14.04ZM95.76,68.19c7.62,2.53,3.9-11.01.16-11.03-4.25-.02-2.06,9.08-.16,11.03Z"/>
  <polygon points="111.72 521.49 106.71 520.31 105.69 514.64 111.87 515.95 111.72 521.49"/>
  <path d="M98.28,653.15c-4.66-4.07-17.88-10.39-21.33-14.46-.76-.89-1.27-1.32-1-2.64l22.32,17.1Z"/>
  <path d="M117.73,706.26c-2.47,2.91-8.52.1-6.77-3.6,2.29-4.84,10.47-.75,6.77,3.6Z"/>
  <path d="M83.18,425.66c5.59-2.02,6.2,6.05,3.14,7.06-3.53,1.16-6.72-5.77-3.14-7.06Z"/>
  <path d="M508.27,242.74c2.88-.85,6.48,4.79,5.53,7.35-4.77,6.53-10.48-5.88-5.53-7.35ZM511.87,250.57c1.12-2.31-.05-5.22-3.03-5.26-3.04,1.48,1.96,5.86,3.03,5.26Z"/>
  <path d="M101.48,803.9c4.53-1.37,5.77,5.23,2.41,6.35-4.5,1.5-6.5-5.12-2.41-6.35Z"/>
  <path d="M60.2,393.43c5.38-1.77,9.03,11.2,1.35,8.96-3.18-.93-4.86-7.8-1.35-8.96ZM62.92,395.44c-3.89-3.81-4.89,6.99,1.52,5.77.45-.43-.9-5.17-1.52-5.77Z"/>
  <path d="M88.62,367.77c3.07-.64,5.5,4.03,4.65,6.49-2.07,5.99-11.67-3.3-4.65-6.49ZM91.51,374.9c1.22-.65-.43-5.31-3.03-4.6s.95,5.71,3.03,4.6Z"/>
  <path d="M59.54,449.72c-2.99,2.9-7.37-1.54-4.58-4.78,2.64-3.06,7.51,1.94,4.58,4.78Z"/>
  <path d="M443.34,76.08c-3.36,3.38-6.81-3.57-3.21-5.44s5.24,3.4,3.21,5.44Z"/>
  <path d="M428.41,592.07c4.15-1.35,5.56,4.13,3.64,5.55-3.44,2.55-7.39-4.33-3.64-5.55Z"/>
  <path d="M105.38,100.23c10.55-1.03,2.9,16.02-2.28,1.47.28-.89,1.39-1.38,2.28-1.47ZM109.12,105.85c2.41-2.29-4.7-5.93-4.72-2.3,0,.83,3.77,3.2,4.72,2.3Z"/>
  <path d="M443.94,520.32c4.28-1.62,6.74,7.85.74,5.75-2.32-.81-2.65-5.03-.74-5.75Z"/>
  <path d="M83.97,657.65c-1.41,2.29-7.65-.75-4.71-4.23s6.63,1.11,4.71,4.23Z"/>
  <path d="M548.44,622.24c1.34-.68,4.19,4.3,4.42,5.24,2.1,8.45-6.96-.42-4.42-5.24Z"/>
  <path d="M57.5,109.3c2.45,2.52-.36,6.59-3.89,4.78-3.11-1.59,1.1-7.66,3.89-4.78Z"/>
  <path d="M436.06,388.72c-.3,3.4-5.56,1.46-8.29,2.13-3.21.78-5.87,3.02-9.3,3.12,1.65-2.9,16-6.5,17.6-5.25Z"/>
  <path d="M112.6,570.83c-1.88-2.97,3.43-6.04,5.02-3.89,2.53,3.43-3.72,5.93-5.02,3.89Z"/>
  <path d="M102.1,341.4c2.98-1.12,4.96,3.51,3,4.93-3.66,2.65-5.87-3.85-3-4.93Z"/>
  <path d="M450.06,153.94c4.55-1.49,5.52,8.33.03,6.38-2.84-1.01-2.1-5.7-.03-6.38ZM450.63,155.19c-1.73.43-1.25,4.41.65,3.94,1.73-.43,1.25-4.41-.65-3.94Z"/>
  <path d="M546.88,521.66c2.8-.66,4.17,4.17,1.8,5.11-4.35,1.71-4.77-4.41-1.8-5.11Z"/>
  <path d="M130.11,53.23c.86.82.15,4.98-3.57,3.82-5.06-1.57,1.87-5.44,3.57-3.82Z"/>
  <path d="M100.12,466.41c3.57-.81,3.81,5.13-.12,4.57-2.8-.39-1.89-4.12.12-4.57Z"/>
  <path d="M91.45,611.77c2.43,4.35-4.36,4.69-4.66,1.56-.19-2,4.22-2.33,4.66-1.56Z"/>
  <path d="M547.83,609c-.77-.47-1.68-5.14,1.5-4.43,3.39.75,1.55,6.32-1.5,4.43Z"/>
  <path d="M422.28,747.93c2.3-.86,5.2,2.22,2.27,3.56-3.61,1.65-4.52-2.72-2.27-3.56Z"/>
  <path d="M73.15,482.86c.11.05.67,1.51.46,1.91l-2.09,1.3-2.56-.6-1.11-1.7c.46-1.23,4.42-1.33,5.3-.9Z"/>
  <path d="M460.54,72.87c-1.7-.94.22-5.45,2.99-3.25s-.84,4.44-2.99,3.25Z"/>
  <path d="M22.84,176.25c2.5-.86,4.32,3.91,1.98,4.6-2.09.61-4.63-3.69-1.98-4.6Z"/>
  <path d="M27.58,199.93c2.79-.94,4.19,4.11,1.23,4.55-1.98.29-3.36-3.83-1.23-4.55Z"/>
  <path d="M496.09,603.26c2.68-.6,3.09,3.05,1.15,3.79-3.27,1.25-3.98-3.16-1.15-3.79Z"/>
  <path d="M252.31,82.18c2.3-.78,4.4,3.18,1.21,3.84-2.87.59-2.87-3.28-1.21-3.84Z"/>
  <path d="M108.17,378.88c1.39-.48,4.03.95,3.65,2.25-.86,2.99-7.28-1.01-3.65-2.25Z"/>
  <path d="M461.76,52.6c.63.32.47,3.07-.65,3.64-3.88,1.95-3.41-5.75.65-3.64Z"/>
  <path d="M533.49,693.34c2.04,2.21-4.34,3.63-4.68.92-.28-2.21,3.94-1.73,4.68-.92Z"/>
  <path d="M115.88,407.13c1.54,1.51-1.74,5.77-3.3,3.21-1.43-2.35,2.29-4.2,3.3-3.21Z"/>
  <path d="M470.67,598.48c-.77-1.24.37-3.89,2.28-3.2,3.16,1.13-.62,5.89-2.28,3.2Z"/>
  <path d="M402.22,84.15c1.05.99-.93,4.56-3.36,3.26-1.93-1.03,1.29-5.22,3.36-3.26Z"/>
  <path d="M492.25,806.42c-.74,1.19-4.56.23-3.75-1.98,1.08-2.92,4.8.28,3.75,1.98Z"/>
  <path d="M59.02,128.21c-1.98,1.93-5.34-3.26-2.37-3.92,1.08-.24,3.39,2.93,2.37,3.92Z"/>
  <path d="M73.22,236.08c-.22.38-3.14.38-3.35,0-2.3-4.14,5.67-4.04,3.35,0Z"/>
  <path d="M532.86,558.43c.79.75-.2,3.71-2.27,3.13-4.43-1.24.7-4.63,2.27-3.13Z"/>
  <path d="M404.93,712.35c-2.08,1.96-5.5-2.16-2.36-3.28,2.24-.8,2.92,2.75,2.36,3.28Z"/>
  <path d="M105.07,788.66c-.47-.31-1.36-4.24.99-3.94,2.67.34,1.6,5.61-.99,3.94Z"/>
  <path d="M438.78,665c.56.53-.12,4.08-2.36,3.28-3.13-1.12.29-5.24,2.36-3.28Z"/>
  <path d="M100.88,329.4c-3.66,2.35-2.85-3.85-.9-3.83,1.12.01,2.17,3.01.9,3.83Z"/>
  <path d="M438.45,616.97c2.05-.67,4.24,2.59,1.21,3.18-2.7.52-2.87-2.63-1.21-3.18Z"/>
  <path d="M147.7,801.16c1.52,1.44-2.26,5.3-3.37,2.29-.8-2.16,2.78-2.86,3.37-2.29Z"/>
  <path d="M47.19,557.77c2.08-.53,3.1,3.63.65,3.94-2.1.27-2.26-3.53-.65-3.94Z"/>
  <path d="M87.85,252.59c3.38-1.2,3.63,2.88,1.2,3.18-1.42.18-3.38-2.41-1.2-3.18Z"/>
  <path d="M536.24,272.94c-3.39.56-3.24-3.39-1.01-4.59l1.01,4.59Z"/>
  <path d="M505.79,535.41c.59-.57,4.17.13,3.37,2.29-1.11,3.01-4.89-.85-3.37-2.29Z"/>
  <path d="M505.46,561.72c2.26-.77,3.33,2.59,1.34,3.27-2.26.77-3.33-2.59-1.34-3.27Z"/>
  <path d="M148.05,508.44c2.26-.77,3.33,2.59,1.34,3.27-2.26.77-3.33-2.59-1.34-3.27Z"/>
  <path d="M109.12,625.52c-.57.62-3.76-.94-3.38-2.29.81-2.86,4.98.53,3.38,2.29Z"/>
  <path d="M368.37,84.15c1.22,1.9-2.53,3.96-3.37,1.63-.92-2.55,2.89-2.38,3.37-1.63Z"/>
  <path d="M502.06,345.31c1.03,0,2.73,3.45.67,3.93-2.36.55-2.8-3.92-.67-3.93Z"/>
  <path d="M429.64,785.38c2.86-.98,2.63,3.04.66,3.28-1.86.22-2.36-2.7-.66-3.28Z"/>
  <path d="M140.84,78.8c-3.13,1.8-3.42-2.73-1.59-3.21,1.53-.4,2.8,2.51,1.59,3.21Z"/>
  <path d="M445.54,501.2c1.02,1.76-2.03,4.04-3.37,1.63-1.26-2.27,3.05-2.2,3.37-1.63Z"/>
  <path d="M442.84,641.98c1.23-.72,4.08,2.57,1.68,3.28-2.74.8-2.39-2.86-1.68-3.28Z"/>
  <path d="M459.75,413.71c2.12,2.12-2.75,4.06-3.38,1.63-.41-1.59,2.95-2.06,3.38-1.63Z"/>
  <polygon points="107.08 86.12 106.09 90.06 104.41 87.1 107.08 86.12"/>
  <path d="M272.25,46.65c1.93,2.06-2.6,4.03-3.37,2.62s2.69-3.35,3.37-2.62Z"/>
  <path d="M570.77,726.82c-2.12-2.12,2.75-4.06,3.38-1.63.41,1.59-2.95,2.06-3.38,1.63Z"/>
  <path d="M20.11,257.82c3.11-.99,2.34,3.27.67,3.27-.66,0-2.78-2.6-.67-3.27Z"/>
  <path d="M159.88,495.28c.46.48-.07,3.66-1.68,3.28-2.66-.63.23-4.79,1.68-3.28Z"/>
  <path d="M351.45,36.12c-.79.82-3.62-.81-2.7-2.63s4.15,1.12,2.7,2.63Z"/>
  <path d="M12.67,140.72c2.09-.65,3.24,2.02,1.34,2.62-2.09.65-3.24-2.02-1.34-2.62Z"/>
  <path d="M104.98,400.63c1.76,2.29-2.85,2.59-3.3.89s2.61-1.79,3.3-.89Z"/>
  <path d="M417.78,87.44c1.41,1.37-1.29,3.99-2.7,2.62s1.29-3.99,2.7-2.62Z"/>
  <path d="M205.24,40.07c-1.55,1.41-4.54-1.74-2.7-2.62s3.55,1.86,2.7,2.62Z"/>
  <path d="M493.6,313.06c-.79.82-3.62-.81-2.7-2.63s4.15,1.12,2.7,2.63Z"/>
  <path d="M66.47,149.93c1.4,1.36-1.32,4.53-2.7,1.63-1.03-2.16,2.38-1.94,2.7-1.63Z"/>
  <path d="M542.33,763.66c-1.47,1.85-3.33-2.59-2.02-3.28,1.55-.81,2.64,2.5,2.02,3.28Z"/>
  <path d="M380.56,343.33c.83-.99,4.29,2.75,1.68,3.28-1.6.33-2.15-2.72-1.68-3.28Z"/>
  <path d="M530.83,347.27c-.08.14-2.35.92-2.7-.34-.94-3.43,4.18-2.23,2.7.34Z"/>
  <path d="M433.36,370.94c-2.39.07-2.81-2.85-2.7-4.6l2.7,4.6Z"/>
  <path d="M254.65,111.12c.68.44.83,3.27-1.68,2.62-1.85-.48-.15-3.81,1.68-2.62Z"/>
  <path d="M390.03,361.08c-1.1,1.06-3.79-1.56-2.7-2.62s3.79,1.56,2.7,2.62Z"/>
  <path d="M29.93,544.61c-1.78-1.84,2.06-4.2,2.7-1.63.34,1.38-2.24,2.1-2.7,1.63Z"/>
  <path d="M89.49,227.55c1.78,1.84-2.06,4.2-2.7,1.63-.34-1.38,2.24-2.1,2.7-1.63Z"/>
  <path d="M519.67,505.81c2.51-.61,1.28,3.42-.01,3.27-1.21-.14-1.45-2.91.01-3.27Z"/>
  <path d="M20.45,627.49c-1.78-1.84,2.06-4.2,2.7-1.63.34,1.38-2.24,2.1-2.7,1.63Z"/>
  <path d="M70.53,707.1c.5.5-.25,2.9-1.68,2.62-2.51-.49.39-3.93,1.68-2.62Z"/>
  <path d="M96.94,130.85c.52-.48,2.99.24,2.7,1.63-.5,2.44-4.04-.38-2.7-1.63Z"/>
  <path d="M452.98,330.83c.94.48-.1,3.41-1.01,3.27-1.9-.3-.79-4.2,1.01-3.27Z"/>
  <path d="M56.99,743.93c.5.5-.25,2.9-1.68,2.62-2.51-.49.39-3.93,1.68-2.62Z"/>
  <path d="M406.95,65.72c-1.29,1.3-4.19-2.13-1.68-2.62,1.43-.28,2.17,2.12,1.68,2.62Z"/>
  <path d="M475.32,503.83c.44.51.47,3.49-1.68,2.62-3.03-1.23,1.12-3.28,1.68-2.62Z"/>
  <path d="M224.2,61.78c1.29-1.3,4.19,2.13,1.68,2.62-1.43.28-2.17-2.12-1.68-2.62Z"/>
  <path d="M78.65,524.88c-.52.48-2.99-.24-2.7-1.63.5-2.44,4.04.38,2.7,1.63Z"/>
  <path d="M563.67,587.38c1.66-.35,2.25,2.28.65,2.62s-2.25-2.28-.65-2.62Z"/>
  <path d="M84.07,339.37c-.45.36-3.36-.11-3.36-.98,0-2.08,4.9-.26,3.36.98Z"/>
  <path d="M547.75,188.08c1.07,1.31-.91,3.99-2.02,2.63s.91-3.99,2.02-2.63Z"/>
  <path d="M57,690.64c-.37-.44.11-3.27,1.01-3.27,2.14,0,.26,4.76-1.01,3.27Z"/>
  <path d="M555.87,149.93c1.4,1.09-1.36,3.01-2.7,1.97s1.36-3.01,2.7-1.97Z"/>
  <path d="M408.99,292.68c.45-.36,3.36.11,3.36.98,0,2.08-4.9.26-3.36-.98Z"/>
  <path d="M381.59,25.6c1.66-.35,2.25,2.28.65,2.62s-2.25-2.28-.65-2.62Z"/>
  <path d="M31.27,235.45c.67.67-.67,3.33-2.02,2.62-1.54-.81.71-3.94,2.02-2.62Z"/>
  <path d="M352.8,41.39c1.5,1.32-2.14,3.89-2.7.97-.3-1.59,2.53-1.11,2.7-.97Z"/>
  <path d="M17.73,526.19c-1.33,1.53-3.78-2.36-1.68-2.62,1.44-.18,2.19,2.03,1.68,2.62Z"/>
  <path d="M73.92,663.68c.86.66-1.62,2.85-2.7,1.97-1.39-1.14,1.37-2.99,2.7-1.97Z"/>
  <path d="M437.42,264.39c.39-.37,2.58.21,2.69.98.33,2.35-4.61.89-2.69-.98Z"/>
  <path d="M462.47,174.92c-.39-.37.21-2.51,1.01-2.61,2.42-.32.91,4.48-1.01,2.61Z"/>
  <path d="M469.91,351.21c-.39.37-2.58-.21-2.69-.98-.33-2.35,4.61-.89,2.69.98Z"/>
  <path d="M394.09,59.81c1.6,1.22-1.87,3.41-2.7.97-.5-1.48,2.43-1.18,2.7-.97Z"/>
  <path d="M64.45,513.04c.39-.37,2.58.21,2.69.98.33,2.35-4.61.89-2.69-.98Z"/>
  <path d="M521.35,797.88c.39.37-.21,2.51-1.01,2.61-2.42.32-.91-4.48,1.01-2.61Z"/>
  <path d="M463.82,309.77c-.39-.37.21-2.51,1.01-2.61,2.42-.32.91,4.48-1.01,2.61Z"/>
  <path d="M128.75,819.58c-1.17,1.35-3.07-1.33-2.02-2.62.68-.84,2.93,1.58,2.02,2.62Z"/>
  <path d="M506.47,268.34c.39-.37,2.58.21,2.69.98.33,2.35-4.61.89-2.69-.98Z"/>
  <path d="M77.98,680.13c1.01.77-2.02,3.26-2.7.97-.44-1.5,2.43-1.18,2.7-.97Z"/>
  <path d="M48.87,755.12c.48.37.26,2.99-1.93,1.86-2-1.04.45-3,1.93-1.86Z"/>
  <path d="M70.53,764.98c.41.46-.31,2.61-1.01,2.61-2.07,0-.67-4.51,1.01-2.61Z"/>
  <path d="M408.31,76.26c1.01.77-2.02,3.26-2.7.97-.44-1.5,2.43-1.18,2.7-.97Z"/>
  <path d="M63.76,183.48c.89,1.01-1.29,3.46-2.02,2.62-.89-1.01,1.29-3.46,2.02-2.62Z"/>
  <path d="M420.49,184.14c.21.26.55,3.05-1,2.62-2.36-.66.2-3.6,1-2.62Z"/>
  <path d="M528.8,318.33c.41.46-.31,2.61-1.01,2.61-2.07,0-.67-4.51,1.01-2.61Z"/>
  <path d="M482.43,436.09c1.36.12,1.25,2.88-.66,2.61s.13-2.66.66-2.61Z"/>
  <path d="M42.1,443.97c.21.26.55,3.05-1,2.62-2.36-.66.2-3.6,1-2.62Z"/>
  <path d="M471.94,454.5c1.96,1.63-2.69,2.99-2.69.98,0-.68,2.22-1.38,2.69-.98Z"/>
  <path d="M90.84,833.4c1.96,1.63-2.69,2.99-2.69.98,0-.68,2.22-1.38,2.69-.98Z"/>
  <path d="M59.7,463.7c-1.68,1.9-3.08-2.61-1.01-2.61.7,0,1.42,2.15,1.01,2.61Z"/>
  <path d="M84.07,588.68c-.27.21-3.14.53-2.7-.97.68-2.29,3.7.2,2.7.97Z"/>
  <path d="M11.64,473.57c1.07,1.04-.95,3.01-2.02,1.97s.95-3.01,2.02-1.97Z"/>
  <path d="M397.48,52.57c1.07,1.04-.95,3.01-2.02,1.97s.95-3.01,2.02-1.97Z"/>
  <path d="M147.7,427.53c.41.45-.31,2.62-1.01,2.61-2.06-.01-.13-3.87,1.01-2.61Z"/>
  <path d="M464.49,197.29c1.07,1.04-.95,3.01-2.02,1.97s.95-3.01,2.02-1.97Z"/>
  <path d="M50.91,660.38c-.41-.45.31-2.62,1.01-2.61,2.06.01.13,3.87-1.01,2.61Z"/>
  <path d="M408.99,26.26c.09-.16,3.16-1.41,2.02.97-.88,1.84-2.56.02-2.02-.97Z"/>
  <path d="M561.29,572.24c-2.19.21-2.24.17-2.02-1.97l2.02,1.97Z"/>
  <path d="M524.74,390.03c.22,2.13.17,2.18-2.02,1.97l2.02-1.97Z"/>
  <path d="M124.01,452.52l-2.02,1.97c-.22-2.13-.17-2.18,2.02-1.97Z"/>
  <path d="M102.01,493.98c1.19,0,1.16,2.61,0,2.6s-1.16-2.61,0-2.6Z"/>
  <path d="M430.65,549.22l-2.02,1.97c-.22-2.13-.17-2.18,2.02-1.97Z"/>
  <path d="M525.41,625.53c.2.19.51,2.35-1,1.96-2.32-.6-.33-3.27,1-1.96Z"/>
  <path d="M299.68,55.21c1.59-.25,1.99,1.76.65,1.97-1.59.25-1.99-1.76-.65-1.97Z"/>
  <path d="M520.67,476.21c.2.19.51,2.35-1,1.96-2.32-.6-.33-3.27,1-1.96Z"/>
  <path d="M135.51,738.67l-2.02,1.97c-.22-2.13-.17-2.18,2.02-1.97Z"/>
  <path d="M438.43,346.63c1.19,0,1.16,2.61,0,2.6s-1.16-2.61,0-2.6Z"/>
  <path d="M469.91,325.57c1.34,1.29-1.4,3.23-2.02.97-.4-1.47,1.82-1.16,2.02-.97Z"/>
  <path d="M73.24,317.67c1.34,1.29-1.4,3.23-2.02.97-.4-1.47,1.82-1.16,2.02-.97Z"/>
  <path d="M69.87,202.55c.11-1.44-.66-2.96,1-2.62s.41,2.22-1,2.62Z"/>
  <path d="M369.05,103.88c1.34,1.29-1.4,3.23-2.02.97-.4-1.47,1.82-1.16,2.02-.97Z"/>
  <path d="M30.59,453.83c-.31.27-2.31.48-2.02-.97.4-1.98,2.89.22,2.02.97Z"/>
  <path d="M44.81,629.48c.87.75-1.62,2.95-2.02.97-.29-1.45,1.71-1.24,2.02-.97Z"/>
  <path d="M524.74,657.76c.69.66-1.32,2.64-2.02,1.97s1.32-2.64,2.02-1.97Z"/>
  <path d="M149.73,751.82c-.31.27-2.31.48-2.02-.97.4-1.98,2.89.22,2.02.97Z"/>
  <path d="M76.62,252.55c.28.3.49,2.25-1,1.96-2.04-.39.23-2.81,1-1.96Z"/>
  <path d="M486.83,249.26c.87.75-1.62,2.95-2.02.97-.29-1.45,1.71-1.24,2.02-.97Z"/>
  <path d="M170.72,822.21c-.28-.3-.49-2.25,1-1.96,2.04.39-.23,2.81-1,1.96Z"/>
  <path d="M421.18,249.26c.52.04,2,1.49,2.01,1.64.04,1.45-2.79.78-2.01-1.64Z"/>
  <path d="M234.34,63.1c.28.3.49,2.25-1,1.96-2.04-.39.23-2.81,1-1.96Z"/>
  <path d="M362.28,48.62c-.31.27-2.31.48-2.02-.97.4-1.98,2.89.22,2.02.97Z"/>
  <path d="M71.89,426.86c-.31.27-2.31.48-2.02-.97.4-1.98,2.89.22,2.02.97Z"/>
  <path d="M112.5,582.77c.28.3.49,2.25-1,1.96-2.04-.39.23-2.81,1-1.96Z"/>
  <path d="M128.07,724.2c.28.3.49,2.25-1,1.96-2.04-.39.23-2.81,1-1.96Z"/>
  <path d="M229.6,78.89c.28.3.49,2.25-1,1.96-2.04-.39.23-2.81,1-1.96Z"/>
  <path d="M83.39,467.65c-1.04,1.48-1.84-1.64-1.34-2.63,1.18.11,1.78,1.99,1.34,2.63Z"/>
  <path d="M44.14,699.85c-.28-.3-.49-2.25,1-1.96,2.04.39-.23,2.81-1,1.96Z"/>
  <path d="M88.81,456.47c.28.3.49,2.25-1,1.96-2.04-.39.23-2.81,1-1.96Z"/>
  <path d="M148.38,409.1c-.31.27-2.31.48-2.02-.97.4-1.98,2.89.22,2.02.97Z"/>
  <path d="M25.18,461.08c.28.3.49,2.25-1,1.96-2.04-.39.23-2.81,1-1.96Z"/>
  <polygon points="400.19 97.96 397.49 97.31 400.18 95.99 400.19 97.96"/>
  <path d="M157.18,471.59c-.31.27-2.31.48-2.02-.97.4-1.98,2.89.22,2.02.97Z"/>
  <path d="M248.56,98.63c.44,1.01-2.47,1.93-2.69.32-.15-1.12,2.61-.5,2.69-.32Z"/>
  <path d="M29.24,560.41c.28.3.49,2.25-1,1.96-2.04-.39.23-2.81,1-1.96Z"/>
  <path d="M118.59,538.04c.87.75-1.62,2.95-2.02.97-.29-1.45,1.71-1.24,2.02-.97Z"/>
  <path d="M418.46,269.65c.12.19.22,2.65-.33,2.62-2.12-.94-.56-4,.33-2.62Z"/>
  <path d="M29.24,474.23c.28.3.49,2.25-1,1.96-2.04-.39.23-2.81,1-1.96Z"/>
  <path d="M127.39,185.44c-.31.27-2.31.48-2.02-.97.4-1.98,2.89.22,2.02.97Z"/>
  <path d="M72.56,159.8c.06.08.06,1.89,0,1.97-1.74,2.06-1.74-4.03,0-1.97Z"/>
  <path d="M387.32,32.18c2.12,1.69-4.15,1.69-2.02,0,.08-.06,1.94-.06,2.02,0Z"/>
  <path d="M117.92,156.51c.39-.38,1.96.51,2.01.98.19,1.77-3.11.09-2.01-.98Z"/>
  <path d="M94.22,539.35c-.39.38-1.96-.51-2.01-.98-.19-1.77,3.11-.09,2.01.98Z"/>
  <path d="M469.91,129.54c.06.08.06,1.89,0,1.97-1.74,2.06-1.74-4.03,0-1.97Z"/>
  <path d="M8.26,469.62c-.39-.38.52-1.91,1.01-1.95,1.82-.18.09,3.02-1.01,1.95Z"/>
  <path d="M113.85,117.04c.06.08.06,1.89,0,1.97-1.74,2.06-1.74-4.03,0-1.97Z"/>
  <path d="M459.08,658.41c-.39.38-1.96-.51-2.01-.98-.19-1.77,3.11-.09,2.01.98Z"/>
  <path d="M107.76,145.32c-.39.38-1.96-.51-2.01-.98-.19-1.77,3.11-.09,2.01.98Z"/>
  <path d="M403.57,103.23c.06.08.06,1.89,0,1.97-1.74,2.06-1.74-4.03,0-1.97Z"/>
  <path d="M31.27,417c.06.08.06,1.89,0,1.97-1.74,2.06-1.74-4.03,0-1.97Z"/>
  <path d="M235.7,73.62c.06.08.06,1.89,0,1.97-1.74,2.06-1.74-4.03,0-1.97Z"/>
  <path d="M161.24,742.62c.14.15-.07,1.44,0,1.97-3.48-1.38-1.02-3.04,0-1.97Z"/>
  <path d="M442.15,763.67c2.12,1.69-4.15,1.69-2.02,0,.08-.06,1.94-.06,2.02,0Z"/>
  <path d="M405.6,52.57c2.12,1.69-4.15,1.69-2.02,0,.08-.06,1.94-.06,2.02,0Z"/>
  <path d="M86.1,274.91c2.12,1.69-4.15,1.69-2.02,0,.08-.06,1.94-.06,2.02,0Z"/>
  <path d="M29.93,436.74c.39-.38,1.96.51,2.01.98.19,1.77-3.11.09-2.01-.98Z"/>
  <path d="M465.84,260.43c-.39.38-1.96-.51-2.01-.98-.19-1.77,3.11-.09,2.01.98Z"/>
  <path d="M37.36,429.5c.06.08.06,1.89,0,1.97-1.74,2.06-1.74-4.03,0-1.97Z"/>
  <path d="M106.41,567.64c2.12,1.69-4.15,1.69-2.02,0,.08-.06,1.94-.06,2.02,0Z"/>
  <path d="M412.03,302.55c1.02,0,1.02,1.94,0,1.94s-1.02-1.94,0-1.94Z"/>
  <path d="M33.3,440.03c1.55,1.32-1.94,1.84-2.02.32-.03-.57,1.93-.4,2.02-.32Z"/>
  <path d="M412.37,108.49c1.13.71-.79,1.88-2.03,1.3.08-.82,1.39-1.7,2.03-1.3Z"/>
  <path d="M270.22,65.07c1.13.71-.79,1.88-2.03,1.3.08-.82,1.39-1.7,2.03-1.3Z"/>
  <path d="M433.36,36.12c-.55-.07-1.83.15-2.03,0-1.17-.92,1.27-2.4,2.03,0Z"/>
  <path d="M24.5,424.24c.41.61-.5,1.89-1.34,1.97-.59-1.2.61-3.07,1.34-1.97Z"/>
  <path d="M519.32,85.46c.08.09.25,2-.33,1.97-1.56-.08-1.02-3.47.33-1.97Z"/>
  <path d="M465.84,605.79c1.13.71-.79,1.88-2.03,1.3.08-.82,1.39-1.7,2.03-1.3Z"/>
  <path d="M52.94,702.48c-1.23.23-2.25-.72-2.02-1.97.25-.25,2.28,1.72,2.02,1.97Z"/>
  <path d="M480.06,573.55c-.55-.07-1.83.15-2.03,0-1.17-.92,1.27-2.4,2.03,0Z"/>
  <path d="M473.29,628.82c.08.09.25,2-.33,1.97-1.56-.08-1.02-3.47.33-1.97Z"/>
  <path d="M362.95,109.15c1.13.71-.79,1.88-2.03,1.3.08-.82,1.39-1.7,2.03-1.3Z"/>
  <path d="M153.79,808.4c.74.72-.61,2.02-1.35,1.31s.61-2.02,1.35-1.31Z"/>
  <path d="M484.12,399.9c.74.72-.61,2.02-1.35,1.31s.61-2.02,1.35-1.31Z"/>
  <path d="M525.41,674.86c.74.72-.61,2.02-1.35,1.31s.61-2.02,1.35-1.31Z"/>
  <path d="M17.06,458.44c.74.72-.61,2.02-1.35,1.31s.61-2.02,1.35-1.31Z"/>
  <path d="M442.83,442.66c.74.72-.61,2.02-1.35,1.31s.61-2.02,1.35-1.31Z"/>
  <path d="M79.33,131.51c.74.72-.61,2.02-1.35,1.31s.61-2.02,1.35-1.31Z"/>
  <path d="M429.97,307.15c.74.72-.61,2.02-1.35,1.31s.61-2.02,1.35-1.31Z"/>
  <path d="M455.69,481.46c-1.47-.56-1.61-1.09-.33-1.97l.33,1.97Z"/>
  <path d="M425.91,688.02c.74.72-.61,2.02-1.35,1.31s.61-2.02,1.35-1.31Z"/>
  <path d="M416.43,201.9c.74.72-.61,2.02-1.35,1.31s.61-2.02,1.35-1.31Z"/>
  <path d="M507.14,417c.74.72-.61,2.02-1.35,1.31s.61-2.02,1.35-1.31Z"/>
  <path d="M426.58,26.26c.74.72-.61,2.02-1.35,1.31s.61-2.02,1.35-1.31Z"/>
  <path d="M47.52,436.08c.74.72-.61,2.02-1.35,1.31s.61-2.02,1.35-1.31Z"/>
  <path d="M239.08,86.12c.74.72-.61,2.02-1.35,1.31s.61-2.02,1.35-1.31Z"/>
  <path d="M431.32,696.57c.74.72-.61,2.02-1.35,1.31s.61-2.02,1.35-1.31Z"/>
  <path d="M24.5,700.52c.74.72-.61,2.02-1.35,1.31s.61-2.02,1.35-1.31Z"/>
  <path d="M47.52,339.38c.74.72-.61,2.02-1.35,1.31s.61-2.02,1.35-1.31Z"/>
  <path d="M410.34,332.14c.74.72-.61,2.02-1.35,1.31s.61-2.02,1.35-1.31Z"/>
  <path d="M531.5,526.2c.74.72-.61,2.02-1.35,1.31s.61-2.02,1.35-1.31Z"/>
  <path d="M395.45,81.52c-.57,1.43-1.13,1.56-2.03.32l2.03-.32Z"/>
  <path d="M86.1,206.51c-.57,1.43-1.13,1.56-2.03.32l2.03-.32Z"/>
  <path d="M423.2,72.97c.74.72-.61,2.02-1.35,1.31s.61-2.02,1.35-1.31Z"/>
  <path d="M421.85,65.07c.74.72-.61,2.02-1.35,1.31s.61-2.02,1.35-1.31Z"/>
  <path d="M283.08,60.47c.74.72-.61,2.02-1.35,1.31s.61-2.02,1.35-1.31Z"/>
  <path d="M416.43,637.37c.74.72-.61,2.02-1.35,1.31s.61-2.02,1.35-1.31Z"/>
  <path d="M86.78,566.33c.74.72-.61,2.02-1.35,1.31s.61-2.02,1.35-1.31Z"/>
  <path d="M161.91,768.27c.74.72-.61,2.02-1.35,1.31s.61-2.02,1.35-1.31Z"/>
  <path d="M457.04,282.81c.74.72-.61,2.02-1.35,1.31s.61-2.02,1.35-1.31Z"/>
  <path d="M131.45,110.46c.74.72-.61,2.02-1.35,1.31s.61-2.02,1.35-1.31Z"/>
  <path d="M92.19,108.48c-1.47-.56-1.61-1.09-.33-1.97l.33,1.97Z"/>
  <path d="M443.51,43.36c.74.72-.61,2.02-1.35,1.31s.61-2.02,1.35-1.31Z"/>
  <path d="M19.09,607.77c.74.72-.61,2.02-1.35,1.31s.61-2.02,1.35-1.31Z"/>
  <path d="M356.87,105.86c-.57,1.43-1.13,1.56-2.03.32l2.03-.32Z"/>
  <path d="M497.66,389.37c.74.72-.61,2.02-1.35,1.31s.61-2.02,1.35-1.31Z"/>
  <path d="M23.15,147.96c.21.31-1.03,1.51-1.35,1.31-.87-.55.78-2.15,1.35-1.31Z"/>
  <path d="M275.63,96.65c.06.05.26,1.33-.33,1.31-1.23-.04-1.15-2.55.33-1.31Z"/>
  <path d="M525.41,442.66c.06.05.26,1.33-.33,1.31-1.23-.04-1.15-2.55.33-1.31Z"/>
  <path d="M17.74,469.62c-.56.84-2.21-.76-1.35-1.31.32-.2,1.55,1,1.35,1.31Z"/>
  <path d="M272.25,101.9c-1.48,1.24-1.57-1.27-.33-1.31.59-.02.39,1.25.33,1.31Z"/>
  <path d="M458.4,697.23c.21.31-1.03,1.51-1.35,1.31-.87-.55.78-2.15,1.35-1.31Z"/>
  <path d="M429.97,92.03c-.56.84-2.21-.76-1.35-1.31.32-.2,1.55,1,1.35,1.31Z"/>
  <path d="M28.56,488.7c-.06.06-1.36.25-1.35-.32.04-1.2,2.62-1.12,1.35.32Z"/>
  <path d="M31.27,762.35c-1.13.22-.6-1.06-.66-1.97h.66v1.97Z"/>
  <path d="M455.69,513.03c-.06.06-1.36.25-1.35-.32.04-1.2,2.62-1.12,1.35.32Z"/>
  <path d="M413.05,353.2c.23,1.1-1.09.58-2.02.64v-.64h2.02Z"/>
  <path d="M544.37,701.17c-.56.84-2.21-.76-1.35-1.31.32-.2,1.55,1,1.35,1.31Z"/>
  <path d="M21.12,709.06c-.56.84-2.21-.76-1.35-1.31.32-.2,1.55,1,1.35,1.31Z"/>
  <path d="M396.12,45.33c-1.48,1.24-1.57-1.27-.33-1.31.59-.02.39,1.25.33,1.31Z"/>
  <path d="M7.58,549.87c-.06.06-1.36.25-1.35-.32.04-1.2,2.62-1.12,1.35.32Z"/>
  <path d="M48.87,451.86c-.87.85-.87-2.15,0-1.31.06.05.06,1.25,0,1.31Z"/>
  <path d="M373.11,119.02c.87.84-2.22.84-1.35,0,.06-.05,1.29-.05,1.35,0Z"/>
  <path d="M413.72,46c.87.84-2.22.84-1.35,0,.06-.05,1.29-.05,1.35,0Z"/>
  <path d="M59.02,142.7c.87.84-2.22.84-1.35,0,.06-.05,1.29-.05,1.35,0Z"/>
  <path d="M135.51,97.95c-.87.85-.87-2.15,0-1.31.06.05.06,1.25,0,1.31Z"/>
  <path d="M546.39,507.77c-.87.85-.87-2.15,0-1.31.06.05.06,1.25,0,1.31Z"/>
  <path d="M431.32,284.77c-.87.85-.87-2.15,0-1.31.06.05.06,1.25,0,1.31Z"/>
  <path d="M407.63,286.75c-.87.85-.87-2.15,0-1.31.06.05.06,1.25,0,1.31Z"/>
  <path d="M411.69,117.69c-.87.85-.87-2.15,0-1.31.06.05.06,1.25,0,1.31Z"/>
  <path d="M63.76,112.43c-.87.85-.87-2.15,0-1.31.06.05.06,1.25,0,1.31Z"/>
  <path d="M47.52,709.07c.87.84-2.22.84-1.35,0,.06-.05,1.29-.05,1.35,0Z"/>
  <path d="M165.98,773.54c.87.84-2.22.84-1.35,0,.06-.05,1.29-.05,1.35,0Z"/>
  <path d="M36.69,728.15c.87.84-2.22.84-1.35,0,.06-.05,1.29-.05,1.35,0Z"/>
  <path d="M421.16,58.49c-.87.85-.87-2.15,0-1.31.06.05.06,1.25,0,1.31Z"/>
  <path d="M240.43,86.11c-.87.85-.87-2.15,0-1.31.06.05.06,1.25,0,1.31Z"/>
  <path d="M448.25,579.49c.87.84-2.22.84-1.35,0,.06-.05,1.29-.05,1.35,0Z"/>
  <polygon points="402.56 101.91 402.9 102.23 402.56 102.56 402.56 101.91"/>
  <polygon points="443.17 406.47 443.51 406.8 443.17 407.13 443.17 406.47"/>
  <polygon points="167.67 675.52 168.01 675.85 167.67 676.18 167.67 675.52"/>
  <polygon points="148.04 725.51 148.38 725.84 148.04 726.17 148.04 725.51"/>
  <polygon points="28.91 500.54 29.24 500.87 28.91 501.2 28.91 500.54"/>
  <polygon points="399.17 313.06 399.51 313.39 399.17 313.72 399.17 313.06"/>
  <polygon points="167 676.83 167.33 677.16 167 677.49 167 676.83"/>
  <path d="M245.85,181.49c6.18-7.42,12.63-14.68,19.29-21.71,16.05-16.96,34.94-29.76,43.69-51.61,7.7-19.23,12.07-39.93,18.59-59.55,1.66.14.05,4.89-.12,5.8-2.77,14.63-16.14,57.67-24.04,69.39-8.47,12.56-40.08,41.71-52.65,54.09-.64.64-3.99,4.31-4.76,3.59Z"/>
  <path d="M159.89,315.69c-15.63-5.16-28.93-18.1-35.19-32.88.65-.65,9.59,12.69,10.85,14.12,7.12,8.1,15.49,12.81,24.34,18.76Z"/>
  <path d="M325.04,175.58c-6.7,38.73-23.74,77.61-56.52,101.94,19.02-17.94,34.94-38.41,44.35-62.8,4.58-11.87,6.16-25.54,10.33-36.67.36-.96.66-2.2,1.84-2.48Z"/>
  <path d="M367.69,165.06c.23,1.11-.54,1.75-1.07,2.57-4.37,6.76-27,29.49-28.21,33.82-1.31,4.72,2.16,14.75.37,22.66-3.96,17.44-16.94,39.29-26.26,54.73,9.2-19.06,19.48-37.83,25.31-58.27l-8.05-68.67c-22.34,36.44-47.32,72.09-79.18,101.3,29.13-34.31,60.18-68.45,79.53-109.19l8.13,53.93,29.43-32.89Z"/>
  <path d="M287.14,739.98c-7.21-19.04-11.24-39.25-14.88-59.2,1.22.28,1.42,1.63,1.71,2.61,5.3,17.95,7.58,38.45,13.17,56.59Z"/>
  <path d="M595.14-.06v842H.14V-.06h595ZM590.4,4.55H4.88v501.25c10.76-17.58,25.76-33.14,45.35-41.43-18.95,11.34-34.82,25.01-45.35,44.39v328.58h196.3l-14.21-84.2,16.23,52.62c.28-45.67-.88-94.26,15.58-137.47-17.9.19-36.59-.19-54.16-3.61-15.74-3.07-20.51-4.83-21.02-21.72-.3-10.13.12-36.84,11.09-41.9,2.64-1.22,6-.78,7.63-1.79,2.34-1.45,2.68-8.65,7.54-9.78,5.27-1.22,10.77,2.39,15.76,3.47,8.27,1.8,16.85,1.5,23.68,7.56,4.17-5.9-14.24-9.33-14.85-15.49-.43-4.42,5.29-10.01,5.43-13.8.15-4.15-5.34-10.7-4.52-16.78.64-4.71,6.55-7.96,7.2-12.12,1.42-9.04-4.58-24.33-2.67-36.14.87-5.36,6.07-8.18,7.08-12.85.95-4.35-1.26-9.78-.24-12.73,1.22-3.52,14.36-4.21,17.43-6.74,3.49-2.87,5.89-15.23,10.9-19.66,5.89-5.21,21.83-7.82,25.32-10.92,7.87-6.98,6.12-31.21-2.69-38.12-5.39,4.79-11.98,12.71-19.03,15.04-14.46,4.78-15.86-4.95-24.31-12.41-1.7-1.5-6.71-5.52-8.49-6.87-1.21-.92-4.55-1.02-5.38-2.01-1.12-1.33-.48-3.66-1.28-5.34-3.52-7.35-13.93-2.61-15.66-3.84l6.15-22.92c-9.73-5.68-15-10.47-15.6-22.19-2.76,12.31-3.47,26.35,1.36,38.14-12.55-2.2-28.41-7.64-30.45-21.69-3.93,9.14-6.54,18.93-6.79,28.94-3.99-4.87-6.19-14.53-7.25-20.91-2.41-14.57-3.99-30.07,6.54-41.92-8.41-6.01-22.38-14.71-25.89-24.79s-6.42-32.78-7.23-43.63c-.97-13.1-.01-26.03,0-39.12,6.2,17.5,12.96,36.24,27.06,49.33-3.9-31.82,7.36-62.74,18.29-92.08l1.35,29.27c20.93-40.19,52.32-73.93,77.17-111.51l-7.46,64.13c17.56-13.86,36.39-28.86,51.8-45.05,23.95-25.16,40.62-55.71,57.54-85.53l24.03,132.88,36.54-40.78c.49,38.02-3.62,76.03-11.01,113.29l-26.88,39.32c19.65-6.07,38.99-13.37,56.86-23.34-20.15,31.05-46.48,59.56-81.23,75.32l41.29,1.29-45.36,22.02c.1,2.78,18.96,24.47,22.33,27.01,2.05,1.54,22.54,14.51,23.89,14.95,4.99,1.63,20.76-6.72,22.16-5.42l-4.73,13.81c10.27-.61,19.28,2.84,28.42,6.59l-.87,1.47-11.31,4.76c4.46,3.89,6.37,9.86,11.18,13.48s12.38,5.38,17.23,9.9l-.34,1.31-11.83-1.32,13.52,30.59-11.47-7.25,9.8,20.72-8.46-5.92,6.76,43.41-6.08-4.6c-.77,5.68-2.99,11.14-5.09,16.43-1.01,2.54-6.22,11.13-6.42,12.22-.96,5.17,2.26,18.46,1.28,26.2s-6.21,12.57-7.87,18.66c-5.32,19.45-4.35,44.72-11.34,65.28-3.8,11.16-16.87,1.88-24.61,11.5,10.46,23.42,21.05,51.11,24.75,76.52,1.9,13.03.08,28.62,8.35,39.91,1.87,2.55,6.7,5.56,8.1,7.91,4.43,7.42-4.66,29.91-3.13,38.51.11.63,5.44,10.97,5.91,11.42,2.3,2.21,8.19.56,11.44,1.06-1.06-2.94,4.92-18.84,7.12-19.08l4.38,8.54c8.25-30.37,11.09-62.54,24.92-91.22-1.88-4.53-9.51-9.62-14.42-10.08-3.49-.33-7.92,1.29-10.68.51-5.49-1.56-15.42-21.94-16.06,5.4l-1.36-.31-14.2-56.25,11.62,20.6c18.67,24.4,26.55,16.82,50.43,27.96,7.44,3.47,14.62,11.65,21.89,15.62,1.87-.76,6.85-13.57,6.79-15.89-.13-5.08-6.37-3.86-5.56-10.53.56-4.65,8.26-22.76,10.43-28.73,1.46-4.03,5.99-10.73,6.56-14.02,2.35-13.59-1.64-32.63,2.75-46.98-5.98,10.06-4.27,21.38-10.53,31.53-1.27,2.05-4.4,3.46-5.39,5.94-1.88,4.72-.76,12.97-2.49,19.28-4,14.53-17.04,27.63-22.2,41.91-2.41-.85-.46-3.34.11-4.84,1.64-4.32,14.76-23.5,14.59-25.1-7.68-3.67-6.51-15.7-8.98-19.36-1.74-2.56-4.95-1.06-6.09-3.95-1.49-3.8,2.74-18.08,1.15-23.29l1.93-.09-1.94,22.21c11.02,4.23,5.05,14.37,13.06,21.56l2.37.58c1.32-4.21,4.32-8.72,5.25-12.99,1.17-5.31.05-10.92,1.2-15.28.78-2.98,6.72-7.53,8.8-12.5,4.77-11.39,5.84-27.89,11.83-39.82.46-.92.93-1.98,2.06-2.27-1.22,11.38-4.39,22.46-5.39,33.89-.8,9.17.7,22.83-.85,30.75-.61,3.11-5,9.53-6.45,13.47-1.67,4.54-10.11,25.53-10.28,28.21-.33,5,4.65,5.18,5.37,8.49,1.81,8.34-13.88,30.59-17.25,39.1-6.93-6.94-7.62-18.74-17.25-23.66-13.21,29.87-16.52,63.09-25.39,94.05l-4.24-8.35-1.5-.84-5.43,15.78h163.81V4.55ZM147.7,211.43c-.78-6.17.58-13.73,0-20.06-8.03,17.31-21.84,66.8-12.2,83.23,1.24,2.12,16.81,13.69,18.29,12.15-10.75-36.57,9.99-77.02,32.84-105.24-4.5,21.37-9.23,43.15-11.86,65.11-.3-20.24,4.72-40.8,9.83-60.5-17.49,23.9-35.53,58.25-32.14,88.44.52,4.62,2.22,12.66,6.07,15.47-26.88-7.17-41.43-33.65-52.11-56.56-.14,11.96-.02,23.94,1.37,35.83,1.88,16.1,3.75,33.91,16.22,45.41,3.83,3.54,12,10.06,16.92,10.19-14.09,17.15-9.68,36.82-4.72,56.57,2.59-11.39-.15-23.74,3.71-35.52.08-.25,1.33-4.27,1.7-1.65-1.36,8.27-4.1,16.92-2.05,25.32,8.18-14.03,3.89-30.2,12.54-44.06-2.83,11.79-9.64,37.82,1.48,46.58,1.65,1.3,16.95,8.95,17.81,8.01-.9-7.98-1.8-15.96-1.37-24.03.21-3.96,3.42-16.66,3.24-18.3-.13-1.21-5.18-7.13-6.25-9.64-6.16-14.48,2.65-38.09,12.18-49.98-5.3,12.81-14.21,28.57-12.35,42.91,1.55,11.89,21.11,32.56,33.65,34.39-3.24-12.43-7.7-27.42-4.06-39.81.16,7.31.21,15.41,1.45,22.6.24,1.38.83,6.72,2.61,6.34l12.53-55.25-2.97,16.65c12.25,10.86,23.45,25.35,29.04,40.57,2.33-15.33-6.98-29.7-15.56-41.77l1.63-.28c11.06,14.27,18.15,30.69,16.63,48.96l1.34.32c9.88-13.24,16.35-28.28,15.57-45.04-.37-7.91-3.55-14.57-5.06-22.06,6.55,3.8,6.33,28.3,7.77,29.96.96,1.1,5.95,1.6,7.45,2.94,11.2-31.15,34.29-2.1,33.2,17.45-.36,6.47-3.84,12.16-6.1,18.06l29.1-1.98-3.79-5.22c-.51-3.31,35.87-15.52,39.67-20.42l-40.61-.33c33.94-15.69,62.16-40.53,82.59-71.04-5.58,1.94-10.78,5.03-16.27,7.22-10.15,4.04-28.63,8.5-37.02,13.36-2.43,1.4-21.4,22.87-23.21,21.18,7.82-8.44,16.41-16.41,23.67-25.34,6.09-7.5,24.17-31.56,27.13-39.41,4.08-10.84,6.73-37.03,8.07-49.38,2.07-19.06,2.87-39.09,3.4-57.88l-37.89,43.09c1.84-9.55-.76-21.19-2.16-31.12-4.88-34.57-13.14-68.64-18.84-103.07-15.61,24.75-28.76,50.89-48.38,73.03-19.18,21.63-41.94,36.96-62.63,56.23-15.31,14.26-22.98,30.29-27.76,50.32,1.71-20.02,11.95-39.42,27.46-52.58l7.74-58.58c-17.74,23.74-36.86,46.86-53.33,71.5-8.54,12.77-18.52,27.01-22.48,41.64l-1.52-.82c-.01-1.33-1.04-3.03-1.18-4.11ZM272.93,367.66c7.19,1.49,12.36-3.76,16.59-8.54,12.25-13.85,14.61-31.34,1.7-45.74-17.52-19.55-22.65,16.26-25.79,27.26l-9.41-5.21c-2.68,9.12-9.22,16.53-15.24,23.68-2.56-19.37-16.27-35.75-29.22-49.88l-1.57-.11c-3.52,16.19-10.79,35.07-5.43,51.31-11.73-3.47-20.68-10.82-29.09-19.07.33,14.41,7.09,17.58,16.72,26.09l-7.25,19.94c4.36.13,10.58-.69,14.17,2.35,3.09,2.61,2.04,6.46,3.41,7.87,1.09,1.12,3.71.62,5.14,1.58,1.35.91,1.63,3.69,2.49,4.48.91.84,4.02,1.36,5.93,3.12,10.18,9.43,11.45,19.02,27.97,8.12,5.84-3.85,25.4-24.39,27.56-30.45,1.94-5.44,1.82-11.21,1.32-16.81ZM260.07,318.98c.32,7.47-6.78,14.41,3.03,18.42,2.35-6.68,9.56-18.59-3.03-18.42ZM369.05,392.65c1.27-2.13-23.25-15.31-25.37-17.1-5.99-5.04-11.65-14.42-17.05-20.27-5.08-1.74-27.98.17-32.89,2.67s-10.02,13.91-18.78,11.68c2.36,14.93-6.18,23.23-15.49,33.32,8.75,11.74,12.06,26.27,4,39.38,9.69-5.27,26.71-6.85,35.66-11.39,3.85-1.95,9.84-8.38,14.21-11.19,17.31-11.17,36.4-19.77,55.71-27.11ZM417.11,433.44h10.15c-2.95-2.99-7.62-3.43-11.07-5.36-2.22-1.24-4-3.83-6.85-5.19-7.74-3.68-19.18-4.48-27.43-7.22l27.07,5.26-9.48-11.83,12.86-3.28c-7.94-3.19-17.79-7.28-26.39-3.96l3.37-12.84-.95-.93c-32.7,10.47-67.11,24.35-92.13,47.96-6.6,6.23-12.24,14.61-19.62,20.41h-1s2.03-2.96,2.03-2.96c-9.86,4.53-19.09,13.12-29.52,18.01-8.62,4.04-21.24,8.53-30.71,8.64,12.53-3.72,24.36-7.18,35.81-13.55,14.28-7.95,32.26-19.76,42.03-32.5-14.3,4.43-29.82,8.94-43.67,14.45-5.58,2.23-13.51,4.89-17.14,9.66-2.68,3.51-6.47,15.46-8.6,17.3-2.37,2.05-14.95,3.27-16.62,5.55-1.32,4.4.81,8.17-.24,12.93-.89,4.03-5.35,7.2-6.62,10.67-3.54,9.68,1.64,25.73,2.19,35.99l27.06-25.33c-5.37,8.64-33.25,31.07-34.5,39.53-.79,5.41,5.01,15.88,7.78,20.68l30.1-14.16-31.48,16.77-2.36-4.6-4.63,11.38c.4,1.73,11.23,8.86,13.12,9,2.95.22,17.42-3.61,22.95-3.95,12.64-.77,27.22-.26,39.62,2.01-12.46.15-25.07-1.38-37.59-.69-15.74.87-33.68,1.74-16.83,20.32l42.24-7.79-41.97,8.55,9.15,11.17c2.07-1.54,2-3.06,4.86-4.47,7.22-3.57,10.66-.56,14.75,5.06,8.03-1.19,15.72-11.83,20.99-1.97l34.86-20.31c-18.78-2.68-38.9-3.56-57.9-2.67-10.45.49-21.25,3.04-31.44,2.67,22.15-4.67,46.73-4.88,69.4-3.98,5.84.23,18.11,3.32,22.32,3.02,1.22-.09,10.94-5.17,11.07-5.94-1.85-1.61-2.57-7.95-3.74-8.95s-24.23-5.2-29.12-7.06c-4.13-1.57-31.27-16.94-32.02-19.54l1-.97c17.44,13.61,36.54,23.53,59.24,25.64-2.61-7.98-1.95-15.96-2.15-24.22-10.53-5.11-19.66-13.32-26.93-22.17-.36-.44-8.54-11.32-5.43-9.19,8.89,11.59,19.22,23.03,32.48,29.93.03-2.41.21-4.75-.45-7.12-3.64-13.14-19.27-28.37-19.89-45.82-.19-5.48,11.28-33.91,15.3-37.14s18.02-5.11,23.31-6.62l-8.8-4.92c22.93-18.57,55.57-16.86,82.57-8.89l-10.15-10.51c16.35,2.64,26.49,13.35,38.58,23.02l-12.85-26.97ZM419.82,468.31l8.78,4.94c-7.23-13.3-12.53-26.92-29.09-31.25l9.82,12.49-7.11-3.62,13.52,23.04-.95.93-9.85-2.93c2.31,2.44,8.61,7.46,9.75,10.25,2.04,4.95,2.25,20.27,1.55,25.75s-5.61,13.31-5.89,17.36c-.23,3.3,3,7.66,2.03,11.44,6.05-8.4,9.46-19.48,10.83-29.6l4.73,3.29-8.11-42.1ZM412.37,472.25c-3.05-4.17-9.75-20.67-13.27-22.95-7.04-4.56-35.13-5.34-43.95-4.7-11.76.85-22.85,5.22-32.12,12.2l12.18,4.92c-5.06,2.03-23.39,3.98-26.32,7.65-3.82,4.79-7.19,31.24-7.51,38.09-.65,13.78-1.73,30.94,9.45,41.1-1.84-6.18,7.56-23.45,7.17-27.3-.17-1.67-6.64-8.16-5.8-11.51,7.03,12.97,18.96,19.59,31.13,27.3l-24.03-13.49c-7.62,22.03-14.26,50.06-.04,70.82l28.46-2.37c4.7-16.03,2.78-33.33-3.36-48.72,9.32,13.32,9.23,34.3,4.39,49.34,8.4,2.13,16.63-2.4,25.04-2.3l-15.56,3.63,13.53,5.9c-26.64-8.36-43.27-8.28-68.14,3.84-11.58,5.64-22.61,12.75-33.74,19.18-1.01,1.5,1.14,2.11,2.23,2.47,27.21,9.1,50.78-4.66,76.65-10.68,1.07-.25,12.07-2.6,12.2-1.97l-59.98,17.37-30.06-3.22c4.72,6.73,5.35,15.29,4.64,23.25-.51,5.74-2.93,11-3.99,16.56,34.5,1.7,72.96,10.98,103.26-10.21l-21.33-2.63,38.42-.17c5.62-21.26,9.9-43.05,11.66-64.96l-3.72,3.94c2.62-8.86,11.29-16.64,12.53-26.64,1.83-14.77-4.27-28.14-4.11-40.13.05-3.63,2.79-7.64,3.35-11.25,2.15-13.88-3.88-32.21-10.08-44.64.22-1.99,9.44,2.27,10.83,2.28ZM300.68,532.11c-2.81-20.61-.08-41.85,5.42-61.83-6,8.88-15.76,26.49-14.71,37,.76,7.59,5.49,18.12,9.29,24.84ZM415.08,505.47c.42-3.2,0-7.78,0-11.18,0-5.31-1.67-14.17-7.45-16.44l6.11,29.92c.74.23,1.3-1.97,1.35-2.3ZM191.7,615h-11.85c-6.08,0-10.87-4.85-15.9-7.25l.32-1.29,11.84,5.91c3.26-9.94-17.8-13.79-23.3-7.86-7.29,7.86,3.34,19.04,5.71,26.93l-10.82-16.44c-2.82,9.51.48,18.4,4.73,26.96l-5.41-7.23c-1.98,7.57.05,8.89,4.74,14.13l-.35.99-4.4-3.28c-2.02,14.01,10.11,14.98,20.86,16.89,19.02,3.39,40.81,5.11,59.75,1.09,4.2-9.78,8.4-27.21,1.58-36.36-1.57-2.1-4.04-3-5.68-5-5.89-7.14-13.75-21.33-21.9-24.76-8.55-3.6-21.43-3.32-30.59-7.18-3.93.45-4.52,5.96-7.1,8.29,5.16,1.07,10.09,3.25,13.87,6.89,2.33-3.35,5.72-5.26,9.82-5.9-3.26,3.72-9.17,5.15-8.04,11.41l12.1,3.05ZM242.23,621.16c-3.13-2.75-7.49-2.45-10.56.12-4.52,3.79.69,7.19,1.8,11.35,1.74,6.5.8,16.64-.8,23.18-.74,3.01-5.68,12.01-5.65,12.7.2,4.14,6.89,6.02,10.69,3.38,10.96-7.63,13.85-42.53,4.51-50.73ZM263.93,620.47c-2.45-1.83-12.67,5.04-16.66,5.48,4.34,16.32,3.11,32.17-6.83,46.28,14.13.01,23.48,6.69,30.11-9.21,3.97-9.53,5.13-22.15.83-31.71-.68-1.51-6.49-10.12-7.45-10.83ZM511.19,621.57c.06-.05.06-1.25,0-1.31-.87-.85-.87,2.15,0,1.31ZM262.1,837.34h13.54l-15.92-23.67,18.28,23.67h135.04l-31.48-49.99,25.38,35.52,3.57-34.73-56.35-61,.32-.97,43.66,46.04-34.5-87.83,31.12,71.38c-2.84-32.09-12.58-63.58-26.13-92.8l-19.89,6.64,12.85,57.22-14.22-56.56-20.97,1.97,5.07,21.05-6.46-21.02-37.2-2,13.21,40.76-15.24-41.1c-.67-.34-14.33-1.71-15.07-1.54-1.32.3-4.51,4.62-6.36,5.71-1.74,1.02-6.62,1.96-6.86,2.21-1,1.05-2.77,25.19-2.87,28.46-1.08,34.95,6.69,68.53,16.94,101.65-17.13-40.77-22.18-87.23-15.56-130.9l-20.31-1.32c-.7,26.18-4.61,53.18.67,78.94l3.38-40.78c-.05,22.2-5.77,46.19.85,67.92,5.82,19.11,18.63,36.81,21.49,57.06ZM202.53,837.34h58.21c-2.08-5.45-2.97-13.3-5.96-18.22-1.86-3.05-6.15-6.2-8.53-9.47-3.08-4.23-23.67-34.03-21.38-36.78,8.67,14.27,16.45,30.77,29.08,42.44-24.84-43.27-23.28-92-19.57-140.06-.21-.54-5.13-.88-6.77-2.07-2.45-1.76-2.53-9.39-6.07-5.17-1.64,1.95-6.13,14.47-7,17.53-2.04,7.14-3.36,15.89-4.47,23.28-4.48,29.78-5.95,60.29-4.16,90.35l23.71-122.01-25.74,135.17-14.88-51.31,13.53,76.3ZM480.73,757.08c.7-4.16,6.49-11.01,7.02-14.61.61-4.17-18.24-16.43-22.32-18.2-21.71-9.42-28.86-3.88-46.26-24.12-3.49-4.06-6.19-8.65-9.49-12.8l9.48,38.15c1.41-4.22,1.4-8.44,7.16-9.15,4.57-.82,8.84,7.7,11.61,8.39,1.82.46,7.61-.89,10.69-.57,8.23.85,19.52,12.96,23.87,19.56,1.11,1.68,6.49,14.39,8.25,13.35Z"/>
  <path d="M365.67,541.32c20.2-17.48,24.95-42.13,18.76-67.23-1.27-5.13-4.83-10.72-4.56-15.64,13.67,26.24,13.14,65.16-14.2,82.87Z"/>
  <path d="M348.74,647.88c7.81-5.66,26.69-8.11,31.47-16.45,3.23-5.63,3.27-13.56,7.11-19.06-.96,5.76-3.41,18.6-7.41,22.71-5.08,5.22-23.78,10.37-31.16,12.8Z"/>
  <path d="M338.59,638.03c-14.4,7.11-32.14,9.65-48.06,12.48l48.06-12.48Z"/>
  <path d="M404.7,522.69c-6.8,7.3-27.92,16.33-37.68,19.94l38.25-22.35c.92.45-.13,1.95-.57,2.41Z"/>
  <path d="M396.8,559.09c-4,8.09-8.26,17.29-15.56,23.02l15.56-23.02Z"/>
  <path d="M329.1,491.99c4.93,16.7,16.1,28.73,27.44,41.42-13.78-10.36-23.57-25.01-28.76-41.11l1.33-.31Z"/>
  <path d="M214.05,553.82l71.74-96.7c.27,1.17-.4,1.83-.9,2.74-9.17,16.64-29.26,43.45-41.19,59.3-9.08,12.06-19.12,23.86-29.65,34.66Z"/>
  <path d="M279.02,584.09l-.89,1.2-18.06-2.53c1.69-.29,24.51,7.36,23.01,8.55-22.98-9.34-45.48-13.02-70.41-8.87,21.04-5.32,45.45-3.66,66.34,1.66Z"/>
  <path d="M213.36,498.56c8.14-3.85,17.89-4.85,26.58-8.04,14.82-5.45,25.27-13.5,35.01-25.5-11.25,21.76-38.44,29.76-61.59,33.54Z"/>
  <path d="M333.17,434.11c.31,1.36-.72,1.52-1.56,2.1-7.46,5.17-16.28,8.89-24.09,14.75-7.47,5.61-13.58,12.48-21.06,18.01,12.35-15.09,28.84-26.72,46.7-34.85Z"/>
  <path d="M371.08,408.45l-50.09,20.38c13.8-10.68,33.07-16.04,50.09-20.38Z"/>
  <path d="M271.58,609.75l-42.64,8.54c-.27-2.04.1-1.92,1.72-2.6,9.52-4,30.2-3.47,40.92-5.94Z"/>
  <path d="M273.6,543.95c-4.88-10.63-7.08-23.43-3.71-34.86-.25,12.12,1.24,23.06,3.71,34.86Z"/>
  <path d="M384.62,428.18l-18.62,1.3-19.95,1.32c12.36-3.93,25.81-2.21,38.58-2.62Z"/>
  <path d="M291.88,321.61c-10.87-12.11-15.33,5.41-16.91,13.82,5.29-2.99,11.22,4.53,7.45,8.55.08-3.07-2.02-9.68-6.09-6.25,4.68,4.89.99,13.69-.69,19.4,4.06,3.68,16.09-18.37,15.58-21.7,2.66,6.06-9.39,26.18-16.77,23.26l-1.23-1.87c1.5-4.33,5.36-12.03,2.96-16.33-.89-1.59-3.48-1.75-3.75-3.92-.95-7.9,12.34-34.89,19.45-14.96Z"/>
  <path d="M275.63,434.1l6.77-49.99c1.36,16.64-1.41,34.12-6.77,49.99Z"/>
  <path d="M203.21,648.56l-19.49-3.1-19.76-6.11c13.1,2.99,26.19,6.09,39.26,9.21Z"/>
  <path d="M196.44,659.08c-11.76-.23-25.48-3.28-36.54-7.9l36.54,7.9Z"/>
  <path d="M253.75,664.76c-.54.42-1.96,1.48-2.48.56,6.41-4.54,6.76-12.08,8.79-18.75.68,5.47-1.83,14.64-6.31,18.19Z"/>
  <path d="M553.85,719.59l8.11-19.07c-.24,2.56-.65,5.15-1.25,7.66-.36,1.51-3.76,14.32-6.86,11.42Z" fill="#fff"/>
  <path d="M536.93,219.65l5.4-14.47c1.39,10.58.18,23.28,4.74,33.22,2.78,6.06,8.34,5.99,11.87,12.81,3.51,6.79,1.17,9.33,2.68,15.16.87,3.36,14.97,16.35,3.4,17.76-2.57.31-17.91-1.81-19.68-3.26-9.7-7.96,11.93-18.22-2.38-28.6-3.11-2.25-17.57-7.81-18.24-8.59-.75-.86-1.02-6.19-2-8.58-1.64-4-4.51-4.14-3.92-9.68.79-7.55,8.1-14.11,1.17-24.48l.04-76.66,16.92,95.38Z" fill="#fff"/>
  <path d="M50.9,286.09c-9.33-27.76-7.32-58.77-.33-86.84l.33,86.84Z" fill="#fff"/>
  <path d="M49.54,190.05c-5.66-7.04-8.69-17.74-8.09-26.63.25-3.73,2.51-6.98,2.71-9.19.32-3.42-2.2-9.74-2.05-13.52,8.04,13.8,8.39,33.67,7.43,49.34Z" fill="#fff"/>
  <path d="M54.96,296.62l2.03,27.62c-2.39-8.63-7.05-17.56-3.4-26.66.33-.82-.43-1.21,1.38-.96Z" fill="#fff"/>
  <polygon points="41.77 139.4 42.11 139.73 41.77 140.06 41.77 139.4" fill="#fff"/>
  <polygon points="51.24 287.41 51.58 287.74 51.24 288.07 51.24 287.41" fill="#fff"/>
  <path d="M142.96,775.5l-45.16-41.29-1.54-.14c-.93,12.17-1.94,24.03-.01,36.18-1.82-1.95-16.65-16.51-14.89-18.41,19.43-.83.67-13.22,2.29-21.74.74-3.89,11.82-13.18,11.93-19.05,14.81,22.4,28.18,45.13,47.37,64.46Z" fill="#fff"/>
  <path d="M135.52,164.4c1.41,8.16-2.35,5.29-7.91,8.43-4.61,2.61-7.15,6.79-12.41,8.99-6.06,2.54-17.15,4.39-22.18-.64-.7-6.32,36.35-15.43,42.49-16.78Z" fill="#fff"/>
  <path d="M70.95,394.9c-9.52-9.1-19.07-19.83-24.09-31.84l37.88,43.09c-5.36-2.65-9.55-7.2-13.79-11.25Z" fill="#fff"/>
  <path d="M149.06,695.25c-16.22-7.38-35.93-17.28-41.96-34.86,15.37,9.91,29.59,21.55,41.96,34.86Z" fill="#fff"/>
  <path d="M69.85,630.78c-12.85-4.63-15.89-19.63-24.38-28.6-5.28-5.59-15.89-9.43-13.23-19.46,3.25-12.28,22.05,5.52,24.4,12.56,1,2.98.58,6.37,1.54,9.03,1.09,3,6.04,7.21,7.94,11.36.91,1.99,4.63,14.11,3.73,15.12Z" fill="#fff"/>
  <path d="M186.28,734.72l-6.75-39.46c4.85-1.9,6.72,36.56,6.75,39.46Z" fill="#fff"/>
  <path d="M98.22,322.87c-13.26-2.06-12.14-16.66-8.39-26.24-1.11,4.91,13.01,23.4,8.39,26.24Z" fill="#fff"/>
  <path d="M464.31,109.91l2.57.53c2.25,4.3,2.58,9.74-1.4,13.16-2.76.36-6.32-12.52-1.17-13.7Z" fill="#fff"/>
  <path d="M561.23,541.38c2.12,4.43.68,9.31-2.31,13.08-4.56-3.97-4.92-12.69,2.31-13.08Z" fill="#fff"/>
  <path d="M95.76,68.19c-1.91-1.95-4.09-11.05.16-11.03,3.74.02,7.46,13.57-.16,11.03Z" fill="#fff"/>
  <path d="M511.87,250.57c-1.07.61-6.07-3.78-3.03-5.26,2.98.04,4.15,2.95,3.03,5.26Z" fill="#fff"/>
  <path d="M62.92,395.44c.62.6,1.97,5.34,1.52,5.77-6.41,1.22-5.41-9.57-1.52-5.77Z" fill="#fff"/>
  <path d="M91.51,374.9c-2.08,1.11-5.57-3.9-3.03-4.6s4.24,3.95,3.03,4.6Z" fill="#fff"/>
  <path d="M109.12,105.85c-.95.9-4.72-1.47-4.72-2.3.02-3.63,7.13,0,4.72,2.3Z" fill="#fff"/>
  <path d="M450.63,155.19c1.9-.47,2.38,3.51.65,3.94-1.9.47-2.38-3.51-.65-3.94Z" fill="#fff"/>
</svg>