<?xml version="1.0" encoding="UTF-8"?>
<svg id="Camada_1" xmlns="http://www.w3.org/2000/svg" version="1.1" viewBox="0 0 595.28 841.89">
  <!-- Generator: Adobe Illustrator 29.0.0, SVG Export Plug-In . SVG Version: 2.1.0 Build 186)  -->
  <polygon points="594.48 -.06 595.14 -.06 595.14 841.94 .14 841.94 .14 841.29 594.49 841.29 594.48 -.06" fill="#fff"/>
  <path d="M175.89,566.95c-4.58.43-13.55,2.69-17.88,4.41-.99.39-1.77-.37-1.43,1.48,24.55-4.57,55.07-7.48,74.61,11.13-22.64,1.95-45.52-.51-67.76-4.57-2.16-.06.09,1.23.54,1.44,10.23,4.75,39.99,6.91,51.82,7.09,19.11.3,45.82-8.3,48.78,18.96-9.23-5.22-19.19-1.61-28.28,2.16-8.91,3.7-20.71,10.85-25.07,18.79,8.13-7.48,18.03-14.28,28.5-17.98,6.34-2.24,13.75-4.93,20.27-2.3l-14.73,13.08c-4.23,3.22-6.87,12.51-10.17,15.37-4.7,4.07-19.85,8.3-26.15,10.18,8.43,1,16.94-3.19,24.86-5.9-1.56,7.49-3.05,15.24-1.3,22.91-16.97,2.04-34.16.25-51.05-1.95,16.44,5.75,34.4,5.96,51.64,4.64l.67,3.8-22.86,11.84c8.45-.45,15.9-5.49,23.23-9.17,1.05-.06,2.79,5.67,2.81,6.39.14,4.79-15.47,11.79-19.9,11.86-10,.17-23.37-11.86-32.99-14.99l14.39-5.22c-16.96.14-42.84,10.65-56.96-2.28-2.12-1.94-13.5-19.41-12.41-20.64,5.92,3.87,13.1,9.72,20.28,9.18-36.66-14.68-64.1-59.99-27.14-91,33.43-28.04,83.99-13.79,112.88,13.73-3.42-7.76-11.45-13.41-18.54-17.79-1.73-1.07-16.54-7.78-15.49-9.05,8.86-3.07,18.05-2.03,26.52,1.94-.44-4.01-12.85-5.48-13.37-6.94.22-7.73,4.75-11.85,10.19-16.5,8.63,2,4.83,4.82,7.11,11.01.82,2.23,3.94,6.08,6.21,5.57-1.99-1.93-6.52-11.14-3.95-13.16l15.73,1.04-10.86,18.92-14,8.24c.63,1.63,24.9,15.47,28.13,16.39.65.19,2.72.96,2.63-.34l-9.81-5.24c3.8.49,9.02-2.22,12.62-1.17.72.21,9.3,7.62,11.81,9.13,4.56,2.74,10.84,6.1,16.14,6.43-8.99-4.4-18.12-9.39-24.87-17.01l8.96-.2,5.43-13.55,7.2,15.05c-4.13-10.3-7.3-15.24-3.58-26.18.28-.81,3.66-8.95,4.56-8.52,1.89,2.94.05,6.95.36,10.78.56,6.84,2.9,19.32,7.92,24.16l3.85,2.36c-8.23-8.56-10.16-23.23-8.5-34.7,7.05,2.82,10.59,1.51,14.72-4.56,3.8-.01,13.76,32.2,12.76,36.94-.72,3.42-16.05,8.66-19.63,9.85,3.17,3.32,19.18-5.97,20.28-4.9-1.08,3.45-1.61,13.39-4.31,15.65-3.32,2.77-19.96,6.64-24.81,7.26,13.76.74,30.78-5.14,42.16-13.47,5.26-3.85,10.03-13.19,16.41-8.14l-10.47,8.85.96.31c2.71-1.09,8.52-8.52,10.64-9.06,2.76-.7,4.57,2.65,6.29,2.41,1.24-.18,17.12-11.54,21.14-13.54,26.85-13.35,73.7-19.34,98.42.88,41.09,33.62,4.57,94.73-38.5,104.89-12.98,3.06-27.53,2.99-40.71,5.45-1.59,3.06,24.18-.53,25.52.97-13.1,8.67-22.74,18.95-39.29,11.8-17.11-7.39-11.5-17.14-19.3-31.1l20.62,18.65c-9.53-11.67-18.42-22.06-32.28-28.6-2.45-1.16-6.63-1.32-8.36-2.77-2.79-2.34-5.45-15.38-9.75-18.41-.36-1.71,6.95-1.6,8.08-1.53,9.65.54,17.99,5.77,27.25,7.44-7.67-10.15-23.31-22.97-36.93-20.58-3.65.64-5.38,3.63-8.23,5.19.78-21.69,16.11-23.52,33.38-16.37l-8.49-5.55c13.36-17.04,24.11-8.48,40.45-5.12,8.65,1.78,24.36,5.45,32.36,4.1.15-.03,2.01-1.6,2.45-1.92-17.03-.35-34.56-3.46-50.4-9.82,20.47-9.27,43.7-6.3,65.45-4.6l-18.32-4.56c9.76-5.29,20.32-9.7,31.76-9.17l.97-1.31h-9.49c-8.94,0-20.13,6.51-27.48,11.19l-22.59-.72c9.22-11.7,25.62-12.4,39.27-14.39-13.98-1.97-27.6,1.05-38.92,9.18-1.97,1.41-4.51,5.27-6.28,6.15-8.5,4.23-23.34,5.4-31.16,9.43-4.14,2.13-9.52,6.83-12.01,10.58-3.25-2.63-11.76-.03-15.26,2.08-7.29,4.38-8.91,15.56-9.59,23.14-2.93-.08-7.83,6.41-8.97,6.74-1.58.47-10.31.37-12.34.15-8.48-.92-7.17-4.7-10.77-11.15,8.4-.14,18.19-.61,25.52-5.23-6.41.5-20.57,4.85-26.37,3.12-1.38-.41-4.78-4.86-6.92-6.17-4.96-3.03-9.84-1.01-8.6-8.75h11.12c-2.63-1.27-10.62-1.27-12.44-2.29-.78-.44-4.93-8.77-9.47-11.48-8.26-4.93-14.09-2.17-20.82-4.05-1.13-.32-11.19-8.54-14.64-10.24-6.81-3.36-13.54-3.46-19.05-5.83s-14.15-11.95-22.09-11.95h-13.09l-.98,1.3c10.12-.42,23.53,1.5,29.46,10.48-6.45.44-13.61-.59-19.96,0ZM190.61,646.84c-26.12-3.54-50.39-16.64-67.41-36.67,13.73,21.89,41.99,36.08,67.41,36.67ZM434.11,638.33c-24.53-4.63-47.4-14.85-68.72-27.51l27.04,17.14c13.19,5.11,27.58,10.48,41.68,10.37ZM370.63,650.75c31.46,27.14,76.92,10.63,96.74-22.05l2.74-6.09c-18.25,27.99-49.63,48.11-83.95,35.86-5.53-1.97-8.99-5.43-13.58-8.02-.58-.33-2.06-.92-1.94.31Z" fill="#fff"/>
  <path d="M106.18,401.95l-9.81,6.55c-1.42-5.84-1.55-14.38-4.28-19.64-.47-.91.14-1.65-1.61-1.3l4.59,21.88c-18.79,18.48-21.59,40.6,3.68,54.62,3.19,1.77,13.12,4.92,14.94,6.66,2.79,2.68,7.32,15.39,8.21,19.61.79-6.58-3.85-13.52-7.21-18.97,45.42,17.34-9.39,40.58-24.88,55.31-12.65,12.03-32.24,42.46-5.89,50.09-25.73-10.76.89-37.43,14.06-46.49,15.43-10.61,79.95-33.25,45.83-59.57-6.97-5.38-30.83-12.91-33.84-17.87-1.43-2.36-6.53-14.89-7.56-17.97-4.75-14.22,1.88-15.45,10.67-25.03,1.3-.29,12.94,19.34,15.65,21.62,5.72,4.82,11.39,4.91,18.01,12.1,7.81,8.48,12.79,23.49,19,30.1,2.92,3.1,15.27,8.63,18.13,13.61,2.61,4.52,1.25,12.33,7.04,18.17,11.31,11.38,28.05-6.22,30.44,12.82.34,2.67-1.66,6.29.54,9.65-6.3,5.94-10.4,10.58-12.09,19.43-4.42-1.5-10.45,3.74-13.59,3.94s-13.78-3.93-18.45-4.53c-32.45-4.16-71.36,13.28-76.49,48.36-18.52-11.96-39.83-18.8-61.43-22.85-5.41-11.53-11.97-31.8,5.81-35.39-1.51-16.59,26.03-44.18,41.46-29.73l6.62,8.75c-8.5-25.51-36.18-11.62-45.28,5.45-1.72,3.23-4.1,14.12-4.6,14.72-.18.22-3.62,1.24-5.04,2.49-9.38,8.25-5.79,11.7-4.89,21.8.08.9.89,1.6-.72,1.37-3.47-2.59-7.23-4.58-10.99-6.69-1.34-.75-3.1-.21-4.77-1.12-2.49-1.35-11.77-14.26-12.41-17.05-1.01-4.38-1.19-42.18-.34-46.86.6-3.29,17.35-15.07,20.97-17.97,1.15,1.26-12.12,27.54-13.46,31.38-.4,1.14-.67,2.08.69.69l15.76-35.97c13.79-15.46,20.37-33.48,37.89-45.25l21.98-35.63c5.09-2.64,14.55,11.11,17.66,14.71ZM77.38,423.56c2.31-2.42,3.31-6.63,3.91-9.82-2.09,2.55-3.11,6.65-3.91,9.82ZM63.44,460.04c1.69-2.15,5.31-12.89,5.44-16.17-3.5,6.05-4.22,17.11-12.14,19.04-2.25.55-2.45-.97-4.39-.63-4.21.73-30.44,30.4-34.51,35.62-.78,1-1.99,2.25-1.98,3.58,5.83-4.44,32.92-38.63,37.64-38.47.76.03.73,1.71,2.78,1.39.58-.09,6.84-3.95,7.17-4.36ZM126.79,449.11c2.6,6.59,6.88,13.16,12.45,17.65l-12.45-17.65ZM69.52,477.25l6.21-26.19c-5.32,7.47-4.28,19.93-7.23,27.47-.56,1.43-16.72,21.73-18.94,24.26-11.07,12.6-26,22.19-35.02,36.66l60.2-64.57c3.62-.91,10.18,11.32,14.89,12.1l7.37-4.87,12.43,20.01c-.24-3.33-10.2-20.59-11.78-21.3-3.9-1.75-6.25,4.88-8.06,4.84l-12.86-12.09-7.22,3.67ZM139.57,455.65l3.39,7.4c8.35,12.64,18.91,23.88,30.32,33.83-12.03-13.09-24.89-25.56-33.71-41.23ZM164.44,513.92l31.4,24.56-39.25-33.4,20.62,31.74-12.76-22.9ZM152.64,538.14l-14.39-14.4c2.61,5.98,9.14,10.68,14.39,14.4ZM106.16,534.22l-1.29.32,7.53,11.45-6.24-11.76ZM177.85,537.49v.65l.33-.33-.33-.33Z" fill="#fff"/>
  <path d="M520.52,456.96c-.14,5.71-2.39,13.93-2.02,19.32.24,3.56,2.62,4.29,2.66,6.45.06,3.2-5.97,10.51-7.22,13.82,1.66,1.17,6.17,6.49,6.45,8.05.89,4.84-3.99,6.09-6.44,8.97-10.88,12.78-21.26,26.15-35.33,35.69l11.09-37.67c.67-4.82,12.46-9.24,13.47-12.11.79-2.27-1.68-5.73-1.52-8.61.26-4.83,4.72-10.39,7.72-13.95l-.97-.32c-3.56,3.07-8.16,9.98-8.18,14.73,0,2.53,2.14,5.71,1.19,8.39-.62,1.73-9.7,5.39-11.95,9.66-1.44,2.72-1.64,8.57-3.16,10.26-1.92,2.14-22,12.52-26.61,15.62-2.03,1.36-5.76,3.12-6.6,5.51l32.72-18.98-8.03,28.63c-.58,1.08-7.77,5.3-9.3,6.74-.55.51-1.91,1.45-.03,1.28,9.71-7.18,19.56-14.4,28.19-22.88,3.14-3.08,20.1-23.94,22.08-23.53,6.29,7.93,15.51,14.73,12.62,26.16-1.63,2.19-10.83-1.44-13.79-1.41-10.54.1-12.9,11.08-10.82,19.67-7.01,1.01-14.88,2.59-18.95,9.19,6.13-5.33,12.35-7.09,20.19-8.61-.45-9.63-1.28-19.74,11.54-18.88,4.11.28,11.48,4.79,13.44-.67l39.26,25.53-9.35-7.99c-4.2-3.04-28.21-16.63-29.2-18.59-1.39-2.74-.44-6.65-2.12-10.32-1.5-3.27-11.03-12.42-11.43-15.13-.26-1.82,2.07-3.79,1.69-6.5-.74-5.25-10.99-7.72-1.64-15.45l40.28,41.89,1.31-.33-.35-8.82c5.61,4.93,20.22,21.57,26.52,23.57.72,1.02,1.78,1.04,2.02,2.28,1.04,5.36-.88,14.2-.06,19.99-8.85-2.54-19.69,1.12-23.57,9.82-11.52-14.22-36.31-13.53-49.38-1.94-2.8,2.49-6.97,10.51-7.55,10.82-.38.2-6.25-.54-8.55-.08-3.19.64-6.07,3.34-8.8,4.93-11.44-32.93-42.62-41.33-74.6-39.25-3.27.21-19.22,3.46-20.2,3.18s-1.56-2.52-2.71-3.2c-4.25-2.51-8.43-4.33-13.43-2.61-.19-1.12,0-1.45.67-2.27,1.16-1.41,22.26-17.09,25.03-18.87,6.28-4.03,5.93-1.5,10.14-2.56,1.54-.39,12.48-12.77,14.21-12.3,4.41,13.62-7.2,25.98-13.74,36.65,9.35-9.92,17.91-23.03,15.4-37.3l15.69,12.79-5.55,7.51c12.81-11.9,23.57-25.75,35.66-38.32,5.21-5.42,35.92-37.18,39.97-38.02,1.65-.34,1.18.09,1.94.39ZM415.12,538.8c-.43-.44-8.04,7.83-8.18,9.15.69-1.03,9.11-8.19,8.18-9.15Z" fill="#fff"/>
  <path d="M520.52,456.96c1.3.52,7.81,7.32,9.14,8.86,6.03,7,12.68,20.75,18.32,26.2,4.29,4.14,13.53,6.59,18.59,10.87,2.2,1.86,22.69,28.01,23.2,29.83.96,3.43-.41,9.51.13,13.28-.62-.36-1.29-.44-1.96-.65-6.11-8.63-20.53-16.48-27.18-25.53l-1.63,1.66.34,6.19c-4.86-7.04-38.29-34.42-38.83-40.38-.1-1.1,2.26-3.21,1.85-5.74-.32-1.96-2.73-2.64-3-3.94-1.14-5.38,3.46-14.65,1.03-20.65Z" fill="#fff"/>
  <path d="M417.74,411.78l-4.58-3.59c10.27,17.77,6.01,38.12.3,56.6-1.31,4.23-3.78,8.01-5.2,12.48-2.38,7.47-3.23,23.55-9.93,28.04-7.64,5.13-22.45-1.05-31.25.25-.44.07-1.24.87-1.04,1.15l10.47,2.62c-28.85,7.2-56.21-5.36-81.81-17.03l41.45-24.98c6.61-5.33,3.57-8.67,14.33-11.2,13.24-3.11,23.57-.02,34.55,7.38-4.69-6.66-12.86-10.37-20.79-11.93-7.77-20.28,3.45-55.27,28.64-55.51-4.21-2.61-10.39-.11-14.77,1.28l-.92-.93c2.6-7.75,24.18-36.01,32.23-34.28,2.64.57,8.01,8.54,9.25,11.1,6.36,13.09,5.06,25.62-.91,38.55ZM407.28,436.99c.39-3.14-.29-6.92,0-10.15-1.24,11.25-4.1,21.81-11.79,30.44,6.07-3.89,10.9-13.21,11.79-20.29ZM383.06,483.15c-17.73,9.51-36.81,2.03-53.66-5.58,14.06,9.58,39.29,18.81,53.66,5.58Z" fill="#fff"/>
  <path d="M215.49,398.03c-4.28-1.62-9.75-4.67-14.39-2.62,20.13,1.73,32.67,30.61,30.02,48.05-1.01,6.66-3.88,4.17-8.67,6.39-6.01,2.79-14.43,6.73-16.11,13.66,8.37-10,22.42-13.23,34.99-12.42,20.28,1.31,33.53,7.58,35.06,29.75.81,11.78-1.97,11.88-11.13,17.06-14.26,8.05-31.62,13.09-47.79,8.16l6.2-3.93c-16.65,2.17-29,11.63-35.19-9.96-3.7-12.89-6.8-21.75-10.95-34.22-5.42-16.28-8.87-36.72.66-52.05l-4.25,3.25c-6.71-11.11-6.27-25.02-.43-36.43,1.45-2.83,7.13-10.75,9.97-11.67,9.61-3.13,30.92,27.8,32.03,36.98ZM186.03,430.11c-2.08-.58-1.33,2.24-1.29,3.58.26,7.67,4.95,20.99,12.42,24.56-6.75-7.86-10.83-17.64-11.13-28.14ZM258.04,468.75c-14.61,7.08-30.35,15.23-47.12,13.41,15.74,5.25,34.55-4.42,47.12-13.41Z" fill="#fff"/>
  <path d="M320.84,202.94l4.52,22.47c-8.9,3.35-15.7,9.35-18.23,18.75l17.37-7.83-.35,11.76c11.11-5.7,10.95-17.93,24.87-6.55.81-3.13-6.98-10.77-7.03-11.45-.04-.43,3.7-6.51,4.41-7.53,1.58,6.32,4.77,14.22,5.23,20.64,1.01,14.08-3.85,49.77-14.03,59.92-4.56,4.55-30.18,19.95-36.07,20.88-11.34,1.79-40.63-16.36-46.78-25.8-6.76-10.38-13.07-41.44-11.59-53.54,1.25-10.26,10.93-22.14,17.18-29.97l1.57,14.36c-6.62.73-12.26,6.68-13.03,13.15l14.66-5.11,7.59,13.62,1.37-.91,4.25-9.47,9.43,3.83-5.71-9.48c2.1-6,37.8-33.35,40.37-31.73ZM339.2,259.88c-6.12,3-10.49,6.28-17.84,5.07-1.39-.23-15.14-6.18-6.68,1.45,7.55,6.8,21.47,2.74,24.52-6.52ZM282.26,262.5c-9.78,3.96-16.75,2.31-26.18-1.31,4.77,11.44,19.64,11,26.18,1.31ZM296,289.34c-7.46-6.85.79-10.41-1.95-18.32l-5.02,12.1c1.58,3.03,3.22,5.76,6.97,6.23ZM282.91,297.86c2.48,7.55,35.67,4.04,30.76-1.97-8.64,6.92-20.9,4.9-30.76,1.97Z" fill="#fff"/>
  <path d="M4.72,761.41c6.37-1.75,7.35,3.72,10.68,6.33,13.28,10.37,22.92,15.9,35.44,27.74,7.85,7.42,21.1,17.1,27.85,24.52,3.99,4.39,6.78,13.37,13.07,13.77-5.93-4.08-8.61-12.81-13.4-17.37-2.77-2.64-6.59-3.69-9.51-6.2-5.61-4.8-9.74-13.09-17-17.03,5.27-.77,21.53-10.15,25.19-10.15,2.57,0,4.78,1.7,6.81,3.01,10.56,6.82,21.01,18.18,31.93,25.68,11.04,7.58,24.04,12.57,33.92,21.72l.96-.97c-7.42-8.51-18.2-12.87-27.48-19,4.1.38,11.77-6.32,14.67-6.2,7.46.31,32.31,26.97,42.27,29.45h-14.73c-.88,0-11.01-10.46-14.39-9.83l12.75,9.83h-27.82c-1.46,0-22.95-13.02-25.14-14.79-4.6-3.71-7.61-10.22-10.84-12.72-2.9-2.25-10.99-3.88-13.13-5.85-2.45-2.26-5.14-14.93-7.19-15.74l-.97.33c3.65,4.32,3.69,13.25,8.16,16.72,2.92,2.26,9.84,3.36,13.01,5.97s5.96,8.39,10.3,11.96c6.95,5.72,16.2,8.92,23.51,14.13h-24.55c-2.49,0-16.24-10.81-18.33-13.75,2.8,6.68,10.62,9.78,16.04,13.74l-29.13-1.29v1.3c-4.36,2.15-9.23-4.1-12.03-4.29-1.76-.12-2.5,1.94-4.19,1.59-1.01-.21-2.28-2.51-3.49-3.12-11.31-5.73-18.3-14.99-28.19-21.57-2.14-1.43-6.18-2.02-7.76-3.37-2.06-1.77-2.29-5.53-5.59-8.16-2.72-2.17-8.45-4.04-11.74-5.61v-30.77ZM57.08,817.06c-3.91-4.63-7.28-10.73-11.44-15.06s-10.52-7.38-15.31-12.18c-2.94-2.95-5.15-7.18-8.27-10.06l5.89,9.16c3.49,5.57,11.29,8.45,15.42,12.07s8.47,12.6,13.7,16.07ZM30.24,802.01c-5.35-6.93-9.49-16.02-18.32-18.98,7.93,4.6,11.52,13.24,18.32,18.98ZM152,826.22c-.51-1.35-1.83-2.19-3.27-1.95.09.96,2.79,2.39,3.27,1.95ZM73.11,830.83c-.31,1.02,1.49,1.85,1.98,2.59.32-1.01-1.48-1.85-1.98-2.59ZM78.36,832.12v.65l.33-.33-.33-.33Z" fill="#fff"/>
  <path d="M354.92,375.76c5.61-11.1,11.49-24.7,7.86-37.31,17.74,6.85,37.97,6.29,54.32,16.7-25.84,4.37-37.78,31.64-49.42,52.04-.76-15.08,2.28-30.15,7.54-44.18l-1.31-.33c-3.26,8.27-6.84,16.64-8.21,25.52-.7,4.56-.44,22.77-1.03,23.81-.18.32-.87,1.29-1.24,1.08-2.28-8.2-4.41-16.55-3.94-25.22l-1.31-.97c-.24,5.76-.72,11.5.08,17.26.53,3.85,3.68,10.36,3.82,12.57.2,3.28-4.11,10.52-3.25,14.69-7.65-1.05-14.02-2.2-21.85-1.89-13.96.56-23.32,4.72-36.37,7.49-6.43,1.36-13.23,1.54-19.67,2.91,24.23-23.82,53.67-47.91,63.96-81.7,2.46-8.08,5.92-19.75,2.81-27.63,23.14,6.57,11.83,29.27,7.21,45.16ZM346.4,392.79l-27.16,35.34c9.9-11.04,21.17-21.4,27.16-35.34Z" fill="#fff"/>
  <path d="M244.29,343.36c2.8,29.13,28.4,60.11,49.07,79.22l-11.43,11.43-31.74-34.67c6.57,13.63,18.11,25.11,29.17,35.36-.73,5.69-4.71,1.44-7.9,1.31-6.52-.26-19.55-.72-25.53,0-3.75.45-7.39,2.48-10.8,3.92-.11-5.09-1.35-10.01-2.41-14.94-.5-2.34-3.29-8.15-3.33-9.06-.06-1.26,2.06-5.08,2.29-7.27.92-8.8.41-16.92-.49-25.69-2.73,6.01-.42,14.18-1.39,21.19-.11.78-1.4,9.05-3.17,7.61-2.21-3.57-.25-6.37-.68-10.13-1.76-15.41-7.79-29.74-14.4-43.56l-1.18,1.5c6.13,13.85,12.19,29.85,11.67,44.97-8.29-20.74-19.62-46.34-44.53-50.08l51.06-15.39c-3.17,12.02.57,24.82,4.92,35.99-3.22-17.77-10.88-36.59,11.44-44.51.31.8-.65,1.48-.65,1.64,0,3.52-.33,7.73,0,11.13Z" fill="#fff"/>
  <path d="M264.58,337.79c1.72.3,1.16-.3,1.6-1.31,2.6-5.94,1.8-15.77,1.67-22.25,8.03,3.7,19.5,13.22,28.45,13.77,9.94.62,21.85-8.31,30.15-13.12,2.13-.12.31,1.3.31,1.63v14.4c0,.69,1.65,6.6,2.3,6.87l.65-9.82c1.03-.35,14.6,8.52,15.41,10.12,1.62,3.18-1.31,8.49-1.48,12.01-2.11,2.37-40.61,3.94-41.75,15.85,11.51-9.07,27.04-9.96,40.89-13.11-2.36,20.1-27.73,34.48-46.14,35.36v-9.49s-1.31-.98-1.31-.98l-1.7,11.13c-17.58-4.95-40.32-16.83-44.14-36.33,14.44.92,30.49,4.18,42.55,12.76-8.72-12.36-29.18-13.49-43.1-15.15-.86-.54-2.18-11.83-1.45-13.18,1.08-1.99,14.17-8.33,17.07-9.65v10.48ZM287.48,358.09l-8.49-18.33c.74,6.81,4.04,13.19,8.49,18.33ZM314.99,339.76l-8.2,17c4.33-4.49,8.56-10.71,8.2-17Z" fill="#fff"/>
  <path d="M589.9,401.3v57.62l-45.83-.98c11.44.26,22.97,1.71,34.37,2.34,6.35.35,13.28-4.72,11.45,6.5l-39.92-1.97,39.93,3.6v60.56c-8.1-7.4-13.4-20.88-21.58-27.85-4.93-4.21-15.67-7.15-19.02-10.44-4.19-4.11-11.32-17.82-16.1-23.84-3.48-4.39-7.37-8.29-11.37-12.19l16.35-4.26c-4.6-11.01,9.81-18.36,17.67-11.78-.81-4.83,3.62-9.7,8.52-9.17-11.42-18.86,5.55-37.62,25.53-28.15ZM539.5,457.62c-.05-.05-1.25-.05-1.3,0-.84.84,2.14.84,1.3,0ZM540.48,457.61v.65l.33-.33-.33-.33Z" fill="#fff"/>
  <path d="M455.06,836.71c16.78-6.82,31.98-17.11,46.68-27.62,3.55-2.54,15.27-13.31,17.22-14.2,1.05-.47,1.98-.94,3.18-.79l51.39,23.93c-5.55.87-5.32,6.35-7.14,8.42-1.04,1.18-5.45,2.14-6.26,6.26-6.92-6.78-13.07,3.75-13.88,4.02-.52.18-10.1.18-11.04,0-.47-.09-7.51-2.99-8.66-3.46-.81-.33-.06-2.97-5.05-2.5-.49.05-9.01,2.16-9.47,2.34-1.83.69-2.42,3.58-2.64,3.58h-24.87c5.11-4.96,8.83-11.53,14.39-16.05,7.97-6.47,17.48-8.59,20.94-20.62-3.75,3.86-5.86,8.98-10.12,12.46-3.11,2.54-7.01,3.71-10.17,6.2-6.33,4.98-10.59,12.73-16.69,18.01h-27.82ZM518.55,818.37c-1.47-6.02-7.13-1.61-8.51,1.96l5.6-3.94,2.91,1.98ZM553.24,821.66c-6.01-.51-10.38-8.06-16.35-5.89l3.59.59c3.82,1.58,8.3,7.02,12.76,5.3ZM538.18,823.61c.23-6.33-9.73-5.59-10.14-1.31,3.63-3.51,7.78-3.38,10.14,1.31ZM540.14,822.3c.12-.12.95-2.68,1-3.26l-2.29,2.94c-.08.56,1.24.37,1.29.32Z" fill="#fff"/>
  <path d="M4.72,342.38c12.71-7.46,32.89,1.31,26.84,17.67,13.19-2.02,28.53,8.64,24.42,23.46-1.31,4.72-4.44,3.01-6.09,6.66,6.74-3.13,14.84.04,20.94,3.27l-66.11,7.86v-58.93Z" fill="#fff"/>
  <path d="M4.72,167.56c11.88-3.84,29.69-.32,30.77,14.4,13.08-1.96,20.23,8.08,13.74,19.64l26.84,6.22-71.02,8.85-.34-5.91,26.18-3.26-26.18,1.96v-41.9Z" fill="#fff"/>
  <path d="M272.11,669.75c5.98-.9,12.33-4.53,17.99-6.56-9.54.42-19.16,7.87-29.35,4.49-1.99-3.19,4.82-41.96,13.96-43.17,3.65-.31,26.48,13.02,28.77,16.46,2.33,3.49,3.54,17.03,1.53,20.13-.21.32-2.23.77-3.16,1.76-4.53,4.85-8.99,9.76-13.71,14.43l16.33-12.46c-1.55,4.51-8.05,17.93-12.81,18.65-3.6.54-27.34-6.51-29.37-9.17-1.06-1.38-1.11-2.92-1.01-4.56,3.36-.35,7.57.49,10.8,0Z" fill="#fff"/>
  <path d="M274.4,496.89c6.35-5.7,5.14-15.26,3.64-22.94-1.62-8.26-6.39-16.6-13.45-21.23-.27-7.02,29.96-13.18,34.65-11.77,9.42,2.84,21.67,30.22,12.04,38.17-2.15,1.77-31.7,17.9-33.59,18.19-1.33.21-2.05-.1-3.28-.41Z" fill="#fff"/>
  <path d="M257.23,700.04c12.36-1.74,30.29,8.45,30.94,21.78.49,10.13-16.3,30.48-25.93,34.34-14.96-3.46-18.94-47.6-10.44-54.35,1.01-.81,4.08-1.58,5.43-1.77Z" fill="#fff"/>
  <path d="M336.85,745.44c-4.81-4.92-13.97-19.08-14.51-25.79-1.11-13.61,21.77-31.99,34.73-26.85,1.89.75,2.25.92,3.04,2.85,4.31,10.6-1.39,42.88-9.14,51.66-6.25,7.09-8.8,3.57-14.12-1.88Z" fill="#fff"/>
  <path d="M282.25,622.6c-4.57-.44-1.78-6.17-7.82-2.91-11.79,6.36-20.18,43.61-14.91,54.79,1.33,2.81,3.61,3.11,4.4,5.73-16.75,3.11-24.66,2.97-27.82-15.05-2.51-14.3-.44-25.61,7.65-37.53,9.97-14.69,28.32-27.64,38.49-5.04Z" fill="#fff"/>
  <path d="M350.32,576.12c-13.13-7.87-14.98,2.28-23.34,8.4-1.04.76-10.88,6.45-11.34,6,6.54-17-.86-37.89-8.38-53.48-1.93-4.01-4.9-3.55-2.08-10.02,11.01,8.22,19.51,19.44,26.82,30.77,2.53-3.28-14.22-23.12-17.31-26.22-3.53-3.54-11.22-5.7-7.46-11,25.05,4.65,42,31.03,43.1,55.55Z" fill="#fff"/>
  <path d="M277.01,519.81c-.57,1.66.69,7,.32,7.88-.53,1.29-19.23,14-19.28,19.95,3.25-1.59,17.41-18.45,20.27-16.7l1.17,7.37-11.06,28.55c-14.83.73-25.19,8.17-37.88-4.17,13.07-3.75,15.75-17.75,23.29-27.11,5.63-6.99,14.31-13.7,23.18-15.77Z" fill="#fff"/>
  <path d="M4.72,794.15c2.89,2.11,8.21,3.2,10.81,5.23,2.79,2.18,3.64,6.46,5.6,8.15,2.24,1.94,7.08,2.7,10.74,5.63,5.36,4.28,11.11,9.19,16.4,13.71,1.24,1.06,4.03,5.67,4.38,5.77.91.27,2.06-.81,3.3-.43,2.37.72,3.23,6.74,8.72,2.52l2.24,1.64-62.19.34v-22.92l7.87,12.1c1.08-3.35-7.87-13.57-7.87-14.39v-17.35ZM27.62,827.54c-1.5-3.29-3.63-7.6-6.53-9.82,1.22,3.48,3.82,7.33,6.53,9.82ZM31.55,826.23c-1.06-2.55-1.43-6.42-3.91-7.86.74,2.59,1.53,6.39,3.91,7.86ZM21.08,822.31c-2.35-.61-1.47,3.72-.32,4.58l.32-4.58ZM18.45,823.62h-1.29s.04.93.04.93l1.92,2.34-.66-3.27Z" fill="#fff"/>
  <path d="M334.63,373.15c1.16,1-1.64,4.43-2.21,5.32-7.09,11.05-15.25,20.18-28.56,23.49,4.52,2.06,9.33-3.32,13.73-3.62l-21.36,21.89-23.14-23.85c4.96,1.33,11.99,8.07,17.01,5.58-15.65-4.15-26.69-16.18-33.36-30.46,9.27,8.09,26.32,20.81,38.99,21.22,10.98.36,32.09-10.58,38.9-19.56Z" fill="#fff"/>
  <path d="M353.28,536.83c.88-.06,2.73-1.38,3.98-1.27l.95.95-5.25,13.41c8.76-2.15,6.35-16.89,13.59-17.57,5.91-.56,12.28,12.09,11.24,17.55-6.3.81-13.08,1.98-18.29,5.92,10.61-1.97,23.49-7.05,33.39-.97l-39.93,22.58c-2.91-11.84,8.91-13.34,15.7-19.63l-16.03,8.49-12.44-29.45c4.34-.21,8.77.29,13.09,0Z" fill="#fff"/>
  <path d="M290.11,687.42c16.77-8.62,22.93-33.13,15.7-50.07l1.52-.22c20.29,9.89,16.72,26.55,6.61,43.03-7.13,11.63-10.72,14.12-23.83,7.25Z" fill="#fff"/>
  <path d="M400.73,836.71c4.85-2.82,10.93-6.82,16.4-8.15,3.79-.92,5.95-.11,8.94-.87,4.25-1.07,14.4-11.24,16.88-11.23l22.57,12.4c-1.81,1.59-14.86,7.85-16.03,7.85h-19.31l12.74-11.16c-3.57-.96-13.37,11.16-14.38,11.16h-14.07l5.56-5.9c-1.62.14-6.73,5.9-7.19,5.9h-12.11ZM455.71,830.17l-6.54-3.28c1.14,1.31,4.68,4.75,6.54,3.28Z" fill="#fff"/>
  <path d="M231.19,254.64c-2.56-2.01-6.02-5.54-9.65-3.77-1.73,1.88-.97,10.83,1.79,12.28l.41-9.79,7.8,5.19c.63,1.28-7.1,8.44-4.92,11.8,2.11-2.22,4.1-9.95,8.48-8.19,5.99,2.41.72,6.37.18,9.98-1.15,7.66,3.27,9.45,9.34,11.95-1-3.53-6.96-5.55-7.33-9.57-.17-1.86,1.32-4.28,1.84-6.07,4.18-2.4,7.74,16.76,7.76,19.33.05,8.1-14.04-2.15-16.65-4.36-8.49-7.19-14.31-17.54-12.71-29.04,1.43-10.26,11.34-8.11,13.66.25Z" fill="#fff"/>
  <path d="M271.12,517.85l-11.76,6.89-6.56.31c-.72,2.52,3.3.75,3.92,1.31.04,9.5-27.77,4.69-30.8,1.02-2.25-2.73-1-5.56-1.26-8.88,8.46,3.19,17.73,5.02,26.83,4.59-4.36-.69-28.88-4.68-28.19-10.14.68-2.23,9.13-1.27,11.49-.99,11.96,1.44,23.89,6.75,36.34,5.88Z" fill="#fff"/>
  <path d="M348.37,290.65c-.22-9.98,5.08-6.05,9.32-9.81,6.2-5.5-2.17-12.34,1.16-17.36,4.01-6.04,7.64,5.06,9.15,8.18.67-4.91-1.76-8.37-4.52-12.01,7.5-8.91,10.98-6.96,9.12,4.81,3.05-4.34,3.3-14.04-4.21-12.39l-12.8,10.11c6-12.74,23.97-26.47,22.75-1.33-.55,11.21-16.72,32.74-29.95,29.79Z" fill="#fff"/>
  <path d="M345.42,527.01c6.17-.66,12.97-3.57,19-5.11,1.36.35,1.39,6.85.55,7.8-1.88,2.13-20.02,4.69-23.5,4.55-8.99-.36-13.99-10.3-22.56-13.78l46.48-5.25c.04,1.73.44,2.57-1.09,3.82-4.64,3.79-24.15,5.89-30.33,7.96,3.68-.28,7.84.39,11.45,0Z" fill="#fff"/>
  <path d="M326.77,509.34c.26,1.76-.18,1.01-.95,1.32-1.68.69-17.27,3.84-18.39,3.62-1.76-.34-5.73-7.18-10.12-4.96l7.85-4.57c-14.33,5.05-26.95,4.31-41.05-1.15l-.83-1.46c10.01-6.23,15.61,2.73,25.53,3.26l-8.49-4.9c0-.65,10.78-6.16,11.43-6.17,4.51-.06,27.83,14.91,35.02,15.02Z" fill="#fff"/>
  <path d="M252.15,699.21c-.47-.51,4.37-12.53,4.92-13.08.73-.73,10.29-2.98,12.33-4.58,8.91,4.7,13.69,16.13,22.68,21.89l-4.91,8.2c-7.96-10.48-21.94-17.78-35.01-12.43Z" fill="#fff"/>
  <path d="M292.07,511.96c-5.42,5.25-8.62,11.92-7.85,19.63,8.58-33.54,32.75-16.22,10.13,6.55-16.39.14-21.02-26.14-2.28-26.18Z" fill="#fff"/>
  <path d="M589.9,834.09c-2.44-1.43-5.87,2.62-6.22,2.62h-12.76l2.28-2.63c-1.67-.71-4.31,2.63-4.57,2.63h-19.96c2.34-6.23,9.1-2.44,13.35-.69,1.78-.65.34-4,1.97-5.93s4.46-.71,5.35-1.88c.35-.47-1.53-3.81.96-6.21,1.51-1.46,4.66-1.27,6.48-2.03,1.12-.46,1.9-2.5,3.14-2.81,2.08-.52,3.82,1.69,5.6,1.26.39-.1,2.53-4.08,4.39-3.97v19.64Z" fill="#fff"/>
  <path d="M347.72,754.21c4.11-4.67,7.18-7.63,9.66-13.58,11.88-28.48,3.84-59.31-8.69-85.93,2.58,1.88,5.2,3.25,7.16,5.92,6.72,9.16,12.1,45.65,11.53,57.28-.49,10.2-7.04,35.57-19.67,36.3Z" fill="#fff"/>
  <path d="M317.61,474.63c1.96-12.84-5.1-26.27-14.4-34.69,9.67-1.57,11.05-5.86,17.56,3.05,6.86,9.38,11.68,27.08-3.16,31.64Z" fill="#fff"/>
  <path d="M360.15,451.06l-18.32,3.93c-.29-7.71-4.23-14.75-8.51-20.94,7.85-1.8,16.14-1.13,23.84,1.35l3,15.66Z" fill="#fff"/>
  <path d="M229.23,836.06l-44.13.6-17.38-10.1c.01-.69,12.01-5.6,12.7-5.56,4.17.24,17.16,13.22,21.32,14.13,4.02.87,11.48-3.89,16.05-3.72,3.99.15,7.6,3.85,11.44,4.65Z" fill="#fff"/>
  <path d="M254.76,685.47c-11.21,22.83-15.13,51.68,2.94,72.02-12.1-.79-17.2-23.46-17.37-33.05-.08-4.53,8.05-37.57,9.92-38.9.65-.46,3.42.14,4.51-.07Z" fill="#fff"/>
  <path d="M335.27,646.83c-4.54-2.46-9.46.21-13.72-2.32-.6-.36-9.46-8.61-9.77-9.2-2.41-4.61,2.03-9.2,6.31-9.94,7.77-1.35,15.79,15.08,17.18,21.46Z" fill="#fff"/>
  <path d="M330.05,466.78c1.36-12.39-4.11-21.91-11.13-31.42,15.37-7.24,28.78,27.16,11.13,31.42Z" fill="#fff"/>
  <path d="M243.64,510c4.6.23,11.2-4.39,15.27-4.38,5,.02,16.29,5.31,22.02,6-.74.93-1.5,2.8-2.61,3.26-3.91,1.63-29.8-1.54-34.68-4.89Z" fill="#fff"/>
  <path d="M320.21,716.88l-15.01-21.99c-.12-1.06,4.07-3.42,4.34-3.45,1.06-.08,13.66,15,13.83,16.04s-3.51,7.3-3.17,9.39Z" fill="#fff"/>
  <path d="M301.7,695.48c2.06,1.56,1.85,4.15-.63,5.2-8.95,3.78-18.76-10.56-23.39-16.52l24.03,11.32Z" fill="#fff"/>
  <path d="M256.73,439.93l-8.17,8.58-14.74-.73c.29-2.89,7.15-7.85,9.49-7.85h13.42Z" fill="#fff"/>
  <path d="M258.69,836.71c11.72-6.83,18.39-10.4,29.46,0h-29.46Z" fill="#fff"/>
  <path d="M274.4,441.23c-1.98.67-4.88,1.75-6.5,3-5.95,4.6-5.27,10.1-14.45,5.51,2.97-6.58,14.23-13.99,20.94-8.51Z" fill="#fff"/>
  <path d="M345.09,513.93c-10.49,4.96-24.48,4.75-36,3.91,12.19-1.99,23.61-8.23,36-3.91Z" fill="#fff"/>
  <path d="M108.79,453.03c-9.37-5.04-15.75-14.56-9.48-24.88l9.48,24.88Z" fill="#fff"/>
  <path d="M350.34,282.14l3.58-13.72c7.17,4.12,3.42,12.28-3.58,13.72Z" fill="#fff"/>
  <path d="M362.11,296.55l-18.98,5.22,5.04-7.08c4.86.19,9.29.08,13.94,1.86Z" fill="#fff"/>
  <path d="M297.96,704.45c.19,2.31-6.38,15.16-7.52,15.04-5.16-4.26,3.11-14.36,7.52-15.04Z" fill="#fff"/>
  <path d="M208.95,273.64c9.56-3.3,7.51-.92,13.07,5.56-4.52-.93-9.47-2.46-13.07-5.56Z" fill="#fff"/>
  <path d="M419.06,365.94l-6.54-6.53c6.84-3.55,6.2,1.03,6.54,6.53Z" fill="#fff"/>
  <path d="M262.54,231.8l.08,2.21-9.8,3.3c1.4-2.7,6.73-6.93,9.72-5.5Z" fill="#fff"/>
  <path d="M525.75,836.7l-7.85-.31c2.47-4.85,5.68-4.8,7.85.31Z" fill="#fff"/>
  <path d="M180.14,358.09c.81.78-4.45,5.51-5.22,5.89.21-1.54-.51-4.73.29-5.92.6-.89,4.76-.13,4.93.04Z" fill="#fff"/>
  <path d="M307.78,632.43c-4.96,2.01-6.79,3.58-11.12-.65l11.12.65Z" fill="#fff"/>
  <path d="M346.41,330.59c.2.2-.14,3.13-.01,3.93l-3.91-2.63.32-1.3c.76.15,3.39-.21,3.6,0Z" fill="#fff"/>
  <path d="M246.25,329.94c2.95-2.3,5.23,3.41,1.65,2.61-.43-.09-1.77-2.52-1.65-2.61Z" fill="#fff"/>
  <path d="M515.93,836.7l-3.92-.32c1.25-1.84,3.72-2.67,3.92.32Z" fill="#fff"/>
  <polygon points="589.9 835.4 588.93 836.71 585.32 836.7 589.9 835.4" fill="#fff"/>
  <path d="M343.13,234.99l-3.91-1.63c1.49-2.22,3.12.36,3.91,1.63Z" fill="#fff"/>
  <polygon points="530.34 836.7 526.41 836.38 528.67 835.37 530.34 836.7" fill="#fff"/>
  <path d="M280.29,238.92c-.66.67-2.63-1.28-1.96-1.96s2.63,1.28,1.96,1.96Z" fill="#fff"/>
  <path d="M354.91,241.22c-.76-6.37-7.28-17.9-7.58-21.61-.28-3.41,4.76-12.67,2.99-17.34-4.04,14.17-9.88,27.79-20.93,37.97-.28-5.48.4-11.14-.1-16.6-1.05-11.46-8.8-21.43-1.22-30.88l-1.61-.34c-5.34,6.97-14.38,10.65-21.5,15.86-13.02,9.54-26.6,19.42-33.84,34.26-12.48-23.77-5.08-54.34,18.01-68.41-9.68,2.53-18.23,11.96-22.51,20.69-2.02,4.13-2.82,10.16-4.76,13.57-1.37,2.39-6.71,6.78-8.95,10.03-9.54,13.86-17.99,27.24-12.54,44.73-2.63-6.95-9.52-12.88-12.3-19.46-11.54-27.38,5.62-52.42,25.71-69.56-23.17,13.55-40.58,43.4-29.14,70.04-8.68-1.18-11.3,6.86-10.47,14.1l-.97.96c-14.7-12.12-32.14-22.31-51.39-24.88,14.03-9.47,31.62-13.08,48.43-12.44l-.31-1.32c-17.68-17.61-41.09-33.08-67.1-32.73,22.67-18.69,51.8-28.55,80.86-19.66,2,.61,12.42,6.1,13.39,5.26-12.04-26.08-27.43-52.8-53.67-66.79,15.57-6.43,35.93-5.35,52.49-3.07,29.11,4.02,52.81,20.22,70.56,43.01.37-4.11-5.9-9.24-6.34-12.18-.22-1.45.69-4.85.48-7.16-1.74-18.92-1.59-38.28-6.9-56.59,27.1,17.63,44.71,51.33,42.23,83.79,27.33.3,43.21,27.22,47.09,51.44,19.08-1.19,38.03,1.65,56.33,6.84l-50.4,23.24c17.74,1.3,34.93,6.42,51.05,13.75-21.49,7.16-44.23,15.19-63.47,27.5l17.98,3.62.99,1.29-31.41,7.54c7.78-7.84,16.81-16.43,17.64-28.18.56-7.89-1.14-20.21-11.76-18.65,5.65-9.05,6.27-18.25.64-27.49-.06,4.66,1.76,8.54,1.34,13.44-.9,10.6-10.1,19.38-17.04,26.49-.38-4.47.52-9.71,0-14.08Z" fill="#fff"/>
  <path d="M329.86,617.52c9.83-1.81,21.56,6.81,28.31,13.27-6.17-2.24-12.75-4.95-19.39-5.48-3-.24-11.42,1.12-11.99.93-6.01-2.01-2.15-7.76,3.07-8.72Z" fill="#fff"/>
  <path d="M358.83,690.7c-12.28-4.01-26.58,5.1-33.39,15.06-1.49.74-12.67-13.17-12.3-15.29,10.07-8.42,19.25-18.74,18.21-32.85l-1.31-.96c.14,11.83-6.85,23.77-17.01,29.79,7.96-10.2,13.82-23.88,11.77-37,24.66-2.99,29.92,22.87,34.03,41.24Z" fill="#fff"/>
  <path d="M4.72,539.45c3.94,3.62,7.18,12.77,11.83,15.37,4.11,2.3,14.25,4.77,17.98,8.83,4.43,4.8,5.86,17.68,14.38,20.96l-7.54-10.12c20.99,1.87,41.18,10.74,59.22,21.29,1.18,11.91,2.12,20.6,8.09,31.19,4.55,8.07,11.05,11.88,15.19,17.72,6.72,9.47,8.2,23.91,21.11,30.43,13.58,6.86,23.84-.43,34,1.31,12.56,2.15,25.58,20.98,43.06,17.23,5.35-1.15,15.39-10.12,18.15-10.72,2.33-.5,4.45,1.83,6.71,1.87-6.65,20.55-13.53,34.92-6.72,56.8,16.55,53.17,55.88-17.01,62.44-38.07.54-.83,1.95-1.8,2.9-1.72,3.77.35,15.77,27.48,18.1,31.62,4.44,7.89,18.1,26.16,28.2,23.88,18.21-4.11,22.31-54.58,15.54-68.94,17.24,13.19,25.63,11.85,43.13,1.26,4.44-2.69,11.08-8.82,14.95-10.58,5-2.28,12.55-2.84,18.47-5.1,30.66-11.67,55.73-48.71,48.61-82,5.74-4.54,10.91-6.45,18.14-4.12,6.93-22.32,41.91-25.97,56-8.46,3.55-8.63,14.17-12.9,22.87-9.91l.38,28.9c-16.5-1.88-34.9,11.59-28.15,29.46-26.49-9.79-65.83,22.32-43.85,48.45-5.03.97-8.87,3.55-11.28,8.04-.63,1.17-.37,3.62-.5,3.75-.36.36-7.28.32-10.16,1.29-5.16,1.74-11.38,7.95-13.06,13.12-.8,2.46-.83,8.08-1.07,8.42-.13.19-3.95,1.94-4.18,1.93-.52-.01-5.81-4.63-8.65-5.63-16.48-5.77-34.06,2.37-41.53,17.74l-.55,5.67c3.71-21.25,35.65-32.86,50.1-15.71l6.85-2.62c-3.77-12.98,11.14-25.6,23.56-22.25-.71-7.73,6.2-12.4,13.09-13.1-24.73-25.29,16.88-59.12,42.89-46.5l-1.63-11.42c1.9-13.34,15.46-20.98,28.14-19.33v49.11c-15.61,2.04-36.03,11.1-42.66,26.4-2.61,6.03-2.11,11.98-5.25,17.67-10.89,19.71-58.08,28.34-77.79,38.73-5.47,2.88-12.78,7.27-14.39,13.78l5.6-6.86c22.7-15.91,55.19-17.97,77.36-34.58,15.42-11.55,9.16-15.51,15.98-29.2s26.27-22.31,41.15-25.29v18.33c-11.83-.41-23.9,7.27-26.2,19.31.01,1.93.79.69,1.18-.14,5.87-12.7,10.32-16.5,25.02-18.52v77.91c-1.53-.32-2.2-.85-3.87-.32s-20.2,14.03-21.68,15.69c-3.23,3.59-3.99,10.45-7.49,14.77-4.02,4.96-13.14,9.09-18.34,13.08-1.68,1.29-3.35,5.87-7.19,6.29-3.78.25-5.81-6.07-12.39-3.6-2.14.8-14.93,12.33-18.5,14.89-4.99,3.58-27.07,19.46-31.16,20.57-6.48,1.76-20.55-14.29-27.57-13.25-3.53.52-11.94,10.29-16.3,11.3-2.51.58-5.05-.41-8.67.43-7.18,1.68-14.48,8.27-21.52,10.56l-102.83-.02c-5.64-1.84-10.82-9.01-16.99-9.25-6.78-.26-15.65,8.26-22.25,9.24-4.89.73-8.72-1.04-12.41-1.22-2.23-.11-5.36,1.52-7.83,1.2-3.69-.47-10.86-7.18-15.78-7.2-3.7-.02-10.78,4.74-14.4,4.3-3.28-.4-17.26-14-21.1-14.66s-11.45,5.49-15.46,6.33c-9.08-7.13-17.25-15.63-27.73-20.74l-18.03,7.64c-9.18-4.43-32.9-29.8-40.89-31.17-6.64-1.14-21.37,9.56-29.21,10.2-5.09-8.51-13.75-10.93-21.3-16.62-4.92-3.71-9.45-7.51-14.38-11.15-3.26-2.4-3.14-6.52-9.89-4.84v-116.87c12.42-9.54,35.12.6,35.35,16.69,13.65-11.02,36.49-4.28,37.31,14.41,3.44-3.19-1.21-9.66-3.6-12.44-7.94-9.23-22.94-12.06-32.08-3.29-3.29-16.66-22.43-25.18-36.98-17.01v-62.2c17.75-7.41,41.74,8.37,36,28.15l8.85,1.16c13.31-18.32,50.87-7.3,40.25,17.18l9.82.34-7.19-2.62c5.46-20.01-19.28-30.83-35.57-22.47-3.05,1.56-6.62,6.18-7.07,6.37-.61.27-4.52-2-6.03-1.38l-.93-.83c2.49-19.55-20.71-35.09-38.13-26.55v-37.98ZM176.86,745.69l-1.94-5.58c-12.21-20.34-68.88-16.19-88.71-32.4-20.6-16.84,23.2-27.69,25.69-41.07,4.09-21.99-46.79-30.73-61.22-35.36-11.45-3.67-27.13-7.33-28.29-21.78-1.35,10.88,8.96,16.15,17.32,19.65,12.84,5.37,64.23,14.89,68,28.26,1.31,4.65-2.05,8.25-5.26,10.9-10.78,8.89-71.16,24.11-45.39,45.62,20.62,17.21,64.54,13.7,89.03,24.54l-17.54-6.34c-16.66-2.41-111.72-14.79-62.32-44.4,14.41-8.64,36.23-11.73,43.86-27.81,6.65,18.29-41.81,26.12-29.07,45.12,9.23,13.77,58.61,18.19,75.54,24.61,8.54,3.24,16.44,7.19,20.3,16.02ZM483.87,659.26c5.85.74,12.96,5.92,9.45,12.42-10.22,18.92-77.38,17.37-91.26,38.99,22.3-21.43,63.29-15.58,86.73-32.4,11.22-8.05,7.66-18.46-4.92-19.02ZM131.13,710.91c-.26-.18-1.25-4.36-2.4-5.78-4.45-5.48-13.36-5.34-19.52-3.36-2.98-5.86-6.63-12.63-14.16-13.03,6.07,3.23,12.12,7.29,12.44,15.05,8.34-3.24,21.84-3.22,22.25,8.51,4.85-1.45,9.41.27,13.93,2.11,1.9.9.77-.33.14-.79-4.27-3.11-11.92-2.18-12.68-2.71ZM18.14,689.39c-3.55-.51-8.1.38-11.78,0l-.98,1.31h11.45c16.87,0,27.15,26.5,12.12,36.99,8.38,2.79,6.97,8.39,8.82,15.37,15.99-13.9,39.92,1.86,38.3,21.62,2.24-5.02,13.12-2.21,13.7-2.65.14-.1.17-2.21,1.04-3.22,10.06-11.63,29.26-9.7,40.18-.3,1.76,1.51,2.41,4.46,4.63,4.86-6.58-14.14-29.6-18.24-41.54-9.14-1.52,1.16-5.21,6.06-5.59,6.23-1.23.54-8.92-1.34-11.77,1.6,1.19-18.92-22.08-32.77-37.96-21.6-.4-4.84-1.54-11.54-7.21-12.45,12.66-13.35,4.51-36.02-13.42-38.62ZM172.94,693.33c-7.23-.91-45.43,3.14-24,13.85,10.91,5.45,50.41,11.12,48.08,28.85-1.69,12.85-38.29,20.15-26.04,36.84,10.99,14.96,78.31,12,97.48,27.55,8.04,6.52,3.2,12.93-5.19,14.68,9.94.51,14.51-8.48,6.48-15.32-18.65-15.89-87.74-13.71-97.47-27.56-9.59-13.65,17.2-21.45,23.25-29.77,10.33-14.21-9.31-23.88-20.3-28.18-3.89-1.52-33.69-8.54-31.48-13.75,5.81-4.09,13.79-4.63,20.66-5.88l-9.49,5.9c-1.86,4.53,10.33,9.22,13.73,10.48,11,4.09,47.83,9.25,46.69,24.99-1.08,14.86-46.49,21.02-14.04,36.64,14.05,6.76,32.16,9.6,47.57,11.35-11.86-2.84-24.06-4.35-35.7-8.16-7.6-2.49-19.2-5.98-21.94-14.1,0-9.17,28.35-13.44,25.4-29.31-3.18-17.13-50.46-18.16-60.67-30.36-.38-3.39,14.58-7.25,16.96-8.74ZM174.9,692.67c-.05-.05-1.25-.05-1.3,0-.84.84,2.14.84,1.3,0ZM535.56,735.22c4.09-19.99,30.91-32.77,46.16-16.38-13.48-18.64-42.13-4.87-47.15,14.43-11.66-9.18-39.83-.69-43.2,13.73-1.41,6.03,1.56,10.21,1.41,12.78-.07,1.17-4.18,6.24-2.38,9.5-6.04-3.08-11.55-4.29-17.35,0-1.37,1.01-4.08,4.96-4.39,5.1-2.42,1.07-9.2-.7-11.64,4.07,2.63-.78,4.74-2.99,7.61-3.23,2.49-.21,3.97,1.38,4.16,1.28.26-.14,1.3-3.25,3.28-4.91,5.51-4.63,13.33-3.56,19.32-.34,1.43-1.87.03-3.89.6-6.58.34-1.61,2.11-3.28,2.2-4.31s-1.66-4.35-1.81-6.46c-1.37-19.75,29.18-29.68,43.18-18.65ZM425.39,767.75c16.68-17.58-9.32-31.84-24.64-34.18l-7.87-.96c13.26,2.9,46.82,12.44,33.01,32.03-12.25,17.36-72.64,21.41-94.23,28.84-28.72,9.87-9.63,20.17,8.61,23.5l6.13.08c-12.62-1.27-44.6-11-16.71-21.62,23.26-8.86,79.91-11.04,95.71-27.68ZM392.5,766.93c15.32-10.64,5.33-20.41-8.14-24.5,7.17,4.15,20.8,10.64,11.44,20.28-17.12,17.64-84.49,16.38-93.53,35.43-7.91,16.68,16.5,22.81,28.4,23.5-9.69-2.72-34.07-6.52-27.61-22.04,7.16-17.18,71.28-20.07,89.42-32.67ZM534.69,767.72c4.28-2.98,12.85-11.37,13.92-16.5l-.6-4.2c-2.03,15.39-21.78,24.92-35.02,29.47-10.68,3.67-29.59,5.95-38.26,12.15-1.65,1.18-3.94,4.89-4.62,5.2-2.18.99-7.14-.27-9.16,2.28,1.99-.94,9.22-.77,10.36-1.41.22-.12,1.02-2.76,2.78-4.09,13.62-10.3,42.55-10.3,60.59-22.88ZM316.94,755.52c-.71-1.09-1.87.76-1.3,1.96.82-.07,1.69-1.35,1.3-1.96ZM162.47,758.15c-20.3,9.67-24.3,26.43-.62,35.64,23.44,9.12,51.87,7.86,75.24,18.03-3.81-3.6-9.48-4.85-14.39-6.22-21.46-5.99-109.84-10.4-60.23-47.45ZM292.73,776.47c1.1,1.25,2.97-2.59.98-2.6-.68,0-1.37,2.15-.98,2.6ZM251.49,784.34h-1.96v.64c.9-.06,2.17.46,1.96-.64ZM455.05,800.04c-14.91-16.5-45.85-18.08-49.73,8.51,8.27-25.99,31.75-22.09,49.73-8.51ZM404.66,806.6c-3.37-.77-6.8-1.34-9.55,1.24l-.92,2.67c2.47-3.73,5.44-3.55,9.48-2.59l.99-1.33ZM394.84,812.47l-2.81-2.75c-11.02-6.18-29.95,1.63-32.53,14.54,6.31-13.25,22.18-19.28,35.34-11.79Z" fill="#fff"/>
  <path d="M589.9,812.48c-.14.26-4.77,3.11-5.06,3.18-1.5.35-3.57-.79-5.68-.54-1.79.21-2.79,1.91-3.97,1.97-.42.02-4.3-4.08-6.64-5.18-5.43-2.57-11.55-2.96-17.06-5.19s-11.28-7.27-17.22-9.3c4.14-1.69,3.98-4.69,6.2-6.55,4.05-3.4,10.59-5.73,14.42-9.79l-8.18,17.01.99-.64c4.2-3.43,13.3-27.49,17.33-33.09,1.15-1.6,19.44-15.31,20.92-15.75.96-.28,1.88-.48,2.88-.22l.96,28.95c-7.64,6.36-18.87,7.89-20.82,19.43,3.92-10.15,12.32-12.72,20.94-17.67-1.12,5.13,1.48,30.7,0,33.39ZM573.53,768.61c-9.4,7.01-10.92,20.97-20.62,28.79,10.97-6.16,12.74-19.99,20.62-28.79ZM576.81,794.14c.05-.05.24-1.38-.32-1.29l-2.5,1.43-6.33,5.45c1.21-1.22,8.73-5.16,9.14-5.58Z" fill="#fff"/>
  <path d="M589.9,4.53v79.22c-14.2-3.4-30.77,5.42-35.33,19.37l-13.76.92c11.07-15.83-7.7-29.76-22.91-28.15,27.65-30.01-19.48-63.5-46.42-42.82-13.67,10.5-13.68,28.04-1.37,39.54-2.44-.15-5.78,4.94-6.97,5.14-1.3.22-5.5-4.51-11.04-3.85l-2.28,1.33c5.11-1.31,10.05.74,12.76,5.23l9.49-7.2-6.42-8.3c-6.95-11.33-1.97-25.44,8.83-32.16,27.58-17.17,69.9,16.6,40.79,43.74,16.47-1.51,37.21,13.16,22.25,29.46,6.33-1.4,11.88-3.28,18.32-.64,2.41-12.2,11.29-17.24,22.44-19.67.72-.16.41-1.28.48-1.28h9.82l1.31,1.31v53.03c-14.28-4.09-26.7,1.26-39.93,5.57l24.57-5.56,15.36,2.27v13.42l-60.87-6.54,60.87,7.85-.11,70.93-2.5,1.75c-6.02-14.92-21.91-4.86-29.8,2.45-14.08-15.89-39.43-6.09-38.94,15.23-4.5-.33-9.15.1-12.42,3.6,4.32-.93,8.64-4.53,13.07-1.64-.75-20.77,24.14-32.92,37.69-15.67,9.58-6.92,23.43-18.58,30.72-2.02l2.29-1.3v47.8l-34.7-4.26,34.7,5.9v121.45c-18.89-9.54-37.81,8.58-28.2,27.73-4.86.26-6.41,7.49-7.12,8.02-.33.24-6.43-.61-8.21-.39-7.45.91-11.54,6.3-10.14,13.75-3.58.03-7.44.82-10.82,1.94-15.57,5.19-38.64,31.57-50.73,44.2-8.26,8.63-16.29,17.69-23.66,27.09l-18.92-12.67c-3.86.44-12.04,11.78-15.68,13.07-1.93.69-3.96-.03-5.38.51-3.44,1.31-29.35,23.54-30.58,22.11.05-2.65-.83-5.78-2.06-8.08-1.76-3.31-8.18-7.25-8.9-8.78-1.12-2.39-1.55-11.19-.05-13.46,8.09-5.52,18.9-2.95,26.89-4.53,12.05-2.39,12.57-25.29,15.35-34.4,4.8-15.72,11.6-24.65,11.34-43.07-.07-5.14-2.98-14.5-2.63-18.24.41-4.39,5.29-11.29,5.9-18.36,1.13-12.93-3.1-15.39-4.56-24.96-.82-5.38,1.48-14.52-2.69-18.92-7.85-8.29-44.79-12.84-57.48-17.8-3.96-1.55-7.44-6.54-12.66-7.63s-7.82,2.29-11.63,1.17c-6.84-2-8.48-6.89-7.08-13.58.94-4.5,9.78-8.12,13.89-9.67,9.99-3.78,20.76-4.77,31.11-7.19l-11.12-4.57,43.2-11.15-20.3-6.2c-1.16-.9-.24-.95.43-1.55,2.02-1.83,14.5-6.83,17.92-8.27,15.15-6.38,30.59-12.11,46.46-16.06l-51.06-16.69,50.41-21.27c-21.82-5.6-43.18-11.56-66.1-9.84l-.02-7.54c12.31-5.02,25.66-7.59,38.99-6.89,5.61.3,11.08,2.36,16.65,2.01-19.27-5.99-38.88-4.52-57.59,2.61-4.43-17.92-18.01-35.19-36.01-40.6,6.79-20.75,5.73-45-6.56-63.49l-1.29.96c8.09,11.64,9.86,28.06,9.19,41.95-.15,3.16-1.52,23.71-7.93,18.99-.87-35.33-19.47-71.69-52.32-86.78,7.72,21.39,6.93,44.96,9.16,67.43-31-33.96-82.12-40.14-124.36-26.18l20.89,13.47c15.16,13.38,26.8,29.42,35.39,47.75-34.35-14.32-70.86,1.59-96.2,25.53,26.07-2.2,50.82,9.75,69.38,27.16-18.47.27-36.63,7.02-51.06,18.33,24.15-.44,44.49,12.4,62.47,26.89,4.96,7.28-11.21,6.66-15.16,9.62l-.83,1.46c8.43,2.85,20.24,5.55,27.94,9.71,4.12,2.23,7.2,6.49,11.99,8.3,3.53,1.33,9.89,1.31,11.13,1.97.46.24,4.08,7.12,5.56,8.84,1.72,2,9.87,7.75,10.13,8.35.57,1.32.98,9.23.34,10.63-.23.5-8.94,5.51-9.48,5.62-3.06.66-6.64-2.86-10.63-2.23s-10.02,8.16-13.56,9.4c-16.28,5.73-37.8,6.94-53.07,15.66-5.55,3.17-6.39,3.61-7.17,10.5-.3,2.65.77,6,.51,7.72-1.2,8.09-7.48,12.33-6.41,25,.49,5.8,5.66,14.82,5.86,18.39.11,2.04-1.87,6.77-1.96,9.76-.22,6.93-.24,13.89.89,20.76,2.4,14.61,11.01,27.13,14.17,41.47-3.6-2.17-6-5.82-9.21-8.46-2.41-1.99-5.5-2.29-7.5-4.28-8.82-8.78-11.94-27.38-25.88-36.32-3.06-1.97-8.51-3.24-10.7-5.01-1.04-.85-15.25-20.67-15.34-22.01,7.65-10.08,22.11-10.59,31.99-15.61.92-.47,1.64.13,1.3-1.61-19.62,3.16-58.18,26.04-52.57,49.64,5.26,22.09,86.78,29.57,43.62,63.52-21.59,16.98-53.82,22.31-66.32,50.52,2.74-14.21,14.1-24.93,24.93-33.65,9.66-7.78,34.24-19.77,35.29-32.82,1.77-22.19-49.03-18.8-51.7-47.8-2.57-27.86,39.23-49.34,62.17-54.67-5.96-.46-14,3.06-19.79,5.42s-11.03,5.36-16.44,8.27c-5.88-3.73-13.53-21.65-21.92-13.24-6.9,6.91-14.75,27.09-21.03,35.27-3.1,4.04-11.87,8-15.35,12.15s-7.13,12.63-10.97,17.84c-9.88,13.42-20.18,24.25-33.92,33.83v-37.98c9.66-3,18.67-.84,26.84,4.58l-3.47-3.39c-7.22-4.18-15.42-5.04-23.36-2.49v-44.52l69.37-8.84-18.31-6.23c8.86-14.94-7.53-29.64-22.25-28.15,4.7-16.25-16.78-25.8-28.8-17.02v-124.4c18.04-1.32,36.56-2.42,54.45-4.82,38.5-5.16,7.9-8.92-7.98-12.22,4.15-6.32,1.3-16.88-6.07-19.13-2.44-.74-6.5-.05-7.7-.81-.45-.28-3.1-7.04-5.23-9.18-6.77-6.78-18.95-8.12-27.48-4.27v-52.71c9.02-10.47,21.3-17.26,34.49-8.97l8.05,7.98c.63-6.09,6.67-10,12.44-7.86-15.17-24.96,34.39-54.63,47.15-28.81l9.81-1.59,7.21-9.88c-24.37-30.29,26.66-52.75,51.04-43.54-23.66-12.66-78.18,13.22-52.37,43.21-3.79-.18-5.77,8.44-6.5,8.9-.36.22-6.44-.87-8.15.85-15.82-23.67-61.52,2.6-50.8,28.89-5.45-.38-7.52,3.12-11.36,5.84-12.07-14.16-29.82-10.44-41.01,2.67V4.53h585.18ZM438.45,84.66c-8.43-5.75-17.53-10.31-26.57-14.99,28.95-25.08-15.05-52.47-39.29-49.44,18.89,1.7,52.56,14.42,45.85,39-4.07,14.92-39.33,20.91-52.39,17.98,29.51-5.86,53.59-28.85,10.97-42.09-19.71-6.12-42.63-8.62-62.68-3.09l.91,1.25c18.57-4.71,40.49-2.38,58.79,2.86,10.76,3.08,34.38,11.86,20.39,25.86-13.65-4.98-28.36-6.47-42.78-7.7,4.99,1.76,40.47,5.88,41.23,9.49-10.97,7.31-23.69,11.78-36.65,14.06,18.31,2.91,38.33,1.96,54.65-7.64,36.26,16.07,106.56,73.03,37.64,99.96,7.18-4.83,15.52-9.97,18-18.98,9.36-34.01-40.6-62.24-66.44-72.01,14.38,9.06,31.09,15.8,44.16,26.86,13.62,11.53,30.46,33.53,16.96,50.98-12.74-8.9-26.69-16.5-41.47-21.53l39.85,22.7c.81,2.48-2.6,3.96-4.31,5.33-4.95,3.95-10.88,6.64-16.56,9.28,13.98-.05,33.12-9.4,38.14-23.05,9.67-26.29-19.12-51.93-38.4-65.07ZM110.76,27.45c-8.41,2.72-17,6.85-23.58,12.74-.87.78-2.7,4.25-3.03,4.32-.73.15-2.21-.9-3.14-.67-1.5.36-3.55,1.95-4.51,1.81-.52-.07-3.72-3.04-5.48-3.67-13.08-4.69-29.17-2.28-39.16,7.7-4.67,4.67-4.09,9.71-11.43,11.15l7.12-.72c4.44-15.17,23-21.17,37.53-18.09,3.81.81,10.71,5.7,11.34,5.75,1.86.15,2.35-1.73,3.93-2.02s4.11,1,4.81.63c.36-.19,2.98-5.2,4.7-6.78,5.8-5.34,14.61-7.49,20.89-12.15ZM277.67,28.1c-25.71,3.52-54.3,11.35-77.02,24.11-7.38,4.14-31.7,18.09-19.52,27.61-27.71,12.12-74.68,42.48-83.64,72.83-11.54,39.08,24.98,51.29,56.46,50.9-14.6-1.96-29.82-3.1-42.52-11.47l11.11-12.08-12.8,10.5c-15.06-8.18-14.96-27.02-9.3-41.45,9.71-24.76,50.74-53.98,74.38-65.03,6.86-3.21,9.96-3.84,17.75-2.9-4.31-1.59-14.23-1.35-13.73-8.1.61-8.22,29.31-23.48,37.3-25.93-8.68,5.94-43.15,24.93-16.36,31.41l-4.27-2.61c-.72-1.41,27.11-9.61,29.65-10.29,7.56-2.01,15.36-3.35,23.05-4.78-19.13.36-37.4,7.38-55.17,13.67-6.47-7.19,8.42-16.17,13.59-19.57,24.39-16.02,42.79-17.99,69.45-25.49,1.06-.3,1.91.65,1.57-1.33ZM107.16,77.2v.65l.33-.33-.33-.33ZM258.03,77.21l-36.65,5.22,7.43-.09,29.22-5.14ZM147.41,84.41c-39.84,15.67-121.51,88.78-49.74,119.17-15.3,16.22-33.14,48.46-4.07,61.36,22.82,10.13,45.49-2.52,68.76,3.24,36.85,9.12-2.45,36.84-16.31,45.66-9.7,6.17-45.3,22.11-42.07,36.26s32.06,3.7,40.4.04c16.82-7.37,32.68-19.31,48.2-29.04-23.13,9.86-52.67,38.38-79.46,34.32-3.57-.54-8.16-3.2-8.05-7.37.33-12.43,38.54-30.34,48.45-37.21,10.14-7.04,36.97-27.42,19.91-39.97-13.14-9.67-35.69-4.41-50.57-3.79-3.8.16-7.64-.08-11.44,0,4.56-11.5,12.57-20.6,19.32-30.75-8.7,8.93-15.64,19.26-20.41,30.79-43.04-2.78-34.13-40.29-11.33-62.59,13.89,4.29,28.66,5.04,43.19,4.94l-2.35-1.24c-93.54.35-81.98-62-21.41-105.36l29-18.45ZM215.49,87.69c-1.72.27-4.37.94-5.24,2.6,1.82-.02,4.31-.96,5.24-2.6ZM418.4,116.48l-7.84-4.92c-12.24-5.95-25.59-11.78-39.29-12.75,16.08,4.94,32.06,10.06,47.13,17.66ZM377.18,329.28c31.67-30.48,114.39-1.77,141.71-33.39,18.03-20.86-11.92-32.39-21.26-45.53-11.39-16.02,14.52-20.35,25.06-27.93,21.13-15.18,18.36-32.91,8.64-54.24-9.58-21.03-26.85-40.96-43.88-56.28,18.2,20.42,50.66,52.67,41.1,82.99-4.48,14.22-19.22,19.69-31.91,24.39-7.11-15.62-22.38-28.7-37-37.33,13.58,10.52,27.75,21.7,35.73,37.28.16,2.84-24.18,8.76-25.28,22.59-1.46,18.32,31.31,26.5,24.17,43.82-3.96,9.6-22.16,14.03-31.59,14.85-3.01-8.08-5.96-16.71-12.18-22.96l11.12,23.56c-20.38,2.62-41.79,3.9-61.22,11.12-8.97,3.33-19,7.98-23.21,17.04ZM110.34,154.05c15.66-14.11,34.54-23.63,52.76-33.97-13.75,5.47-27.46,12.69-39.47,21.41-.99.72-20.34,16.08-15.83,15.59,1.16-.68,1.7-2.28,2.53-3.03ZM195.85,139.41l-7.85.97c-17.67,5.23-34.53,14.06-48.42,26.2,17.66-11.14,35.71-22.16,56.27-27.17ZM418.4,157.73c-6.65-6.53-15.29-12.77-24.21-15.7l24.21,15.7ZM53.17,166.25c3.35-3.48,5.86-8.06,7.84-12.44-3.39,3.24-6.21,8.05-7.84,12.44ZM507.42,191.13c-3.16-10.05-8.7-19.54-17.01-26.18,7.35,7.5,10.44,16.41,15.36,24.91.5.87-.06,1.62,1.64,1.27ZM473.72,167.56v.65l.33-.33-.33-.33ZM469.46,222.57c.82,2.18,2.66,3.64,4.26,5.21,0-.77-3.3-6.2-4.26-5.21ZM153.72,280.41c-15.13-15.58-68.33,10.67-92-3.24-15.5-9.11-11.83-29.78-2.03-41.86l-2.76,2.47c-8,10.89-10.77,27.47-.16,37.79,18,17.52,60.27-.99,83.14,1.3,5.61.56,17.24,3.8,14.21,11.64-2.57,6.65-38.42,26.17-46.57,31.99-10.81,7.71-34.92,26.78-20.7,41.53,14.37,14.91,54.21-.86,68.42-11.48-17.9,8.09-37.08,19.6-57.74,15.2-6.71-1.43-13.57-6.3-13.59-13.89-.05-20.86,45.46-41.91,60.55-52.69,5.61-4.01,17.01-10.76,9.24-18.76ZM536.22,261.85h-1.96v.64c.9-.06,2.17.46,1.96-.64ZM586.63,269.69c-7.64-2.85-16.71-3.22-24.78-4.35s-16.46-3.41-24.97-2.84c16.45,2.87,33.06,5.73,49.74,7.19ZM552.6,353.51c2.15-2.59,1.48-9.23,1.33-12.79-.83-19.34-6.9-40-13.76-57.92,6.67,22.98,13.7,46.43,12.44,70.71ZM68.2,354.81l.02-10.13c1.76-20.1,7.57-39.35,13.07-58.61-7.7,17.16-11.46,36.02-13.73,54.68l.63,14.06ZM96.35,313.56l6.23-26.17c-4.71,7.61-7,17.52-6.23,26.17ZM45.95,328.62l7.86-37.97c-4.23,11.58-7.78,25.79-7.86,37.97ZM212.87,293.93l-6.87,1.96c-11.52,5.36-23.99,11.62-31.08,22.59,10.48-11.42,23.81-18.6,37.94-24.55ZM529.67,336.48c-1.54-8.48-2.69-17.48-7.53-24.86l7.53,24.86ZM468.8,329.93c-.25-4.67-.05-11.13-2.6-15.05l2.6,15.05ZM532.55,425.79c46.19-23.83,22.6-65.05-15.6-79.52l-3.3-17.65c-1.52-1.4-.88-.29-.76.76.23,1.89,3.45,15.73,2.05,16.29-24.51-9.3-50.83-13.24-76.9-15.72.27,1.3,1.34,1.11,2.29,1.3,30.9,6.06,113.95,13.61,116.16,57.97,2.17,43.43-64.24,42.96-91.17,56.09-18.62,9.08-28.31,26.09-1.34,31.87l5.47.08c-28.99-3.77-24.72-20.87-2.19-31.32,20.79-9.65,44.8-9.56,65.29-20.13ZM464.55,478.56c-4.33.18-8.75,0-13.09,0-8.79,0-16.79-9.84-13.73-18.97,10.53-31.44,106.05-35.42,89.66-76.62-8.94-22.46-61.04-33.69-82.46-37.99l26.46,7.25c.94,12.77-3.29,24.6-6.5,36.63,5.38-11.15,7.6-23.73,8.18-36.02,2.94-1.24,38.68,14.04,41.19,18.38,3.18,5.51-3.36,24.67-4.21,31.39,4.8-8.64,5.52-20.29,5.89-30.12,8.24,6.73,13.77,13.63,10.8,24.89-6.3,23.91-69.13,33.08-86.35,55.05-16.11,20.55,9.38,32.79,26.45,25.49-.96-.4-1.84.63-2.29.65ZM505.46,409.16c-.79-25.05-37.92-22.49-39.27.66-10.73-5.29-20.08-.13-23.02,11.01l-7.08,1.42,7.84.66c2.87-12.23,12.12-17.65,23.57-11.13-1.4-18,25.54-26.29,34.58-10.68l3.39,8.06ZM479.94,462.85l7.87-10.13,3.9-8.2-11.77,18.33ZM436.96,486.64c-1.45,1.18-3.21,4.05-5.16,5.64-4.99,4.1-10.85,6.96-16,10.83,8.72-3.68,17.6-9.1,22.88-17.04-.28-.39-1.5.37-1.72.56Z" fill="#fff"/>
  <path d="M326.07,234.31l-15,4.95c2-5.26,16.75-18.18,15-4.95Z" fill="#fff"/>
  <path d="M377.18,329.28c4.21-9.06,14.24-13.71,23.21-17.04,19.43-7.22,40.84-8.5,61.22-11.12l-11.12-23.56c6.22,6.25,9.17,14.88,12.18,22.96,9.43-.82,27.64-5.26,31.59-14.85,7.14-17.32-25.62-25.5-24.17-43.82,1.1-13.83,25.44-19.75,25.28-22.59-7.98-15.58-22.15-26.76-35.73-37.28,14.63,8.63,29.9,21.71,37,37.33,12.69-4.7,27.43-10.17,31.91-24.39,9.56-30.32-22.9-62.57-41.1-82.99,17.03,15.31,34.3,35.24,43.88,56.28,9.72,21.34,12.49,39.06-8.64,54.24-10.55,7.57-36.46,11.9-25.06,27.93,9.34,13.14,39.29,24.67,21.26,45.53-27.32,31.61-110.05,2.91-141.71,33.39ZM500.64,255.54c-18.79-19.92-.47-21.28,14.42-30.25,25.22-15.19,27.33-31.81,13.97-57.72,5.06,18.8,3.76,34.53-13.97,45.28-11.95,7.25-45.23,14.76-43.58,32.23,1.36,14.49,37.76,27.16,21.24,45.6-16.81,18.76-79.51,10.56-101.79,27.81,32.51-14.81,98.28,3.16,125.02-21.6,18.65-17.27-4.79-30.2-15.31-41.35ZM389.93,318.8v.65l.33-.33-.33-.33ZM382.73,322.73v.65l.33-.33-.33-.33Z"/>
  <path d="M438.45,84.66c19.27,13.14,48.07,38.78,38.4,65.07-5.02,13.65-24.16,23-38.14,23.05,5.68-2.64,11.61-5.34,16.56-9.28,1.71-1.36,5.12-2.85,4.31-5.33l-39.85-22.7c14.78,5.04,28.73,12.64,41.47,21.53,13.51-17.45-3.33-39.45-16.96-50.98-13.07-11.06-29.78-17.8-44.16-26.86,25.84,9.78,75.8,38.01,66.44,72.01-2.48,9.01-10.82,14.15-18,18.98,68.92-26.94-1.38-83.89-37.64-99.96-16.32,9.6-36.34,10.55-54.65,7.64,12.95-2.28,25.68-6.75,36.65-14.06-.76-3.61-36.24-7.73-41.23-9.49,14.42,1.24,29.13,2.73,42.78,7.7,13.99-13.99-9.63-22.78-20.39-25.86-18.3-5.24-40.22-7.57-58.79-2.86l-.91-1.25c20.05-5.52,42.97-3.03,62.68,3.09,42.63,13.24,18.54,36.22-10.97,42.09,13.07,2.93,48.32-3.06,52.39-17.98,6.71-24.58-26.96-37.3-45.85-39,24.24-3.02,68.23,24.36,39.29,49.44,9.04,4.68,18.14,9.24,26.57,14.99Z"/>
  <path d="M147.41,84.41l-29,18.45c-60.57,43.36-72.13,105.7,21.41,105.36l2.35,1.24c-14.53.11-29.3-.64-43.19-4.94-22.8,22.3-31.72,59.81,11.33,62.59,4.78-11.53,11.71-21.86,20.41-30.79-6.74,10.14-14.76,19.25-19.32,30.75,3.8-.08,7.64.15,11.44,0,14.87-.62,37.42-5.88,50.57,3.79,17.06,12.56-9.76,32.93-19.91,39.97-9.91,6.87-48.12,24.78-48.45,37.21-.11,4.17,4.47,6.83,8.05,7.37,26.8,4.06,56.33-24.46,79.46-34.32-15.52,9.73-31.38,21.68-48.2,29.04-8.34,3.65-37.13,14.32-40.4-.04s32.38-30.08,42.07-36.26c13.85-8.82,53.16-36.53,16.31-45.66-23.27-5.76-45.94,6.88-68.76-3.24-29.07-12.9-11.23-45.14,4.07-61.36-71.77-30.38,9.9-103.5,49.74-119.17Z"/>
  <path d="M277.67,28.1c.33,1.98-.52,1.03-1.57,1.33-26.67,7.51-45.06,9.47-69.45,25.49-5.17,3.4-20.06,12.38-13.59,19.57,17.77-6.29,36.04-13.31,55.17-13.67-7.69,1.43-15.48,2.76-23.05,4.78-2.54.68-30.37,8.88-29.65,10.29l4.27,2.61c-26.79-6.48,7.69-25.48,16.36-31.41-7.99,2.44-36.69,17.71-37.3,25.93-.5,6.75,9.42,6.52,13.73,8.1-7.79-.94-10.89-.31-17.75,2.9-23.64,11.05-64.67,40.27-74.38,65.03-5.66,14.43-5.77,33.27,9.3,41.45l12.8-10.5-11.11,12.08c12.7,8.37,27.92,9.51,42.52,11.47-31.48.39-68-11.82-56.46-50.9,8.96-30.35,55.93-60.71,83.64-72.83-12.18-9.52,12.14-23.47,19.52-27.61,22.71-12.76,51.3-20.59,77.02-24.11ZM221.05,44.47v.65l.33-.33-.33-.33ZM216.8,47.08c1.27-.01,2.45-.71,3.25-1.64-.82.07-3.18.67-3.25,1.64Z"/>
  <path d="M153.72,280.41c7.77,8-3.63,14.75-9.24,18.76-15.08,10.78-60.6,31.83-60.55,52.69.02,7.59,6.89,12.47,13.59,13.89,20.66,4.39,39.84-7.11,57.74-15.2-14.21,10.62-54.05,26.39-68.42,11.48-14.22-14.75,9.9-33.82,20.7-41.53,8.14-5.81,43.99-25.33,46.57-31.99,3.03-7.84-8.6-11.08-14.21-11.64-22.87-2.29-65.14,16.22-83.14-1.3-10.6-10.32-7.84-26.9.16-37.79l2.76-2.47c-9.8,12.08-13.47,32.75,2.03,41.86,23.67,13.91,76.87-12.34,92,3.24Z"/>
  <path d="M532.55,425.79c-20.49,10.57-44.5,10.49-65.29,20.13-22.53,10.45-26.8,27.55,2.19,31.32l-5.47-.08c-26.96-5.79-17.28-22.8,1.34-31.87,26.93-13.12,93.34-12.66,91.17-56.09-2.21-44.35-85.26-51.9-116.16-57.97-.95-.19-2.02,0-2.29-1.3,26.07,2.47,52.39,6.41,76.9,15.72,1.4-.56-1.83-14.39-2.05-16.29-.12-1.05-.77-2.16.76-.76l3.3,17.65c38.2,14.47,61.79,55.69,15.6,79.52Z"/>
  <path d="M464.55,478.56c.45-.02,1.33-1.05,2.29-.65-17.08,7.31-42.56-4.94-26.45-25.49,17.22-21.97,80.06-31.14,86.35-55.05,2.97-11.26-2.56-18.16-10.8-24.89-.37,9.83-1.09,21.47-5.89,30.12.85-6.72,7.39-25.88,4.21-31.39-2.51-4.34-38.25-19.62-41.19-18.38-.59,12.29-2.8,24.87-8.18,36.02,3.21-12.03,7.44-23.86,6.5-36.63l-26.46-7.25c21.42,4.3,73.53,15.52,82.46,37.99,16.39,41.21-79.13,45.18-89.66,76.62-3.06,9.13,4.94,18.97,13.73,18.97,4.34,0,8.76.18,13.09,0Z"/>
  <path d="M110.76,27.45c-6.28,4.67-15.09,6.82-20.89,12.15-1.72,1.58-4.33,6.59-4.7,6.78-.7.37-3.24-.91-4.81-.63s-2.07,2.17-3.93,2.02c-.63-.05-7.53-4.94-11.34-5.75-14.53-3.09-33.09,2.92-37.53,18.09l-7.12.72c7.34-1.44,6.75-6.48,11.43-11.15,9.98-9.97,26.07-12.39,39.16-7.7,1.75.63,4.95,3.59,5.48,3.67.97.14,3.01-1.46,4.51-1.81.93-.22,2.41.82,3.14.67.33-.07,2.16-3.54,3.03-4.32,6.58-5.89,15.17-10.02,23.58-12.74Z"/>
  <path d="M505.46,409.16l-3.39-8.06c-9.04-15.61-35.98-7.32-34.58,10.68-11.45-6.51-20.7-1.1-23.57,11.13l-7.84-.66,7.08-1.42c2.94-11.15,12.3-16.31,23.02-11.01,1.35-23.15,38.49-25.71,39.27-.66Z"/>
  <path d="M110.34,154.05c-.83.75-1.38,2.35-2.53,3.03-4.51.48,14.84-14.87,15.83-15.59,12-8.71,25.72-15.93,39.47-21.41-18.22,10.34-37.11,19.86-52.76,33.97Z"/>
  <path d="M552.6,353.51c1.26-24.28-5.77-47.73-12.44-70.71,6.86,17.92,12.93,38.58,13.76,57.92.15,3.56.82,10.2-1.33,12.79Z"/>
  <path d="M68.2,354.81l-.63-14.06c2.27-18.66,6.03-37.52,13.73-54.68-5.5,19.26-11.32,38.5-13.07,58.61l-.02,10.13Z"/>
  <path d="M418.4,116.48c-15.07-7.6-31.05-12.72-47.13-17.66,13.7.97,27.05,6.8,39.29,12.75l7.84,4.92Z"/>
  <path d="M586.63,269.69c-16.68-1.45-33.29-4.31-49.74-7.19,8.51-.56,16.67,1.68,24.97,2.84s17.13,1.49,24.78,4.35Z"/>
  <path d="M45.95,328.62c.07-12.18,3.63-26.39,7.86-37.97l-7.86,37.97Z"/>
  <polygon points="258.03 77.21 228.81 82.35 221.38 82.43 258.03 77.21"/>
  <path d="M507.42,191.13c-1.71.35-1.14-.4-1.64-1.27-4.93-8.51-8.01-17.42-15.36-24.91,8.3,6.65,13.85,16.14,17.01,26.18Z"/>
  <path d="M418.4,157.73l-24.21-15.7c8.92,2.93,17.57,9.17,24.21,15.7Z"/>
  <path d="M96.35,313.56c-.76-8.65,1.52-18.56,6.23-26.17l-6.23,26.17Z"/>
  <path d="M436.96,486.64c.23-.19,1.44-.95,1.72-.56-5.27,7.94-14.16,13.36-22.88,17.04,5.15-3.87,11.01-6.73,16-10.83,1.94-1.6,3.7-4.46,5.16-5.64Z"/>
  <path d="M529.67,336.48l-7.53-24.86c4.84,7.38,5.99,16.38,7.53,24.86Z"/>
  <polygon points="479.94 462.85 491.71 444.52 487.81 452.72 479.94 462.85"/>
  <path d="M53.17,166.25c1.63-4.38,4.45-9.2,7.84-12.44-1.98,4.37-4.48,8.96-7.84,12.44Z"/>
  <path d="M468.8,329.93l-2.6-15.05c2.55,3.92,2.35,10.38,2.6,15.05Z"/>
  <path d="M215.49,87.69c-.93,1.65-3.41,2.59-5.24,2.6.86-1.66,3.52-2.33,5.24-2.6Z"/>
  <path d="M469.46,222.57c.96-.98,4.26,4.44,4.26,5.21-1.6-1.58-3.44-3.04-4.26-5.21Z"/>
  <path d="M536.22,261.85c.22,1.09-1.06.58-1.96.64v-.64h1.96Z"/>
  <path d="M212.87,293.93c-14.14,5.95-27.47,13.13-37.94,24.55,7.09-10.97,19.56-17.23,31.08-22.59l6.87-1.96Z"/>
  <polygon points="473.72 167.56 474.04 167.89 473.72 168.21 473.72 167.56"/>
  <path d="M195.85,139.41c-20.56,5.01-38.61,16.03-56.27,27.17,13.89-12.14,30.75-20.97,48.42-26.2l7.85-.97Z"/>
  <polygon points="107.16 77.2 107.49 77.53 107.16 77.86 107.16 77.2"/>
  <path d="M172.94,693.33c-2.38,1.49-17.35,5.35-16.96,8.74,10.2,12.2,57.49,13.23,60.67,30.36,2.95,15.87-25.41,20.14-25.4,29.31,2.74,8.12,14.34,11.61,21.94,14.1,11.64,3.81,23.85,5.32,35.7,8.16-15.41-1.75-33.52-4.58-47.57-11.35-32.44-15.62,12.96-21.78,14.04-36.64,1.14-15.74-35.69-20.9-46.69-24.99-3.39-1.26-15.59-5.95-13.73-10.48l9.49-5.9c-6.87,1.25-14.85,1.79-20.66,5.88-2.21,5.21,27.59,12.23,31.48,13.75,10.99,4.3,30.63,13.97,20.3,28.18-6.05,8.32-32.84,16.12-23.25,29.77,9.73,13.85,78.82,11.67,97.47,27.56,8.03,6.84,3.46,15.83-6.48,15.32,8.38-1.75,13.22-8.16,5.19-14.68-19.17-15.55-86.49-12.59-97.48-27.55-12.25-16.68,24.35-23.99,26.04-36.84,2.33-17.73-37.17-23.4-48.08-28.85-21.43-10.71,16.77-14.77,24-13.85Z"/>
  <path d="M176.86,745.69c-3.86-8.83-11.76-12.78-20.3-16.02-16.93-6.43-66.31-10.85-75.54-24.61-12.74-19,35.72-26.84,29.07-45.12-7.63,16.08-29.45,19.17-43.86,27.81-49.4,29.61,45.67,42,62.32,44.4l17.54,6.34c-24.48-10.84-68.41-7.33-89.03-24.54-25.78-21.51,34.6-36.73,45.39-45.62,3.21-2.65,6.58-6.25,5.26-10.9-3.77-13.37-55.16-22.88-68-28.26-8.36-3.5-18.68-8.77-17.32-19.65,1.16,14.45,16.84,18.1,28.29,21.78,14.42,4.63,65.31,13.37,61.22,35.36-2.49,13.38-46.29,24.23-25.69,41.07,19.83,16.21,76.5,12.06,88.71,32.4l1.94,5.58Z"/>
  <path d="M18.14,689.39c17.93,2.6,26.08,25.27,13.42,38.62,5.66.91,6.81,7.61,7.21,12.45,15.88-11.17,39.15,2.69,37.96,21.6,2.84-2.95,10.53-1.06,11.77-1.6.38-.17,4.07-5.07,5.59-6.23,11.94-9.1,34.97-5,41.54,9.14-2.22-.39-2.87-3.34-4.63-4.86-10.92-9.4-30.12-11.33-40.18.3-.87,1.01-.91,3.11-1.04,3.22-.58.44-11.47-2.37-13.7,2.65,1.61-19.77-22.32-35.52-38.3-21.62-1.85-6.98-.44-12.58-8.82-15.37,15.03-10.5,4.74-36.99-12.12-36.99H5.37l.98-1.31c3.68.38,8.23-.51,11.78,0Z"/>
  <path d="M425.39,767.75c-15.79,16.65-72.45,18.82-95.71,27.68-27.89,10.63,4.1,20.36,16.71,21.62l-6.13-.08c-18.24-3.34-37.33-13.63-8.61-23.5,21.59-7.42,81.98-11.47,94.23-28.84,13.82-19.58-19.74-29.12-33.01-32.03l7.87.96c15.32,2.34,41.32,16.6,24.64,34.18Z"/>
  <path d="M392.5,766.93c-18.14,12.6-82.26,15.49-89.42,32.67-6.47,15.52,17.91,19.32,27.61,22.04-11.91-.69-36.32-6.82-28.4-23.5,9.04-19.05,76.41-17.79,93.53-35.43,9.36-9.64-4.27-16.13-11.44-20.28,13.47,4.08,23.45,13.86,8.14,24.5Z"/>
  <path d="M162.47,758.15c-49.62,37.05,38.77,41.47,60.23,47.45,4.92,1.37,10.58,2.62,14.39,6.22-23.38-10.17-51.8-8.91-75.24-18.03-23.68-9.22-19.68-25.97.62-35.64Z"/>
  <path d="M534.69,767.72c-18.04,12.58-46.97,12.58-60.59,22.88-1.76,1.33-2.56,3.97-2.78,4.09-1.14.64-8.37.48-10.36,1.41,2.03-2.55,6.98-1.29,9.16-2.28.68-.31,2.97-4.02,4.62-5.2,8.67-6.2,27.58-8.48,38.26-12.15,13.24-4.55,32.98-14.08,35.02-29.47l.6,4.2c-1.07,5.14-9.65,13.52-13.92,16.5Z"/>
  <path d="M594.48-.06v841.35s-594.35,0-594.35,0V-.06h594.35ZM589.9,4.53H4.72v107.38c11.19-13.11,28.93-16.83,41.01-2.67,3.84-2.72,5.91-6.22,11.36-5.84-10.72-26.29,34.97-52.57,50.8-28.89,1.72-1.71,7.8-.63,8.15-.85.74-.45,2.71-9.08,6.5-8.9-25.82-29.98,28.71-55.87,52.37-43.21-24.39-9.22-75.41,13.25-51.04,43.54l-7.21,9.88-9.81,1.59c-12.76-25.82-62.31,3.85-47.15,28.81-5.77-2.14-11.81,1.77-12.44,7.86l-8.05-7.98c-13.19-8.29-25.47-1.5-34.49,8.97v52.71c8.52-3.85,20.71-2.51,27.48,4.27,2.13,2.13,4.78,8.9,5.23,9.18,1.2.75,5.27.06,7.7.81,7.37,2.25,10.21,12.82,6.07,19.13,15.88,3.3,46.47,7.06,7.98,12.22-17.89,2.4-36.41,3.5-54.45,4.82v124.4c12.02-8.78,33.5.77,28.8,17.02,14.73-1.48,31.11,13.21,22.25,28.15l18.31,6.23-69.37,8.84v44.52c7.94-2.54,16.14-1.68,23.36,2.49l3.47,3.39c-8.17-5.42-17.18-7.58-26.84-4.58v37.98c13.75-9.58,24.05-20.41,33.92-33.83,3.83-5.21,7.39-13.57,10.97-17.84s12.24-8.11,15.35-12.15c6.27-8.18,14.13-28.36,21.03-35.27,8.39-8.4,16.05,9.51,21.92,13.24,5.41-2.91,10.72-5.94,16.44-8.27s13.83-5.88,19.79-5.42c-22.94,5.33-64.74,26.81-62.17,54.67,2.68,29,53.48,25.61,51.7,47.8-1.04,13.05-25.62,25.03-35.29,32.82-10.83,8.72-22.19,19.44-24.93,33.65,12.5-28.22,44.73-33.54,66.32-50.52,43.15-33.95-38.37-41.42-43.62-63.52-5.62-23.59,32.95-46.48,52.57-49.64.34,1.74-.38,1.14-1.3,1.61-9.88,5.02-24.34,5.54-31.99,15.61.09,1.34,14.3,21.16,15.34,22.01,2.19,1.78,7.63,3.05,10.7,5.01,13.93,8.94,17.06,27.54,25.88,36.32,2,2,5.09,2.3,7.5,4.28,3.21,2.64,5.61,6.29,9.21,8.46-3.17-14.34-11.78-26.86-14.17-41.47-1.13-6.87-1.11-13.83-.89-20.76.1-2.98,2.08-7.72,1.96-9.76-.2-3.57-5.37-12.58-5.86-18.39-1.08-12.68,5.21-16.91,6.41-25,.25-1.71-.81-5.06-.51-7.72.78-6.89,1.61-7.34,7.17-10.5,15.28-8.72,36.8-9.92,53.07-15.66,3.54-1.25,9.66-8.78,13.56-9.4s7.57,2.89,10.63,2.23c.54-.12,9.25-5.12,9.48-5.62.64-1.4.23-9.31-.34-10.63-.26-.6-8.41-6.35-10.13-8.35-1.48-1.72-5.1-8.6-5.56-8.84-1.24-.65-7.6-.63-11.13-1.97-4.79-1.81-7.87-6.07-11.99-8.3-7.69-4.16-19.51-6.86-27.94-9.71l.83-1.46c3.95-2.96,20.12-2.34,15.16-9.62-17.98-14.49-38.32-27.33-62.47-26.89,14.43-11.32,32.58-18.06,51.06-18.33-18.56-17.42-43.31-29.36-69.38-27.16,25.34-23.94,61.85-39.85,96.2-25.53-8.58-18.33-20.23-34.37-35.39-47.75l-20.89-13.47c42.24-13.96,93.36-7.78,124.36,26.18-2.23-22.47-1.43-46.04-9.16-67.43,32.85,15.09,51.45,51.46,52.32,86.78,6.41,4.72,7.78-15.83,7.93-18.99.68-13.89-1.1-30.31-9.19-41.95l1.29-.96c12.29,18.49,13.35,42.74,6.56,63.49,18,5.42,31.58,22.68,36.01,40.6,18.71-7.13,38.32-8.6,57.59-2.61-5.57.35-11.04-1.71-16.65-2.01-13.33-.7-26.69,1.87-38.99,6.89l.02,7.54c22.92-1.72,44.29,4.24,66.1,9.84l-50.41,21.27,51.06,16.69c-15.87,3.95-31.32,9.68-46.46,16.06-3.42,1.44-15.9,6.44-17.92,8.27-.67.61-1.59.66-.43,1.55l20.3,6.2-43.2,11.15,11.12,4.57c-10.35,2.42-21.12,3.41-31.11,7.19-4.11,1.56-12.95,5.17-13.89,9.67-1.4,6.68.24,11.58,7.08,13.58,3.81,1.11,6.38-2.28,11.63-1.17s8.69,6.08,12.66,7.63c12.69,4.96,49.62,9.51,57.48,17.8,4.16,4.4,1.87,13.54,2.69,18.92,1.46,9.57,5.69,12.02,4.56,24.96-.62,7.07-5.49,13.98-5.9,18.36-.35,3.74,2.56,13.09,2.63,18.24.26,18.41-6.54,27.35-11.34,43.07-2.78,9.11-3.3,32.02-15.35,34.4-7.99,1.58-18.8-.99-26.89,4.53-1.51,2.27-1.08,11.07.05,13.46.72,1.53,7.14,5.47,8.9,8.78,1.23,2.31,2.12,5.44,2.06,8.08,1.23,1.44,27.15-20.8,30.58-22.11,1.43-.54,3.45.18,5.38-.51,3.64-1.3,11.83-12.63,15.68-13.07l18.92,12.67c7.37-9.4,15.41-18.46,23.66-27.09,12.09-12.63,35.15-39,50.73-44.2,3.38-1.13,7.24-1.91,10.82-1.94-1.4-7.45,2.69-12.84,10.14-13.75,1.78-.22,7.88.63,8.21.39.71-.53,2.26-7.76,7.12-8.02-9.62-19.15,9.31-37.27,28.2-27.73v-121.45l-34.7-5.9,34.7,4.26v-47.8l-2.29,1.3c-7.29-16.55-21.15-4.9-30.72,2.02-13.54-17.25-38.43-5.11-37.69,15.67-4.42-2.89-8.75.71-13.07,1.64,3.28-3.51,7.92-3.93,12.42-3.6-.5-21.32,24.86-31.12,38.94-15.23,7.89-7.31,23.79-17.36,29.8-2.45l2.5-1.75.11-70.93-60.87-7.85,60.87,6.54v-13.42l-15.36-2.27-24.57,5.56c13.23-4.32,25.65-9.66,39.93-5.57v-53.03l-1.31-1.31h-9.82c-.07,0,.24,1.13-.48,1.28-11.15,2.43-20.03,7.47-22.44,19.67-6.44-2.64-11.99-.76-18.32.64,14.96-16.3-5.78-30.97-22.25-29.46,29.11-27.15-13.21-60.92-40.79-43.74-10.8,6.72-15.78,20.83-8.83,32.16l6.42,8.3-9.49,7.2c-2.72-4.49-7.65-6.54-12.76-5.23l2.28-1.33c5.54-.67,9.75,4.06,11.04,3.85,1.19-.2,4.53-5.29,6.97-5.14-12.31-11.5-12.3-29.04,1.37-39.54,26.94-20.68,74.07,12.82,46.42,42.82,15.21-1.61,33.97,12.32,22.91,28.15l13.76-.92c4.56-13.96,21.13-22.77,35.33-19.37V4.53ZM354.91,241.22c.52,4.37-.38,9.6,0,14.08,6.94-7.11,16.14-15.89,17.04-26.49.42-4.91-1.4-8.78-1.34-13.44,5.63,9.24,5,18.44-.64,27.49,10.62-1.56,12.33,10.76,11.76,18.65-.84,11.75-9.86,20.33-17.64,28.18l31.41-7.54-.99-1.29-17.98-3.62c19.24-12.31,41.99-20.34,63.47-27.5-16.11-7.33-33.31-12.45-51.05-13.75l50.4-23.24c-18.3-5.2-37.25-8.04-56.33-6.84-3.88-24.22-19.76-51.14-47.09-51.44,2.48-32.46-15.13-66.16-42.23-83.79,5.31,18.31,5.16,37.67,6.9,56.59.21,2.31-.7,5.7-.48,7.16.44,2.94,6.72,8.07,6.34,12.18-17.75-22.79-41.45-38.99-70.56-43.01-16.56-2.29-36.92-3.36-52.49,3.07,26.24,13.99,41.63,40.7,53.67,66.79-.97.85-11.39-4.64-13.39-5.26-29.06-8.89-58.2.97-80.86,19.66,26.02-.35,49.43,15.12,67.1,32.73l.31,1.32c-16.82-.65-34.4,2.97-48.43,12.44,19.25,2.57,36.69,12.76,51.39,24.88l.97-.96c-.83-7.23,1.79-15.28,10.47-14.1-11.44-26.64,5.97-56.49,29.14-70.04-20.09,17.14-37.26,42.18-25.71,69.56,2.77,6.58,9.66,12.51,12.3,19.46-5.45-17.5,3-30.87,12.54-44.73,2.24-3.26,7.58-7.64,8.95-10.03,1.95-3.41,2.74-9.44,4.76-13.57,4.28-8.73,12.83-18.16,22.51-20.69-23.1,14.08-30.5,44.65-18.01,68.41,7.24-14.84,20.82-24.72,33.84-34.26,7.11-5.21,16.16-8.89,21.5-15.86l1.61.34c-7.58,9.45.18,19.41,1.22,30.88.5,5.46-.18,11.12.1,16.6,11.05-10.18,16.89-23.8,20.93-37.97,1.77,4.68-3.27,13.93-2.99,17.34.3,3.71,6.82,15.24,7.58,21.61ZM4.72,167.56v41.9l26.18-1.96-26.18,3.26.34,5.91,71.02-8.85-26.84-6.22c6.48-11.57-.66-21.6-13.74-19.64-1.08-14.71-18.89-18.24-30.77-14.4ZM320.84,202.94c-2.57-1.62-38.27,25.74-40.37,31.73l5.71,9.48-9.43-3.83-4.25,9.47-1.37.91-7.59-13.62-14.66,5.11c.77-6.46,6.41-12.41,13.03-13.15l-1.57-14.36c-6.26,7.83-15.93,19.71-17.18,29.97-1.48,12.1,4.83,43.15,11.59,53.54,6.15,9.44,35.43,27.59,46.78,25.8,5.89-.93,31.52-16.33,36.07-20.88,10.18-10.15,15.04-45.84,14.03-59.92-.46-6.42-3.64-14.32-5.23-20.64-.71,1.02-4.44,7.09-4.41,7.53.06.68,7.84,8.32,7.03,11.45-13.92-11.39-13.76.85-24.87,6.55l.35-11.76-17.37,7.83c2.53-9.39,9.33-15.4,18.23-18.75l-4.52-22.47ZM326.07,234.31c1.75-13.23-13-.31-15,4.95l15-4.95ZM262.54,231.8c-3-1.43-8.32,2.81-9.72,5.5l9.8-3.3-.08-2.21ZM343.13,234.99c-.79-1.26-2.42-3.85-3.91-1.63l3.91,1.63ZM280.29,238.92c.67-.68-1.3-2.62-1.96-1.96s1.3,2.62,1.96,1.96ZM348.37,290.65c13.24,2.95,29.41-18.58,29.95-29.79,1.22-25.14-16.75-11.41-22.75,1.33l12.8-10.11c7.52-1.65,7.27,8.04,4.21,12.39,1.87-11.77-1.61-13.72-9.12-4.81,2.76,3.64,5.19,7.1,4.52,12.01-1.52-3.12-5.15-14.21-9.15-8.18-3.33,5.02,5.05,11.86-1.16,17.36-4.24,3.76-9.54-.17-9.32,9.81ZM231.19,254.64c-2.32-8.36-12.23-10.51-13.66-.25-1.6,11.5,4.22,21.85,12.71,29.04,2.6,2.2,16.7,12.46,16.65,4.36-.02-2.58-3.58-21.74-7.76-19.33-.52,1.8-2.01,4.21-1.84,6.07.37,4.03,6.33,6.04,7.33,9.57-6.07-2.5-10.49-4.29-9.34-11.95.54-3.62,5.81-7.58-.18-9.98-4.38-1.76-6.37,5.97-8.48,8.19-2.18-3.36,5.56-10.52,4.92-11.8l-7.8-5.19-.41,9.79c-2.76-1.45-3.52-10.4-1.79-12.28,3.63-1.77,7.09,1.76,9.65,3.77ZM350.34,282.14c7-1.44,10.76-9.6,3.58-13.72l-3.58,13.72ZM208.95,273.64c3.61,3.1,8.55,4.63,13.07,5.56-5.56-6.48-3.51-8.86-13.07-5.56ZM362.11,296.55c-4.65-1.79-9.07-1.68-13.94-1.86l-5.04,7.08,18.98-5.22ZM264.58,337.79v-10.48c-2.9,1.32-15.99,7.66-17.07,9.65-.73,1.35.59,12.64,1.45,13.18,13.92,1.66,34.38,2.79,43.1,15.15-12.06-8.58-28.11-11.84-42.55-12.76,3.82,19.51,26.56,31.38,44.14,36.33l1.7-11.13,1.3.98v9.49c18.41-.88,43.79-15.26,46.14-35.36-13.86,3.14-29.38,4.03-40.89,13.11,1.14-11.91,39.64-13.48,41.75-15.85.17-3.52,3.1-8.83,1.48-12.01-.82-1.6-14.38-10.47-15.41-10.12l-.65,9.82c-.66-.27-2.3-6.18-2.3-6.87v-14.4c0-.33,1.82-1.75-.31-1.63-8.29,4.81-20.21,13.73-30.15,13.12-8.94-.55-20.41-10.07-28.45-13.77.13,6.49.93,16.32-1.67,22.25-.44,1.01.11,1.61-1.6,1.31ZM246.25,329.94c-.12.1,1.22,2.52,1.65,2.61,3.58.79,1.3-4.92-1.65-2.61ZM244.29,343.36c-.33-3.4,0-7.61,0-11.13,0-.16.96-.83.65-1.64-22.32,7.91-14.66,26.74-11.44,44.51-4.36-11.18-8.1-23.97-4.92-35.99l-51.06,15.39c24.91,3.74,36.24,29.34,44.53,50.08.52-15.13-5.54-31.12-11.67-44.97l1.18-1.5c6.61,13.82,12.64,28.15,14.4,43.56.43,3.75-1.53,6.56.68,10.13,1.77,1.44,3.07-6.83,3.17-7.61.96-7.01-1.35-15.19,1.39-21.19.9,8.77,1.41,16.89.49,25.69-.23,2.19-2.36,6.01-2.29,7.27.05.91,2.83,6.72,3.33,9.06,1.06,4.93,2.29,9.86,2.41,14.94,3.41-1.44,7.04-3.47,10.8-3.92,5.98-.72,19.01-.26,25.53,0,3.19.13,7.17,4.39,7.9-1.31-11.06-10.25-22.59-21.74-29.17-35.36l31.74,34.67,11.43-11.43c-20.67-19.11-46.27-50.09-49.07-79.22ZM346.41,330.59c-.21-.21-2.84.15-3.6,0l-.32,1.3,3.91,2.63c-.13-.8.22-3.73.01-3.93ZM354.92,375.76c4.62-15.89,15.93-38.59-7.21-45.16,3.11,7.88-.35,19.55-2.81,27.63-10.29,33.79-39.73,57.88-63.96,81.7,6.44-1.36,13.24-1.55,19.67-2.91,13.05-2.76,22.41-6.93,36.37-7.49,7.83-.31,14.2.84,21.85,1.89-.86-4.17,3.46-11.41,3.25-14.69-.14-2.21-3.28-8.71-3.82-12.57-.8-5.76-.32-11.5-.08-17.26l1.31.97c-.48,8.66,1.65,17.02,3.94,25.22.37.21,1.06-.76,1.24-1.08.59-1.04.32-19.25,1.03-23.81,1.37-8.88,4.95-17.25,8.21-25.52l1.31.33c-5.26,14.03-8.3,29.1-7.54,44.18,11.64-20.4,23.58-47.68,49.42-52.04-16.35-10.41-36.58-9.85-54.32-16.7,3.64,12.61-2.25,26.21-7.86,37.31ZM4.72,342.38v58.93l66.11-7.86c-6.1-3.23-14.2-6.4-20.94-3.27,1.65-3.65,4.79-1.95,6.09-6.66,4.1-14.81-11.23-25.48-24.42-23.46,6.05-16.37-14.13-25.14-26.84-17.67ZM180.14,358.09c-.18-.17-4.34-.93-4.93-.04-.8,1.19-.08,4.38-.29,5.92.77-.38,6.03-5.11,5.22-5.89ZM419.06,365.94c-.34-5.51.3-10.08-6.54-6.53l6.54,6.53ZM215.49,398.03c-1.1-9.18-22.42-40.11-32.03-36.98-2.84.92-8.52,8.84-9.97,11.67-5.84,11.41-6.28,25.32.43,36.43l4.25-3.25c-9.54,15.33-6.08,35.78-.66,52.05,4.15,12.47,7.26,21.33,10.95,34.22,6.19,21.59,18.54,12.13,35.19,9.96l-6.2,3.93c16.18,4.93,33.53-.11,47.79-8.16,9.17-5.18,11.95-5.28,11.13-17.06-1.53-22.18-14.78-28.45-35.06-29.75-12.57-.81-26.62,2.42-34.99,12.42,1.69-6.93,10.1-10.87,16.11-13.66,4.79-2.22,7.66.27,8.67-6.39,2.65-17.44-9.89-46.32-30.02-48.05,4.64-2.04,10.11,1.01,14.39,2.62ZM417.74,411.78c5.97-12.93,7.28-25.46.91-38.55-1.24-2.56-6.61-10.53-9.25-11.1-8.05-1.73-29.63,26.53-32.23,34.28l.92.93c4.38-1.39,10.56-3.89,14.77-1.28-25.19.24-36.42,35.23-28.64,55.51,7.93,1.57,16.1,5.27,20.79,11.93-10.97-7.4-21.31-10.49-34.55-7.38-10.76,2.53-7.72,5.87-14.33,11.2l-41.45,24.98c25.6,11.66,52.96,24.23,81.81,17.03l-10.47-2.62c-.19-.29.6-1.09,1.04-1.15,8.8-1.3,23.61,4.87,31.25-.25,6.7-4.5,7.55-20.57,9.93-28.04,1.42-4.47,3.89-8.25,5.2-12.48,5.71-18.47,9.97-38.82-.3-56.6l4.58,3.59ZM334.63,373.15c-6.82,8.98-27.92,19.92-38.9,19.56-12.67-.41-29.71-13.13-38.99-21.22,6.68,14.28,17.71,26.32,33.36,30.46-5.02,2.49-12.05-4.25-17.01-5.58l23.14,23.85,21.36-21.89c-4.41.29-9.22,5.68-13.73,3.62,13.31-3.31,21.47-12.44,28.56-23.49.57-.89,3.37-4.32,2.21-5.32ZM106.18,401.95c-3.11-3.6-12.58-17.35-17.66-14.71l-21.98,35.63c-17.52,11.77-24.1,29.79-37.89,45.25l-15.76,35.97c-1.36,1.39-1.09.44-.69-.69,1.34-3.83,14.62-30.12,13.46-31.38-3.62,2.9-20.37,14.69-20.97,17.97-.85,4.68-.67,42.48.34,46.86.64,2.78,9.93,15.69,12.41,17.05,1.67.91,3.43.37,4.77,1.12,3.76,2.11,7.52,4.1,10.99,6.69,1.6.23.8-.47.72-1.37-.89-10.11-4.48-13.56,4.89-21.8,1.42-1.25,4.86-2.27,5.04-2.49.49-.59,2.87-11.49,4.6-14.72,9.1-17.07,36.79-30.96,45.28-5.45l-6.62-8.75c-15.43-14.45-42.97,13.14-41.46,29.73-17.78,3.59-11.23,23.86-5.81,35.39,21.6,4.05,42.91,10.89,61.43,22.85,5.13-35.08,44.04-52.52,76.49-48.36,4.66.6,15.25,4.73,18.45,4.53s9.16-5.44,13.59-3.94c1.69-8.84,5.79-13.49,12.09-19.43-2.2-3.36-.2-6.98-.54-9.65-2.39-19.04-19.13-1.44-30.44-12.82-5.8-5.83-4.44-13.64-7.04-18.17-2.87-4.98-15.22-10.51-18.13-13.61-6.21-6.6-11.19-21.61-19-30.1-6.62-7.19-12.29-7.29-18.01-12.1-2.71-2.28-14.35-21.91-15.65-21.62-8.79,9.59-15.42,10.82-10.67,25.03,1.03,3.08,6.13,15.61,7.56,17.97,3.02,4.96,26.87,12.49,33.84,17.87,34.12,26.31-30.4,48.95-45.83,59.57-13.17,9.06-39.79,35.73-14.06,46.49-26.36-7.62-6.76-38.06,5.89-50.09,15.49-14.73,70.3-37.97,24.88-55.31,3.36,5.45,8,12.39,7.21,18.97-.9-4.23-5.43-16.93-8.21-19.61-1.82-1.75-11.75-4.89-14.94-6.66-25.27-14.02-22.47-36.15-3.68-54.62l-4.59-21.88c1.75-.35,1.14.39,1.61,1.3,2.73,5.26,2.86,13.8,4.28,19.64l9.81-6.55ZM589.9,401.3c-19.98-9.47-36.95,9.29-25.53,28.15-4.9-.53-9.33,4.34-8.52,9.17-7.85-6.58-22.26.77-17.67,11.78l-16.35,4.26c4,3.9,7.89,7.8,11.37,12.19,4.78,6.02,11.91,19.73,16.1,23.84,3.35,3.29,14.09,6.23,19.02,10.44,8.17,6.98,13.47,20.45,21.58,27.85v-60.56l-39.93-3.6,39.92,1.97c1.83-11.22-5.11-6.15-11.45-6.5-11.4-.63-22.93-2.08-34.37-2.34l45.83.98v-57.62ZM108.79,453.03l-9.48-24.88c-6.27,10.31.11,19.84,9.48,24.88ZM360.15,451.06l-3-15.66c-7.7-2.48-15.98-3.15-23.84-1.35,4.28,6.19,8.22,13.23,8.51,20.94l18.32-3.93ZM330.05,466.78c17.65-4.26,4.24-38.66-11.13-31.42,7.02,9.51,12.49,19.03,11.13,31.42ZM317.61,474.63c14.84-4.55,10.01-22.26,3.16-31.64-6.51-8.91-7.89-4.62-17.56-3.05,9.31,8.42,16.36,21.85,14.4,34.69ZM274.4,441.23c-6.71-5.48-17.97,1.93-20.94,8.51,9.17,4.59,8.49-.91,14.45-5.51,1.62-1.25,4.52-2.33,6.5-3ZM256.73,439.93h-13.42c-2.34,0-9.2,4.95-9.49,7.85l14.74.73,8.17-8.58ZM274.4,496.89c1.23.31,1.95.62,3.28.41,1.89-.29,31.44-16.42,33.59-18.19,9.63-7.95-2.62-35.32-12.04-38.17-4.69-1.42-34.92,4.75-34.65,11.77,7.06,4.63,11.83,12.97,13.45,21.23,1.5,7.69,2.72,17.24-3.64,22.94ZM520.52,456.96c-.76-.3-.29-.74-1.94-.39-4.05.85-34.76,32.61-39.97,38.02-12.09,12.57-22.85,26.41-35.66,38.32l5.55-7.51-15.69-12.79c2.51,14.28-6.05,27.39-15.4,37.3,6.54-10.67,18.15-23.03,13.74-36.65-1.73-.47-12.68,11.91-14.21,12.3-4.21,1.06-3.87-1.47-10.14,2.56-2.78,1.78-23.87,17.47-25.03,18.87-.67.82-.86,1.15-.67,2.27,5-1.72,9.18.09,13.43,2.61,1.15.68,1.69,2.9,2.71,3.2s16.93-2.96,20.2-3.18c31.98-2.07,63.16,6.32,74.6,39.25,2.74-1.59,5.62-4.29,8.8-4.93,2.3-.46,8.17.28,8.55.08.58-.31,4.75-8.33,7.55-10.82,13.07-11.59,37.86-12.28,49.38,1.94,3.89-8.7,14.72-12.36,23.57-9.82-.82-5.78,1.1-14.62.06-19.99-.24-1.23-1.3-1.25-2.02-2.28.66.21,1.34.29,1.96.65-.54-3.77.83-9.86-.13-13.28-.51-1.82-21-27.97-23.2-29.83-5.06-4.29-14.29-6.73-18.59-10.87-5.64-5.44-12.29-19.2-18.32-26.2-1.33-1.54-7.84-8.35-9.14-8.86ZM326.77,509.34c-7.19-.1-30.51-15.07-35.02-15.02-.65,0-11.43,5.52-11.43,6.17l8.49,4.9c-9.91-.53-15.52-9.49-25.53-3.26l.83,1.46c14.1,5.46,26.72,6.21,41.05,1.15l-7.85,4.57c4.38-2.22,8.35,4.62,10.12,4.96,1.12.22,16.71-2.94,18.39-3.62.78-.32,1.21.44.95-1.32ZM243.64,510c4.88,3.34,30.77,6.52,34.68,4.89,1.11-.46,1.88-2.33,2.61-3.26-5.73-.69-17.02-5.99-22.02-6-4.07-.01-10.67,4.61-15.27,4.38ZM271.12,517.85c-12.45.86-24.38-4.44-36.34-5.88-2.36-.28-10.81-1.24-11.49.99-.69,5.46,23.83,9.45,28.19,10.14-9.1.43-18.37-1.4-26.83-4.59.27,3.31-.98,6.15,1.26,8.88,3.03,3.67,30.84,8.48,30.8-1.02-.62-.56-4.64,1.21-3.92-1.31l6.56-.31,11.76-6.89ZM292.07,511.96c-18.74.04-14.11,26.32,2.28,26.18,22.63-22.76-1.54-40.08-10.13-6.55-.78-7.71,2.42-14.38,7.85-19.63ZM345.09,513.93c-12.38-4.31-23.8,1.92-36,3.91,11.51.83,25.51,1.05,36-3.91ZM345.42,527.01c-3.61.39-7.77-.28-11.45,0,6.18-2.08,25.69-4.18,30.33-7.96,1.54-1.25,1.13-2.09,1.09-3.82l-46.48,5.25c8.57,3.48,13.57,13.43,22.56,13.78,3.49.14,21.63-2.42,23.5-4.55.84-.95.81-7.45-.55-7.8-6.03,1.55-12.84,4.45-19,5.11ZM277.01,519.81c-8.86,2.07-17.54,8.78-23.18,15.77-7.54,9.36-10.23,23.36-23.29,27.11,12.69,12.34,23.05,4.9,37.88,4.17l11.06-28.55-1.17-7.37c-2.86-1.74-17.01,15.11-20.27,16.7.05-5.95,18.75-18.65,19.28-19.95.37-.89-.9-6.22-.32-7.88ZM350.32,576.12c-1.1-24.52-18.05-50.9-43.1-55.55-3.75,5.3,3.94,7.46,7.46,11,3.09,3.1,19.84,22.94,17.31,26.22-7.31-11.33-15.81-22.56-26.82-30.77-2.81,6.47.15,6.01,2.08,10.02,7.52,15.59,14.92,36.49,8.38,53.48.46.45,10.3-5.23,11.34-6,8.36-6.12,10.21-16.27,23.34-8.4ZM175.89,566.95c6.36-.59,13.52.44,19.96,0-5.93-8.98-19.33-10.9-29.46-10.48l.98-1.3h13.09c7.94,0,16.6,9.59,22.09,11.95s12.23,2.47,19.05,5.83c3.45,1.7,13.51,9.92,14.64,10.24,6.73,1.89,12.56-.88,20.82,4.05,4.55,2.71,8.69,11.04,9.47,11.48,1.81,1.01,9.8,1.01,12.44,2.3h-11.12c-1.24,7.73,3.64,5.72,8.6,8.74,2.14,1.31,5.55,5.76,6.92,6.17,5.8,1.73,19.96-2.62,26.37-3.12-7.34,4.63-17.12,5.09-25.52,5.23,3.6,6.45,2.29,10.23,10.77,11.15,2.03.22,10.76.32,12.34-.15,1.14-.34,6.03-6.82,8.97-6.74.68-7.58,2.3-18.76,9.59-23.14,3.5-2.11,12.01-4.71,15.26-2.08,2.49-3.75,7.88-8.45,12.01-10.58,7.82-4.02,22.66-5.2,31.16-9.43,1.77-.88,4.32-4.74,6.28-6.15,11.32-8.13,24.93-11.16,38.92-9.18-13.65,1.99-30.05,2.68-39.27,14.39l22.59.72c7.35-4.68,18.54-11.19,27.48-11.19h9.49l-.97,1.31c-11.44-.53-22,3.88-31.76,9.17l18.32,4.56c-21.75-1.7-44.98-4.67-65.45,4.6,15.83,6.36,33.37,9.47,50.4,9.82-.44.32-2.3,1.89-2.45,1.92-8,1.35-23.71-2.32-32.36-4.1-16.34-3.36-27.08-11.93-40.45,5.12l8.49,5.55c-17.27-7.15-32.6-5.32-33.38,16.37,2.84-1.55,4.57-4.55,8.23-5.19,13.62-2.39,29.26,10.43,36.93,20.58-9.26-1.67-17.6-6.9-27.25-7.44-1.13-.06-8.44-.18-8.08,1.53,4.3,3.03,6.96,16.07,9.75,18.41,1.73,1.45,5.91,1.61,8.36,2.77,13.86,6.54,22.75,16.93,32.28,28.6l-20.62-18.65c7.8,13.96,2.2,23.71,19.3,31.1,16.55,7.15,26.19-3.13,39.29-11.8-1.34-1.5-27.11,2.09-25.52-.97,13.18-2.45,27.73-2.38,40.71-5.45,43.07-10.16,79.59-71.27,38.5-104.89-24.72-20.23-71.58-14.23-98.42-.88-4.03,2-19.9,13.36-21.14,13.54-1.72.25-3.52-3.11-6.29-2.41-2.12.54-7.93,7.97-10.64,9.06l-.96-.31,10.47-8.85c-6.39-5.05-11.16,4.3-16.41,8.14-11.38,8.33-28.41,14.21-42.16,13.47,4.85-.62,21.49-4.49,24.81-7.26,2.7-2.25,3.23-12.2,4.31-15.65-1.11-1.07-17.12,8.22-20.28,4.9,3.59-1.19,18.91-6.43,19.63-9.85,1-4.74-8.97-36.95-12.76-36.94-4.13,6.08-7.67,7.38-14.72,4.56-1.66,11.47.27,26.13,8.5,34.7l-3.85-2.36c-5.01-4.83-7.36-17.32-7.92-24.16-.31-3.83,1.53-7.84-.36-10.78-.9-.44-4.28,7.71-4.56,8.52-3.71,10.94-.55,15.88,3.58,26.18l-7.2-15.05-5.43,13.55-8.96.2c6.75,7.61,15.88,12.61,24.87,17.01-5.31-.33-11.58-3.69-16.14-6.43-2.52-1.51-11.1-8.93-11.81-9.13-3.6-1.04-8.82,1.66-12.62,1.17l9.81,5.24c.09,1.3-1.98.52-2.63.34-3.22-.92-27.5-14.76-28.13-16.39l14-8.24,10.86-18.92-15.73-1.04c-2.57,2.02,1.96,11.22,3.95,13.16-2.27.5-5.39-3.34-6.21-5.57-2.28-6.19,1.52-9.01-7.11-11.01-5.43,4.65-9.97,8.77-10.19,16.5.53,1.46,12.94,2.92,13.37,6.94-8.46-3.97-17.66-5.01-26.52-1.94-1.05,1.27,13.76,7.98,15.49,9.05,7.08,4.38,15.12,10.02,18.54,17.79-28.9-27.52-79.45-41.77-112.88-13.73-36.96,31.01-9.53,76.32,27.14,91-7.17.55-14.36-5.31-20.28-9.18-1.09,1.23,10.29,18.7,12.41,20.64,14.12,12.93,40,2.42,56.96,2.28l-14.39,5.22c9.62,3.13,22.98,15.16,32.99,14.99,4.43-.08,20.04-7.07,19.9-11.86-.02-.73-1.77-6.46-2.81-6.39-7.33,3.68-14.79,8.72-23.23,9.17l22.86-11.84-.67-3.8c-17.25,1.32-35.2,1.11-51.64-4.64,16.9,2.2,34.09,3.99,51.05,1.95-1.75-7.67-.26-15.42,1.3-22.91-7.93,2.71-16.43,6.9-24.86,5.9,6.3-1.89,21.45-6.11,26.15-10.18,3.3-2.86,5.94-12.15,10.17-15.37l14.73-13.08c-6.52-2.63-13.93.06-20.27,2.3-10.47,3.7-20.37,10.5-28.5,17.98,4.36-7.94,16.16-15.09,25.07-18.79,9.09-3.77,19.05-7.38,28.28-2.16-2.97-27.26-29.68-18.66-48.78-18.96-11.83-.19-41.59-2.34-51.82-7.09-.45-.21-2.69-1.5-.54-1.44,22.25,4.05,45.12,6.51,67.76,4.57-19.54-18.6-50.07-15.69-74.61-11.13-.34-1.85.44-1.08,1.43-1.48,4.33-1.72,13.29-3.98,17.88-4.41ZM353.28,536.83c-4.33.29-8.75-.21-13.09,0l12.44,29.45,16.03-8.49c-6.79,6.29-18.61,7.79-15.7,19.63l39.93-22.58c-9.9-6.08-22.78-1.01-33.39.97,5.21-3.94,11.99-5.11,18.29-5.92,1.04-5.45-5.33-18.11-11.24-17.55-7.24.69-4.83,15.42-13.59,17.57l5.25-13.41-.95-.95c-1.25-.11-3.1,1.21-3.98,1.27ZM4.72,539.45v37.98c17.43-8.54,40.63,7,38.13,26.55l.93.83c1.52-.62,5.43,1.65,6.03,1.38.44-.2,4.02-4.81,7.07-6.37,16.29-8.36,41.02,2.46,35.57,22.47l7.19,2.62-9.82-.34c10.62-24.47-26.94-35.5-40.25-17.18l-8.85-1.16c5.73-19.78-18.25-35.56-36-28.15v62.2c14.55-8.17,33.69.35,36.98,17.01,9.14-8.77,24.13-5.95,32.08,3.29,2.39,2.78,7.05,9.25,3.6,12.44-.83-18.69-23.67-25.43-37.31-14.41-.23-16.09-22.93-26.23-35.35-16.69v116.87c6.74-1.68,6.63,2.44,9.89,4.84,4.94,3.64,9.46,7.44,14.38,11.15,7.55,5.69,16.21,8.11,21.3,16.62,7.84-.64,22.58-11.34,29.21-10.2,7.99,1.37,31.71,26.74,40.89,31.17l18.03-7.64c10.48,5.1,18.65,13.6,27.73,20.74,4.01-.84,11.53-7.01,15.46-6.33s17.82,14.27,21.1,14.66c3.62.44,10.71-4.31,14.4-4.3,4.92.02,12.08,6.73,15.78,7.2,2.48.32,5.6-1.31,7.83-1.2,3.69.18,7.51,1.95,12.41,1.22,6.6-.98,15.46-9.5,22.25-9.24,6.17.24,11.35,7.41,16.99,9.25l102.83.02c7.04-2.28,14.34-8.87,21.52-10.56,3.62-.85,6.16.14,8.67-.43,4.36-1.01,12.77-10.78,16.3-11.3,7.03-1.04,21.09,15.01,27.57,13.25,4.09-1.11,26.17-16.99,31.16-20.57,3.57-2.56,16.36-14.08,18.5-14.89,6.58-2.47,8.61,3.86,12.39,3.6,3.83-.42,5.51-5,7.19-6.29,5.2-3.99,14.32-8.12,18.34-13.08,3.5-4.32,4.26-11.18,7.49-14.77,1.48-1.65,20.05-15.17,21.68-15.69s2.34,0,3.87.32v-77.91c-14.69,2.02-19.15,5.81-25.02,18.52-.39.83-1.17,2.07-1.18.14,2.3-12.04,14.37-19.72,26.2-19.31v-18.33c-14.89,2.98-34.01,10.94-41.15,25.29s-.55,17.65-15.98,29.2c-22.17,16.61-54.66,18.66-77.36,34.58l-5.6,6.86c1.61-6.51,8.92-10.89,14.39-13.78,19.71-10.39,66.9-19.02,77.79-38.73,3.14-5.68,2.64-11.64,5.25-17.67,6.64-15.31,27.05-24.36,42.66-26.4v-49.11c-12.67-1.65-26.23,6-28.14,19.33l1.63,11.42c-26.01-12.61-67.62,21.22-42.89,46.5-6.89.71-13.8,5.38-13.09,13.1-12.42-3.35-27.33,9.28-23.56,22.25l-6.85,2.62c-14.46-17.16-46.39-5.54-50.1,15.71l.55-5.67c7.46-15.37,25.05-23.52,41.53-17.74,2.84,1,8.14,5.61,8.65,5.63.23,0,4.05-1.74,4.18-1.93.24-.35.28-5.96,1.07-8.42,1.68-5.17,7.9-11.38,13.06-13.12,2.88-.97,9.8-.93,10.16-1.29.13-.13-.13-2.58.5-3.75,2.41-4.48,6.25-7.07,11.28-8.04-21.97-26.13,17.36-58.24,43.85-48.45-6.75-17.87,11.65-31.34,28.15-29.46l-.38-28.9c-8.7-2.99-19.31,1.28-22.87,9.91-14.09-17.51-49.07-13.86-56,8.46-7.24-2.33-12.41-.42-18.14,4.12,7.12,33.29-17.95,70.33-48.61,82-5.92,2.25-13.47,2.82-18.47,5.1-3.87,1.76-10.51,7.9-14.95,10.58-17.49,10.59-25.89,11.93-43.13-1.26,6.77,14.36,2.67,64.83-15.54,68.94-10.1,2.28-23.76-15.99-28.2-23.88-2.33-4.14-14.33-31.27-18.1-31.62-.95-.09-2.36.88-2.9,1.72-6.55,21.06-45.89,91.24-62.44,38.07-6.81-21.88.07-36.25,6.72-56.8-2.27-.05-4.38-2.38-6.71-1.87-2.76.6-12.8,9.57-18.15,10.72-17.48,3.75-30.5-15.09-43.06-17.23-10.16-1.74-20.42,5.55-34-1.31-12.91-6.52-14.39-20.97-21.11-30.43-4.14-5.84-10.64-9.65-15.19-17.72-5.97-10.59-6.91-19.27-8.09-31.19-18.04-10.56-38.23-19.42-59.22-21.29l7.54,10.12c-8.52-3.28-9.95-16.16-14.38-20.96-3.74-4.05-13.87-6.53-17.98-8.83-4.65-2.6-7.89-11.75-11.83-15.37ZM282.25,622.6c-10.17-22.6-28.52-9.65-38.49,5.04-8.09,11.92-10.16,23.22-7.65,37.53,3.16,18.01,11.07,18.15,27.82,15.05-.79-2.63-3.08-2.92-4.4-5.73-5.28-11.18,3.12-48.43,14.91-54.79,6.04-3.26,3.25,2.47,7.82,2.91ZM329.86,617.52c-5.22.96-9.09,6.71-3.07,8.72.57.19,8.99-1.17,11.99-.93,6.64.54,13.22,3.24,19.39,5.48-6.75-6.46-18.47-15.08-28.31-13.27ZM272.11,669.75c-3.23.49-7.44-.35-10.8,0-.1,1.64-.06,3.18,1.01,4.56,2.04,2.65,25.78,9.71,29.37,9.17,4.76-.72,11.26-14.13,12.81-18.65l-16.33,12.46c4.72-4.67,9.18-9.58,13.71-14.43.92-.99,2.95-1.43,3.16-1.76,2.01-3.1.79-16.64-1.53-20.13-2.29-3.43-25.13-16.77-28.77-16.46-9.14,1.21-15.96,39.98-13.96,43.17,10.19,3.38,19.81-4.07,29.35-4.49-5.66,2.03-12.01,5.66-17.99,6.56ZM335.27,646.83c-1.39-6.38-9.41-22.81-17.18-21.46-4.29.74-8.72,5.33-6.31,9.94.31.6,9.17,8.85,9.77,9.2,4.25,2.53,9.18-.14,13.72,2.32ZM307.78,632.43l-11.12-.65c4.33,4.24,6.16,2.67,11.12.65ZM290.11,687.42c13.11,6.87,16.7,4.38,23.83-7.25,10.1-16.48,13.68-33.14-6.61-43.03l-1.52.22c7.23,16.94,1.08,41.44-15.7,50.07ZM358.83,690.7c-4.1-18.37-9.37-44.24-34.03-41.24,2.05,13.12-3.81,26.8-11.77,37,10.15-6.03,17.15-17.96,17.01-29.79l1.31.96c1.04,14.11-8.14,24.43-18.21,32.85-.36,2.11,10.82,16.03,12.3,15.29,6.81-9.95,21.11-19.07,33.39-15.06ZM347.72,754.21c12.63-.73,19.17-26.1,19.67-36.3.56-11.63-4.81-48.12-11.53-57.28-1.96-2.67-4.59-4.04-7.16-5.92,12.52,26.62,20.56,57.44,8.69,85.93-2.48,5.95-5.55,8.91-9.66,13.58ZM252.15,699.21c13.07-5.36,27.05,1.95,35.01,12.43l4.91-8.2c-8.98-5.76-13.77-17.19-22.68-21.89-2.03,1.6-11.6,3.85-12.33,4.58-.55.55-5.39,12.57-4.92,13.08ZM301.7,695.48l-24.03-11.32c4.64,5.96,14.44,20.3,23.39,16.52,2.48-1.05,2.7-3.63.63-5.2ZM254.76,685.47c-1.08.21-3.86-.39-4.51.07-1.87,1.33-10,34.38-9.92,38.9.17,9.59,5.27,32.26,17.37,33.05-18.07-20.34-14.15-49.2-2.94-72.02ZM320.21,716.88c-.34-2.09,3.33-8.37,3.17-9.39s-12.78-16.13-13.83-16.04c-.28.02-4.46,2.38-4.34,3.45l15.01,21.99ZM336.85,745.44c5.32,5.45,7.87,8.97,14.12,1.88,7.75-8.78,13.45-41.07,9.14-51.66-.79-1.93-1.15-2.1-3.04-2.85-12.96-5.14-35.84,13.23-34.73,26.85.55,6.71,9.71,20.87,14.51,25.79ZM257.23,700.04c-1.35.19-4.41.97-5.43,1.77-8.5,6.75-4.52,50.89,10.44,54.35,9.63-3.86,26.42-24.21,25.93-34.34-.65-13.33-18.58-23.52-30.94-21.78ZM297.96,704.45c-4.41.68-12.68,10.78-7.52,15.04,1.15.12,7.71-12.73,7.52-15.04ZM589.9,812.48c1.48-2.69-1.12-28.26,0-33.39-8.62,4.96-17.02,7.52-20.94,17.67,1.95-11.54,13.18-13.07,20.82-19.43l-.96-28.95c-1-.27-1.92-.07-2.88.22-1.48.44-19.77,14.15-20.92,15.75-4.02,5.59-13.12,29.66-17.33,33.09l-.99.64,8.18-17.01c-3.83,4.06-10.37,6.39-14.42,9.79-2.22,1.86-2.06,4.86-6.2,6.55,5.94,2.04,11.51,6.99,17.22,9.3s11.63,2.63,17.06,5.19c2.34,1.1,6.22,5.2,6.64,5.18,1.18-.07,2.18-1.76,3.97-1.97,2.11-.25,4.18.89,5.68.54.29-.07,4.92-2.91,5.06-3.18ZM4.72,761.41v30.77c3.28,1.57,9.02,3.45,11.74,5.61,3.3,2.63,3.53,6.39,5.59,8.16,1.58,1.35,5.61,1.95,7.76,3.37,9.89,6.58,16.88,15.84,28.19,21.57,1.21.62,2.48,2.92,3.49,3.12,1.69.34,2.43-1.71,4.19-1.59,2.8.19,7.67,6.44,12.03,4.29v-1.3s29.13,1.29,29.13,1.29c-5.43-3.96-13.24-7.06-16.04-13.74,2.09,2.94,15.84,13.75,18.33,13.75h24.55c-7.3-5.21-16.56-8.42-23.51-14.13-4.34-3.57-7.21-9.4-10.3-11.96s-10.09-3.71-13.01-5.97c-4.47-3.47-4.51-12.39-8.16-16.72l.97-.33c2.05.81,4.74,13.48,7.19,15.74,2.14,1.97,10.23,3.61,13.13,5.85,3.23,2.5,6.24,9.02,10.84,12.72,2.2,1.77,23.68,14.79,25.14,14.79h27.82l-12.75-9.83c3.38-.63,13.51,9.83,14.39,9.83h14.73c-9.96-2.49-34.82-29.14-42.27-29.45-2.9-.12-10.57,6.59-14.67,6.2,9.28,6.13,20.06,10.49,27.48,19l-.96.97c-9.89-9.15-22.88-14.14-33.92-21.72-10.92-7.5-21.37-18.86-31.93-25.68-2.03-1.31-4.24-3.01-6.81-3.01-3.65,0-19.92,9.38-25.19,10.15,7.26,3.94,11.39,12.22,17,17.03,2.93,2.51,6.74,3.56,9.51,6.2,4.79,4.56,7.47,13.29,13.4,17.37-6.29-.39-9.08-9.38-13.07-13.77-6.75-7.42-20.01-17.1-27.85-24.52-12.52-11.84-22.16-17.36-35.44-27.74-3.34-2.61-4.31-8.09-10.68-6.33ZM4.72,794.15v17.35c0,.83,8.94,11.05,7.87,14.39l-7.87-12.1v22.92l62.19-.34-2.24-1.64c-5.49,4.21-6.35-1.8-8.72-2.52-1.24-.38-2.39.7-3.3.43-.35-.1-3.14-4.71-4.38-5.77-5.29-4.52-11.05-9.43-16.4-13.71-3.66-2.92-8.5-3.69-10.74-5.63-1.95-1.69-2.81-5.98-5.6-8.15-2.6-2.03-7.92-3.12-10.81-5.23ZM455.06,836.71h27.82c6.1-5.28,10.35-13.02,16.69-18.01,3.16-2.49,7.05-3.66,10.17-6.2,4.26-3.47,6.37-8.6,10.12-12.46-3.47,12.03-12.97,14.15-20.94,20.62-5.57,4.51-9.28,11.09-14.39,16.05h24.87c.22,0,.81-2.89,2.64-3.58.46-.18,8.98-2.29,9.47-2.34,4.99-.47,4.24,2.17,5.05,2.5,1.15.46,8.19,3.37,8.66,3.46.94.17,10.52.17,11.04,0,.81-.28,6.96-10.8,13.88-4.02.81-4.11,5.22-5.08,6.26-6.26,1.82-2.07,1.59-7.55,7.14-8.42l-51.39-23.93c-1.2-.16-2.13.31-3.18.79-1.95.89-13.67,11.66-17.22,14.2-14.7,10.51-29.9,20.8-46.68,27.62ZM589.9,834.09v-19.64c-1.86-.11-3.99,3.88-4.39,3.97-1.78.43-3.52-1.78-5.6-1.26-1.24.31-2.02,2.35-3.14,2.81-1.82.76-4.97.57-6.48,2.03-2.49,2.4-.61,5.75-.96,6.21-.88,1.17-3.67-.1-5.35,1.88s-.18,5.28-1.97,5.93c-4.25-1.76-11.01-5.54-13.35.69h19.96c.26,0,2.9-3.34,4.57-2.63l-2.28,2.63h12.76c.35,0,3.77-4.04,6.22-2.62ZM400.73,836.71h12.11c.47,0,5.58-5.76,7.19-5.9l-5.56,5.9h14.07c1.01,0,10.81-12.13,14.38-11.16l-12.74,11.16h19.31c1.17,0,14.22-6.25,16.03-7.85l-22.57-12.4c-2.48,0-12.63,10.16-16.88,11.23-3,.76-5.15-.05-8.94.87-5.47,1.33-11.55,5.33-16.4,8.15ZM229.23,836.06c-3.85-.81-7.45-4.5-11.44-4.65-4.56-.17-12.03,4.59-16.05,3.72-4.16-.9-17.15-13.89-21.32-14.13-.69-.04-12.69,4.86-12.7,5.56l17.38,10.1,44.13-.6ZM258.69,836.71h29.46c-11.06-10.4-17.74-6.83-29.46,0ZM525.75,836.7c-2.17-5.11-5.38-5.17-7.85-.31l7.85.31ZM515.93,836.7c-.2-2.99-2.67-2.16-3.92-.32l3.92.32ZM530.34,836.7l-1.67-1.33-2.26,1.01,3.92.32ZM589.9,835.4l-4.58,1.3h3.61s.96-1.3.96-1.3Z"/>
  <path d="M520.52,456.96c2.43,6-2.17,15.27-1.03,20.65.28,1.3,2.68,1.98,3,3.94.41,2.53-1.95,4.63-1.85,5.74.53,5.96,33.96,33.34,38.83,40.38l-.34-6.19,1.63-1.66c6.65,9.06,21.07,16.9,27.18,25.53-6.3-2-20.91-18.63-26.52-23.57l.35,8.82-1.31.33-40.28-41.89c-9.35,7.72.9,10.19,1.64,15.45.38,2.71-1.96,4.68-1.69,6.5.39,2.71,9.92,11.86,11.43,15.13,1.68,3.66.73,7.57,2.12,10.32.99,1.95,25,15.54,29.2,18.59l9.35,7.99-39.26-25.53c-1.96,5.45-9.33.94-13.44.67-12.82-.86-11.99,9.25-11.54,18.88-7.84,1.51-14.06,3.28-20.19,8.61,4.07-6.6,11.94-8.18,18.95-9.19-2.08-8.6.28-19.57,10.82-19.67,2.95-.03,12.16,3.6,13.79,1.41,2.89-11.43-6.33-18.23-12.62-26.16-1.98-.41-18.95,20.45-22.08,23.53-8.63,8.48-18.48,15.69-28.19,22.88-1.88.16-.52-.77.03-1.28,1.53-1.43,8.71-5.65,9.3-6.74l8.03-28.63-32.72,18.98c.84-2.39,4.56-4.14,6.6-5.51,4.61-3.09,24.68-13.48,26.61-15.62,1.52-1.69,1.73-7.54,3.16-10.26,2.25-4.26,11.34-7.93,11.95-9.66.95-2.68-1.19-5.86-1.19-8.39.02-4.75,4.62-11.66,8.18-14.73l.97.32c-3,3.56-7.45,9.11-7.72,13.95-.16,2.88,2.31,6.35,1.52,8.61-1.01,2.88-12.79,7.3-13.47,12.11l-11.09,37.67c14.07-9.54,24.45-22.91,35.33-35.69,2.45-2.88,7.33-4.13,6.44-8.97-.29-1.56-4.8-6.88-6.45-8.05,1.24-3.31,7.28-10.63,7.22-13.82-.04-2.16-2.42-2.9-2.66-6.45-.37-5.4,1.87-13.61,2.02-19.32Z"/>
  <path d="M455.05,800.04c-17.98-13.58-41.46-17.48-49.73,8.51,3.88-26.59,34.82-25.01,49.73-8.51Z"/>
  <path d="M394.84,812.47c-13.15-7.49-29.03-1.46-35.34,11.79,2.58-12.91,21.52-20.72,32.53-14.54l2.81,2.75Z"/>
  <path d="M404.66,806.6l-.99,1.33c-4.04-.96-7-1.14-9.48,2.59l.92-2.67c2.74-2.58,6.18-2.01,9.55-1.24Z"/>
  <path d="M292.73,776.47c-.39-.45.3-2.6.98-2.6,1.99.01.13,3.85-.98,2.6Z"/>
  <path d="M316.94,755.52c.4.61-.48,1.89-1.3,1.96-.57-1.2.59-3.05,1.3-1.96Z"/>
  <path d="M535.56,735.22c-14-11.03-44.55-1.1-43.18,18.65.15,2.11,1.89,5.44,1.81,6.46s-1.85,2.7-2.2,4.31c-.57,2.68.83,4.71-.6,6.58-5.99-3.22-13.81-4.29-19.32.34-1.98,1.66-3.02,4.77-3.28,4.91-.19.1-1.66-1.49-4.16-1.28-2.87.25-4.99,2.46-7.61,3.23,2.43-4.77,9.21-3,11.64-4.07.31-.14,3.02-4.09,4.39-5.1,5.8-4.28,11.31-3.07,17.35,0-1.8-3.26,2.31-8.33,2.38-9.5.15-2.57-2.81-6.75-1.41-12.78,3.37-14.42,31.54-22.9,43.2-13.73,5.02-19.29,33.67-33.06,47.15-14.43-15.25-16.38-42.07-3.6-46.16,16.38Z"/>
  <path d="M251.49,784.34c.22,1.09-1.06.58-1.96.64v-.64h1.96Z"/>
  <path d="M174.9,692.67c.84.84-2.14.84-1.3,0,.05-.05,1.25-.05,1.3,0Z"/>
  <path d="M483.87,659.26c12.59.56,16.14,10.97,4.92,19.02-23.45,16.82-64.44,10.98-86.73,32.4,13.89-21.62,81.05-20.07,91.26-38.99,3.51-6.5-3.61-11.68-9.45-12.42Z"/>
  <path d="M131.13,710.91c.76.53,8.4-.4,12.68,2.71.63.46,1.76,1.7-.14.79-4.51-1.83-9.07-3.56-13.93-2.11-.42-11.73-13.91-11.75-22.25-8.51-.32-7.77-6.37-11.83-12.44-15.05,7.53.4,11.18,7.17,14.16,13.03,6.17-1.98,15.07-2.12,19.52,3.36,1.15,1.42,2.15,5.6,2.4,5.78Z"/>
  <path d="M370.63,650.75c-.12-1.22,1.36-.64,1.94-.31,4.59,2.6,8.05,6.05,13.58,8.02,34.33,12.25,65.7-7.87,83.95-35.86l-2.74,6.09c-19.83,32.68-65.28,49.19-96.74,22.05Z"/>
  <path d="M434.11,638.33c-14.1.11-28.49-5.26-41.68-10.37l-27.04-17.14c21.31,12.66,44.18,22.88,68.72,27.51Z"/>
  <path d="M190.61,646.84c-25.42-.6-53.68-14.78-67.41-36.67,17.02,20.04,41.29,33.13,67.41,36.67Z"/>
  <path d="M69.52,477.25l7.22-3.67,12.86,12.09c1.81.05,4.16-6.59,8.06-4.84,1.58.71,11.54,17.97,11.78,21.3l-12.43-20.01-7.37,4.87c-4.71-.78-11.28-13.01-14.89-12.1l-60.2,64.57c9.01-14.46,23.95-24.06,35.02-36.66,2.22-2.53,18.38-22.83,18.94-24.26,2.95-7.53,1.91-20,7.23-27.47l-6.21,26.19Z"/>
  <path d="M63.44,460.04c-.32.41-6.59,4.27-7.17,4.36-2.05.32-2.02-1.37-2.78-1.39-4.71-.16-31.81,34.03-37.64,38.47-.01-1.32,1.2-2.57,1.98-3.58,4.07-5.22,30.3-34.89,34.51-35.62,1.94-.34,2.15,1.18,4.39.63,7.92-1.93,8.64-12.99,12.14-19.04-.13,3.29-3.75,14.02-5.44,16.17Z"/>
  <polygon points="164.44 513.92 177.21 536.82 156.58 505.08 195.84 538.48 164.44 513.92"/>
  <path d="M139.57,455.65c8.82,15.67,21.68,28.14,33.71,41.23-11.41-9.95-21.96-21.19-30.32-33.83l-3.39-7.4Z"/>
  <path d="M152.64,538.14c-5.24-3.73-11.77-8.42-14.39-14.4l14.39,14.4Z"/>
  <path d="M126.79,449.11l12.45,17.65c-5.57-4.48-9.85-11.06-12.45-17.65Z"/>
  <path d="M77.38,423.56c.8-3.17,1.82-7.27,3.91-9.82-.6,3.19-1.61,7.4-3.91,9.82Z"/>
  <polygon points="106.16 534.22 112.4 545.99 104.87 534.54 106.16 534.22"/>
  <polygon points="177.85 537.49 178.18 537.82 177.85 538.14 177.85 537.49"/>
  <path d="M415.12,538.8c.93.96-7.49,8.12-8.18,9.15.14-1.32,7.75-9.59,8.18-9.15Z"/>
  <path d="M383.06,483.15c-14.37,13.23-39.6,4-53.66-5.58,16.85,7.61,35.92,15.09,53.66,5.58Z"/>
  <path d="M407.28,436.99c-.89,7.08-5.72,16.4-11.79,20.29,7.69-8.63,10.55-19.18,11.79-30.44-.29,3.23.39,7.01,0,10.15Z"/>
  <path d="M258.04,468.75c-12.57,8.99-31.38,18.67-47.12,13.41,16.77,1.82,32.51-6.33,47.12-13.41Z"/>
  <path d="M186.03,430.11c.3,10.51,4.38,20.28,11.13,28.14-7.47-3.57-12.16-16.9-12.42-24.56-.04-1.34-.79-4.16,1.29-3.58Z"/>
  <path d="M339.2,259.88c-3.05,9.26-16.97,13.33-24.52,6.52-8.46-7.63,5.3-1.68,6.68-1.45,7.35,1.21,11.72-2.07,17.84-5.07Z"/>
  <path d="M282.26,262.5c-6.54,9.68-21.41,10.13-26.18-1.31,9.43,3.62,16.4,5.27,26.18,1.31Z"/>
  <path d="M282.91,297.86c9.85,2.93,22.12,4.95,30.76-1.97,4.91,6.01-28.28,9.52-30.76,1.97Z"/>
  <path d="M296,289.34c-3.75-.47-5.39-3.2-6.97-6.23l5.02-12.1c2.74,7.91-5.51,11.47,1.95,18.32Z"/>
  <path d="M57.08,817.06c-5.23-3.47-9.57-12.45-13.7-16.07s-11.93-6.5-15.42-12.07l-5.89-9.16c3.12,2.88,5.33,7.11,8.27,10.06,4.79,4.81,11.08,7.78,15.31,12.18s7.53,10.43,11.44,15.06Z"/>
  <path d="M30.24,802.01c-6.8-5.74-10.39-14.38-18.32-18.98,8.83,2.96,12.97,12.05,18.32,18.98Z"/>
  <path d="M152,826.22c-.48.44-3.19-.99-3.27-1.95,1.44-.24,2.76.6,3.27,1.95Z"/>
  <path d="M73.11,830.83c.5.74,2.3,1.58,1.98,2.59-.49-.74-2.29-1.56-1.98-2.59Z"/>
  <polygon points="78.36 832.12 78.69 832.45 78.36 832.78 78.36 832.12"/>
  <path d="M346.4,392.79c-6,13.94-17.26,24.3-27.16,35.34l27.16-35.34Z"/>
  <path d="M287.48,358.09c-4.46-5.14-7.76-11.52-8.49-18.33l8.49,18.33Z"/>
  <path d="M314.99,339.76c.36,6.29-3.86,12.52-8.2,17l8.2-17Z"/>
  <path d="M539.5,457.62c.84.84-2.14.84-1.3,0,.05-.05,1.25-.05,1.3,0Z"/>
  <polygon points="540.48 457.61 540.81 457.94 540.48 458.27 540.48 457.61"/>
  <path d="M553.24,821.66c-4.46,1.71-8.93-3.72-12.76-5.3l-3.59-.59c5.97-2.17,10.35,5.39,16.35,5.89Z"/>
  <path d="M538.18,823.61c-2.36-4.7-6.51-4.82-10.14-1.31.41-4.27,10.37-5.01,10.14,1.31Z"/>
  <path d="M518.55,818.37l-2.91-1.98-5.6,3.94c1.37-3.58,7.04-7.98,8.51-1.96Z"/>
  <path d="M540.14,822.3c-.05.05-1.38.25-1.29-.32l2.29-2.94c-.05.57-.88,3.14-1,3.26Z"/>
  <path d="M573.53,768.61c-7.88,8.8-9.65,22.63-20.62,28.79,9.7-7.83,11.22-21.79,20.62-28.79Z"/>
  <path d="M576.81,794.14c-.41.43-7.94,4.37-9.14,5.58l6.33-5.45,2.5-1.43c.56-.09.37,1.24.32,1.29Z"/>
  <path d="M27.62,827.54c-2.71-2.49-5.31-6.34-6.53-9.82,2.9,2.22,5.03,6.53,6.53,9.82Z"/>
  <path d="M31.55,826.23c-2.39-1.47-3.17-5.26-3.91-7.86,2.48,1.44,2.85,5.3,3.91,7.86Z"/>
  <path d="M21.08,822.31l-.32,4.58c-1.15-.86-2.03-5.19.32-4.58Z"/>
  <polygon points="18.45 823.62 19.11 826.89 17.2 824.55 17.16 823.62 18.45 823.62"/>
  <path d="M455.71,830.17c-1.86,1.47-5.4-1.97-6.54-3.28l6.54,3.28Z"/>
  <path d="M500.64,255.54c10.52,11.15,33.96,24.08,15.31,41.35-26.74,24.76-92.51,6.79-125.02,21.6,22.28-17.25,84.98-9.05,101.79-27.81,16.52-18.44-19.88-31.11-21.24-45.6-1.65-17.47,31.63-24.98,43.58-32.23,17.73-10.75,19.03-26.48,13.97-45.28,13.36,25.92,11.25,42.53-13.97,57.72-14.89,8.97-33.21,10.33-14.42,30.25Z" fill="#fff"/>
  <polygon points="382.73 322.73 383.06 323.06 382.73 323.39 382.73 322.73" fill="#fff"/>
  <polygon points="389.93 318.8 390.26 319.13 389.93 319.46 389.93 318.8" fill="#fff"/>
  <path d="M216.8,47.08c.08-.96,2.44-1.56,3.25-1.64-.81.92-1.98,1.62-3.25,1.64Z" fill="#fff"/>
  <polygon points="221.05 44.47 221.38 44.79 221.05 45.12 221.05 44.47" fill="#fff"/>
</svg>